<?xml version="1.0" encoding="UTF-8"?>
<svg width="23px" height="16px" viewBox="0 0 23 16" version="1.1" xmlns="http://www.w3.org/2000/svg" xmlns:xlink="http://www.w3.org/1999/xlink">
    <title>AD8EA85C-076A-4693-9230-6060264B9DC6@1x</title>
    <g id="Dokodemo-Web-Profile" stroke="none" stroke-width="1" fill="none" fill-rule="evenodd">
        <g id="Desktop-" transform="translate(-183.000000, -1228.000000)" fill="#468FD3" fill-rule="nonzero">
            <g id="Group-3" transform="translate(175.000000, 1101.000000)">
                <g id="Group-5-Copy" transform="translate(20.000000, 135.000000) scale(-1, 1) translate(-20.000000, -135.000000) translate(0.000000, 115.000000)">
                    <g id="download-arrow" transform="translate(20.306452, 20.068548) rotate(-90.000000) translate(-20.306452, -20.068548) translate(12.806452, 9.193548)">
                        <path d="M12.9789387,12.8773861 C13.3927864,12.4541071 14.044317,12.4541071 14.4581647,12.8773861 C14.8580311,13.3006651 14.8580311,13.9670436 14.4581647,14.3903226 L8.25976946,20.7309278 C8.06775902,20.927314 7.80118142,21.0483871 7.50570905,21.0483871 C7.21023667,21.0483871 6.94365907,20.927314 6.75071654,20.7309278 L0.552321291,14.3903226 C0.138473548,13.9670436 0.138473548,13.3006651 0.552321291,12.8773861 C0.966169034,12.4541071 1.6176996,12.4541071 2.03154735,12.8773861 L6.45524417,17.4171489 L6.45524417,1.30108635 C6.45431208,0.710974393 6.92781355,0.241935484 7.50477696,0.241935484 C8.08174037,0.241935484 8.54032841,0.710974393 8.54032841,1.30108635 L8.54032841,17.4161955 L12.9789387,12.8773861 Z" id="Path"></path>
                    </g>
                </g>
            </g>
        </g>
    </g>
</svg>