<?xml version="1.0" encoding="UTF-8"?>
<svg width="20px" height="20px" viewBox="0 0 20 20" version="1.1" xmlns="http://www.w3.org/2000/svg" xmlns:xlink="http://www.w3.org/1999/xlink">
    <title>3781A38C-CD21-4A57-9680-B9C573B996CA@1x</title>
    <g id="Dokodemo-Web-Profile" stroke="none" stroke-width="1" fill="none" fill-rule="evenodd">
        <g id="icons" transform="translate(-195.000000, -74.000000)">
            <g id="apartment" transform="translate(195.000000, 74.000000)">
                <rect id="Rectangle" fill="#FFCA13" x="10" y="6" width="6" height="11"></rect>
                <path d="M4,18 C5.0887471,16.6666354 6.25541377,15.9999531 7.5,15.9999531 C8.74458623,15.9999531 9.9112529,16.6666354 11,18 L11,19 L4,19 L4,18 Z" id="Rectangle-Copy-16" fill="#FFCA13"></path>
                <path d="M19.6666797,19.333319 L18.3127344,19.333319 C18.3269531,19.2237875 18.3333594,19.1119514 18.3333594,19 C18.3333594,18.0591368 17.7919141,17.2582759 17.0000391,16.8874158 L17.0000391,5.6666517 C17.0000391,5.46665131 16.8667188,5.33333074 16.6667188,5.33333074 L11.6667188,5.33333074 L11.6667188,0.333320972 C11.6667188,0.133320581 11.5333984,0 11.3333984,0 L2.33339844,0 C2.13332031,0 2,0.133281519 2,0.333281909 L2,19.333319 L0.333320312,19.333319 C0.133320312,19.333319 0,19.4666396 0,19.66664 C0,19.8666404 0.133320312,20 0.333320312,20 L2.33332031,20 L3.33332031,20 L11.3333203,20 L17.9,20 L19.6666797,20 C19.8666797,20 20,19.8666794 20,19.666679 C20,19.4666786 19.8666797,19.333319 19.6666797,19.333319 Z M16.3333203,16.6901888 C16.2245312,16.6749935 16.1133594,16.6666341 16,16.6666341 C15.7483594,16.6666341 15.5015234,16.7094858 15.2683203,16.7896031 C15.2102344,16.7121811 15.1166016,16.6666341 15,16.6666341 C14.8,16.6666341 14.6666797,16.7999547 14.6666797,16.9999551 L14.6666797,17.1021037 C14.5403516,17.1931195 14.4228906,17.2969478 14.3162891,17.4123778 C14.2994531,17.4301903 14.2828906,17.4482372 14.2666797,17.4665966 C13.9904687,17.1213225 13.6346875,16.8715564 13.2324219,16.7499546 C13.1746484,16.6969467 13.095,16.6665951 13,16.6665951 C12.9628516,16.6665951 12.9280078,16.6712435 12.8958594,16.6800326 C12.8205859,16.6712435 12.7441406,16.6665951 12.6666797,16.6665951 C12.4577734,16.6665951 12.2225391,16.6937045 12.0319531,16.7710874 C12.0083594,16.7790562 11.9849219,16.7872594 11.9617187,16.7960484 C11.7313672,16.6087824 11.4619531,16.4739775 11.1780469,16.3997977 C11.1750391,16.3989773 11.1719531,16.3983914 11.1689844,16.3975711 C11.1442187,16.3912039 11.119375,16.3851492 11.0944141,16.3797195 C11.0741797,16.3752664 11.0537109,16.3713992 11.0332812,16.367571 C11.0244141,16.3659304 11.0155469,16.3641726 11.0066406,16.3626491 C10.9851953,16.3589382 10.9636719,16.3556569 10.9419922,16.3526491 C10.9323047,16.3512819 10.9226172,16.350071 10.9128906,16.3488601 C10.8930078,16.3463991 10.8730469,16.3440944 10.8529687,16.3422585 C10.8383203,16.3408913 10.8236328,16.3398757 10.8089453,16.338821 C10.7932422,16.3377272 10.7775781,16.3364382 10.7617578,16.335696 C10.7300781,16.3341725 10.6983984,16.333235 10.6666797,16.333235 C10.6421484,16.333235 10.6178125,16.3337428 10.5935937,16.3346413 C10.5777344,16.3351882 10.5619141,16.3361647 10.5460937,16.3370632 C10.5397656,16.3374538 10.5333594,16.3377272 10.5270312,16.3381569 C10.2233594,16.3583132 9.925,16.4440165 9.66664062,16.5958137 L9.66664062,5.99997266 L11.3333203,5.99997266 L16.3333203,5.99997266 L16.3333203,16.6901888 L16.3333203,16.6901888 Z M2.66667969,0.666641935 L11,0.666641935 L11,5.33333074 L9.33332031,5.33333074 C9.13332031,5.33333074 9,5.46665131 9,5.66664194 L9,16.0333516 C8.82964844,15.8629997 8.63328125,15.7188979 8.41949219,15.6061242 C8.400625,15.5960461 8.3815625,15.5862804 8.36242188,15.5767492 C8.35488281,15.5730382 8.34742188,15.569171 8.33984375,15.5655382 C8.10195313,15.4501474 7.84308594,15.3744441 7.57257813,15.3461237 C7.56878906,15.3457331 7.56496094,15.3454206 7.56113281,15.34503 C7.52972656,15.341905 7.49816406,15.339444 7.46644531,15.3376081 C7.45804687,15.3371003 7.44964844,15.3365925 7.44121094,15.3361628 C7.40539063,15.3344831 7.36945313,15.3333503 7.33332031,15.3333503 C6.83722656,15.3333503 6.37761719,15.4965146 6,15.7707339 L6,15.6667103 C6,15.4667099 5.86667969,15.3333893 5.66667969,15.3333893 C5.46667969,15.3333893 5.33335938,15.4667099 5.33335938,15.6667103 L5.33335938,16.3333913 C5.33335938,16.3833914 5.34167969,16.4292118 5.35730469,16.4698369 C5.19363281,16.7395639 5.08085938,17.043627 5.03335938,17.3667527 C4.64960938,17.4106199 4.29871094,17.5487062 4.00003906,17.7551519 L4.00003906,17.6667533 C4.00003906,17.4667529 3.86671875,17.3334323 3.66671875,17.3334323 C3.46671875,17.3334323 3.33339844,17.4667529 3.33339844,17.6667533 L3.33339844,18.3334342 C3.33339844,18.3723406 3.33859375,18.4086297 3.34820313,18.4419891 C3.18292969,18.7092944 3.07046875,19.0117559 3.02414063,19.3333971 L2.66667969,19.3333971 L2.66667969,0.666641935 L2.66667969,0.666641935 Z M5.18164062,18.0069102 C5.18824219,18.0063242 5.19492187,18.0059336 5.2015625,18.0054258 C5.21914062,18.0040586 5.23671875,18.0027305 5.25445312,18.0019102 C5.28058594,18.0007383 5.306875,17.9999531 5.33335937,17.9999531 C5.53335937,17.9999531 5.66667969,17.8666365 5.66667969,17.6666361 C5.66667969,16.7333139 6.4,15.9999531 7.33335937,15.9999531 C8.16667969,15.9999531 8.86667969,16.5999543 8.96667969,17.4332762 C8.98921875,17.5234327 9.04273437,17.5977297 9.1159375,17.6471048 C9.12054687,17.650347 9.12527344,17.6533939 9.13007812,17.6564017 C9.13523437,17.6595657 9.14035156,17.6627689 9.14570312,17.6656595 C9.15800781,17.6724564 9.17082031,17.6786673 9.18417969,17.6840189 C9.1846875,17.6842142 9.18515625,17.6844095 9.18566406,17.6846439 C9.2009375,17.6907377 9.216875,17.6958549 9.23332031,17.6999564 C9.23335937,17.6999564 9.23335937,17.6999564 9.23339844,17.6999955 C9.25324219,17.7065971 9.27578125,17.7091362 9.29960937,17.708394 C9.40917969,17.7099955 9.51109375,17.6500735 9.56667969,17.5667531 C9.56667969,17.566714 9.56671875,17.566714 9.56675781,17.5666749 C9.56675781,17.5666749 9.56675781,17.5666749 9.56675781,17.5666749 L9.60007812,17.5333546 C9.86675781,17.2000336 10.2333984,17.0000332 10.6667578,17.0000332 C10.8918359,17.0000332 11.1167969,17.0630802 11.3187109,17.1809711 C10.9210938,17.554839 10.695625,18.0422227 10.6694141,18.5637081 C10.6676563,18.5978098 10.6667578,18.6321848 10.6667578,18.6667161 C10.6667578,18.8985135 10.7053125,19.1206623 10.7816016,19.3333971 L3.7,19.3333971 C3.85601562,18.6157004 4.45015625,18.0733556 5.18164062,18.0069102 Z M11.5685156,19.3333151 C11.4411719,19.117928 11.3666797,18.863279 11.3666797,18.6333176 C11.3666797,18.2647232 11.5119922,17.9326522 11.7617578,17.6899174 C11.8094922,17.6456595 11.8603906,17.6048 11.9141406,17.5678078 C11.9662109,17.5681984 12.0185937,17.557339 12.0666797,17.5333155 C12.8,17.1333147 13.6666797,17.4999951 13.9333594,18.2333169 C13.9666797,18.3333151 14.0666797,18.4333173 14.2333594,18.4333173 C14.265,18.4333173 14.3,18.4232391 14.3351562,18.4053484 C14.4187891,18.3916375 14.4849219,18.3302311 14.5333594,18.2333169 C14.6625391,17.9588241 14.8625391,17.7396831 15.1059766,17.58605 C15.1585156,17.5714015 15.2036328,17.545464 15.2395312,17.5102686 C15.4684766,17.3951902 15.7280078,17.3333151 16.0000391,17.3333151 C16.9333594,17.3333151 17.6667187,18.0666368 17.6667187,18.999998 C17.6667187,19.0999982 17.6667187,19.2333188 17.6333984,19.3333151 L11.5685156,19.3333151 L11.5685156,19.3333151 Z" id="Shape" fill="#3B81BF" fill-rule="nonzero"></path>
                <path d="M11.2,8.8 C10.9599906,8.8 10.8,8.91998945 10.8,9.09999121 L10.8,9.70000879 C10.8,9.88001055 10.9599906,10 11.2,10 C11.4400094,10 11.6,9.88001055 11.6,9.70000879 L11.6,9.09999121 C11.6,8.91998945 11.4400094,8.8 11.2,8.8 Z" id="Path" fill="#3B81BF" fill-rule="nonzero"></path>
                <path d="M11.2,14.8 C10.9599906,14.8 10.8,14.9199895 10.8,15.0999912 L10.8,15.7000088 C10.8,15.8800105 10.9599906,16 11.2,16 C11.4400094,16 11.6,15.8800105 11.6,15.7000088 L11.6,15.0999912 C11.6,14.9199895 11.4400094,14.8 11.2,14.8 Z" id="Path" fill="#3B81BF" fill-rule="nonzero"></path>
                <path d="M11.2,10.8 C10.9599906,10.8 10.8,10.9199895 10.8,11.0999912 L10.8,11.7000088 C10.8,11.8800105 10.9599906,12 11.2,12 C11.4400094,12 11.6,11.8800105 11.6,11.7000088 L11.6,11.0999912 C11.6,10.9199895 11.4400094,10.8 11.2,10.8 Z" id="Path" fill="#3B81BF" fill-rule="nonzero"></path>
                <path d="M11.2,12.8 C10.9599906,12.8 10.8,12.9199895 10.8,13.0999912 L10.8,13.7000088 C10.8,13.8800105 10.9599906,14 11.2,14 C11.4400094,14 11.6,13.8800105 11.6,13.7000088 L11.6,13.0999912 C11.6,12.9199895 11.4400094,12.8 11.2,12.8 Z" id="Path" fill="#3B81BF" fill-rule="nonzero"></path>
                <path d="M11.2,6.8 C10.9599906,6.8 10.8,6.91998945 10.8,7.09999121 L10.8,7.70000879 C10.8,7.88001055 10.9599906,8 11.2,8 C11.4400094,8 11.6,7.88001055 11.6,7.70000879 L11.6,7.09999121 C11.6,6.91998945 11.4400094,6.8 11.2,6.8 Z" id="Path" fill="#3B81BF" fill-rule="nonzero"></path>
                <path d="M13.2,10 C13.4400094,10 13.6,9.88001055 13.6,9.70000879 L13.6,9.09999121 C13.6,8.91998945 13.4400094,8.8 13.2,8.8 C12.9599906,8.8 12.8,8.91998945 12.8,9.09999121 L12.8,9.70000879 C12.8,9.88001055 12.9599906,10 13.2,10 Z" id="Path" fill="#3B81BF" fill-rule="nonzero"></path>
                <path d="M13.2,8 C13.4400094,8 13.6,7.88001055 13.6,7.70000879 L13.6,7.09999121 C13.6,6.91998945 13.4400094,6.8 13.2,6.8 C12.9599906,6.8 12.8,6.91998945 12.8,7.09999121 L12.8,7.70000879 C12.8,7.88001055 12.9599906,8 13.2,8 Z" id="Path" fill="#3B81BF" fill-rule="nonzero"></path>
                <path d="M13.2,12 C13.4400094,12 13.6,11.8800105 13.6,11.7000088 L13.6,11.0999912 C13.6,10.9199895 13.4400094,10.8 13.2,10.8 C12.9599906,10.8 12.8,10.9199895 12.8,11.0999912 L12.8,11.7000088 C12.8,11.8800105 12.9599906,12 13.2,12 Z" id="Path" fill="#3B81BF" fill-rule="nonzero"></path>
                <path d="M13.2,14 C13.4400094,14 13.6,13.8800105 13.6,13.7000088 L13.6,13.0999912 C13.6,12.9199895 13.4400094,12.8 13.2,12.8 C12.9599906,12.8 12.8,12.9199895 12.8,13.0999912 L12.8,13.7000088 C12.8,13.8800105 12.9599906,14 13.2,14 Z" id="Path" fill="#3B81BF" fill-rule="nonzero"></path>
                <path d="M13.2,16 C13.4400094,16 13.6,15.8800105 13.6,15.7000088 L13.6,15.0999912 C13.6,14.9199895 13.4400094,14.8 13.2,14.8 C12.9599906,14.8 12.8,14.9199895 12.8,15.0999912 L12.8,15.7000088 C12.8,15.8800105 12.9599906,16 13.2,16 Z" id="Path" fill="#3B81BF" fill-rule="nonzero"></path>
                <path d="M15.2,12 C15.4400094,12 15.6,11.8800105 15.6,11.7000088 L15.6,11.0999912 C15.6,10.9199895 15.4400094,10.8 15.2,10.8 C14.9599906,10.8 14.8,10.9199895 14.8,11.0999912 L14.8,11.7000088 C14.8,11.8800105 14.9599906,12 15.2,12 Z" id="Path" fill="#3B81BF" fill-rule="nonzero"></path>
                <path d="M15.2,10 C15.4400094,10 15.6,9.88001055 15.6,9.70000879 L15.6,9.09999121 C15.6,8.91998945 15.4400094,8.8 15.2,8.8 C14.9599906,8.8 14.8,8.91998945 14.8,9.09999121 L14.8,9.70000879 C14.8,9.88001055 14.9599906,10 15.2,10 Z" id="Path" fill="#3B81BF" fill-rule="nonzero"></path>
                <path d="M15.2,16 C15.4400094,16 15.6,15.8800105 15.6,15.7000088 L15.6,15.0999912 C15.6,14.9199895 15.4400094,14.8 15.2,14.8 C14.9599906,14.8 14.8,14.9199895 14.8,15.0999912 L14.8,15.7000088 C14.8,15.8800105 14.9599906,16 15.2,16 Z" id="Path" fill="#3B81BF" fill-rule="nonzero"></path>
                <path d="M15.2,14 C15.4400094,14 15.6,13.8800105 15.6,13.7000088 L15.6,13.0999912 C15.6,12.9199895 15.4400094,12.8 15.2,12.8 C14.9599906,12.8 14.8,12.9199895 14.8,13.0999912 L14.8,13.7000088 C14.8,13.8800105 14.9599906,14 15.2,14 Z" id="Path" fill="#3B81BF" fill-rule="nonzero"></path>
                <path d="M15.2,8 C15.4400094,8 15.6,7.88001055 15.6,7.70000879 L15.6,7.09999121 C15.6,6.91998945 15.4400094,6.8 15.2,6.8 C14.9599906,6.8 14.8,6.91998945 14.8,7.09999121 L14.8,7.70000879 C14.8,7.88001055 14.9599906,8 15.2,8 Z" id="Path" fill="#3B81BF" fill-rule="nonzero"></path>
                <path d="M3.60000001,12.8 C3.84000938,12.8 4,12.6800105 4,12.5000088 L4,11.8999912 C4,11.7199895 3.84000938,11.6 3.60000001,11.6 C3.35999063,11.6 3.2,11.7199895 3.2,11.8999912 L3.2,12.5000088 C3.19995313,12.6799754 3.35999063,12.8 3.60000001,12.8 Z" id="Path" fill="#3B81BF" fill-rule="nonzero"></path>
                <path d="M3.60000001,14.8 C3.84000938,14.8 4,14.6800105 4,14.5000088 L4,13.8999912 C4,13.7199895 3.84000938,13.6 3.60000001,13.6 C3.35999063,13.6 3.2,13.7199895 3.2,13.8999912 L3.2,14.5000088 C3.19995313,14.6799754 3.35999063,14.8 3.60000001,14.8 Z" id="Path" fill="#3B81BF" fill-rule="nonzero"></path>
                <path d="M3.60000001,16.8 C3.84000938,16.8 4,16.6800105 4,16.5000088 L4,15.8999912 C4,15.7199895 3.84000938,15.6 3.60000001,15.6 C3.35999063,15.6 3.2,15.7199895 3.2,15.8999912 L3.2,16.5000088 C3.19995313,16.6799754 3.35999063,16.8 3.60000001,16.8 Z" id="Path" fill="#3B81BF" fill-rule="nonzero"></path>
                <path d="M3.60000001,2.8 C3.84000938,2.8 4,2.68001055 4,2.50000879 L4,1.89999121 C4,1.71998945 3.84000938,1.6 3.60000001,1.6 C3.35999063,1.6 3.2,1.71998945 3.2,1.89999121 L3.2,2.50000879 C3.19995313,2.67997539 3.35999063,2.8 3.60000001,2.8 Z" id="Path" fill="#3B81BF" fill-rule="nonzero"></path>
                <path d="M3.60000001,4.8 C3.84000938,4.8 4,4.68001055 4,4.50000879 L4,3.89999121 C4,3.71998945 3.84000938,3.6 3.60000001,3.6 C3.35999063,3.6 3.2,3.71998945 3.2,3.89999121 L3.2,4.50000879 C3.19995313,4.67997539 3.35999063,4.8 3.60000001,4.8 Z" id="Path" fill="#3B81BF" fill-rule="nonzero"></path>
                <path d="M3.60000001,6.8 C3.84000938,6.8 4,6.68001055 4,6.50000879 L4,5.89999121 C4,5.71998945 3.84000938,5.6 3.60000001,5.6 C3.35999063,5.6 3.2,5.71998945 3.2,5.89999121 L3.2,6.50000879 C3.19995313,6.67997539 3.35999063,6.8 3.60000001,6.8 Z" id="Path" fill="#3B81BF" fill-rule="nonzero"></path>
                <path d="M3.60000001,8.8 C3.84000938,8.8 4,8.68001055 4,8.50000879 L4,7.89999121 C4,7.71998945 3.84000938,7.6 3.60000001,7.6 C3.35999063,7.6 3.2,7.71998945 3.2,7.89999121 L3.2,8.50000879 C3.19995313,8.67997539 3.35999063,8.8 3.60000001,8.8 Z" id="Path" fill="#3B81BF" fill-rule="nonzero"></path>
                <path d="M3.60000001,10.8 C3.84000938,10.8 4,10.6800105 4,10.5000088 L4,9.89999121 C4,9.71998945 3.84000938,9.6 3.60000001,9.6 C3.35999063,9.6 3.2,9.71998945 3.2,9.89999121 L3.2,10.5000088 C3.19995313,10.6799754 3.35999063,10.8 3.60000001,10.8 Z" id="Path" fill="#3B81BF" fill-rule="nonzero"></path>
                <path d="M5.60000001,4.8 C5.84000938,4.8 6,4.68001055 6,4.50000879 L6,3.89999121 C6,3.71998945 5.84000938,3.6 5.60000001,3.6 C5.35999063,3.6 5.2,3.71998945 5.2,3.89999121 L5.2,4.50000879 C5.19995313,4.67997539 5.35999063,4.8 5.60000001,4.8 Z" id="Path" fill="#3B81BF" fill-rule="nonzero"></path>
                <path d="M5.60000001,2.8 C5.84000938,2.8 6,2.68001055 6,2.50000879 L6,1.89999121 C6,1.71998945 5.84000938,1.6 5.60000001,1.6 C5.35999063,1.6 5.2,1.71998945 5.2,1.89999121 L5.2,2.50000879 C5.19995313,2.67997539 5.35999063,2.8 5.60000001,2.8 Z" id="Path" fill="#3B81BF" fill-rule="nonzero"></path>
                <path d="M5.60000001,8.8 C5.84000938,8.8 6,8.68001055 6,8.50000879 L6,7.89999121 C6,7.71998945 5.84000938,7.6 5.60000001,7.6 C5.35999063,7.6 5.2,7.71998945 5.2,7.89999121 L5.2,8.50000879 C5.19995313,8.67997539 5.35999063,8.8 5.60000001,8.8 Z" id="Path" fill="#3B81BF" fill-rule="nonzero"></path>
                <path d="M5.60000001,6.8 C5.84000938,6.8 6,6.68001055 6,6.50000879 L6,5.89999121 C6,5.71998945 5.84000938,5.6 5.60000001,5.6 C5.35999063,5.6 5.2,5.71998945 5.2,5.89999121 L5.2,6.50000879 C5.19995313,6.67997539 5.35999063,6.8 5.60000001,6.8 Z" id="Path" fill="#3B81BF" fill-rule="nonzero"></path>
                <path d="M5.60000001,10.8 C5.84000938,10.8 6,10.6800105 6,10.5000088 L6,9.89999121 C6,9.71998945 5.84000938,9.6 5.60000001,9.6 C5.35999063,9.6 5.2,9.71998945 5.2,9.89999121 L5.2,10.5000088 C5.19995313,10.6799754 5.35999063,10.8 5.60000001,10.8 Z" id="Path" fill="#3B81BF" fill-rule="nonzero"></path>
                <path d="M5.60000001,12.8 C5.84000938,12.8 6,12.6800105 6,12.5000088 L6,11.8999912 C6,11.7199895 5.84000938,11.6 5.60000001,11.6 C5.35999063,11.6 5.2,11.7199895 5.2,11.8999912 L5.2,12.5000088 C5.19995313,12.6799754 5.35999063,12.8 5.60000001,12.8 Z" id="Path" fill="#3B81BF" fill-rule="nonzero"></path>
                <path d="M5.60000001,14.8 C5.84000938,14.8 6,14.6800105 6,14.5000088 L6,13.8999912 C6,13.7199895 5.84000938,13.6 5.60000001,13.6 C5.35999063,13.6 5.2,13.7199895 5.2,13.8999912 L5.2,14.5000088 C5.19995313,14.6799754 5.35999063,14.8 5.60000001,14.8 Z" id="Path" fill="#3B81BF" fill-rule="nonzero"></path>
                <path d="M7.60000001,6.8 C7.84000938,6.8 8,6.68001055 8,6.50000879 L8,5.89999121 C8,5.71998945 7.84000938,5.6 7.60000001,5.6 C7.35999063,5.6 7.2,5.71998945 7.2,5.89999121 L7.2,6.50000879 C7.19995313,6.67997539 7.35999063,6.8 7.60000001,6.8 Z" id="Path" fill="#3B81BF" fill-rule="nonzero"></path>
                <path d="M7.60000001,4.8 C7.84000938,4.8 8,4.68001055 8,4.50000879 L8,3.89999121 C8,3.71998945 7.84000938,3.6 7.60000001,3.6 C7.35999063,3.6 7.2,3.71998945 7.2,3.89999121 L7.2,4.50000879 C7.19995313,4.67997539 7.35999063,4.8 7.60000001,4.8 Z" id="Path" fill="#3B81BF" fill-rule="nonzero"></path>
                <path d="M7.60000001,2.8 C7.84000938,2.8 8,2.68001055 8,2.50000879 L8,1.89999121 C8,1.71998945 7.84000938,1.6 7.60000001,1.6 C7.35999063,1.6 7.2,1.71998945 7.2,1.89999121 L7.2,2.50000879 C7.19995313,2.67997539 7.35999063,2.8 7.60000001,2.8 Z" id="Path" fill="#3B81BF" fill-rule="nonzero"></path>
                <path d="M7.60000001,14.8 C7.84000938,14.8 8,14.6800105 8,14.5000088 L8,13.8999912 C8,13.7199895 7.84000938,13.6 7.60000001,13.6 C7.35999063,13.6 7.2,13.7199895 7.2,13.8999912 L7.2,14.5000088 C7.19995313,14.6799754 7.35999063,14.8 7.60000001,14.8 Z" id="Path" fill="#3B81BF" fill-rule="nonzero"></path>
                <path d="M7.60000001,12.8 C7.84000938,12.8 8,12.6800105 8,12.5000088 L8,11.8999912 C8,11.7199895 7.84000938,11.6 7.60000001,11.6 C7.35999063,11.6 7.2,11.7199895 7.2,11.8999912 L7.2,12.5000088 C7.19995313,12.6799754 7.35999063,12.8 7.60000001,12.8 Z" id="Path" fill="#3B81BF" fill-rule="nonzero"></path>
                <path d="M7.60000001,10.8 C7.84000938,10.8 8,10.6800105 8,10.5000088 L8,9.89999121 C8,9.71998945 7.84000938,9.6 7.60000001,9.6 C7.35999063,9.6 7.2,9.71998945 7.2,9.89999121 L7.2,10.5000088 C7.19995313,10.6799754 7.35999063,10.8 7.60000001,10.8 Z" id="Path" fill="#3B81BF" fill-rule="nonzero"></path>
                <path d="M7.60000001,8.8 C7.84000938,8.8 8,8.68001055 8,8.50000879 L8,7.89999121 C8,7.71998945 7.84000938,7.6 7.60000001,7.6 C7.35999063,7.6 7.2,7.71998945 7.2,7.89999121 L7.2,8.50000879 C7.19995313,8.67997539 7.35999063,8.8 7.60000001,8.8 Z" id="Path" fill="#3B81BF" fill-rule="nonzero"></path>
                <path d="M9.60000001,4.8 C9.84000938,4.8 10,4.68001055 10,4.50000879 L10,3.89999121 C10,3.71998945 9.84000938,3.6 9.60000001,3.6 C9.35999063,3.6 9.2,3.71998945 9.2,3.89999121 L9.2,4.50000879 C9.19995313,4.67997539 9.35999063,4.8 9.60000001,4.8 Z" id="Path" fill="#3B81BF" fill-rule="nonzero"></path>
                <path d="M9.60000001,2.8 C9.84000938,2.8 10,2.68001055 10,2.50000879 L10,1.89999121 C10,1.71998945 9.84000938,1.6 9.60000001,1.6 C9.35999063,1.6 9.2,1.71998945 9.2,1.89999121 L9.2,2.50000879 C9.19995313,2.67997539 9.35999063,2.8 9.60000001,2.8 Z" id="Path" fill="#3B81BF" fill-rule="nonzero"></path>
            </g>
        </g>
    </g>
</svg>