<?xml version="1.0" encoding="UTF-8"?>
<svg width="22px" height="23px" viewBox="0 0 22 23" version="1.1" xmlns="http://www.w3.org/2000/svg" xmlns:xlink="http://www.w3.org/1999/xlink">
    <title>7A8F0FA0-8DCD-4E48-8606-7A76890B8EE6@1x</title>
    <g id="Dokodemo-Web-Profile" stroke="none" stroke-width="1" fill="none" fill-rule="evenodd">
        <g id="icons" transform="translate(-115.000000, -32.000000)" fill="#C0C0C0" fill-rule="nonzero">
            <g id="department" transform="translate(115.000000, 32.000000)">
                <path d="M0.586592766,19.7101814 L5.12852825,22.3217574 C5.46932121,22.5110047 5.92340391,22.5110047 6.26401212,22.3217574 L10.9951949,19.6344086 L15.7263777,22.3217574 C16.0671707,22.5110047 16.5212534,22.5110047 16.8618616,22.3217574 L21.4037971,19.7101814 C21.74459,19.5209341 21.971539,19.1424395 21.971539,18.7260585 L21.971539,13.2 C21.971539,12.783619 21.74459,12.4051243 21.4037971,12.215877 L16.6726143,9.49082659 L16.6726143,3.73763441 C16.6726143,3.32125337 16.4456653,2.94275875 16.1048723,2.75351144 L11.5629369,0.141935484 C11.2223286,-0.047311828 10.7682459,-0.047311828 10.427453,0.141935484 L5.8855175,2.75351144 C5.54490929,2.94275875 5.31777556,3.32125337 5.31777556,3.73763441 L5.31777556,9.52852825 L0.586592766,12.215877 C0.245984555,12.4051243 0.0188508301,12.783619 0.0188508301,13.2 L0.0188508301,18.7639449 C0.0188508301,19.1424395 0.245984555,19.5209341 0.586592766,19.7101814 Z M5.69627018,17.8932964 L5.20430108,17.4013273 C5.2800739,17.2499664 5.31777556,17.0607191 5.31777556,16.8714718 L5.31777556,16.227957 L4.97716735,15.5467406 C4.93928094,15.4709677 4.93928094,15.4330813 4.93928094,15.3574933 L4.93928094,14.6382057 C4.93928094,14.2220094 5.2800739,13.8812164 5.69627018,13.8812164 C6.11265122,13.8812164 6.45325943,14.2220094 6.45325943,14.6382057 L6.45325943,15.3574933 C6.45325943,15.4330813 6.45325943,15.4709677 6.41555777,15.5088542 L6.07476481,16.227957 L6.07476481,16.8714718 C6.07476481,17.0607191 6.11265122,17.21208 6.18842405,17.4013273 L5.69627018,17.8932964 Z M6.83175406,16.8714718 L6.83175406,16.3793179 L7.09677419,15.8494624 C7.17254702,15.6981015 7.21024868,15.5088542 7.21024868,15.3574933 L7.21024868,14.6382057 C7.21024868,13.8056283 6.52903226,13.1242272 5.69627018,13.1242272 C4.86369286,13.1242272 4.18229169,13.8056283 4.18229169,14.6382057 L4.18229169,15.3574933 C4.18229169,15.5467406 4.2201781,15.6981015 4.29595093,15.8494624 L4.56078631,16.3793179 L4.56078631,16.8714718 C4.56078631,17.0228326 4.44731183,17.1741935 4.29595093,17.2499664 L3.08469423,17.5905746 L3.31182796,14.6382057 C3.42530244,13.3134745 4.56078631,12.3295363 5.8855175,12.4430108 C7.05888778,12.5187836 8.00512434,13.4650201 8.08089717,14.6382057 L8.30803089,17.5905746 L7.09677419,17.2499664 C6.94541329,17.1741935 6.83175406,17.0228326 6.83175406,16.8714718 Z M2.6683132,18.7639449 C2.6683132,18.6123992 2.78197243,18.4610383 2.93333333,18.3854502 L4.48519824,17.9311828 C4.52308465,17.9311828 4.59867273,17.8932964 4.63655914,17.8932964 L5.16641466,18.4231519 L4.18229169,19.4072749 L4.18229169,20.9212534 L2.6683132,20.0507896 L2.6683132,18.7639449 Z M5.8855175,21.6782426 C5.77204301,21.7540154 5.62068211,21.7540154 5.50702287,21.6782426 L4.93928094,21.3376344 L4.93928094,19.7101814 L6.75616598,17.8932964 C6.7940524,17.9311828 6.86964047,17.9311828 6.90752688,17.9311828 L8.45939179,18.3854502 C8.61075269,18.4231519 8.72422717,18.5746976 8.72422717,18.7639449 L8.72422717,20.0507896 L5.8855175,21.6782426 Z M12.5091734,4.41885083 C12.1306788,4.26748993 11.7144825,4.26748993 11.411576,4.49462366 L10.9951949,4.72175738 L10.5789986,4.49462366 C10.2382057,4.30537634 9.82200938,4.26748993 9.48121642,4.41885083 L9.48121642,3.66186158 C9.48121642,3.43491261 9.63276207,3.28336696 9.85971105,3.28336696 L12.1306788,3.28336696 C12.3578125,3.28336696 12.5091734,3.43491261 12.5091734,3.66186158 L12.5091734,4.41885083 Z M9.48121642,5.5543347 C9.48121642,5.28949932 9.70835015,5.06236559 9.97337028,5.06236559 C10.0489584,5.06236559 10.1626176,5.100252 10.2382057,5.13813842 L11.0330813,5.63010753 L11.827957,5.13813842 C12.0550907,4.98659277 12.3578125,5.06236559 12.4714718,5.28949932 C12.5091734,5.36508739 12.5470598,5.44086022 12.5470598,5.5543347 L12.5470598,6.38709677 C12.5470598,6.50057126 12.5091734,6.57634409 12.4335853,6.65211691 L11.4873488,7.59835347 L10.9951949,8.05243617 L10.5789986,7.63605513 L10.1626176,7.21985885 L9.63276207,6.68981857 C9.55698925,6.6142305 9.51910283,6.53845767 9.51910283,6.42498319 L9.51910283,5.5543347 L9.48121642,5.5543347 Z M14.0231519,10.588424 L11.7144825,11.9131552 L12.3199261,10.3234039 C12.4714718,9.90702287 12.3578125,9.45294018 12.0550907,9.11233197 L11.5252352,8.58229169 L12.244338,7.86318886 L13.7583165,8.35534272 C13.9096774,8.39304438 14.0231519,8.54459003 14.0231519,8.69595093 L14.0231519,10.588424 Z M10.9951949,9.11233197 L11.5252352,9.64218749 C11.6387097,9.75566197 11.6765961,9.90702287 11.6008233,10.0585685 L10.9951949,11.6860215 L10.3897513,10.0585685 C10.3518649,9.90702287 10.3897513,9.75566197 10.4653394,9.64218749 L10.9951949,9.11233197 Z M9.74623656,7.86318886 L10.4653394,8.58229169 L9.93548387,9.11233197 C9.63276207,9.41505376 9.51910283,9.90702287 9.67046373,10.3234039 L10.2760921,11.9131552 L7.96723793,10.588424 L7.96723793,8.771539 C7.96723793,8.6201781 8.08089717,8.4688172 8.23225806,8.43093079 L9.74623656,7.86318886 Z M16.483367,21.6782426 C16.3698925,21.7540154 16.2185316,21.7540154 16.1048723,21.6782426 L13.2661627,20.0507896 L13.2661627,18.2339046 C13.2661627,18.0825437 13.3798219,17.9311828 13.5311828,17.8932964 L15.0451613,17.4013273 C15.7263777,18.0825437 16.8618616,18.0825437 17.5432628,17.4013273 L19.0572413,17.8932964 C19.2086022,17.9311828 19.3220766,18.0825437 19.3220766,18.2339046 L19.3220766,20.0507896 L16.483367,21.6782426 Z M14.7801412,14.6382057 L14.7801412,14.5626176 L16.2941196,14.259711 L17.8080981,14.5626176 L17.8080981,15.5467406 C17.8080981,15.6223286 17.7703965,15.6981015 17.7325101,15.7736895 L17.1268817,16.7199261 C16.7862735,17.1741935 16.1427587,17.287668 15.6886761,16.9091734 C15.6129032,16.8335853 15.5371304,16.7956989 15.4994287,16.7199261 L14.8938004,15.7736895 C14.855914,15.6981015 14.8180276,15.6223286 14.8180276,15.5467406 L14.8180276,14.6382057 L14.7801412,14.6382057 Z M17.8080981,13.8056283 L16.2941196,13.5027218 L14.7801412,13.8056283 L14.7801412,13.1242272 C14.7801412,12.8972782 14.9316868,12.7457326 15.1586358,12.7457326 L17.8080981,12.7457326 L17.8080981,13.8056283 Z M21.0253024,12.8593918 C21.1389617,12.9349799 21.2145498,13.0486391 21.2145498,13.2 L21.2145498,18.7639449 C21.2145498,18.9153058 21.1389617,19.0287803 21.0253024,19.1045531 L20.0790659,19.5965222 L20.0790659,18.1962029 C20.0790659,17.7040491 19.7763441,17.287668 19.284375,17.1363071 L17.9973455,16.7199261 L18.3381384,16.1900706 C18.4516129,16.0008233 18.5273857,15.7736895 18.5273857,15.5467406 L18.5273857,11.9887433 L15.1209341,11.9887433 C14.4774194,11.9887433 13.9854502,12.4808972 13.9854502,13.1242272 L13.9854502,15.5467406 C13.9854502,15.7736895 14.0610383,16.0008233 14.1746976,16.1900706 L14.5153058,16.7199261 L13.228461,17.1363071 C12.81208,17.287668 12.5091734,17.7040491 12.5091734,18.1962029 L12.5091734,19.5965222 L11.3736895,18.9531922 L11.3736895,12.9349799 C11.4494624,12.8972782 11.4873488,12.8972782 11.5629369,12.8593918 L16.2941196,10.172043 L21.0253024,12.8593918 Z M6.26401212,3.3970262 L10.8059476,0.785450245 C10.9196068,0.709677419 11.0709677,0.709677419 11.1844422,0.785450245 L15.7263777,3.3970262 C15.840037,3.47261427 15.915625,3.58627351 15.915625,3.73763441 L15.915625,9.52852825 L14.7801412,10.172043 L14.7801412,8.771539 C14.7801412,8.27956989 14.4774194,7.86318886 13.9854502,7.71182796 L12.81208,7.33333333 L12.9255544,7.21985885 C13.1526882,6.99272512 13.2661627,6.72770498 13.2661627,6.42498319 L13.2661627,3.66186158 C13.2661627,3.01853157 12.7741935,2.52637771 12.1306788,2.52637771 L9.85971105,2.52637771 C9.21638104,2.52637771 8.72422717,3.01853157 8.72422717,3.66186158 L8.72422717,6.38709677 C8.72422717,6.68981857 8.83788641,6.99272512 9.06502014,7.18197243 L9.17849462,7.29544692 L8.00512434,7.67394154 C7.51315523,7.82530244 7.21024868,8.24168348 7.21024868,8.73383734 L7.21024868,10.1341566 L6.07476481,9.49082659 L6.07476481,3.73763441 C6.07476481,3.58627351 6.15053763,3.47261427 6.26401212,3.3970262 L6.26401212,3.3970262 Z M0.775840077,13.2 C0.775840077,13.0486391 0.851612903,12.9349799 0.965087389,12.8593918 L5.69627018,10.172043 L10.427453,12.8593918 C10.5032258,12.8972782 10.5411122,12.8972782 10.6167003,12.9349799 L10.6167003,18.9531922 L9.48121642,19.5965222 L9.48121642,18.7639449 C9.48121642,18.4231519 9.32985552,18.1204301 9.1027218,17.9311828 L8.83788641,14.5626176 C8.68652551,12.8215054 7.17254702,11.5346606 5.46932121,11.6481351 C3.91745631,11.7617943 2.70619961,13.0107527 2.55483871,14.5626176 L2.28981857,17.9311828 C2.0628696,18.1583165 1.91132395,18.4610383 1.91132395,18.7639449 L1.91132395,19.5965222 L0.965087389,19.0666667 C0.851612903,18.9908938 0.775840077,18.8774194 0.775840077,18.7260585 L0.775840077,13.2 Z" id="Shape"></path>
                <polygon id="Path" points="6.83175406 18.8016465 7.96723793 18.8016465 7.96723793 19.5586358 6.83175406 19.5586358"></polygon>
                <polygon id="Path" points="15.915625 18.4231519 16.6726143 18.4231519 16.6726143 19.1801412 15.915625 19.1801412"></polygon>
                <polygon id="Path" points="15.915625 19.9371304 16.6726143 19.9371304 16.6726143 20.6941196 15.915625 20.6941196"></polygon>
                <polygon id="Path" points="17.4296035 18.4231519 18.5650874 18.4231519 18.5650874 19.1801412 17.4296035 19.1801412"></polygon>
                <polygon id="Path" points="12.887668 8.96078631 13.6446573 8.96078631 13.6446573 9.71777556 12.887668 9.71777556"></polygon>
            </g>
        </g>
    </g>
</svg>