<?xml version="1.0" encoding="UTF-8"?>
<svg width="161px" height="147px" viewBox="0 0 161 147" version="1.1" xmlns="http://www.w3.org/2000/svg" xmlns:xlink="http://www.w3.org/1999/xlink">
    <title>2F9D2384-FC30-4C80-AE8B-33E34D2F329A@1x</title>
    <defs>
        <polygon id="path-1" points="0 147 160.702043 147 160.702043 0.403926686 0 0.403926686"></polygon>
    </defs>
    <g id="Dokodemo-Web-Profile" stroke="none" stroke-width="1" fill="none" fill-rule="evenodd">
        <g id="Desktop---popup-close" transform="translate(-560.000000, -571.000000)">
            <g id="pop-p" transform="translate(337.000000, 455.000000)">
                <g id="Group-49" transform="translate(223.000000, 116.000000)">
                    <line x1="146" y1="134" x2="145" y2="118" id="Stroke-1" stroke="#263238" stroke-width="0.985" stroke-linecap="round" stroke-linejoin="round"></line>
                    <g id="Group-48">
                        <path d="M144.747715,118.497131 C144.747715,118.497131 141.761273,116.164961 141.761273,110.834163 C141.761273,105.502935 145.74291,101.171823 145.74291,101.171823 C145.74291,101.171823 150.056851,106.502621 149.061657,111.833418 C148.066033,117.164216 144.747715,118.497131 144.747715,118.497131" id="Fill-2" fill="#FFCA13"></path>
                        <line x1="144.756517" y1="118.05889" x2="145.513002" y2="106.287682" id="Stroke-4" stroke="#263238" stroke-width="0.985" stroke-linecap="round" stroke-linejoin="round"></line>
                        <path d="M147.949297,132.562962 C147.949297,132.562962 150.205444,126.567862 153.233961,121.754798" id="Stroke-6" stroke="#263238" stroke-width="0.985" stroke-linecap="round" stroke-linejoin="round"></path>
                        <path d="M151.6699,124.587889 C151.6699,124.587889 150.015249,121.17154 152.35855,116.38822 C154.701852,111.6049 160.179286,109.482669 160.179286,109.482669 C160.179286,109.482669 161.706854,116.17785 158.47011,120.52017 C155.233366,124.862921 151.6699,124.587889 151.6699,124.587889" id="Fill-8" fill="#FFCA13"></path>
                        <line x1="151.6699" y1="124.587889" x2="157.711478" y2="114.61646" id="Stroke-10" stroke="#263238" stroke-width="0.985" stroke-linecap="round" stroke-linejoin="round"></line>
                        <path d="M143.724271,133.961488 C143.724271,133.961488 142.396772,129.297148 140.074079,125.298834 L137.751385,121.30052" id="Stroke-12" stroke="#263238" stroke-width="0.985" stroke-linecap="round" stroke-linejoin="round"></path>
                        <path d="M139.621733,124.38877 C139.621733,124.38877 134.018504,126.487292 128.869509,122.1398 C123.720085,117.792738 124.003016,108.926612 124.003016,108.926612 C124.003016,108.926612 133.991456,107.49541 138.023754,113.176248 C142.056482,118.857087 139.621733,124.38877 139.621733,124.38877" id="Fill-14" fill="#FFCA13"></path>
                        <line x1="139.621733" y1="124.38877" x2="127.784154" y2="112.004128" id="Stroke-16" stroke="#263238" stroke-width="0.985" stroke-linecap="round" stroke-linejoin="round"></line>
                        <mask id="mask-2" fill="white">
                            <use xlink:href="#path-1"></use>
                        </mask>
                        <g id="Clip-19"></g>
                        <polygon id="Fill-18" fill="#263238" mask="url(#mask-2)" points="139.240528 142.806836 151.876237 142.806836 151.876237 130.363566 139.240528 130.363566"></polygon>
                        <polygon id="Stroke-20" stroke="#263238" stroke-width="0.985" stroke-linecap="round" stroke-linejoin="round" mask="url(#mask-2)" points="139.240528 142.806836 151.876237 142.806836 151.876237 130.363566 139.240528 130.363566"></polygon>
                        <path d="M109.921011,142.61052 L53.3503339,142.61052 L51.5011952,111.383581 C51.2848112,110.08774 52.2795765,108.906998 53.5877552,108.906998 L109.68359,108.906998 C110.991769,108.906998 111.986963,110.08774 111.770579,111.383581 L109.921011,142.61052 Z" id="Fill-21" fill="#263238" mask="url(#mask-2)"></path>
                        <path d="M109.921011,142.61052 L53.3503339,142.61052 L51.5011952,111.383581 C51.2848112,110.08774 52.2795765,108.906998 53.5877552,108.906998 L109.68359,108.906998 C110.991769,108.906998 111.986963,110.08774 111.770579,111.383581 L109.921011,142.61052 Z" id="Stroke-22" stroke="#263238" stroke-width="0.985" stroke-linecap="round" stroke-linejoin="round" mask="url(#mask-2)"></path>
                        <path d="M56.1331437,109.654413 L109.272589,109.654413 C110.561877,109.654413 111.542474,110.797219 111.329096,112.051677" id="Stroke-23" stroke="#FFFFFF" stroke-width="0.985" stroke-linecap="round" stroke-linejoin="round" mask="url(#mask-2)"></path>
                        <path d="M51.918636,111.558947 C51.995916,110.513134 52.8812013,109.654413 53.998756,109.654413" id="Stroke-24" stroke="#FFFFFF" stroke-width="0.985" stroke-linecap="round" stroke-linejoin="round" mask="url(#mask-2)"></path>
                        <polygon id="Fill-25" fill="#FFFFFF" mask="url(#mask-2)" points="53.1098213 142.610692 110.161781 142.610692 110.161781 139.567663 53.1098213 139.567663"></polygon>
                        <polygon id="Stroke-26" stroke="#263238" stroke-width="0.985" stroke-linecap="round" stroke-linejoin="round" mask="url(#mask-2)" points="53.1098213 142.610692 110.161781 142.610692 110.161781 139.567663 53.1098213 139.567663"></polygon>
                        <path d="M85.4745565,125.87735 C85.4745565,127.221904 83.6653459,128.311256 81.4336712,128.311256 C79.2019965,128.311256 77.3927859,127.221904 77.3927859,125.87735 C77.3927859,124.532796 79.2019965,123.443013 81.4336712,123.443013 C83.6653459,123.443013 85.4745565,124.532796 85.4745565,125.87735" id="Fill-27" fill="#FFFFFF" mask="url(#mask-2)"></path>
                        <path d="M85.4745565,125.87735 C85.4745565,127.221904 83.6653459,128.311256 81.4336712,128.311256 C79.2019965,128.311256 77.3927859,127.221904 77.3927859,125.87735 C77.3927859,124.532796 79.2019965,123.443013 81.4336712,123.443013 C83.6653459,123.443013 85.4745565,124.532796 85.4745565,125.87735 Z" id="Stroke-28" stroke="#263238" stroke-width="0.985" stroke-linecap="round" stroke-linejoin="round" mask="url(#mask-2)"></path>
                        <path d="M92.8851933,31.8885487 C92.8851933,34.9600296 90.4057933,37.4499768 87.3467933,37.4499768 C84.2877933,37.4499768 81.8075347,34.9600296 81.8075347,31.8885487 C81.8075347,28.8170677 84.2877933,26.3271205 87.3467933,26.3271205 C90.4057933,26.3271205 92.8851933,28.8170677 92.8851933,31.8885487" id="Fill-29" fill="#FFCA13" mask="url(#mask-2)"></path>
                        <path d="M111.947765,31.8885487 C111.947765,34.9600296 109.468365,37.4499768 106.409365,37.4499768 C103.350365,37.4499768 100.870106,34.9600296 100.870106,31.8885487 C100.870106,28.8170677 103.350365,26.3271205 106.409365,26.3271205 C109.468365,26.3271205 111.947765,28.8170677 111.947765,31.8885487" id="Fill-30" fill="#FFCA13" mask="url(#mask-2)"></path>
                        <path d="M143.272311,3.11573431 C143.272311,3.10366393 143.380933,3.09719765 143.597317,3.0959044 C143.813271,3.08900704 144.137418,3.11573431 144.556018,3.20152023 C144.977623,3.27911554 145.485954,3.46017126 146.044946,3.76322405 C146.600074,4.07144985 147.196418,4.53659062 147.710759,5.20477243 C148.227247,5.86691906 148.65701,6.74374604 148.806418,7.78050557 C148.860514,8.03700117 148.851927,8.30686041 148.873823,8.57758182 C148.876399,8.84269912 148.879405,9.11298944 148.881551,9.38888387 C148.887133,9.94110381 148.892285,10.5161713 148.898295,11.113224 C148.915898,13.5035906 148.936077,16.2534821 148.95969,19.3366023 C148.989743,25.5049982 149.026666,33.0080334 149.06917,41.6409425 C149.077327,43.7993853 149.085055,46.0285261 149.093642,48.324485 C149.097077,49.4728956 149.100941,50.6381185 149.104805,51.8192915 C149.106951,52.4107402 149.108669,53.0052065 149.110815,53.6039836 C149.111674,53.9035877 149.112962,54.204054 149.112962,54.5058135 C149.100082,54.8291273 149.091925,55.1558897 149.03053,55.4783413 C148.827026,56.7707343 148.166282,58.0101038 147.159495,58.8998633 C146.16473,59.7943648 144.835514,60.3638282 143.456925,60.3922798 C140.909261,60.4017636 138.301061,60.4108164 135.63533,60.4211625 L136.097722,59.997837 C135.591538,65.5196053 135.057447,71.3504616 134.502749,77.4041889 L134.416023,78.3486962 L133.685727,77.744315 C127.085586,72.2833296 120.028205,66.4442827 112.687034,60.3702944 L113.029642,60.4944469 C99.5537275,60.5009132 85.0225115,60.5082416 70.0022848,60.5155701 C67.2730128,60.515139 64.5604848,60.5147079 61.8659888,60.5147079 C61.1919355,60.5147079 60.5195995,60.5142768 59.8476928,60.5142768 C59.5059435,60.5112592 59.1912421,60.5220364 58.8271675,60.5065173 C58.4570821,60.4996199 58.0908608,60.4487519 57.7285035,60.3776229 C56.2786448,60.0745701 54.9756181,59.1938633 54.1285435,57.9963091 C53.7030741,57.397963 53.3896608,56.7211595 53.2084821,56.0111625 C53.0165701,55.3123736 53.0028315,54.5273677 53.0139941,53.8975525 C53.0144235,52.5736903 53.0152821,51.254139 53.0157115,49.9401918 C53.0174288,47.3127284 53.0191461,44.7063883 53.0208635,42.1228956 C53.0320261,31.7889249 53.0431888,21.8209455 53.0534928,12.3254352 C53.0552101,11.138227 53.0569275,9.9587783 53.0590741,8.78665806 C53.0616501,8.19089853 53.1037248,7.51538827 53.2956368,6.91445572 C53.4746688,6.30360821 53.7472955,5.72379883 54.1002075,5.2000305 C54.8210581,4.16715073 55.8510288,3.35283109 57.0304075,2.95493959 C57.6168768,2.75750264 58.2303941,2.6260217 58.8460581,2.62559062 C59.4338155,2.61308915 59.9786395,2.62386628 60.5440715,2.62214194 C65.0241648,2.63162581 69.3733115,2.64110968 73.5786315,2.65016246 C81.9884128,2.67473431 89.8224581,2.69758182 96.9742928,2.71870499 C111.276245,2.79414487 122.849783,2.85492786 130.850839,2.89717419 C134.848362,2.94286921 137.952442,2.97864927 140.061327,3.00235894 C141.111906,3.02693079 141.913901,3.04546745 142.456578,3.0584 C142.995821,3.07736774 143.272311,3.09633548 143.272311,3.11573431 C143.272311,3.13513314 142.995821,3.15410088 142.456578,3.17306862 C141.913901,3.18557009 141.111906,3.20453783 140.061327,3.22867859 C137.952442,3.25281935 134.848362,3.28816833 130.850839,3.33386334 C122.849783,3.37610968 111.276245,3.43732375 96.9742928,3.51233255 C89.8224581,3.53345572 81.9884128,3.55630323 73.5786315,3.58087507 C69.3733115,3.58992786 65.0241648,3.59941173 60.5440715,3.60932669 C59.9898021,3.61320645 59.4102021,3.60458475 58.8696715,3.61881056 C58.3553301,3.61881056 57.8465701,3.73391026 57.3605648,3.89858475 C56.3808261,4.22965806 55.5281701,4.91379003 54.9309675,5.77208035 C54.3449275,6.65192493 54.0418181,7.6787695 54.0778821,8.78665806 C54.0800288,9.9587783 54.0817461,11.138227 54.0834635,12.3254352 C54.0937675,21.8209455 54.1049301,31.7889249 54.1160928,42.1228956 C54.1178101,44.7063883 54.1195275,47.3127284 54.1212448,49.9401918 C54.1216741,51.254139 54.1225328,52.5736903 54.1233915,53.8975525 C54.1143755,54.5890129 54.1285435,55.1442504 54.2839621,55.7331126 C54.4312235,56.3094733 54.6866768,56.8595378 55.0331488,57.3466639 C55.7239461,58.3217783 56.7856875,59.0395349 57.9624901,59.283529 C58.2570128,59.3400012 58.5553995,59.3822475 58.8567915,59.3869894 C59.1616181,59.4012152 59.5188235,59.3908692 59.8476928,59.3943179 C60.5195995,59.3943179 61.1919355,59.3938868 61.8659888,59.3938868 C64.5604848,59.3934557 67.2730128,59.3934557 70.0022848,59.3930246 C85.0225115,59.4003531 99.5537275,59.4076815 113.029642,59.4145789 L113.223701,59.4145789 L113.371821,59.5383003 C120.696677,65.6321185 127.737743,71.4905642 134.323287,76.9696551 L133.506695,77.3097812 C134.086295,71.2586405 134.643999,65.4303707 135.172938,59.9107578 L135.213295,59.4874323 L135.63533,59.4878633 C138.291615,59.491312 140.890799,59.4951918 143.429018,59.4990716 C144.600669,59.4826903 145.728527,59.004617 146.581613,58.2484938 C147.445431,57.4949572 148.014298,56.4413853 148.194618,55.3391009 C148.249573,55.0636375 148.256013,54.7842944 148.271469,54.5058135 C148.272327,54.204054 148.272757,53.9035877 148.274045,53.6039836 C148.275762,53.0052065 148.277909,52.4107402 148.279626,51.8192915 C148.28349,50.6381185 148.287783,49.4728956 148.291218,48.324485 C148.299375,46.0285261 148.307962,43.7993853 148.315261,41.6409425 C148.357765,33.0080334 148.394687,25.5049982 148.42517,19.3366023 C148.448354,16.2534821 148.468962,13.5035906 148.486994,11.113224 C148.492146,10.5161713 148.497727,9.94110381 148.502879,9.38888387 C148.505026,9.11298944 148.508031,8.84269912 148.510607,8.57758182 C148.494293,8.32194839 148.50889,8.06976364 148.462522,7.82835601 C148.344026,6.85281056 147.960631,6.01650557 147.486647,5.37418886 C147.015669,4.72626804 146.46097,4.2632827 145.938471,3.94729736 C145.411679,3.63691613 144.927821,3.43861701 144.522959,3.34119179 C143.713666,3.13383988 143.269735,3.15754956 143.272311,3.11573431 Z" id="Stroke-31" stroke="#FFCA13" mask="url(#mask-2)"></path>
                        <path d="M107.751289,87.63069 L24.1296067,87.63069 C20.9529693,87.63069 18.3782573,85.045473 18.3782573,81.8563059 L18.3782573,36.5665111 C18.3782573,33.377344 20.9529693,30.792127 24.1296067,30.792127 L107.751289,30.792127 C110.927068,30.792127 113.502209,33.377344 113.502209,36.5665111 L113.502209,81.8563059 C113.502209,85.045473 110.927068,87.63069 107.751289,87.63069" id="Fill-32" fill="#FFCA13" mask="url(#mask-2)"></path>
                        <polyline id="Fill-33" fill="#FFCA13" mask="url(#mask-2)" points="76.2456072 85.815822 98.7362339 105.868605 100.581938 86.1710361"></polyline>
                        <path d="M53.5684781,60.0164167 C53.5684781,63.0878977 51.0886488,65.5778449 48.0296488,65.5778449 C44.9706488,65.5778449 42.4908195,63.0878977 42.4908195,60.0164167 C42.4908195,56.9449358 44.9706488,54.4549886 48.0296488,54.4549886 C51.0886488,54.4549886 53.5684781,56.9449358 53.5684781,60.0164167" id="Fill-34" fill="#FFFFFF" mask="url(#mask-2)"></path>
                        <path d="M72.6310499,60.0164167 C72.6310499,63.0878977 70.1512205,65.5778449 67.0922205,65.5778449 C64.0332205,65.5778449 61.5533912,63.0878977 61.5533912,60.0164167 C61.5533912,56.9449358 64.0332205,54.4549886 67.0922205,54.4549886 C70.1512205,54.4549886 72.6310499,56.9449358 72.6310499,60.0164167" id="Fill-35" fill="#FFFFFF" mask="url(#mask-2)"></path>
                        <path d="M91.6936216,60.0164167 C91.6936216,63.0878977 89.2137923,65.5778449 86.1547923,65.5778449 C83.0957923,65.5778449 80.6159629,63.0878977 80.6159629,60.0164167 C80.6159629,56.9449358 83.0957923,54.4549886 86.1547923,54.4549886 C89.2137923,54.4549886 91.6936216,56.9449358 91.6936216,60.0164167" id="Fill-36" fill="#FFFFFF" mask="url(#mask-2)"></path>
                        <path d="M131.010337,31.8885487 C131.010337,34.9600296 128.530937,37.4499768 125.471937,37.4499768 C122.412937,37.4499768 119.932678,34.9600296 119.932678,31.8885487 C119.932678,28.8170677 122.412937,26.3271205 125.471937,26.3271205 C128.530937,26.3271205 131.010337,28.8170677 131.010337,31.8885487" id="Fill-37" fill="#FFCA13" mask="url(#mask-2)"></path>
                        <path d="M31.8557176,139.471703 C30.4646776,139.471703 28.9637283,138.89017 28.3849869,138.641433 C27.7761923,138.379334 27.4941203,137.671061 27.7547256,137.059351 C28.0166189,136.448073 28.7220136,136.165281 29.3303789,136.427381 C30.4384883,136.901574 31.8604403,137.191263 32.2429763,137.02702 C32.9376376,136.24029 34.0144056,131.476369 32.6237949,129.206706 C32.3133869,128.701043 32.0214403,128.607498 31.8286696,128.580771 C31.0412723,128.472137 29.8717683,129.287319 29.4587496,129.674433 C28.9740323,130.128366 28.2154003,130.102501 27.7633123,129.615806 C27.3107949,129.129542 27.3374136,128.366952 27.8217016,127.91302 C28.0415203,127.706961 30.0323389,125.905026 32.1498109,126.193422 C32.8680856,126.290847 33.8886109,126.674082 34.6674216,127.944058 C36.7144829,131.284967 35.3109923,137.651662 33.7422083,138.912155 C33.2295843,139.324272 32.5563896,139.471703 31.8557176,139.471703" id="Fill-38" fill="#263238" mask="url(#mask-2)"></path>
                        <path d="M33.8557176,139.471703 C32.4646776,139.471703 30.9637283,138.89017 30.3849869,138.641433 C29.7761923,138.379334 29.4941203,137.671061 29.7547256,137.059351 C30.0166189,136.448073 30.7220136,136.165281 31.3303789,136.427381 C32.4384883,136.901574 33.8604403,137.191263 34.2429763,137.02702 C34.9376376,136.24029 36.0144056,131.476369 34.6237949,129.206706 C34.3133869,128.701043 34.0214403,128.607498 33.8286696,128.580771 C33.0412723,128.472137 31.8717683,129.287319 31.4587496,129.674433 C30.9740323,130.128366 30.2154003,130.102501 29.7633123,129.615806 C29.3107949,129.129542 29.3374136,128.366952 29.8217016,127.91302 C30.0415203,127.706961 32.0323389,125.905026 34.1498109,126.193422 C34.8680856,126.290847 35.8886109,126.674082 36.6674216,127.944058 C38.7144829,131.284967 37.3109923,137.651662 35.7422083,138.912155 C35.2295843,139.324272 34.5563896,139.471703 33.8557176,139.471703 Z" id="Stroke-39" stroke="#263238" stroke-width="0.985" stroke-linecap="round" stroke-linejoin="round" mask="url(#mask-2)"></path>
                        <polygon id="Fill-40" fill="#263238" mask="url(#mask-2)" points="18.4864 142.856842 31.7313333 142.856842 31.7313333 125.205633 18.4864 125.205633"></polygon>
                        <polygon id="Stroke-41" stroke="#263238" stroke-width="0.985" stroke-linecap="round" stroke-linejoin="round" mask="url(#mask-2)" points="18.4864 142.856842 31.7313333 142.856842 31.7313333 125.205633 18.4864 125.205633"></polygon>
                        <path d="M19.6868589,124.238925 C19.6868589,124.238925 19.6868589,122.768925 22.3706216,121.299356 C25.0543843,119.829356 26.5179816,117.624356 25.0543843,113.460075 C23.5903576,109.295362 23.8342189,106.355793 26.7618429,103.905937" id="Stroke-42" stroke="#263238" stroke-width="0.985" stroke-linecap="round" stroke-linejoin="round" mask="url(#mask-2)"></path>
                        <path d="M20.2964693,108.569975 C20.4329973,106.78011 21.2315573,105.267433 22.8587307,103.906066" id="Stroke-43" stroke="#263238" stroke-width="0.985" stroke-linecap="round" stroke-linejoin="round" mask="url(#mask-2)"></path>
                        <path d="M21.1505421,113.460075 C20.8688995,112.658688 20.6503688,111.902565 20.5022488,111.186963" id="Stroke-44" stroke="#263238" stroke-width="0.985" stroke-linecap="round" stroke-linejoin="round" mask="url(#mask-2)"></path>
                        <path d="M30.5853997,114.895243 C30.4905171,114.444328 30.3561357,113.966686 30.1779624,113.460161 C30.0989651,113.234704 30.0246904,113.013988 29.9555677,112.795859" id="Stroke-45" stroke="#263238" stroke-width="0.985" stroke-linecap="round" stroke-linejoin="round" mask="url(#mask-2)"></path>
                        <path d="M24.8103512,124.238925 C24.8103512,124.238925 24.8103512,122.768925 27.4941139,121.299356 C29.2548099,120.334588 30.4900019,119.054696 30.7188365,117.112227" id="Stroke-46" stroke="#263238" stroke-width="0.985" stroke-linecap="round" stroke-linejoin="round" mask="url(#mask-2)"></path>
                        <polygon id="Fill-47" fill="#263238" mask="url(#mask-2)" points="-0.000429333333 143.557669 160.702043 143.557669 160.702043 142.557669 -0.000429333333 142.557669"></polygon>
                    </g>
                </g>
            </g>
        </g>
    </g>
</svg>