<?xml version="1.0" encoding="UTF-8"?>
<svg width="21px" height="21px" viewBox="0 0 21 21" version="1.1" xmlns="http://www.w3.org/2000/svg" xmlns:xlink="http://www.w3.org/1999/xlink">
    <title>A4D7B1B3-B078-4012-BA90-80640A2F2451@1x</title>
    <g id="Dokodemo-Web-Profile" stroke="none" stroke-width="1" fill="none" fill-rule="evenodd">
        <g id="icons" transform="translate(-115.000000, -116.000000)" fill-rule="nonzero">
            <g id="email-(3)" transform="translate(115.000000, 116.000000)">
                <g id="Group" transform="translate(0.312500, 0.312500)">
                    <path d="M19.3531641,7.35300781 L19.3531641,18.6863281 C19.3520703,19.0540625 19.0542188,19.3519141 18.6864844,19.3530078 L0.686484375,19.3530078 C0.31875,19.3519141 0.0208984375,19.0540625 0.0198046875,18.6863281 L0.0198046875,7.35300781 L0.159804687,7.24632812 L0.243125,7.35300781 L19.1298047,7.35300781 L19.213125,7.24632812 L19.3531641,7.35300781 Z" id="Path" fill="#3B81BF"></path>
                    <path d="M18.3531641,7.35300781 L18.3531641,18.6863281 C18.3520703,19.0540625 18.0542187,19.3519141 17.6864844,19.3530078 L0.686484375,19.3530078 C0.66421875,19.3536328 0.641914063,19.3525391 0.619804688,19.3496875 C0.604023438,19.3493359 0.588359375,19.3471094 0.573125,19.3430078 C0.40328125,19.3132812 0.251523438,19.2189063 0.149804688,19.0796875 C0.064609375,18.9663281 0.0189453125,18.8281641 0.0197927763,18.6863672 L0.0197927763,7.35300781 L18.1298047,7.35300781 L18.213125,7.24632812 L18.3531641,7.35300781 Z" id="Path" fill="#3B81BF"></path>
                    <path d="M19.2131641,7.24632812 L19.1298437,7.35300781 L10.0198438,14.3530078 L9.35316406,14.3530078 L0.243164063,7.35300781 L0.15984375,7.24632813 L3.35316406,4.76300781 L7.74648438,1.35300781 L9.28316406,0.1596875 C9.51964844,-0.0269921875 9.85332031,-0.0269921875 10.0898438,0.1596875 L11.6265234,1.35300781 L16.0198437,4.76300781 L19.2131641,7.24632812 Z" id="Path" fill="#3575AE"></path>
                    <path d="M16.0198437,2.0196875 L16.0198437,9.74300781 L15.0198437,10.5130078 L10.0198437,14.3530078 L9.35316406,14.3530078 L3.35316406,9.74300781 L3.35316406,2.0196875 C3.35425781,1.65195312 3.65210937,1.35410156 4.01984375,1.35300781 L15.3531641,1.35300781 C15.7208984,1.35410156 16.01875,1.65195312 16.0198437,2.0196875 Z" id="Path" fill="#FFCA13"></path>
                    <path d="M15.0198437,2.0196875 L15.0198437,10.5130078 L10.0198437,14.3530078 L9.35316406,14.3530078 L3.35316406,9.74300781 L3.35316406,2.0196875 C3.35425781,1.65195312 3.65210937,1.35410156 4.01984375,1.35300781 L14.3531641,1.35300781 C14.7208984,1.35410156 15.01875,1.65195312 15.0198437,2.0196875 Z" id="Path" fill="#FFCA13"></path>
                    <path d="M19.2231641,19.0796875 C19.09875,19.2519141 18.8989844,19.3536719 18.6864844,19.353011 L17.6864844,19.353011 C18.0542187,19.3519141 18.3520703,19.0540625 18.3531641,18.6863281 L18.3531641,18.4030078 L19.2231641,19.0796875 Z" id="Path" fill="#3575AE"></path>
                    <path d="M18.3531641,18.4030078 L18.3531641,18.6863281 C18.3520703,19.0540625 18.0542188,19.3519141 17.6864844,19.3530078 L0.686484375,19.3530078 C0.66421875,19.3536328 0.641914063,19.3525391 0.619804688,19.3496875 C0.604023438,19.3493359 0.588359375,19.3471094 0.573125,19.3430078 C0.40328125,19.3132812 0.251523438,19.2189062 0.149804688,19.0796875 L7.78648438,13.1496875 L9.28316406,11.9863672 C9.51964844,11.7996875 9.85332031,11.7996875 10.0898438,11.9863672 L11.5865234,13.1496875 L18.3531641,18.4030078 Z" id="Path" fill="#3B81BF"></path>
                </g>
                <g id="Group" fill="#3575AE">
                    <path d="M19.9813281,7.57785156 C19.9767578,7.55820313 19.9703906,7.53902344 19.9623437,7.52050781 C19.9530078,7.50242188 19.9418359,7.4853125 19.9290234,7.46949219 C19.9161719,7.45070313 19.9012891,7.43339844 19.8846875,7.4178125 C19.8793359,7.41316406 19.8770312,7.40679688 19.8713672,7.40214844 L16.6657031,4.9125 L16.6657031,2.3321875 C16.6657031,1.77992188 16.2179687,1.3321875 15.6657031,1.3321875 L12.0533594,1.3321875 L10.6069922,0.209179688 C10.2496875,-0.0694921875 9.74863281,-0.0694921875 9.39132812,0.209179688 L7.94464844,1.3321875 L4.33230469,1.3321875 C3.78003906,1.3321875 3.33230469,1.77992188 3.33230469,2.3321875 L3.33230469,4.91253906 L0.12765625,7.4021875 C0.121992187,7.40683594 0.119648437,7.41320313 0.114335937,7.41785156 C0.097734375,7.43339844 0.0828515625,7.45074219 0.07,7.46953125 C0.0571875,7.48535156 0.046015625,7.50242188 0.0366796875,7.52054688 C0.02859375,7.53902344 0.022265625,7.55824219 0.0176953125,7.57789063 C0.0107421875,7.59957031 0.006171875,7.62191406 0.0040234375,7.64457031 C0.0040234375,7.6515625 3.90625e-05,7.65757813 3.90625e-05,7.66457031 L3.90625e-05,18.9988281 C0.0005078125,19.2108594 0.0691015625,19.4171094 0.195703125,19.5871484 C0.197695312,19.5901563 0.198046875,19.5938281 0.200351562,19.5964844 C0.202695312,19.5991406 0.207695312,19.6021484 0.211015625,19.6058203 C0.39828125,19.8522266 0.68953125,19.9975 0.999023437,19.9988281 L18.9990234,19.9988281 C19.3097266,19.9978906 19.6021875,19.8519141 19.7896875,19.6041797 C19.7923437,19.6008594 19.7963672,19.5998437 19.7986719,19.5965234 C19.8010156,19.5932031 19.8013281,19.5901953 19.8033203,19.5871875 C19.9299219,19.4171484 19.9985547,19.2108594 19.9989844,18.9988672 L19.9989844,7.66550781 C19.9989844,7.65851563 19.9953125,7.6525 19.995,7.64550781 C19.9929297,7.62253906 19.9883594,7.59984375 19.9813281,7.57785156 Z M9.79898437,0.73515625 C9.91539062,0.64265625 10.0802344,0.64265625 10.1966406,0.73515625 L10.965625,1.33214844 L9.03230469,1.33214844 L9.79898437,0.73515625 Z M3.66566406,8.66550781 C3.84976562,8.66550781 3.99898437,8.51625 3.99898437,8.3321875 L3.99898437,2.3321875 C3.99898437,2.14808594 4.14824219,1.99886719 4.33230469,1.99886719 L15.665625,1.99886719 C15.8497266,1.99886719 15.9989453,2.148125 15.9989453,2.3321875 L15.9989453,8.3321875 C15.9989453,8.51628906 16.1481641,8.66550781 16.3322656,8.66550781 C16.5163672,8.66550781 16.6655859,8.51625 16.6655859,8.3321875 L16.6655859,5.75652344 L19.0105859,7.57886719 L13.4516016,11.8955469 C13.3559766,11.9680078 13.3066406,12.0862891 13.3225,12.2052344 C13.3383594,12.3241797 13.4169141,12.4254297 13.5282031,12.4703125 C13.6394922,12.5151953 13.7663281,12.4968359 13.8602734,12.4221875 L19.3322656,8.17320312 L19.3322656,18.8125 L10.6069922,12.0358203 C10.2496094,11.7573828 9.74871094,11.7573828 9.39132812,12.0358203 L0.665664063,18.8125 L0.665664063,8.17316406 L6.12800781,12.4148437 C6.27355469,12.5276953 6.48300781,12.5012109 6.59585937,12.3556641 C6.70871094,12.2101172 6.68222656,12.0006641 6.53667969,11.8878125 L0.98734375,7.57882812 L3.33234375,5.75648437 L3.33234375,8.33214844 C3.33234375,8.51625 3.4815625,8.66550781 3.66566406,8.66550781 Z M18.915,19.3321875 L1.08300781,19.3321875 L9.79902344,12.5618359 C9.91550781,12.4694922 10.0802344,12.4694922 10.1966797,12.5618359 L18.915,19.3321875 Z" id="Shape"></path>
                    <path d="M9.99898437,10.6655078 C10.1830859,10.6655078 10.3323047,10.5162891 10.3323047,10.3321875 C10.3323047,10.1480859 10.1830469,9.99886719 9.99898437,9.99886719 C8.15804688,9.99886719 6.66566406,8.50648437 6.66566406,6.66554687 C6.66566406,4.82460937 8.15804688,3.33222656 9.99898437,3.33222656 C11.8399219,3.33222656 13.3323047,4.82460937 13.3323047,6.66554687 L13.3323047,7.99886719 C13.3323047,8.36707031 13.0338281,8.66554688 12.665625,8.66554688 C12.2974219,8.66554688 11.9989453,8.36707031 11.9989453,7.99886719 L11.9989453,6.66554687 C11.9989453,6.48144531 11.8497266,6.33222656 11.665625,6.33222656 C11.4815234,6.33222656 11.3323047,6.48144531 11.3323047,6.66554687 C11.3323047,7.40191406 10.7353516,7.99886719 9.99898437,7.99886719 C9.26261719,7.99886719 8.66566406,7.40191406 8.66566406,6.66554687 C8.66566406,5.92917969 9.26261719,5.33222656 9.99898437,5.33222656 C10.1830859,5.33222656 10.3323047,5.18296875 10.3323047,4.99890625 C10.3323047,4.81480469 10.1830469,4.66558594 9.99898437,4.66558594 C9.10386719,4.66359375 8.31640625,5.25660156 8.07109375,6.11746094 C7.82578125,6.97832031 8.18230469,7.89734375 8.94402344,8.3675 C9.70574219,8.83765625 10.6870703,8.74441406 11.3466406,8.13925781 C11.4192187,8.84417969 12.0319141,9.36832031 12.7395703,9.33085937 C13.4472266,9.29339844 14.0011719,8.70757812 13.9989844,7.99890625 L13.9989844,6.66558594 C13.9989844,4.45644531 12.208125,2.66558594 9.99898437,2.66558594 C7.78984375,2.66558594 5.99898437,4.45644531 5.99898437,6.66558594 C5.99898437,8.87472656 7.78984375,10.6655078 9.99898437,10.6655078 Z" id="Path"></path>
                </g>
            </g>
        </g>
    </g>
</svg>