<?xml version="1.0" encoding="UTF-8"?>
<svg width="20px" height="20px" viewBox="0 0 20 20" version="1.1" xmlns="http://www.w3.org/2000/svg" xmlns:xlink="http://www.w3.org/1999/xlink">
    <title>3CC19706-7ED1-40A4-80DA-152264395560@1x</title>
    <g id="Dokodemo-Web-Profile" stroke="none" stroke-width="1" fill="none" fill-rule="evenodd">
        <g id="Desktop-" transform="translate(-950.000000, -5039.000000)" fill="#FFFFFF" fill-rule="nonzero">
            <g id="footer" transform="translate(0.000000, 4933.000000)">
                <g id="phone-call-(3)" transform="translate(950.000000, 106.000000)">
                    <path d="M19.2480566,14.6281656 L16.5547144,11.9404815 C15.5928065,10.9805944 13.957563,11.3645867 13.5727998,12.6124026 C13.2842275,13.4763385 12.3223195,13.9562821 11.4566024,13.7642671 C9.53278655,13.2843236 6.93563516,10.788617 6.4546812,8.77285392 C6.16610882,7.90891798 6.74325358,6.94903082 7.60897071,6.66110216 C8.85945101,6.2771473 9.24421418,4.64533913 8.28230625,3.68545197 L5.58896407,0.99776792 C4.81943773,0.325846907 3.66514822,0.325846907 2.99181268,0.99776792 L1.16418762,2.82155352 C-0.663437433,4.74132784 1.35656921,9.82872979 5.87753645,14.3401994 C10.3985037,18.8516691 15.4966157,20.9634583 17.4204315,19.0436465 L19.2480566,17.2198609 C19.9214297,16.4519512 19.9214297,15.3000866 19.2480566,14.6281656 Z" id="Path"></path>
                </g>
            </g>
        </g>
    </g>
</svg>