<?xml version="1.0" encoding="UTF-8"?>
<svg width="20px" height="20px" viewBox="0 0 20 20" version="1.1" xmlns="http://www.w3.org/2000/svg" xmlns:xlink="http://www.w3.org/1999/xlink">
    <title>D0A7E2F6-151A-4E85-9F64-6849713C9ECD@1x</title>
    <g id="Dokodemo-Web-Profile" stroke="none" stroke-width="1" fill="none" fill-rule="evenodd">
        <g id="Desktop-" transform="translate(-1037.000000, -5039.000000)" fill="#FFFFFF" fill-rule="nonzero">
            <g id="footer" transform="translate(0.000000, 4933.000000)">
                <g id="whatsapp-(4)" transform="translate(1037.000000, 106.000000)">
                    <path d="M10.1214583,0.476190476 L10.1166369,0.476190476 C4.79980655,0.476190476 0.476190476,4.8010119 0.476190476,10.1190476 C0.476190476,12.2284226 1.1560119,14.1835119 2.3119494,15.7709673 L1.11020833,19.3532887 L4.81668155,18.1684226 C6.34145833,19.1785119 8.16034226,19.7619048 10.1214583,19.7619048 C15.4382887,19.7619048 19.7619048,15.435878 19.7619048,10.1190476 C19.7619048,4.80221726 15.4382887,0.476190476 10.1214583,0.476190476 Z M15.7323958,14.0931101 C15.4997619,14.7500298 14.5764583,15.2948512 13.8399851,15.4539583 C13.3361458,15.5612351 12.6780208,15.6468155 10.4625744,14.7283333 C7.62877976,13.5543155 5.80386905,10.6747173 5.6616369,10.4878869 C5.52543155,10.3010565 4.51654762,8.96311012 4.51654762,7.57936012 C4.51654762,6.19561012 5.21927083,5.52181548 5.50252976,5.23252976 C5.73516369,4.9950744 6.11967262,4.88659226 6.4885119,4.88659226 C6.60784226,4.88659226 6.71511905,4.89261905 6.81154762,4.89744048 C7.09480655,4.90949405 7.23703869,4.92636905 7.42386905,5.37355655 C7.65650298,5.93404762 8.22302083,7.31779762 8.29052083,7.46002976 C8.35922619,7.6022619 8.42793155,7.79511905 8.33150298,7.9819494 C8.24110119,8.17480655 8.16154762,8.2603869 8.01931548,8.42431548 C7.87708333,8.58824405 7.74208333,8.71360119 7.59985119,8.88958333 C7.46967262,9.04266369 7.32261905,9.20659226 7.48654762,9.48985119 C7.65047619,9.76708333 8.21699405,10.6915923 9.05110119,11.4340923 C10.1274851,12.3923512 11.0001637,12.6985119 11.3123512,12.8286905 C11.5449851,12.925119 11.8222173,12.9022173 11.9921726,12.7214137 C12.2079315,12.4887798 12.4743155,12.1030655 12.7455208,11.723378 C12.938378,11.4509673 13.1818601,11.4172173 13.4373958,11.5136458 C13.697753,11.6040476 15.0754762,12.2850744 15.3587351,12.4261012 C15.641994,12.5683333 15.8288244,12.6358333 15.8975298,12.7551637 C15.9650298,12.874494 15.9650298,13.4349851 15.7323958,14.0931101 Z" id="Shape"></path>
                </g>
            </g>
        </g>
    </g>
</svg>