<?xml version="1.0" encoding="UTF-8"?>
<svg width="20px" height="20px" viewBox="0 0 20 20" version="1.1" xmlns="http://www.w3.org/2000/svg" xmlns:xlink="http://www.w3.org/1999/xlink">
    <title>513ACDAF-41C7-477B-B639-9D6D9C26AE1D@1x</title>
    <g id="Dokodemo-Web-Profile" stroke="none" stroke-width="1" fill="none" fill-rule="evenodd">
        <g id="icons" transform="translate(-77.000000, -116.000000)" fill="#C0C0C0" fill-rule="nonzero">
            <g id="email-(2)" transform="translate(77.000000, 116.000000)">
                <path d="M19.995,7.64550781 C19.9929297,7.62253906 19.9883594,7.59984375 19.9813281,7.57785156 C19.9767578,7.55820312 19.9703906,7.53902344 19.9623437,7.52050781 C19.9530078,7.50242187 19.9418359,7.4853125 19.9290234,7.46949219 C19.9161719,7.45070312 19.9012891,7.43339844 19.8846875,7.4178125 C19.8793359,7.41316406 19.8770312,7.40679687 19.8713672,7.40214844 L16.6657031,4.9125 L16.6657031,2.3321875 C16.6657031,1.77992187 16.2179688,1.3321875 15.6657031,1.3321875 L12.0533594,1.3321875 L10.6069922,0.209179688 C10.2496875,-0.0694921875 9.74863281,-0.0694921875 9.39132812,0.209179688 L7.94464844,1.3321875 L4.33230469,1.3321875 C3.78003906,1.3321875 3.33230469,1.77988281 3.33230469,2.3321875 L3.33230469,4.91253906 L0.12765625,7.4021875 C0.121992188,7.406875 0.119648438,7.41320312 0.114335938,7.41785156 C0.097734375,7.43339844 0.0828515625,7.45074219 0.07,7.46953125 C0.0571875,7.48535156 0.046015625,7.50242187 0.0366796875,7.52054687 C0.02859375,7.53902344 0.022265625,7.55824219 0.0176953125,7.57789062 C0.0107421875,7.59957031 0.006171875,7.62191406 0.0040234375,7.64457031 C0.0040234375,7.6515625 3.90625e-05,7.65757812 3.90625e-05,7.66457031 L3.90625e-05,18.9988281 C0.0005078125,19.2108594 0.0691015625,19.4171094 0.195703125,19.5871484 C0.197695313,19.5901562 0.198046875,19.5938281 0.200351563,19.5964844 C0.202695313,19.5991406 0.207695313,19.6021484 0.211015625,19.6058203 C0.39828125,19.8522266 0.68953125,19.9975 0.999023437,19.9988281 L18.9990234,19.9988281 C19.3097266,19.9978906 19.6021875,19.8519141 19.7896875,19.6041797 C19.7923437,19.6008594 19.7963672,19.5998437 19.7986719,19.5965234 C19.8010156,19.5932031 19.8013281,19.5901953 19.8033594,19.5871875 C19.9299609,19.4171094 19.9985547,19.2108594 19.9990234,18.9988672 L19.9990234,7.66550781 C19.9990234,7.65851562 19.9953516,7.6525 19.995,7.64550781 Z M9.79898437,0.73515625 C9.91539062,0.64265625 10.0802344,0.64265625 10.1966406,0.73515625 L10.965625,1.33214844 L9.03230469,1.33214844 L9.79898437,0.73515625 Z M1.08300781,19.3321875 L9.79902344,12.5618359 C9.91550781,12.4694922 10.0802344,12.4694922 10.1966797,12.5618359 L18.915,19.3321875 L1.08300781,19.3321875 Z M19.3323437,18.8125 L10.6069922,12.0358203 C10.2496094,11.7573828 9.74871094,11.7573828 9.39132812,12.0358203 L0.665664063,18.8125 L0.665664063,8.17316406 L6.12800781,12.4148438 C6.27355469,12.5276953 6.48300781,12.5012109 6.59585938,12.3556641 C6.70871094,12.2101172 6.68222656,12.0006641 6.53667969,11.8878125 L0.98734375,7.57882813 L3.33234375,5.75648437 L3.33234375,8.33214844 C3.33234375,8.51625 3.48160156,8.66546875 3.66566406,8.66546875 C3.84976562,8.66546875 3.99898438,8.51621094 3.99898438,8.33214844 L3.99898438,2.33214844 C3.99898438,2.14804688 4.14820312,1.99882813 4.33230469,1.99882813 L15.665625,1.99882813 C15.8497266,1.99882813 15.9989453,2.14804688 15.9989453,2.33214844 L15.9989453,8.33214844 C15.9989453,8.51625 16.1481641,8.66546875 16.3322656,8.66546875 C16.5163672,8.66546875 16.6655859,8.51621094 16.6655859,8.33214844 L16.6655859,5.75648437 L19.0105859,7.57882813 L13.4516016,11.8955078 C13.3559766,11.9679688 13.3066406,12.08625 13.3225,12.2051953 C13.3383594,12.3241406 13.4169141,12.4253906 13.5282031,12.4702734 C13.6394922,12.5151562 13.7663281,12.4967969 13.8602734,12.4221484 L19.3323437,8.17316406 L19.3323437,18.8125 L19.3323437,18.8125 Z" id="Shape"></path>
                <path d="M13.9989844,7.99882812 L13.9989844,6.66550781 C13.9989844,4.45636719 12.208125,2.66550781 9.99898438,2.66550781 C7.78984375,2.66550781 5.99898438,4.45636719 5.99898438,6.66550781 C5.99898438,8.87464844 7.78984375,10.6655078 9.99898438,10.6655078 C10.1830859,10.6655078 10.3323047,10.5162891 10.3323047,10.3321875 C10.3323047,10.1480859 10.1830859,9.99886719 9.99898438,9.99886719 C8.15804688,9.99886719 6.66566406,8.50648437 6.66566406,6.66554688 C6.66566406,4.82460938 8.15804688,3.33222656 9.99898438,3.33222656 C11.8399219,3.33222656 13.3323047,4.82460938 13.3323047,6.66554688 L13.3323047,7.99886719 C13.3323047,8.36707031 13.0338281,8.66554688 12.665625,8.66554688 C12.2974219,8.66554688 11.9989453,8.36707031 11.9989453,7.99886719 L11.9989453,6.66554688 C11.9989453,6.48144531 11.8497266,6.33222656 11.665625,6.33222656 C11.4815234,6.33222656 11.3323047,6.48144531 11.3323047,6.66554688 C11.3323047,7.40191406 10.7353516,7.99886719 9.99898438,7.99886719 C9.26261719,7.99886719 8.66566406,7.40191406 8.66566406,6.66554688 C8.66566406,5.92917969 9.26261719,5.33222656 9.99898438,5.33222656 C10.1830859,5.33222656 10.3323047,5.18300781 10.3323047,4.99890625 C10.3323047,4.81480469 10.1830859,4.66558594 9.99898438,4.66558594 C9.10386719,4.66359375 8.31640625,5.25660156 8.07109375,6.11746094 C7.82578125,6.97832031 8.18230469,7.89734375 8.94402344,8.3675 C9.70574219,8.83765625 10.6870703,8.74445313 11.3466406,8.13925781 C11.4192187,8.84417969 12.0319141,9.36832031 12.7395703,9.33085938 C13.4472656,9.29335937 14.0012109,8.7075 13.9989844,7.99882812 Z" id="Path"></path>
            </g>
        </g>
    </g>
</svg>