<?xml version="1.0" encoding="UTF-8"?>
<svg width="20px" height="20px" viewBox="0 0 20 20" version="1.1" xmlns="http://www.w3.org/2000/svg" xmlns:xlink="http://www.w3.org/1999/xlink">
    <title>A1FC9D14-39E6-4321-856C-7921DDA1E812@1x</title>
    <g id="Dokodemo-Web-Profile" stroke="none" stroke-width="1" fill="none" fill-rule="evenodd">
        <g id="Desktop---popup" transform="translate(-374.000000, -612.000000)" fill-rule="nonzero">
            <g id="pop-p" transform="translate(337.000000, 455.000000)">
                <g id="user-(11)" transform="translate(37.000000, 157.000000)">
                    <path d="M7.18490083,15.7601107 L4.34468339,17.3575954 C4.18127953,17.4514902 4.02840915,17.5637263 3.88888889,17.692195 C7.41656003,20.7571042 12.568315,20.7706314 16.1111111,17.7243421 C15.958125,17.5889108 15.7900524,17.4727358 15.6104433,17.3782443 L12.5693182,15.8103603 C12.1763387,15.6077704 11.9281269,15.1935988 11.9281269,14.7405564 L11.9281269,13.5100969 C12.0302591,13.3881133 12.1262564,13.2607983 12.2158102,13.128709 C12.6260754,12.5274242 12.9448576,11.8649885 13.1610446,11.1643583 C13.561548,11.0387541 13.8361128,10.6589178 13.8383507,10.2272802 L13.8383507,8.91410582 C13.8373089,8.63592259 13.7215565,8.37130637 13.5199929,8.18638136 L13.5199929,6.28787632 C13.5199929,6.28787632 13.8980403,3.33333333 10.0179416,3.33333333 C6.13784291,3.33333333 6.51589035,6.28787632 6.51589035,6.28787632 L6.51589035,8.18638136 C6.31432678,8.37130637 6.19857435,8.63592259 6.19753258,8.91410582 L6.19753258,10.2272802 C6.19853577,10.5619595 6.36437042,10.873165 6.63773908,11.0535147 C6.84910302,11.9470271 7.24158094,12.7842822 7.78936004,13.5100969 L7.78936004,14.7100406 C7.78936004,15.1477654 7.5575465,15.5504786 7.18490083,15.7601107 Z" id="Path" fill="#FFCA13"></path>
                    <g id="Group" fill="#3B81BF">
                        <path d="M10,20 C4.47714844,20 0,15.5228516 0,10 C0,4.47714844 4.47714844,0 10,0 C15.5228516,0 20,4.47714844 20,10 C19.9936328,15.5201953 15.5201953,19.9936328 10,20 Z M10,0.727265625 C4.87882812,0.727265625 0.727265625,4.87882812 0.727265625,10 C0.727265625,15.1211719 4.87882812,19.2727344 10,19.2727344 C15.1211719,19.2727344 19.2727344,15.1211719 19.2727344,10 C19.266875,4.88125 15.11875,0.733125 10,0.727265625 Z" id="Shape"></path>
                        <path d="M10,20 C7.64355469,19.9986719 5.363125,19.1659375 3.56035156,17.6484375 C3.47917969,17.58 3.43199219,17.4795312 3.4310807,17.3733984 C3.43019531,17.2672656 3.47574219,17.1660156 3.55574219,17.09625 C3.71699219,16.9527344 3.89363281,16.8274219 4.08238281,16.7226562 L6.95773438,15.1544922 C7.21828125,15.0123437 7.38035156,14.7392578 7.3803125,14.4425 L7.3803125,13.3903125 C6.86109375,12.6944922 6.47941406,11.9060156 6.25566406,11.0671484 C5.94734375,10.8157422 5.7684375,10.4390234 5.7684375,10.0412109 L5.7684375,8.75214844 C5.76953125,8.43566406 5.88390625,8.13003906 6.09089844,7.890625 L6.09089844,6.19351562 C6.02804688,5.42011719 6.27425781,4.65332031 6.77554688,4.06105469 C7.44566406,3.29652344 8.53054688,2.90910156 10,2.90910156 C11.4694531,2.90910156 12.5543359,3.29652344 13.2244141,4.06109375 C13.7257031,4.65335937 13.971875,5.42015625 13.9090625,6.19355469 L13.9090625,7.890625 C14.1160156,8.13003906 14.2304297,8.43566406 14.2315234,8.75214844 L14.2315234,10.0412109 C14.2321484,10.5532031 13.9366406,11.0193359 13.4733594,11.2372266 C13.2458203,11.9 12.9255469,12.5272266 12.5219922,13.1001172 C12.4442188,13.2098437 12.3689453,13.3092969 12.2975781,13.3973437 L12.2975781,14.4726172 C12.2966016,14.7798828 12.4704297,15.0610156 12.7457422,15.1974609 L15.8245703,16.736875 C16.0321484,16.8423828 16.2263281,16.9723437 16.4030469,17.1239453 C16.4852734,17.1932422 16.5325781,17.2953516 16.5323059,17.4028516 C16.5320313,17.5103516 16.4841797,17.6122266 16.4016016,17.6810937 C14.6042578,19.1783594 12.3392969,19.9987891 10,20 Z M4.39203125,17.3828125 C7.68859375,19.8890625 12.2478125,19.9040234 15.5607031,17.419375 C15.5401172,17.4083594 15.5198828,17.3976953 15.4992578,17.3874219 L12.4204297,15.8480078 C11.8979688,15.5891797 11.5682422,15.0557031 11.5702734,14.4726562 L11.5702734,13.2645703 C11.5702734,13.1763672 11.6023047,13.0911719 11.6604688,13.0248828 C11.7554297,12.914375 11.8447656,12.7991797 11.9282031,12.6797266 C12.3222266,12.1195703 12.6283203,11.5024609 12.8358594,10.8498437 C12.8723047,10.7369922 12.9615234,10.6489844 13.0748438,10.6140625 C13.3271875,10.5366406 13.5006641,10.3051953 13.5041797,10.04125 L13.5041797,8.7521875 C13.5035938,8.58179687 13.4298828,8.41988281 13.3017578,8.30757812 C13.2253516,8.23867187 13.1817188,8.14058594 13.1817188,8.03769531 L13.1817188,6.17371094 C13.1817188,6.1578125 13.1827734,6.14191406 13.1849219,6.12613281 C13.2273828,5.54847656 13.0430469,4.97703125 12.6710547,4.53308594 C12.1441016,3.93828125 11.2456641,3.63644531 9.99992188,3.63644531 C8.74921875,3.63644531 7.84828125,3.94078125 7.32238281,4.54054687 C6.95121094,4.98171875 6.76890625,5.55140625 6.81492188,6.12613281 C6.81707031,6.14191406 6.818125,6.1578125 6.818125,6.17371094 L6.818125,8.03769531 C6.818125,8.14058594 6.77449219,8.23867187 6.69808594,8.30757812 C6.56996094,8.41988281 6.49625,8.58179687 6.49566406,8.7521875 L6.49566406,10.04125 C6.49640625,10.2465625 6.60175781,10.4373047 6.77515625,10.5473047 C6.85460938,10.59875 6.91089844,10.6791406 6.93210938,10.7713672 C7.13453125,11.5925781 7.50621094,12.3624219 8.02339844,13.0316797 C8.07761719,13.0972266 8.10734375,13.1795703 8.10757813,13.2646484 L8.10757813,14.4425391 C8.10769531,15.0055469 7.80011719,15.5236328 7.30574219,15.7930469 L7.30574219,15.7930469 L4.43039063,17.3612109 C4.41761719,17.3682422 4.40484375,17.3753516 4.39203125,17.3828125 Z" id="Shape"></path>
                    </g>
                </g>
            </g>
        </g>
    </g>
</svg>