<?xml version="1.0" encoding="UTF-8"?>
<svg width="21px" height="20px" viewBox="0 0 21 20" version="1.1" xmlns="http://www.w3.org/2000/svg" xmlns:xlink="http://www.w3.org/1999/xlink">
    <title>3F893A1D-3FAA-4F72-B4E3-E3870E47D2E6@1x</title>
    <g id="Dokodemo-Web-Profile" stroke="none" stroke-width="1" fill="none" fill-rule="evenodd">
        <g id="icons" transform="translate(-156.000000, -116.000000)" fill="#C0C0C0" fill-rule="nonzero">
            <g id="telephone" transform="translate(156.000000, 116.000000)">
                <path d="M19.9344534,3.86825911 C19.1390688,2.77380567 17.7461943,1.78595142 16.0123482,1.08676113 C14.2878543,0.391376518 12.285587,0.00684210526 10.3742915,0.00404463031 C8.46283401,-0.000688259109 6.45809717,0.379878543 4.7311336,1.06987854 C2.9942915,1.76384615 1.59805668,2.74740891 0.799797571,3.83927126 C0.0330769231,4.88797571 -0.187894737,6.0182996 0.160728745,7.10805668 C0.386882591,7.81502024 1.04659919,8.29068826 1.80275304,8.29178138 L4.39186235,8.29421053 C4.39271255,8.29421053 4.39356275,8.29421053 4.39445344,8.29421053 C4.91072874,8.29417004 5.39578947,8.06817814 5.7254251,7.67388664 C6.05157895,7.28380567 6.18668016,6.7740081 6.09611336,6.2751417 C6.09348178,6.26052632 6.09024291,6.24595142 6.0865587,6.23149798 L5.95032389,5.70186235 C6.70473684,5.34190283 8.41404858,4.64643725 10.3663158,4.65748988 C12.317166,4.66748988 14.0253036,5.36255061 14.7806478,5.72267206 L14.6422267,6.24931174 C14.6382996,6.26421053 14.6349798,6.27923077 14.6321457,6.29433198 C14.5402024,6.79291498 14.6738057,7.30307692 14.9988259,7.69408907 C15.3278947,8.09004049 15.8133198,8.31748988 16.3309312,8.31825911 L18.9200405,8.32068826 C18.9208907,8.32068826 18.9217814,8.32068826 18.9226316,8.32068826 C19.6773279,8.32068826 20.337247,7.84716599 20.5651417,7.1417004 C20.917004,6.05218623 20.6989474,4.92024291 19.9344534,3.86825911 Z M19.3878543,6.76137652 C19.3265182,6.95117409 19.1353036,7.08356275 18.9221862,7.08356275 C18.9219838,7.08356275 18.9217004,7.08356275 18.9214575,7.08356275 L16.3323482,7.0811336 C16.1831984,7.08093117 16.0438866,7.01611336 15.9501215,6.90327935 C15.8991498,6.84194332 15.8195951,6.71437247 15.8456275,6.53696356 L16.1031984,5.55708502 C16.1737652,5.28854251 16.0568016,5.00595142 15.817085,4.86578947 C15.7172065,4.80740891 13.3365182,3.43550607 10.3726316,3.42024291 C10.3561538,3.42016194 10.3401619,3.42012146 10.3237247,3.42012146 C7.37890688,3.42012146 5.01518219,4.78603239 4.91546559,4.84449393 C4.67728745,4.98417004 4.56052632,5.26473684 4.62931174,5.53218623 L4.88178138,6.51364372 C4.90757085,6.691417 4.82753036,6.81898785 4.77631579,6.8802834 C4.68242915,6.99259109 4.54323887,7.05696356 4.39408907,7.05696356 C4.39384615,7.05696356 4.39360324,7.05696356 4.39336032,7.05696356 L1.80421053,7.05453441 C1.5911336,7.05421053 1.39983806,6.92117409 1.33902834,6.73097166 C1.11263158,6.02323887 1.26720648,5.29591093 1.79846154,4.56927126 C3.20967611,2.63906883 6.80481781,1.24105263 10.3531984,1.24105263 C10.3595142,1.24105263 10.3662753,1.24105263 10.3725911,1.24105263 C13.9244939,1.24615385 17.5250202,2.65688259 18.9338057,4.5954251 C19.4637247,5.3248583 19.6165587,6.05356275 19.3878543,6.76137652 Z" id="Shape"></path>
                <path d="M16.2184211,10.9638462 L14.2876113,8.93651822 C14.1708097,8.81392713 14.0089879,8.7445749 13.8397166,8.7445749 L12.5919433,8.7445749 L12.5919433,7.90153846 C12.5919433,7.55991903 12.3150202,7.28299595 11.9734008,7.28299595 C11.6318219,7.28299595 11.3548583,7.55991903 11.3548583,7.90153846 L11.3548583,8.7445749 L9.37421053,8.7445749 L9.37421053,7.90153846 C9.37421053,7.55991903 9.09728745,7.28299595 8.75566802,7.28299595 C8.41404858,7.28299595 8.13712551,7.55991903 8.13712551,7.90153846 L8.13712551,8.7445749 L6.88939271,8.7445749 C6.72012146,8.7445749 6.55821862,8.81396761 6.44149798,8.93651822 L4.51072874,10.9638462 C2.99688259,12.5534008 2.16315789,14.6376923 2.16315789,16.832753 L2.16315789,19.3774089 C2.16315789,19.7190283 2.44008097,19.9959514 2.7817004,19.9959514 L17.9473684,19.9959514 C18.2889879,19.9959514 18.5659109,19.7190283 18.5659109,19.3774089 L18.5659109,16.832753 C18.5659109,14.6376518 17.7322672,12.5534008 16.2184211,10.9638462 Z M3.40024291,18.7588664 L3.40024291,16.832753 C3.40024291,14.9567611 4.11275304,13.1755061 5.40659919,11.8169636 L7.15453441,9.98157895 L13.5746154,9.98157895 L15.3225506,11.8169636 C16.6163158,13.1754251 17.3288259,14.9567611 17.3288259,16.832753 L17.3288259,18.7588664 L3.40024291,18.7588664 Z" id="Shape"></path>
                <path d="M10.3645749,11.2605263 C8.57955466,11.2605263 7.12736842,12.712753 7.12736842,14.4977328 C7.12736842,16.282753 8.57959514,17.7349798 10.3645749,17.7349798 C12.1495547,17.7349798 13.6017814,16.282753 13.6017814,14.4977328 C13.6017814,12.7127126 12.1495951,11.2605263 10.3645749,11.2605263 Z M10.3645749,16.4978543 C9.26165992,16.4978543 8.36445344,15.6006073 8.36445344,14.4976923 C8.36445344,13.3948178 9.2617004,12.4975709 10.3645749,12.4975709 C11.4674494,12.4975709 12.3646964,13.3948178 12.3646964,14.4976923 C12.3646964,15.6006073 11.4674494,16.4978543 10.3645749,16.4978543 Z" id="Shape"></path>
            </g>
        </g>
    </g>
</svg>