<?xml version="1.0" encoding="UTF-8"?>
<svg width="85px" height="86px" viewBox="0 0 85 86" version="1.1" xmlns="http://www.w3.org/2000/svg" xmlns:xlink="http://www.w3.org/1999/xlink">
    <title>A7AD5D5D-C438-4794-90CE-D5BC6E43CD78@1x</title>
    <g id="Dokodemo-Web-Profile" stroke="none" stroke-width="1" fill="none" fill-rule="evenodd" opacity="0.300000012">
        <g id="Desktop---popup" transform="translate(-873.000000, -932.000000)" fill="#3B81BF">
            <g id="pop-p" transform="translate(337.000000, 455.000000)">
                <g id="Group-97-Copy" transform="translate(536.000000, 477.000000)">
                    <path d="M4,2 C4,3.10411199 3.10479107,4 1.99956246,4 C0.895208926,4 0,3.10411199 0,2 C0,0.895888014 0.895208926,0 1.99956246,0 C3.10479107,0 4,0.895888014 4,2" id="Fill-1"></path>
                    <path d="M4,16 C4,17.104112 3.10479107,18 1.99956246,18 C0.895208926,18 0,17.104112 0,16 C0,14.895888 0.895208926,14 1.99956246,14 C3.10479107,14 4,14.895888 4,16" id="Fill-4"></path>
                    <path d="M4,30 C4,31.104112 3.10479107,32 1.99956246,32 C0.895208926,32 0,31.104112 0,30 C0,28.8950131 0.895208926,28 1.99956246,28 C3.10479107,28 4,28.8950131 4,30" id="Fill-6"></path>
                    <path d="M4,42.9995625 C4,44.1047911 3.10479107,45 1.99956246,45 C0.895208926,45 0,44.1047911 0,42.9995625 C0,41.8952089 0.895208926,41 1.99956246,41 C3.10479107,41 4,41.8952089 4,42.9995625" id="Fill-8"></path>
                    <path d="M4,56.9995625 C4,58.1047911 3.10479107,59 1.99956246,59 C0.895208926,59 0,58.1047911 0,56.9995625 C0,55.8952089 0.895208926,55 1.99956246,55 C3.10479107,55 4,55.8952089 4,56.9995625" id="Fill-10"></path>
                    <path d="M4,69.9995625 C4,71.1047911 3.10479107,72 1.99956246,72 C0.895208926,72 0,71.1047911 0,69.9995625 C0,68.8952089 0.895208926,68 1.99956246,68 C3.10479107,68 4,68.8952089 4,69.9995625" id="Fill-12"></path>
                    <path d="M4,83.9995625 C4,85.1047911 3.10479107,86 1.99956246,86 C0.895208926,86 0,85.1047911 0,83.9995625 C0,82.8943338 0.895208926,82 1.99956246,82 C3.10479107,82 4,82.8943338 4,83.9995625" id="Fill-14"></path>
                    <path d="M21,2 C21,3.10411199 20.1049869,4 19,4 C17.895888,4 17,3.10411199 17,2 C17,0.895888014 17.895888,0 19,0 C20.1049869,0 21,0.895888014 21,2" id="Fill-16"></path>
                    <path d="M20,16 C20,17.104112 19.1049869,18 18,18 C16.895888,18 16,17.104112 16,16 C16,14.895888 16.895888,14 18,14 C19.1049869,14 20,14.895888 20,16" id="Fill-19"></path>
                    <path d="M20,30 C20,31.104112 19.1049869,32 18,32 C16.895888,32 16,31.104112 16,30 C16,28.8950131 16.895888,28 18,28 C19.1049869,28 20,28.8950131 20,30" id="Fill-21"></path>
                    <path d="M20,42.9995625 C20,44.1047911 19.1049869,45 18,45 C16.895888,45 16,44.1047911 16,42.9995625 C16,41.8952089 16.895888,41 18,41 C19.1049869,41 20,41.8952089 20,42.9995625" id="Fill-23"></path>
                    <path d="M20,56.9995625 C20,58.1047911 19.1049869,59 18,59 C16.895888,59 16,58.1047911 16,56.9995625 C16,55.8952089 16.895888,55 18,55 C19.1049869,55 20,55.8952089 20,56.9995625" id="Fill-25"></path>
                    <path d="M20,69.9995625 C20,71.1047911 19.1049869,72 18,72 C16.895888,72 16,71.1047911 16,69.9995625 C16,68.8952089 16.895888,68 18,68 C19.1049869,68 20,68.8952089 20,69.9995625" id="Fill-27"></path>
                    <path d="M20,83.9995625 C20,85.1047911 19.1049869,86 18,86 C16.895888,86 16,85.1047911 16,83.9995625 C16,82.8943338 16.895888,82 18,82 C19.1049869,82 20,82.8943338 20,83.9995625" id="Fill-29"></path>
                    <path d="M37,2 C37,3.10411199 36.1047911,4 34.9995625,4 C33.8952089,4 33,3.10411199 33,2 C33,0.895888014 33.8952089,0 34.9995625,0 C36.1047911,0 37,0.895888014 37,2" id="Fill-31"></path>
                    <path d="M37,16 C37,17.104112 36.1047911,18 34.9995625,18 C33.8952089,18 33,17.104112 33,16 C33,14.895888 33.8952089,14 34.9995625,14 C36.1047911,14 37,14.895888 37,16" id="Fill-34"></path>
                    <path d="M37,30 C37,31.104112 36.1047911,32 34.9995625,32 C33.8952089,32 33,31.104112 33,30 C33,28.8950131 33.8952089,28 34.9995625,28 C36.1047911,28 37,28.8950131 37,30" id="Fill-36"></path>
                    <path d="M37,42.9995625 C37,44.1047911 36.1047911,45 34.9995625,45 C33.8952089,45 33,44.1047911 33,42.9995625 C33,41.8952089 33.8952089,41 34.9995625,41 C36.1047911,41 37,41.8952089 37,42.9995625" id="Fill-38"></path>
                    <path d="M37,56.9995625 C37,58.1047911 36.1047911,59 34.9995625,59 C33.8952089,59 33,58.1047911 33,56.9995625 C33,55.8952089 33.8952089,55 34.9995625,55 C36.1047911,55 37,55.8952089 37,56.9995625" id="Fill-40"></path>
                    <path d="M37,69.9995625 C37,71.1047911 36.1047911,72 34.9995625,72 C33.8952089,72 33,71.1047911 33,69.9995625 C33,68.8952089 33.8952089,68 34.9995625,68 C36.1047911,68 37,68.8952089 37,69.9995625" id="Fill-42"></path>
                    <path d="M37,83.9995625 C37,85.1047911 36.1047911,86 34.9995625,86 C33.8952089,86 33,85.1047911 33,83.9995625 C33,82.8943338 33.8952089,82 34.9995625,82 C36.1047911,82 37,82.8943338 37,83.9995625" id="Fill-44"></path>
                    <path d="M52,2 C52,3.10411199 51.1049869,4 50,4 C48.895888,4 48,3.10411199 48,2 C48,0.895888014 48.895888,0 50,0 C51.1049869,0 52,0.895888014 52,2" id="Fill-46"></path>
                    <path d="M52,16 C52,17.104112 51.1049869,18 50,18 C48.895888,18 48,17.104112 48,16 C48,14.895888 48.895888,14 50,14 C51.1049869,14 52,14.895888 52,16" id="Fill-49"></path>
                    <path d="M52,30 C52,31.104112 51.1049869,32 50,32 C48.895888,32 48,31.104112 48,30 C48,28.8950131 48.895888,28 50,28 C51.1049869,28 52,28.8950131 52,30" id="Fill-51"></path>
                    <path d="M52,42.9995625 C52,44.1047911 51.1049869,45 50,45 C48.895888,45 48,44.1047911 48,42.9995625 C48,41.8952089 48.895888,41 50,41 C51.1049869,41 52,41.8952089 52,42.9995625" id="Fill-53"></path>
                    <path d="M52,56.9995625 C52,58.1047911 51.1049869,59 50,59 C48.895888,59 48,58.1047911 48,56.9995625 C48,55.8952089 48.895888,55 50,55 C51.1049869,55 52,55.8952089 52,56.9995625" id="Fill-55"></path>
                    <path d="M52,69.9995625 C52,71.1047911 51.1049869,72 50,72 C48.895888,72 48,71.1047911 48,69.9995625 C48,68.8952089 48.895888,68 50,68 C51.1049869,68 52,68.8952089 52,69.9995625" id="Fill-57"></path>
                    <path d="M52,83.9995625 C52,85.1047911 51.1049869,86 50,86 C48.895888,86 48,85.1047911 48,83.9995625 C48,82.8943338 48.895888,82 50,82 C51.1049869,82 52,82.8943338 52,83.9995625" id="Fill-59"></path>
                    <path d="M69,2 C69,3.10411199 68.1049869,4 67,4 C65.895888,4 65,3.10411199 65,2 C65,0.895888014 65.895888,0 67,0 C68.1049869,0 69,0.895888014 69,2" id="Fill-61"></path>
                    <path d="M69,16 C69,17.104112 68.1049869,18 67,18 C65.895888,18 65,17.104112 65,16 C65,14.895888 65.895888,14 67,14 C68.1049869,14 69,14.895888 69,16" id="Fill-64"></path>
                    <path d="M69,30 C69,31.104112 68.1049869,32 67,32 C65.895888,32 65,31.104112 65,30 C65,28.8950131 65.895888,28 67,28 C68.1049869,28 69,28.8950131 69,30" id="Fill-66"></path>
                    <path d="M69,42.9995625 C69,44.1047911 68.1049869,45 67,45 C65.895888,45 65,44.1047911 65,42.9995625 C65,41.8952089 65.895888,41 67,41 C68.1049869,41 69,41.8952089 69,42.9995625" id="Fill-68"></path>
                    <path d="M69,56.9995625 C69,58.1047911 68.1049869,59 67,59 C65.895888,59 65,58.1047911 65,56.9995625 C65,55.8952089 65.895888,55 67,55 C68.1049869,55 69,55.8952089 69,56.9995625" id="Fill-70"></path>
                    <path d="M69,69.9995625 C69,71.1047911 68.1049869,72 67,72 C65.895888,72 65,71.1047911 65,69.9995625 C65,68.8952089 65.895888,68 67,68 C68.1049869,68 69,68.8952089 69,69.9995625" id="Fill-72"></path>
                    <path d="M69,83.9995625 C69,85.1047911 68.1049869,86 67,86 C65.895888,86 65,85.1047911 65,83.9995625 C65,82.8943338 65.895888,82 67,82 C68.1049869,82 69,82.8943338 69,83.9995625" id="Fill-74"></path>
                    <path d="M85,2 C85,3.10411199 84.1049869,4 83,4 C81.895888,4 81,3.10411199 81,2 C81,0.895888014 81.895888,0 83,0 C84.1049869,0 85,0.895888014 85,2" id="Fill-76"></path>
                    <path d="M85,16 C85,17.104112 84.1049869,18 83,18 C81.895888,18 81,17.104112 81,16 C81,14.895888 81.895888,14 83,14 C84.1049869,14 85,14.895888 85,16" id="Fill-79"></path>
                    <path d="M85,30 C85,31.104112 84.1049869,32 83,32 C81.895888,32 81,31.104112 81,30 C81,28.8950131 81.895888,28 83,28 C84.1049869,28 85,28.8950131 85,30" id="Fill-82"></path>
                    <path d="M85,42.9995625 C85,44.1047911 84.1049869,45 83,45 C81.895888,45 81,44.1047911 81,42.9995625 C81,41.8952089 81.895888,41 83,41 C84.1049869,41 85,41.8952089 85,42.9995625" id="Fill-85"></path>
                    <path d="M85,55.9995625 C85,57.1047911 84.1049869,58 83,58 C81.895888,58 81,57.1047911 81,55.9995625 C81,54.8952089 81.895888,54 83,54 C84.1049869,54 85,54.8952089 85,55.9995625" id="Fill-88"></path>
                    <path d="M85,69.9995625 C85,71.1047911 84.1049869,72 83,72 C81.895888,72 81,71.1047911 81,69.9995625 C81,68.8952089 81.895888,68 83,68 C84.1049869,68 85,68.8952089 85,69.9995625" id="Fill-91"></path>
                    <path d="M85,83.9995625 C85,85.1047911 84.1049869,86 83,86 C81.895888,86 81,85.1047911 81,83.9995625 C81,82.8943338 81.895888,82 83,82 C84.1049869,82 85,82.8943338 85,83.9995625" id="Fill-94"></path>
                </g>
            </g>
        </g>
    </g>
</svg>