<?xml version="1.0" encoding="UTF-8"?>
<svg width="22px" height="24px" viewBox="0 0 22 24" version="1.1" xmlns="http://www.w3.org/2000/svg" xmlns:xlink="http://www.w3.org/1999/xlink">
    <title>31AF35E6-54B4-45E9-85B0-33213FB581E8@2x</title>
    <g id="Dokodemo-Web-Profile" stroke="none" stroke-width="1" fill="none" fill-rule="evenodd">
        <g id="icons" transform="translate(-77.000000, -32.000000)">
            <g id="department-(1)" transform="translate(77.000000, 32.000000)">
                <path d="M16.4869523,3.48843426 C16.4869523,3.21417481 16.3302053,2.93972404 16.0949891,2.82221161 L11.3914306,0.117512431 C11.1562145,-0.0392345859 10.8427204,-0.0392345859 10.6075042,0.117512431 L5.90394578,2.82221161 C5.66872959,2.97895862 5.51198257,3.21417481 5.51198257,3.48843426 L5.51198257,9.6815677 L10.9994674,12.8172733 L16.4869523,9.6815677 L16.4869523,3.48843426 Z" id="Path" fill="#C0C0C0" fill-rule="nonzero"></path>
                <path d="M10.9994674,12.8172733 L14.5271363,10.8182227 L14.5271363,8.70165968 C14.5271363,8.34873974 14.2919201,8.07448029 13.9784261,7.95677653 L12.1753571,7.32978846 L12.7240673,6.78088692 C12.8808143,6.6241399 12.9592835,6.4281583 12.9592835,6.23217669 L12.9592835,3.41015641 C12.9592835,2.97895862 12.6065548,2.62623 12.1753571,2.62623 L9.82357783,2.62623 C9.39238004,2.62623 9.03965142,2.97895862 9.03965142,3.41015641 L9.03965142,6.23217669 C9.03965142,6.4281583 9.11812059,6.6241399 9.2748676,6.78088692 L9.82357783,7.32978846 L8.02050882,7.91773327 C7.70701478,8.0352457 7.4717986,8.30969648 7.4717986,8.6624251 L7.4717986,10.7789881 L10.9994674,12.8172733 Z" id="Path" fill="#FFCA13" fill-rule="nonzero"></path>
                <path d="M9.03965142,5.25997278 C9.03965142,4.75030581 9.43161462,4.35834261 9.94109026,4.35834261 C10.0980286,4.35834261 10.2547756,4.39757719 10.4115226,4.47604637 L10.9994674,4.86800957 L11.6266468,4.51508963 C12.0578446,4.28006476 12.6065548,4.39757719 12.841771,4.82877499 C12.9200489,4.985522 12.9592835,5.14226902 12.9592835,5.29901604 L12.9592835,3.33920001 C12.9592835,2.90819355 12.6065548,2.5552736 12.1753571,2.5552736 L9.82357783,2.5552736 C9.39238004,2.5552736 9.03965142,2.90819355 9.03965142,3.33920001 L9.03965142,5.25997278 Z" id="Path" fill="#3B81BF" fill-rule="nonzero"></path>
                <path d="M13.9784261,7.91773327 L12.1753571,7.32978846 L10.9994674,8.50567808 L11.8226284,9.32864775 C12.0578446,9.56386394 12.0968879,9.8775493 12.01861,10.1518087 L10.9994674,12.8172733 L14.5271363,10.8182227 L14.5271363,8.70165968 C14.5271363,8.34873974 14.2919201,8.0352457 13.9784261,7.91773327 L13.9784261,7.91773327 Z" id="Path" fill="#3B81BF" fill-rule="nonzero"></path>
                <path d="M10.9885257,10.3862796 C10.8710133,10.1120201 9.98032484,9.52462935 10.215541,9.32864775 L10.9994674,8.50567808 L9.82357783,7.32978846 L8.02050882,7.91773327 C7.70701478,8.0352457 7.4717986,8.30969648 7.4717986,8.6624251 L7.4717986,10.7789881 L10.9885257,12.8172733 L10.9885257,10.3862796 Z" id="Path" fill="#3B81BF" fill-rule="nonzero"></path>
                <polygon id="Path-2" fill="#3B81BF" points="11 8.50567808 11 12.8172733 12.6275273 10.105271"></polygon>
                <path d="M10.999468,8.50567808 L10.176307,9.32864775 C9.94109078,9.56386394 9.90204752,9.8775493 9.98032537,10.1518087 L10.999468,12.8172733 L11.979376,10.1518087 C12.0968884,9.8775493 12.0186106,9.52462935 11.7833944,9.32864775 L10.999468,8.50567808 Z" id="Path" fill="#3575AE" fill-rule="nonzero"></path>
                <path d="M10.9994674,19.4806478 L10.9994674,12.8172733 L5.51198257,9.6815677 L0.416460905,12.5820571 C0.181244717,12.7388042 0.0244977003,12.9740204 0.0244977003,13.2482798 L0.0244977003,19.4806478 L5.12001937,22.3811373 C5.35523555,22.5378843 5.66872959,22.5378843 5.90394578,22.3811373 L10.9994674,19.4806478 Z" id="Path" fill="#D6D7D8" fill-rule="nonzero"></path>
                <path d="M8.37323744,14.7378548 C8.25572501,13.170002 6.88385379,11.9941123 5.27676638,12.1116248 C3.86566058,12.2293285 2.72900555,13.326749 2.6507277,14.7378548 L2.37627693,18.6967214 L8.64768821,18.6967214 L8.37323744,14.7378548 Z" id="Path" fill="#3575AE" fill-rule="nonzero"></path>
                <path d="M8.45170661,18.3047582 L6.8446192,17.8343258 C6.49189058,17.7558567 6.25667439,17.4423626 6.25667439,17.089634 L6.25667439,16.5016892 L6.57035976,15.8745098 C6.60940301,15.7569974 6.6486376,15.6392936 6.6486376,15.5217812 L6.6486376,14.7770894 C6.6486376,14.1106754 6.13916196,13.6011997 5.47274798,13.6011997 C4.80652533,13.6011997 4.29685837,14.1106754 4.29685837,14.7770894 L4.29685837,15.5217812 C4.29685837,15.6392936 4.33609296,15.7569974 4.37532754,15.8745098 L4.68882157,16.5016892 L4.68882157,17.089634 C4.68882157,17.4423626 4.45360539,17.7558567 4.10087677,17.8343258 L2.57225853,18.3047582 C2.21952991,18.3830361 1.98431373,18.6967214 1.98431373,19.04945 L1.98431373,20.6173029 L5.12001937,22.4203719 C5.35523555,22.5771189 5.66872959,22.5771189 5.90394578,22.4203719 L9.03965142,20.6173029 L9.03965142,19.04945 C9.03965142,18.6967214 8.80443523,18.3830361 8.45170661,18.3047582 L8.45170661,18.3047582 Z" id="Path" fill="#FFCA13" fill-rule="nonzero"></path>
                <path d="M4.45360539,17.6383442 C4.41456213,17.6775788 4.37532754,17.7168134 4.33609296,17.7558567 C4.29685837,17.7950912 4.21858053,17.8343258 4.14011135,17.8343258 L2.57225853,18.3047582 C2.21952991,18.3830361 1.98431373,18.6967214 1.98431373,19.04945 L1.98431373,20.6173029 L5.12001937,22.4203719 C5.2375318,22.4986497 5.35523555,22.5378843 5.51198257,22.5378843 L5.51198257,18.6967214 L4.45360539,17.6383442 Z" id="Path" fill="#3B81BF" fill-rule="nonzero"></path>
                <path d="M4.33609296,21.9499395 L5.12001937,22.3811373 C5.35523555,22.5378843 5.66872959,22.5378843 5.90394578,22.3811373 L9.03965142,20.5780683 L9.03965142,19.0102154 C9.03965142,18.6574868 8.80443523,18.3438015 8.45170661,18.2655236 L6.8446192,17.7950912 C6.72710677,17.7558567 6.60940301,17.6775788 6.53112517,17.5991096 L5.51198257,18.6967214 L4.33609296,19.872611 L4.33609296,21.9499395 Z" id="Path" fill="#3B81BF" fill-rule="nonzero"></path>
                <path d="M21.9744372,13.2875144 C21.9744372,13.0132549 21.8176902,12.7388042 21.582474,12.6212917 L16.4869523,9.6815677 L10.9994674,12.8172733 L10.9994674,19.4806478 L16.0949891,22.3811373 C16.3302053,22.5378843 16.6436993,22.5378843 16.8789155,22.3811373 L21.9744372,19.4806478 L21.9744372,13.2875144 Z" id="Path" fill="#E9E9E9" fill-rule="nonzero"></path>
                <path d="M20.0146212,18.5007398 C20.0146212,18.1478199 19.779405,17.8735604 19.4659109,17.7558567 L17.6628419,17.1288686 L18.3292559,16.1489606 C18.4075338,16.0312568 18.4467683,15.8745098 18.4467683,15.7177628 L18.4467683,14.3851262 L16.4869523,13.993163 L14.5271363,14.3851262 L14.5271363,15.7177628 C14.5271363,15.8745098 14.5663709,16.0312568 14.6446487,16.1489606 L15.3110627,17.1288686 L13.5079937,17.7168134 C13.1944997,17.8343258 12.9592835,18.1087766 12.9592835,18.4615052 L12.9592835,20.5780683 L16.0949891,22.3811373 C16.3302053,22.5378843 16.6436993,22.5378843 16.8789155,22.3811373 L20.0146212,20.5780683 L20.0146212,18.5007398 Z" id="Path" fill="#FFCA13" fill-rule="nonzero"></path>
                <path d="M17.6628419,17.1288686 C17.1924096,17.7950912 16.2517361,17.912795 15.6245567,17.4423626 C15.5070443,17.3638935 15.4285751,17.246381 15.3110627,17.1288686 L13.5079937,17.7168134 C13.1944997,17.8343258 12.9592835,18.1087766 12.9592835,18.4615052 L12.9592835,20.5780683 L16.0949891,22.3811373 C16.3302053,22.5378843 16.6436993,22.5378843 16.8789155,22.3811373 L20.0146212,20.5780683 L20.0146212,18.4615052 C20.0146212,18.1087766 19.779405,17.8343258 19.4659109,17.7168134 L17.6628419,17.1288686 Z" id="Path" fill="#3B81BF" fill-rule="nonzero"></path>
                <path d="M15.3110627,12.4253101 C14.8798649,12.4253101 14.5271363,12.7780387 14.5271363,13.2092365 L14.5271363,14.3851262 L16.4869523,13.993163 L18.4467683,14.3851262 L18.4467683,12.4253101 L15.3110627,12.4253101 Z" id="Path" fill="#3B81BF" fill-rule="nonzero"></path>
                <g id="Group" transform="translate(16.070491, 18.667248)" fill="#3B81BF" fill-rule="nonzero">
                    <polygon id="Path" points="0.0244977003 0.0294737712 0.80842411 0.0294737712 0.80842411 0.813400181 0.0244977003 0.813400181"></polygon>
                    <polygon id="Path" points="0.0244977003 1.59732659 0.80842411 1.59732659 0.80842411 2.381253 0.0244977003 2.381253"></polygon>
                    <polygon id="Path" points="1.59235052 0.0294737712 2.76824014 0.0294737712 2.76824014 0.813400181 1.59235052 0.813400181"></polygon>
                </g>
                <polygon id="Path" fill="#3B81BF" fill-rule="nonzero" points="12.9592835 8.89764129 13.7432099 8.89764129 13.7432099 9.6815677 12.9592835 9.6815677"></polygon>
                <polygon id="Path" fill="#3B81BF" fill-rule="nonzero" points="6.68787219 19.0886846 7.8637618 19.0886846 7.8637618 19.872611 6.68787219 19.872611"></polygon>
            </g>
        </g>
    </g>
</svg>