<?xml version="1.0" encoding="UTF-8"?>
<svg width="20px" height="20px" viewBox="0 0 20 20" version="1.1" xmlns="http://www.w3.org/2000/svg" xmlns:xlink="http://www.w3.org/1999/xlink">
    <title>89012B38-1322-4E6D-9131-583AEE3C2E9B@1x</title>
    <g id="Dokodemo-Web-Profile" stroke="none" stroke-width="1" fill="none" fill-rule="evenodd">
        <g id="icons" transform="translate(-195.000000, -116.000000)" fill-rule="nonzero">
            <g id="telephone-(1)" transform="translate(195.000000, 116.000000)">
                <path d="M19.2336328,3.73226563 C18.4662109,2.67628906 17.1222656,1.72316406 15.4494141,1.04855469 C13.7855469,0.377617188 11.8536719,0.0065625 10.0095703,0.00390244076 C8.1653125,-0.0006640625 6.23105469,0.3665625 4.56480469,1.03226562 C2.88902344,1.70183594 1.54191406,2.65082031 0.771679687,3.70429687 C0.0319140625,4.71609375 -0.181289063,5.80667969 0.155078125,6.85816406 C0.373320312,7.54023437 1.00984375,7.99921875 1.739375,8.00027344 L4.23746094,8.00261719 C4.23832031,8.00261719 4.23914063,8.00261719 4.23996094,8.00261719 C4.73808594,8.00257812 5.20609375,7.78453125 5.52414063,7.40410156 C5.83882813,7.02773437 5.96914063,6.53585937 5.88179688,6.05453125 C5.87921875,6.04039062 5.87613281,6.02636719 5.87257813,6.01242187 L5.74113281,5.50140625 C6.46902344,5.15410156 8.11824219,4.48308594 10.001875,4.49375 C11.8841406,4.50339844 13.5322266,5.17402344 14.2609766,5.52148437 L14.1274219,6.02960937 C14.1236328,6.04402344 14.1203906,6.05847656 14.1177344,6.07304687 C14.0290234,6.55410156 14.1579688,7.04632812 14.4715234,7.42359375 C14.7890625,7.805625 15.2573828,8.02507812 15.7567969,8.02582031 L18.2548828,8.02816406 C18.2557422,8.02816406 18.2565625,8.02816406 18.2573828,8.02816406 C18.9855469,8.02816406 19.6222656,7.57128906 19.8421094,6.890625 C20.1816797,5.83941406 19.9712891,4.74730469 19.2336328,3.73226563 Z" id="Path" fill="#3B81BF"></path>
                <path d="M15.6482813,10.5783984 L13.7853906,8.62234375 C13.6727344,8.5040625 13.5165625,8.43714844 13.3532422,8.43714844 L12.1493359,8.43714844 L12.1493359,7.62375 C12.1493359,7.29417969 11.8821484,7.02695313 11.5525391,7.02695313 C11.2229297,7.02695313 10.9557422,7.29414063 10.9557422,7.62375 L10.9557422,8.43714844 L9.04472656,8.43714844 L9.04472656,7.62375 C9.04472656,7.29417969 8.77753906,7.02695313 8.44792969,7.02695313 C8.11832031,7.02695313 7.85113281,7.29414063 7.85113281,7.62375 L7.85113281,8.43714844 L6.64726563,8.43714844 C6.48394531,8.43714844 6.32773438,8.50410156 6.21511719,8.62234375 L4.35222656,10.5783984 C2.89160156,12.1120703 2.0871875,14.1230859 2.0871875,16.2409766 L2.0871875,18.6961719 C2.0871875,19.0257813 2.354375,19.2929688 2.68398438,19.2929688 L17.3164844,19.2929688 C17.6460938,19.2929688 17.9132813,19.0257813 17.9132813,18.6961719 L17.9132813,16.2409766 C17.9132813,14.1230859 17.1089063,12.1121094 15.6482813,10.5783984 Z M10.0002344,17.1114844 C8.27796875,17.1114844 6.87683594,15.7103125 6.87683594,13.9880469 C6.87683594,12.2658203 8.27800781,10.8646484 10.0002344,10.8646484 C11.7224609,10.8646484 13.1236328,12.2658203 13.1236328,13.9880469 C13.1236328,15.7103125 11.7224609,17.1114844 10.0002344,17.1114844 Z" id="Shape" fill="#3B81BF"></path>
                <path d="M10.0002344,12.0582422 C8.93609375,12.0582422 8.07042969,12.9239453 8.07042969,13.9880469 C8.07042969,15.0521875 8.93613281,15.9178906 10.0002344,15.9178906 C11.0643359,15.9178906 11.9300391,15.0521875 11.9300391,13.9880469 C11.9300391,12.9239844 11.0643359,12.0582422 10.0002344,12.0582422 Z" id="Path" fill="#FFCA13"></path>
            </g>
        </g>
    </g>
</svg>