<?xml version="1.0" encoding="UTF-8"?>
<svg width="26px" height="18px" viewBox="0 0 26 18" version="1.1" xmlns="http://www.w3.org/2000/svg" xmlns:xlink="http://www.w3.org/1999/xlink">
    <title>C0FB5E23-E71A-45EC-8A78-D9F2D0F79ACE@1x</title>
    <g id="Dokodemo-Web-Profile" stroke="none" stroke-width="1" fill="none" fill-rule="evenodd">
        <g id="Desktop-" transform="translate(-991.000000, -5040.000000)" fill="#FFFFFF" fill-rule="nonzero">
            <g id="footer" transform="translate(0.000000, 4933.000000)">
                <g id="email-(6)" transform="translate(991.000000, 107.000000)">
                    <polygon id="Path" points="17.3333333 9.32257802 25.7833333 14.7333333 25.7833333 3.68333333"></polygon>
                    <polygon id="Path" points="0.433333333 3.68333333 0.433333333 14.7333333 8.88333333 9.32257802"></polygon>
                    <path d="M24.2407047,0.433333333 L1.97596194,0.433333333 C1.18238289,0.433333333 0.552608741,1.02772861 0.433333333,1.79309243 L13.1083333,10.1833333 L25.7833333,1.79309243 C25.6640579,1.02772861 25.0342838,0.433333333 24.2407047,0.433333333 Z" id="Path"></path>
                    <path d="M15.7966805,10.1849533 L13.5457863,11.6947352 C13.4121643,11.7838318 13.2610442,11.8275701 13.1083333,11.8275701 C12.9556225,11.8275701 12.8045024,11.7838318 12.6708804,11.6947352 L10.4199862,10.1833333 L0.433333333,16.6161059 C0.555820156,17.3855763 1.18257091,17.9833333 1.97316767,17.9833333 L24.243499,17.9833333 C25.0340958,17.9833333 25.6608465,17.3855763 25.7833333,16.6161059 L15.7966805,10.1849533 Z" id="Path"></path>
                </g>
            </g>
        </g>
    </g>
</svg>