<?xml version="1.0" encoding="UTF-8"?>
<svg width="21px" height="21px" viewBox="0 0 21 21" version="1.1" xmlns="http://www.w3.org/2000/svg" xmlns:xlink="http://www.w3.org/1999/xlink">
    <title>0EECDC53-9882-4650-9C48-10AAB57A92B2@1x</title>
    <g id="Dokodemo-Web-Profile" stroke="none" stroke-width="1" fill="none" fill-rule="evenodd">
        <g id="Desktop-" transform="translate(-1077.000000, -5038.000000)" fill-rule="nonzero">
            <g id="footer" transform="translate(0.000000, 4933.000000)">
                <g id="instagram-(2)" transform="translate(1077.000000, 105.000000)">
                    <path d="M1.36982372,1.45796648 C-0.275685158,3.16683124 0.0610944967,4.98211842 0.0610944967,10.4968928 C0.0610944967,15.0765457 -0.738102818,19.6675387 3.44459579,20.7483367 C4.75070756,21.084178 16.3233639,21.084178 17.6277307,20.7465921 C19.369213,20.29735 20.7861305,18.8850723 20.9798225,16.4225275 C21.0068695,16.0788354 21.0068695,4.92105638 20.97895,4.57038581 C20.7730432,1.9473351 19.1580714,0.435613495 17.0300777,0.129430988 C16.5423579,0.0587734862 16.4446394,0.0378379302 13.9423492,0.033476356 C5.06654755,0.0378379302 3.12090343,-0.35732069 1.36982372,1.45796648 Z" id="Path" fill="#FFFFFF"></path>
                    <path d="M10.5001863,3.00722972 C7.42819864,3.00722972 4.51103713,2.73417355 3.39679649,5.59154157 C2.93654827,6.77168528 3.00338579,8.30435044 3.00338579,10.4989443 C3.00338579,12.4247089 2.94162454,14.2346571 3.39679649,15.4055017 C4.508499,18.2645605 7.44934975,17.990659 10.4984942,17.990659 C13.440191,17.990659 16.4732606,18.2966848 17.601038,15.4055017 C18.0621322,14.2135228 17.9944487,12.7036827 17.9944487,10.4989443 C17.9944487,7.57225556 18.1560432,5.68284209 16.7355344,4.26430258 C15.2972587,2.82716482 13.3522024,3.00722972 10.4968021,3.00722972 L10.5001863,3.00722972 Z M9.82842695,4.35729385 C16.2363682,4.34714934 17.0519551,3.63534346 16.6018594,13.5236966 C16.441957,17.0210136 13.7769167,16.6372133 10.5010323,16.6372133 C4.52795802,16.6372133 4.35621098,16.4664475 4.35621098,10.4955628 C4.35621098,4.45535736 4.82999591,4.36067535 9.82842695,4.35560309 L9.82842695,4.35729385 Z M14.5019769,5.6008407 C14.0053487,5.6008407 13.6026316,6.00323927 13.6026316,6.49947448 C13.6026316,6.9957097 14.0053487,7.39810827 14.5019769,7.39810827 C14.998605,7.39810827 15.4013222,6.9957097 15.4013222,6.49947448 C15.4013222,6.00323927 14.998605,5.6008407 14.5019769,5.6008407 L14.5019769,5.6008407 Z M10.5001863,6.65164201 C8.37407641,6.65164201 6.65068372,8.37451658 6.65068372,10.4989443 C6.65068372,12.6233721 8.37407641,14.3454013 10.5001863,14.3454013 C12.6262962,14.3454013 14.3488428,12.6233721 14.3488428,10.4989443 C14.3488428,8.37451658 12.6262962,6.65164201 10.5001863,6.65164201 Z M10.5001863,8.00170613 C13.8039902,8.00170613 13.8082204,12.9961825 10.5001863,12.9961825 C7.19722848,12.9961825 7.19215222,8.00170613 10.5001863,8.00170613 Z" id="Shape" fill="#3B81BF"></path>
                </g>
            </g>
        </g>
    </g>
</svg>