<?xml version="1.0" encoding="UTF-8"?>
<svg width="9px" height="14px" viewBox="0 0 9 14" version="1.1" xmlns="http://www.w3.org/2000/svg" xmlns:xlink="http://www.w3.org/1999/xlink">
    <!-- Generator: sketchtool 58 (101010) - https://sketch.com -->
    <title>E16F5A46-D3BB-48BE-AE27-1546D8ED7718@1.00x</title>
    <desc>Created with sketchtool.</desc>
    <g id="Page-1" stroke="none" stroke-width="1" fill="none" fill-rule="evenodd">
        <g id="Trial---Staff-Mobile" transform="translate(-700.000000, -1020.000000)" fill-rule="nonzero">
            <g id="Desktop" transform="translate(695.000000, 1015.000000)">
                <g id="pdf" transform="translate(5.000000, 5.000000)">
                    <polygon id="Path" fill="#FFFFFF" points="8.97715836 12.3436176 0 12.3436176 0 0 6.95736229 0 8.97715836 2.0198954"></polygon>
                    <polygon id="Path" fill="#D8D8D8" points="6.95736229 0 6.95736229 2.0198954 8.97715836 2.0198954"></polygon>
                    <polygon id="Path" fill="#B53438" points="0 8.97715836 8.97715836 8.97715836 8.97715836 13.0169492 0 13.0169492"></polygon>
                    <g id="Group" transform="translate(1.118644, 9.635593)" fill="#FFFFFF">
                        <path d="M0.227919763,2.70802436 C0.10407839,2.70802436 0.00347590678,2.60752119 0.00347590678,2.48367981 L0.00347590678,0.239340559 C0.00347590678,0.115399881 0.10407839,0.0148967288 0.227919763,0.0148967288 C0.351860441,0.0148967288 0.452363619,0.115399881 0.452363619,0.239340559 L0.452363619,2.48367981 C0.452363619,2.60752119 0.351860441,2.70802436 0.227919763,2.70802436 Z" id="Path"></path>
                        <path d="M6.51195048,0.463784441 L5.16538665,0.463784441 C5.04154528,0.463784441 4.9409428,0.363181932 4.9409428,0.239340559 C4.9409428,0.115399881 5.04154528,0.0148967288 5.16538665,0.0148967288 L6.51195048,0.0148967288 C6.63589116,0.0148967288 6.73639434,0.115399881 6.73639434,0.239340559 C6.73639434,0.363181932 6.63589116,0.463784441 6.51195048,0.463784441 Z" id="Path"></path>
                        <path d="M6.51195048,1.58590439 L5.16538665,1.58590439 C5.04154528,1.58590439 4.9409428,1.48540121 4.9409428,1.36146053 C4.9409428,1.23761919 5.04154528,1.13701668 5.16538665,1.13701668 L6.51195048,1.13701668 C6.63589116,1.13701668 6.73639434,1.23761919 6.73639434,1.36146053 C6.73639434,1.48540121 6.63589116,1.58590439 6.51195048,1.58590439 Z" id="Path"></path>
                        <path d="M5.16538665,2.70802436 C5.04154528,2.70802436 4.9409428,2.60752119 4.9409428,2.48367981 L4.9409428,0.239340559 C4.9409428,0.115399881 5.04154528,0.0148967288 5.16538665,0.0148967288 C5.28932733,0.0148967288 5.38983051,0.115399881 5.38983051,0.239340559 L5.38983051,2.48367981 C5.38983051,2.60752119 5.28932733,2.70802436 5.16538665,2.70802436 Z" id="Path"></path>
                    </g>
                    <path d="M4.32719809,2.41873014 C4.30525027,2.42588057 4.02985963,2.80673995 4.34874867,3.12900557 C4.56107654,2.66194386 4.33693063,2.41575079 4.32719809,2.41873014 M4.46305614,4.28797007 C4.3029661,4.83448093 4.09182997,5.42449019 3.86490333,5.95858714 C4.33216368,5.7795286 4.84053892,5.62311308 5.31763108,5.51248014 C5.01582361,5.16618114 4.71411547,4.73367981 4.46305614,4.28797007 M6.13367319,5.74159164 C6.31590969,5.88003178 6.36030191,5.95004634 6.47977358,5.95004634 C6.53201138,5.95004634 6.68127648,5.9478615 6.75019861,5.85272113 C6.78366658,5.80644201 6.79667639,5.77684719 6.80154264,5.7613546 C6.77423199,5.74675581 6.73758608,5.7178562 6.53876456,5.7178562 C6.42564885,5.7178562 6.28383208,5.72272246 6.13367319,5.74159164 M3.08391816,6.72298729 C2.6058329,6.98804952 2.41108317,7.20603814 2.39717954,7.32898571 C2.3948954,7.34944386 2.38883741,7.40287342 2.49341235,7.481826 C2.5268803,7.471299 2.72143142,7.3837063 3.08391816,6.72298729 M2.48844676,7.85503841 C2.41058659,7.85503841 2.33590439,7.83011123 2.27214646,7.78303759 C2.03936044,7.61023571 2.00797803,7.41826668 2.02277542,7.28747352 C2.0633938,6.92816471 2.51357258,6.55157573 3.36129503,6.16803496 C3.69766286,5.43998278 4.01774364,4.54290254 4.20852092,3.79349842 C3.98546743,3.31372485 3.76837261,2.69134004 3.92637712,2.32617188 C3.98179292,2.19825875 4.05121159,2.10003971 4.18001853,2.05753444 C4.23116392,2.04094942 4.35997088,2.0198954 4.40734243,2.0198954 C4.52472854,2.0198954 4.63744703,2.15992452 4.69167107,2.2509931 C4.79267082,2.42002119 4.79316737,2.61685647 4.77717824,2.80673995 C4.76168565,2.99116129 4.73030324,3.17458953 4.69415387,3.3559322 C4.66773702,3.48920817 4.63784428,3.62188825 4.60596531,3.75407176 C4.90737554,4.36871029 5.3342161,4.99516683 5.74357785,5.42399364 C6.03694386,5.37175581 6.28919492,5.34523968 6.49476961,5.34523968 C6.8446438,5.34523968 7.05717028,5.42578124 7.14357125,5.59163136 C7.21547273,5.72897908 7.1857786,5.88976429 7.05627648,6.06882282 C6.93173995,6.24092954 6.76032839,6.33179952 6.55991792,6.33179952 C6.28760593,6.33179952 5.97119969,6.16217558 5.61794888,5.82709879 C4.98344809,5.95818989 4.24258475,6.1917704 3.64363744,6.45037739 C3.45663402,6.84216102 3.27757548,7.15777276 3.11063293,7.38936707 C2.8819187,7.70716368 2.68418962,7.85503841 2.48844676,7.85503841" id="Shape" fill="#B53438"></path>
                    <path d="M2.0198954,11.4459415 L1.34656383,11.4459415 C1.22272246,11.4459415 1.12211997,11.3454383 1.12211997,11.2214976 L1.12211997,9.87493378 C1.12211997,9.7509931 1.22272246,9.65048995 1.34656383,9.65048995 L2.0198954,9.65048995 C2.51496292,9.65048995 2.91757149,10.0530985 2.91757149,10.5482654 C2.91757149,11.0433329 2.51496292,11.4459415 2.0198954,11.4459415 L2.0198954,11.4459415 Z M1.57100769,10.9970538 L2.0198954,10.9970538 C2.26737951,10.9970538 2.46868378,10.7957495 2.46868378,10.5482654 C2.46868378,10.3006819 2.26737951,10.0993777 2.0198954,10.0993777 L1.57100769,10.0993777 L1.57100769,10.9970538 Z" id="Shape" fill="#FFFFFF"></path>
                    <path d="M4.0397908,12.3436176 L3.81534692,12.3436176 C3.69140624,12.3436176 3.59090308,12.2431144 3.59090308,12.119273 L3.59090308,9.87493378 C3.59090308,9.7509931 3.69140624,9.65048995 3.81534692,9.65048995 L4.0397908,9.65048995 C4.7821438,9.65048995 5.3863546,10.2544028 5.3863546,10.9970538 C5.3863546,11.7397047 4.7821438,12.3436176 4.0397908,12.3436176 Z M4.0397908,10.0993777 L4.0397908,11.8948292 C4.53485832,11.8948292 4.93746689,11.4921213 4.93746689,10.9970538 C4.93746689,10.5019862 4.53485832,10.0993777 4.0397908,10.0993777 Z" id="Shape" fill="#FFFFFF"></path>
                </g>
            </g>
        </g>
    </g>
</svg>