<?xml version="1.0" encoding="UTF-8"?>
<svg width="14px" height="20px" viewBox="0 0 14 20" version="1.1" xmlns="http://www.w3.org/2000/svg" xmlns:xlink="http://www.w3.org/1999/xlink">
    <!-- Generator: sketchtool 58 (101010) - https://sketch.com -->
    <title>91AD410C-19B6-4E69-8C47-9983BF2705E2@1.00x</title>
    <desc>Created with sketchtool.</desc>
    <g id="Page-1" stroke="none" stroke-width="1" fill="none" fill-rule="evenodd">
        <g id="Home" transform="translate(-633.000000, -332.000000)" fill="#FFFFFF" fill-rule="nonzero">
            <g id="arrow-pointing-to-right" transform="translate(640.000000, 342.000000) rotate(-270.000000) translate(-640.000000, -342.000000) translate(630.000000, 335.000000)">
                <path d="M19.715316,6.28825279 L13.7673606,0.340297398 C13.404461,-0.0226022305 12.8159108,-0.0226022305 12.4530112,0.340297398 C12.0900372,0.703271375 12.0900372,1.29167286 12.4530112,1.65464684 L16.8144238,6.01605948 L0.92936803,6.01605948 C0.416133829,6.01605948 0,6.43219331 0,6.94542751 C0,7.45858736 0.416133829,7.87479554 0.92936803,7.87479554 L16.8144238,7.87479554 L12.4531599,12.2362082 C12.0901859,12.5991822 12.0901859,13.1875836 12.4531599,13.5505576 C12.6345725,13.7318959 12.8724907,13.8227509 13.1103346,13.8227509 C13.3481784,13.8227509 13.5860223,13.7318959 13.7675093,13.5505576 L19.715316,7.60260223 C20.07829,7.23962825 20.07829,6.65122677 19.715316,6.28825279 Z" id="Path"></path>
            </g>
        </g>
    </g>
</svg>