<?xml version="1.0" encoding="UTF-8"?>
<svg width="129px" height="24px" viewBox="0 0 129 24" version="1.1" xmlns="http://www.w3.org/2000/svg" xmlns:xlink="http://www.w3.org/1999/xlink">
    <!-- Generator: sketchtool 58 (101010) - https://sketch.com -->
    <title>FD20CB0F-67B2-4219-BCAC-FD8707FE29D3@1.00x</title>
    <desc>Created with sketchtool.</desc>
    <g id="Page-1" stroke="none" stroke-width="1" fill="none" fill-rule="evenodd">
        <g id="Home" transform="translate(-335.000000, -1065.000000)" fill="#0A5894">
            <g id="Group-4" transform="translate(290.000000, 945.000000)">
                <g id="Group-9" transform="translate(45.000000, 120.000000)">
                    <polygon id="Fill-1" points="24.0003 -3.55271368e-15 0.0003 24 4.5843 24 28.5853 -3.55271368e-15"></polygon>
                    <polygon id="Fill-2" points="38.2923 -3.55271368e-15 14.2933 24 18.8773 24 42.8773 -3.55271368e-15"></polygon>
                    <polygon id="Fill-3" points="52.5852 -3.55271368e-15 28.5852 24 33.1692 24 57.1702 -3.55271368e-15"></polygon>
                    <polygon id="Fill-4" points="66.8781 -3.55271368e-15 42.8771 24 47.4621 24 71.4621 -3.55271368e-15"></polygon>
                    <polygon id="Fill-5" points="81.1701 -3.55271368e-15 57.1701 24 61.7541 24 85.7551 -3.55271368e-15"></polygon>
                    <polygon id="Fill-6" points="95.463 -3.55271368e-15 71.462 24 76.047 24 100.047 -3.55271368e-15"></polygon>
                    <polygon id="Fill-7" points="109.755 -3.55271368e-15 85.755 24 90.339 24 114.34 -3.55271368e-15"></polygon>
                    <polygon id="Fill-8" points="124.0479 -3.55271368e-15 100.0469 24 104.6319 24 128.6329 -3.55271368e-15"></polygon>
                </g>
            </g>
        </g>
    </g>
</svg>