<?xml version="1.0" encoding="UTF-8"?>
<svg width="152px" height="152px" viewBox="0 0 152 152" version="1.1" xmlns="http://www.w3.org/2000/svg" xmlns:xlink="http://www.w3.org/1999/xlink">
    <title>DAF393A7-815A-4300-8AD7-4B8EF4AAFFE5@1x</title>
    <g id="Dokodemo-Web-Profile" stroke="none" stroke-width="1" fill="none" fill-rule="evenodd">
        <g id="Desktop-" transform="translate(-326.000000, -2234.000000)">
            <g id="Group-15" transform="translate(327.000000, 2235.000000)">
                <circle id="Oval-Copy-6" stroke="#276EAD" fill="#F2F9FF" cx="75" cy="75" r="75"></circle>
                <g id="on-fire" transform="translate(30.000000, 29.000000)" fill-rule="nonzero">
                    <path d="M49.6003993,21.0280374 L39.9520476,21.0280374 C37.6071538,21.0280374 35.4772812,22.2497832 34.2597961,24.2592726 L34.1421155,24.2979166 C31.3294053,25.258072 29.4392523,27.939373 29.4392523,30.9729291 C29.4392523,31.3593693 29.4697621,31.7458096 29.5322345,32.127791 L30.8557774,40.2489818 L31.1884792,40.2504682 C31.8146559,38.5739119 33.3909941,37.3774334 35.2506372,37.3774334 L36.7034834,37.3774334 L36.7034834,36.2418935 C36.7034834,34.2056506 37.8279864,32.3433057 39.6091759,31.4321985 L54.1376381,31.4321985 L54.1376381,37.3774334 L55.5904843,37.3774334 C57.4937128,37.3774334 59.0947494,38.6333643 59.6889635,40.3723455 L59.9882498,40.3738318 L61.0473747,36.0308377 C61.2827358,35.0751412 61.4018692,34.0897185 61.4018692,33.1013232 C61.4018692,26.4441464 56.1076975,21.0280374 49.6003993,21.0280374 L49.6003993,21.0280374 Z" id="Path" fill="#FFCA13"></path>
                    <g id="Group" fill="#3B81BF">
                        <path d="M87.0967742,82.1203738 L75.3459677,82.1203738 L75.0556452,79.2134579 L84.1935484,79.2134579 C85.7946774,79.2134579 87.0967742,77.9097062 87.0967742,76.3065421 L87.0967742,55.9581308 C87.0967742,54.8622236 86.4798387,53.9160224 85.5827419,53.4218467 C86.5654839,51.9117039 87.0967742,50.1501129 87.0967742,48.3042213 C87.0967742,45.3624224 85.6930645,42.5499813 83.34,40.7825764 C82.0567742,39.8189338 81.2903226,38.2855357 81.2903226,36.6780112 C81.2903226,36.1256972 81.378871,35.579197 81.5530645,35.0559521 L83.5040323,29.1941563 L80.208871,30.0226273 C76.5827419,30.929585 73.4443548,33.1432015 71.3729032,36.2565084 L73.7883871,37.8683933 C75.086129,35.9207596 76.9006452,34.4091634 79.0141935,33.487671 L78.7993548,34.1344598 C78.525,34.9585705 78.3870968,35.8146572 78.3870968,36.6780112 C78.3870968,39.1939469 79.5875806,41.5994198 81.5980645,43.1081092 C83.223871,44.3290138 84.1935484,46.2722871 84.1935484,48.3042213 C84.1935484,50.0396501 83.5185484,51.6704299 82.2919355,52.8971484 L82.1395161,53.051215 L72.5806452,53.051215 L72.5806452,45.7839252 C72.5806452,43.3799058 70.6267742,41.4235514 68.2258065,41.4235514 L60.9677419,41.4235514 C60.9677419,38.2172232 58.3635484,35.6097196 55.1612903,35.6097196 L55.1612903,31.2493458 L52.2580645,31.2493458 L52.2580645,45.7839252 C52.2580645,48.1879447 50.3041935,50.1442991 47.9032258,50.1442991 L42.0967742,50.1442991 C39.6958065,50.1442991 37.7419355,48.1879447 37.7419355,45.7839252 L37.7419355,35.9527357 C37.7419355,34.5021847 38.5475806,33.1969794 39.8424194,32.5487372 L38.5432258,29.9485009 C36.3629032,31.0429548 34.983871,33.1926191 34.8619355,35.6097196 L34.8387097,35.6097196 C31.6364516,35.6097196 29.0322581,38.2172232 29.0322581,41.4235514 L21.7741935,41.4235514 C19.3732258,41.4235514 17.4193548,43.3799058 17.4193548,45.7839252 L17.4193548,67.5857944 L5.80645161,67.5857944 C4.20532258,67.5857944 2.90322581,68.8895462 2.90322581,70.4927103 L2.90322581,82.1203738 C1.30209677,82.1203738 0,83.4241256 0,85.0272897 L0,87.9342056 C0,89.5373697 1.30209677,90.8411215 2.90322581,90.8411215 L87.0967742,90.8411215 C88.6979032,90.8411215 90,89.5373697 90,87.9342056 L90,85.0272897 C90,83.4241256 88.6979032,82.1203738 87.0967742,82.1203738 L87.0967742,82.1203738 Z M26.1290323,70.4927103 L26.1290323,82.1203738 L23.2258065,82.1203738 L23.2258065,70.4927103 C23.2258065,69.9447566 23.0646774,69.4374998 22.8004839,69.000009 C25.2391935,64.0219155 29.3066129,60.0510684 34.245,57.7124546 L36.9464516,67.1788262 L41.201129,63.7719207 L41.9951613,64.9637563 L38.0380645,82.1203738 L29.0322581,82.1203738 L29.0322581,70.4927103 L26.1290323,70.4927103 Z M11.6129032,82.1203738 L11.6129032,70.4927103 L14.516129,70.4927103 L14.516129,82.1203738 L11.6129032,82.1203738 Z M17.4193548,70.4927103 L20.3225806,70.4927103 L20.3225806,82.1203738 L17.4193548,82.1203738 L17.4193548,70.4927103 Z M38.8712903,56.0802213 L42.6295161,58.9028366 L38.538871,62.1803843 L36.9537097,56.6267215 C37.5822581,56.4174236 38.2224194,56.2371948 38.8712903,56.0802213 L38.8712903,56.0802213 Z M51.1272581,56.0802213 C51.506129,56.1717892 51.8835484,56.2691708 52.2580645,56.3796336 L52.2580645,59.389745 L51.461129,62.1803843 L47.3704839,58.9028366 L51.1272581,56.0802213 Z M45.675,63.2254206 L44.325,63.2254206 L43.4743548,61.947831 L45,60.7269264 L46.5256452,61.947831 L45.675,63.2254206 Z M44.703871,66.1323364 L45.2975806,66.1323364 L48.9817742,82.1203738 L41.0182258,82.1203738 L44.703871,66.1323364 Z M51.9619355,82.1203738 L48.0077419,64.9623028 L48.8017742,63.7704673 L52.2580645,66.5407581 L52.2580645,76.3065421 C52.2580645,77.9097062 53.5601613,79.2134579 55.1612903,79.2134579 L64.2991935,79.2134579 L64.008871,82.1203738 L51.9619355,82.1203738 Z M84.1935484,76.3065421 L74.7653226,76.3065421 L74.1556452,70.2049256 C74.0075806,68.7107708 72.765,67.5857944 71.2669355,67.5857944 L68.0879032,67.5857944 C66.5898387,67.5857944 65.3472581,68.7107708 65.1991935,70.2034721 L64.5895161,76.3065421 L55.1612903,76.3065421 L55.1612903,55.9581308 L84.1935484,55.9581308 L84.1935484,76.3065421 Z M72.4282258,82.1203738 L66.9266129,82.1203738 L68.0879032,70.4927103 L71.2669355,70.4927103 L72.4282258,82.1203738 Z M58.0645161,41.4235514 C58.0645161,43.0267155 56.7624194,44.3304673 55.1612903,44.3304673 L55.1612903,38.5166355 C56.7624194,38.5166355 58.0645161,39.8203873 58.0645161,41.4235514 Z M55.0146774,47.2373832 L55.1612903,47.2373832 C57.3009677,47.2373832 59.1532258,46.0600822 60.1606452,44.3304673 L68.2258065,44.3304673 C69.0256452,44.3304673 69.6774194,44.9816164 69.6774194,45.7839252 L69.6774194,53.051215 L55.1612903,53.051215 C54.4775806,53.051215 53.8577419,53.2983028 53.3612903,53.6950968 C52.8837097,53.549751 52.4119355,53.3913241 51.9256452,53.2706871 L51.5177419,52.048329 C53.2829032,51.0221877 54.5951613,49.29984 55.0146774,47.2373832 L55.0146774,47.2373832 Z M47.9032258,53.051215 C48.1979032,53.051215 48.4780645,52.9988905 48.7625806,52.9640075 L49.0979032,53.9712538 L45,57.0482243 L40.9020968,53.9712538 L41.2374194,52.9640075 C41.5219355,52.9988905 41.8020968,53.051215 42.0967742,53.051215 L47.9032258,53.051215 Z M34.8387097,38.5166355 L34.8387097,44.3304673 C33.2375806,44.3304673 31.9354839,43.0267155 31.9354839,41.4235514 C31.9354839,39.8203873 33.2375806,38.5166355 34.8387097,38.5166355 Z M21.7741935,44.3304673 L29.8393548,44.3304673 C30.8467742,46.0600822 32.6990323,47.2373832 34.8387097,47.2373832 L34.9853226,47.2373832 C35.4048387,49.29984 36.7170968,51.0221877 38.4808065,52.0468755 L38.0729032,53.2706871 C30.3909677,55.1732636 23.8804839,60.3868172 20.3225806,67.4520763 L20.3225806,45.7839252 C20.3225806,44.9816164 20.9743548,44.3304673 21.7741935,44.3304673 L21.7741935,44.3304673 Z M5.80645161,70.4927103 L8.70967742,70.4927103 L8.70967742,82.1203738 L5.80645161,82.1203738 L5.80645161,70.4927103 Z M2.90322581,87.9342056 L2.90322581,85.0272897 L87.0967742,85.0272897 L87.0982258,87.9342056 L2.90322581,87.9342056 Z" id="Shape"></path>
                        <path d="M40.6451613,47.2373832 L45,47.2373832 C47.3443548,47.2373832 49.4520968,45.9336314 50.5001613,43.8333847 L50.6525806,43.526705 L48.0556452,42.2258602 L47.9032258,42.5339933 C47.3501613,43.6415282 46.2382258,44.3304673 45,44.3304673 L40.6451613,44.3304673 L40.6451613,47.2373832 Z" id="Path"></path>
                        <polygon id="Path" transform="translate(42.806437, 32.703552) rotate(-14.008443) translate(-42.806437, -32.703552) " points="41.3559984 29.7087079 44.2586622 29.7078414 44.2568761 35.6983967 41.3542123 35.6992631"></polygon>
                        <polygon id="Path" transform="translate(48.611437, 32.703552) rotate(-14.008443) translate(-48.611437, -32.703552) " points="47.1609984 29.7087079 50.0636622 29.7078414 50.0618761 35.6983967 47.1592123 35.6992631"></polygon>
                        <path d="M17.6603226,34.1257391 L19.5169355,35.3655387 L21.1267742,32.9469847 L19.2701613,31.707185 C18.1117742,30.9339454 17.4193548,29.6389144 17.4193548,28.2435948 C17.4193548,26.9412964 18.0406452,25.695683 19.0814516,24.9137226 L20.8916129,23.5547394 C22.3533871,22.4573787 23.2258065,20.7103222 23.2258065,18.8804187 C23.2258065,18.2496179 23.1256452,17.6289914 22.9267742,17.0330736 L22.5203226,15.8136224 C24.6585484,16.6391865 26.1290323,18.7205383 26.1290323,21.0751402 L29.0322581,21.0751402 C29.0322581,17.0156321 26.1464516,13.4924501 22.1719355,12.6959551 L18.153871,11.889286 L20.1716129,17.9516591 C20.2717742,18.2525249 20.3225806,18.5635649 20.3225806,18.8804187 C20.3225806,19.8004576 19.8841935,20.6768927 19.1496774,21.2292067 L17.3395161,22.5881899 C15.5714516,23.915197 14.516129,26.0299783 14.516129,28.2435948 C14.516129,30.6141847 15.6919355,32.8118131 17.6603226,34.1257391 L17.6603226,34.1257391 Z" id="Path"></path>
                        <path d="M33.5395161,21.7248359 L36.1364516,20.423991 L35.325,18.8004785 C35.0070968,18.1624105 34.8387097,17.4473092 34.8387097,16.7336613 C34.8387097,14.7409705 36.1074194,12.9793794 37.9945161,12.3485787 L39.4432258,11.8645772 C41.8993548,11.0462804 43.5483871,8.7541772 43.5483871,6.16266168 C43.5483871,5.63650991 43.4772581,5.10745121 43.3408065,4.59874093 C44.8287097,5.4257585 45.971129,6.78619514 46.5256452,8.4533114 L49.2793548,7.53327252 C48.2124194,4.32985121 45.6212903,1.92728523 42.3493548,1.10898841 L37.9335484,0.00145345794 L40.3170968,4.77315589 C40.5319355,5.20337944 40.6451613,5.68302056 40.6451613,6.16266168 C40.6451613,7.50129645 39.7930645,8.68295776 38.5258065,9.10591402 L37.0770968,9.58991551 C34.001129,10.6175103 31.9354839,13.4880897 31.9354839,16.7336613 C31.9354839,17.8978811 32.2098387,19.0621009 32.7295161,20.1013234 L33.5395161,21.7248359 Z" id="Path"></path>
                        <path d="M8.79822581,49.4539065 C6.86903226,51.3855521 5.80645161,53.9538123 5.80645161,56.6848598 C5.80645161,59.4159073 6.86903226,61.9841675 8.79822581,63.9158131 L10.5866129,65.7064733 L12.6391935,63.6512837 L10.8508065,61.8606236 C9.47032258,60.4769316 8.70967742,58.6397607 8.70967742,56.6848598 C8.70967742,54.7299589 9.47032258,52.892788 10.8508065,51.5090961 L12.3125806,50.0454639 C13.7337097,48.6225286 14.516129,46.7301264 14.516129,44.7185406 C14.516129,43.2258393 14.0791935,41.7811021 13.2517742,40.539849 L12.5869355,39.5413234 C11.9496774,38.5834946 11.6129032,37.4686923 11.6129032,36.3161002 L11.6129032,35.6097196 L8.70967742,35.6097196 L8.70967742,36.3161002 C8.70967742,38.0428082 9.21629032,39.7171918 10.1729032,41.1532082 L10.8377419,42.1517338 C11.3443548,42.9133458 11.6129032,43.8014086 11.6129032,44.7185406 C11.6129032,45.9554333 11.1309677,47.1167462 10.2585484,47.9917279 L8.79822581,49.4539065 Z" id="Path"></path>
                        <path d="M52.4104839,18.81792 L55.0074194,17.5170751 L54.1524194,15.8034482 C53.8620968,15.224972 53.7096774,14.5752763 53.7096774,13.927034 C53.7096774,12.5186333 54.4079032,11.213428 55.5793548,10.4329211 L55.9495161,10.1843798 C57.1630645,9.37335028 58.0877419,8.16261981 58.5493548,6.77602093 C58.95,5.56965084 59.9254839,4.66705346 61.1579032,4.35746692 L61.6587097,4.23246953 L61.3741935,5.08855626 C61.1041935,5.89522542 60.9677419,6.73532411 60.9677419,7.58559701 C60.9677419,10.124788 62.0854839,12.5157264 64.0335484,14.1406923 L66.2908065,16.0243738 C68.4435484,17.8193944 69.6774194,20.4574206 69.6774194,23.2625944 C69.6774194,25.2887148 69.0096774,27.2959402 67.796129,28.9179993 L65.6129032,31.8292755 L67.9354839,33.5748785 L70.1187097,30.6606953 C71.7053226,28.5401002 72.5806452,25.9122482 72.5806452,23.2625944 C72.5806452,19.5926131 70.965,16.1406505 68.148871,13.7889555 L65.8916129,11.905274 C64.6069355,10.8340755 63.8709677,9.25998056 63.8709677,7.58559701 C63.8709677,7.04781757 63.9566129,6.51875888 64.1264516,6.00859514 L66.0846774,0.127904299 L60.4524194,1.53921196 C58.2532258,2.08861907 56.5112903,3.70341084 55.7941935,5.85743551 C55.5358065,6.63503551 55.0175806,7.31234692 54.3367742,7.76582579 L53.9680645,8.0143671 C51.9880645,9.33410692 50.8064516,11.543363 50.8064516,13.927034 C50.8064516,15.0243948 51.0662903,16.123209 51.5554839,17.1057465 L52.4104839,18.81792 Z" id="Path"></path>
                    </g>
                </g>
            </g>
        </g>
    </g>
</svg>