<?xml version="1.0" encoding="UTF-8"?>
<svg width="152px" height="152px" viewBox="0 0 152 152" version="1.1" xmlns="http://www.w3.org/2000/svg" xmlns:xlink="http://www.w3.org/1999/xlink">
    <title>8A961288-4B39-45CE-8C06-DABB9D2352D4@1x</title>
    <g id="Dokodemo-Web-Profile" stroke="none" stroke-width="1" fill="none" fill-rule="evenodd">
        <g id="Desktop-" transform="translate(-326.000000, -2666.000000)">
            <g id="Group-20" transform="translate(327.000000, 2655.000000)">
                <g id="Group-16" transform="translate(0.000000, 12.000000)">
                    <circle id="Oval-Copy-7" stroke="#276EAD" fill="#F2F9FF" cx="75" cy="75" r="75"></circle>
                    <g id="motivation" transform="translate(30.000000, 32.000000)" fill-rule="nonzero">
                        <path d="M15.6364922,32.8468866 L11.8453536,29.9906356 C10.6527157,29.0909165 9.95049505,27.6813566 9.95049505,26.1818249 C9.95049505,23.5526458 12.071372,21.4218826 14.6883522,21.4218826 L15.6364922,21.4218826 L15.6364922,20.1694165 C15.6364922,17.5573749 17.4005728,15.2780866 19.9180481,14.634002 C20.6714427,15.3037929 21.6608062,15.7093805 22.7439887,15.7093805 L27.5102758,15.7093805 C29.9353536,15.7093805 32.2779844,14.8225146 34.101768,13.2158734 C34.3533734,13.6271736 34.5665983,14.0570393 34.7542362,14.4997582 C37.8175672,12.1490637 39.8019802,8.44736235 39.8019802,4.28437651 C39.8019802,1.92225693 37.8886421,0 35.5374823,0 L20.7496252,0 C9.30797737,0 0,9.3513658 0,20.846348 C0,28.7924383 4.39527581,35.9373502 11.4686563,39.4919546 L15.6364922,41.5841584 L15.6364922,32.8468866 Z" id="Path" fill="#FFCA13"></path>
                        <g id="Group" transform="translate(5.940594, 0.000000)" fill="#3B81BF">
                            <path d="M73.4565176,85.0846375 L70.6312669,85.0846375 L70.6312669,68.06771 L62.1555149,68.06771 L62.1555149,85.0846375 L59.3302642,85.0846375 L59.3302642,73.7400192 L50.8545122,73.7400192 L50.8545122,85.0846375 L48.0292615,85.0846375 L48.0292615,79.4123283 L39.5535095,79.4123283 L39.5535095,85.0846375 L36.7282588,85.0846375 L36.7282588,75.314085 C36.7282588,74.5837752 36.6788169,73.866228 36.6279624,73.1472629 L52.2191083,62.7130501 L57.8441824,66.9474289 L83.0143407,51.1557202 L75.7167182,45.6620888 L74.0215678,47.9310125 L78.0235353,50.9444267 L57.9896828,63.5142638 L52.3137542,59.2401789 L36.2479662,69.993459 C34.740695,61.5048483 29.6933846,54.2074225 22.6020054,49.7688406 L22.6020054,42.5409007 L24.0146308,42.5409007 L24.0146308,42.5423187 C24.0216939,42.5423187 24.028757,42.5409007 24.0344075,42.5409007 L74.869143,42.5409007 C77.2056253,42.5409007 79.107019,40.6321686 79.107019,38.2866688 C79.107019,37.7265283 78.9925963,37.1947493 78.7962414,36.7055126 C80.5973387,36.2148579 81.9322697,34.5755605 81.9322697,32.6157777 C81.9322697,31.5224401 81.5070694,30.5340402 80.8304219,29.7796231 C81.5084821,29.025206 81.9322697,28.0368061 81.9322697,26.9434685 C81.9322697,25.8501309 81.5070694,24.8617311 80.8304219,24.107314 C81.5084821,23.3528968 81.9322697,22.364497 81.9322697,21.2711594 C81.9322697,18.9256595 80.030876,17.0169275 77.6958063,17.0169275 L70.6312669,17.0169275 C69.0731412,17.0169275 67.8060163,15.7434941 67.8060163,14.1807729 L67.8060163,7.09038646 C67.8060163,5.1958352 67.0700385,3.4161482 65.7365201,2.07606515 C64.4030018,0.737400192 62.630157,-5.03802259e-15 60.7443022,-5.03802259e-15 L60.7428896,-5.03802259e-15 C58.4064073,-5.03802259e-15 56.5050136,1.90873203 56.5050136,4.25423187 L56.5050136,7.75971894 C56.5050136,10.3491281 55.1305291,12.7868029 52.9183578,14.1197956 C50.8290849,15.3790482 49.2540077,17.3501757 48.4855395,19.668732 L48.4657628,19.7282913 L31.0410292,17.6706611 C30.9534464,15.8016353 30.419474,13.980824 29.4405247,12.3798148 L28.5632844,10.9461386 L27.3032226,12.0564931 C25.7507473,13.4263558 23.7561203,14.1807729 21.6880368,14.1807729 L16.9515041,14.1807729 C16.2607303,14.1807729 15.5967964,13.9283552 15.0811881,13.4703162 C14.4737592,12.9300287 14.1262534,12.1557585 14.1262534,11.3446183 C14.1262534,9.78047908 15.3933783,8.50846375 16.9515041,8.50846375 L16.9515041,5.67230917 C13.8352526,5.67230917 11.3010027,8.21633983 11.3010027,11.3446183 C11.3010027,12.2606963 11.5439743,13.1413223 11.9536356,13.9382817 C9.88696475,15.1635005 8.53084442,17.3757011 8.47716466,19.870099 C5.32135965,20.1125902 2.82525068,22.768649 2.82525068,25.997611 C2.82525068,27.9205238 3.73921927,29.758352 5.27333039,30.9126669 L8.47575203,33.3248164 L8.47575203,45.9542127 C3.2278489,48.9406835 -7.52798005e-15,54.454168 -7.52798005e-15,60.563245 L-7.52798005e-15,87.9207921 L81.9322697,87.9207921 L81.9322697,62.3954008 L73.4565176,62.3954008 L73.4565176,85.0846375 Z M33.1882197,69.1936634 L20.5805386,60.7575216 L23.6416977,57.6845481 L10.1327616,51.6577196 L10.9450211,48.3947237 C22.0609699,50.1403769 30.7457905,58.5027787 33.1882197,69.1936634 L33.1882197,69.1936634 Z M54.3719493,16.5517981 C57.4302832,14.7097157 59.3302642,11.3403641 59.3302642,7.75971894 L59.3302642,4.25423187 C59.3302642,3.47145321 59.9631204,2.83615458 60.7428896,2.83615458 L60.7443022,2.83615458 C61.8758151,2.83615458 62.939522,3.2785947 63.7390679,4.08122645 C64.5386139,4.88385819 64.9807656,5.95308847 64.9807656,7.09038646 L64.9807656,14.1807729 C64.9807656,17.3076333 67.5150155,19.8530821 70.6312669,19.8530821 L77.6958063,19.8530821 C78.4741628,19.8530821 79.107019,20.4883807 79.107019,21.2711594 C79.107019,22.053938 78.4741628,22.6892367 77.6943936,22.6892367 L67.8060163,22.6892367 L67.8060163,25.5253912 L77.6943936,25.5253912 C78.4741628,25.5253912 79.107019,26.1606899 79.107019,26.9434685 C79.107019,27.7262472 78.4741628,28.3615458 77.6943936,28.3615458 L67.8060163,28.3615458 L67.8060163,31.1977004 L77.6943936,31.1977004 C78.4741628,31.1977004 79.107019,31.832999 79.107019,32.6157777 C79.107019,33.3985564 78.4741628,34.033855 77.6943936,34.033855 L67.8060163,34.033855 L67.8060163,36.8700096 L74.869143,36.8700096 C75.6489122,36.8700096 76.2817683,37.5053082 76.2817683,38.2880869 C76.2817683,39.0708655 75.6489122,39.7061642 74.869143,39.7061642 L50.8545122,39.7061642 L50.8545122,21.5008879 L51.1667024,20.5649569 C51.7218642,18.8873714 52.8604402,17.4622038 54.3719493,16.5517981 L54.3719493,16.5517981 Z M48.0292615,39.7047461 L29.6312291,39.7047461 C30.5268336,38.5163973 31.0777575,37.0529416 31.0777575,35.4519323 L31.0777575,29.2379176 L31.4266759,29.062076 C32.9537239,28.2963143 33.9030081,26.7548643 33.9030081,25.0404088 C33.9030081,24.1484382 33.6416724,23.2862472 33.1500788,22.5445928 L31.8744781,20.6245161 L48.0292615,22.5318301 L48.0292615,39.7047461 Z M6.96989342,28.6451613 C6.1435076,28.0240434 5.65050136,27.0342255 5.65050136,25.997611 C5.65050136,24.1739636 7.12952009,22.6892367 8.94615627,22.6892367 L11.3010027,22.6892367 L11.3010027,20.0275056 C11.3010027,18.2974513 12.3364571,16.7673459 13.8861071,16.109358 C14.7944252,16.6992782 15.8567194,17.0169275 16.9515041,17.0169275 L21.6880368,17.0169275 C23.83664,17.0169275 25.9245002,16.4057362 27.7213597,15.2726924 C28.0716907,16.2015331 28.2525068,17.1899329 28.2525068,18.1925136 L28.2525068,18.9951453 C28.2525068,19.8360652 28.4983036,20.6514596 28.96447,21.3548259 L30.7994703,24.1186586 C30.9816989,24.3923475 31.0777575,24.7114149 31.0777575,25.0404088 C31.0777575,25.6742894 30.7274264,26.2429384 30.1637889,26.5265538 L29.8148704,26.7023954 C28.8514599,27.1845417 28.2525068,28.1559246 28.2525068,29.2379176 L28.2525068,35.4519323 C28.2525068,37.7903417 26.3624141,39.6919834 24.0344075,39.7047461 L16.9515041,39.7047461 L16.9515041,42.5409007 L19.7767547,42.5409007 L19.7767547,48.2203002 C17.1506842,46.9482849 14.3070694,46.05206 11.3010027,45.5883488 L11.3010027,31.9067391 L6.96989342,28.6451613 Z M33.9030081,85.0846375 L14.1262534,85.0846375 L14.1262534,64.9876461 C14.1262534,62.0649888 12.9452986,59.2047269 10.8871035,57.1385883 L8.88965126,59.1437496 C10.4223498,60.6823635 11.3010027,62.8123156 11.3010027,64.9876461 L11.3010027,85.0846375 L2.82525068,85.0846375 L2.82525068,60.563245 C2.82525068,56.4338039 4.61787223,52.6489556 7.62535158,50.0368572 L6.81732989,53.2814181 L18.7370625,58.5992079 L16.1477202,61.1985436 L33.7970612,73.0111274 C33.8606294,73.7712169 33.9030081,74.5383967 33.9030081,75.314085 L33.9030081,85.0846375 Z M64.9807656,70.9038646 L67.8060163,70.9038646 L67.8060163,85.0846375 L64.9807656,85.0846375 L64.9807656,70.9038646 Z M53.6797629,76.5761737 L56.5050136,76.5761737 L56.5050136,85.0846375 L53.6797629,85.0846375 L53.6797629,76.5761737 Z M42.3787602,82.2484829 L45.2040108,82.2484829 L45.2040108,85.0846375 L42.3787602,85.0846375 L42.3787602,82.2484829 Z M76.2817683,65.2315554 L79.107019,65.2315554 L79.107019,85.0846375 L76.2817683,85.0846375 L76.2817683,65.2315554 Z" id="Shape"></path>
                            <polygon id="Path" points="36.7282588 51.0507825 39.5535095 51.0507825 39.5535095 53.8869371 36.7282588 53.8869371"></polygon>
                            <polygon id="Path" points="42.3787602 51.0507825 45.2040108 51.0507825 45.2040108 53.8869371 42.3787602 53.8869371"></polygon>
                            <polygon id="Path" points="48.0292615 51.0507825 50.8545122 51.0507825 50.8545122 53.8869371 48.0292615 53.8869371"></polygon>
                        </g>
                    </g>
                </g>
            </g>
        </g>
    </g>
</svg>