<?xml version="1.0" encoding="UTF-8"?>
<svg width="152px" height="152px" viewBox="0 0 152 152" version="1.1" xmlns="http://www.w3.org/2000/svg" xmlns:xlink="http://www.w3.org/1999/xlink">
    <title>B23F71AD-B1B7-4DC8-A61A-A02B19C658C2@1x</title>
    <g id="Dokodemo-Web-Profile" stroke="none" stroke-width="1" fill="none" fill-rule="evenodd">
        <g id="Desktop-" transform="translate(-810.000000, -2444.000000)">
            <g id="Group-19" transform="translate(199.000000, 2445.000000)">
                <g id="Group-12" transform="translate(612.000000, 0.000000)">
                    <circle id="Oval-Copy-4" stroke="#276EAD" fill="#F2F9FF" cx="75" cy="75" r="75"></circle>
                    <g id="recruit-(1)" transform="translate(31.000000, 31.000000)" fill-rule="nonzero">
                        <polygon id="Path" fill="#FFCA13" points="6.27906977 29.3023256 18.8372093 29.3023256 18.8372093 41.8604651 6.27906977 41.8604651"></polygon>
                        <polygon id="Path" fill="#FFCA13" points="24.0697674 30.3488372 34.5348837 30.3488372 34.5348837 36.627907 24.0697674 36.627907"></polygon>
                        <path d="M79.3738819,19.8837209 L60.7149016,19.8837209 C56.8170483,19.8837209 53.3973703,22.3921008 52.1280322,26.0815895 C48.50839,27.3734272 46.0465116,30.8576983 46.0465116,34.8291767 C46.0465116,37.7671849 46.4000716,40.7037167 47.1013953,43.5575709 L47.4578533,45 L47.7563506,45 C48.3504472,43.2741047 49.945814,42.0295113 51.842576,42.0295113 L53.2915921,42.0295113 L53.2915921,39.0767393 C53.2915921,35.8154025 55.88678,33.1711952 59.0876565,33.1711952 C59.0876565,34.8026017 60.3845259,36.1239672 61.9856887,36.1239672 L73.5778175,36.1239672 C75.1789803,36.1239672 76.4758497,37.4453327 76.4758497,39.0767393 L76.4758497,42.0295113 L77.9248658,42.0295113 C79.8216279,42.0295113 81.4169946,43.2741047 82.0110912,45 L82.3095886,45 L82.6660465,43.5546181 C83.3659213,40.7022403 83.7209302,37.7671849 83.7209302,34.8291767 L83.7209302,24.312879 C83.7209302,21.8709365 81.7705546,19.8837209 79.3738819,19.8837209 L79.3738819,19.8837209 Z" id="Path" fill="#FFCA13"></path>
                        <g id="Group" fill="#3B81BF">
                            <circle id="Oval" cx="59.516129" cy="42.0967742" r="1.4516129"></circle>
                            <circle id="Oval" cx="71.1290323" cy="42.0967742" r="1.4516129"></circle>
                            <path d="M72.5806452,49.3548387 L69.6774194,49.3548387 C69.6774194,50.9559677 68.3753226,52.2580645 66.7741935,52.2580645 L60.9677419,52.2580645 L60.9677419,55.1612903 L66.7741935,55.1612903 C69.9764516,55.1612903 72.5806452,52.5570968 72.5806452,49.3548387 Z" id="Path"></path>
                            <path d="M72.243871,61.173871 L71.9375806,60.255 C75.2733871,58.9398387 77.7454839,55.9117742 78.2709677,52.2566129 L78.3870968,52.2566129 C81.5893548,52.2566129 84.1935484,49.6524194 84.1935484,46.4501613 C84.1935484,43.2479032 81.5893548,40.6437097 78.3870968,40.6437097 L78.3870968,39.1920968 C78.3870968,36.791129 76.4332258,34.8372581 74.0322581,34.8372581 L62.4193548,34.8372581 C61.6180645,34.8372581 60.9677419,34.1854839 60.9677419,33.3856452 L60.9677419,29.0308065 L58.0645161,29.0308065 L58.0645161,32.0806452 C54.7562903,32.7541935 52.2580645,35.6879032 52.2580645,39.1920968 L52.2580645,40.6437097 C49.0558065,40.6437097 46.4516129,43.2479032 46.4516129,46.4501613 C46.4516129,49.6524194 49.0558065,52.2566129 52.2580645,52.2566129 L52.3741935,52.2566129 C52.901129,55.9117742 55.3717742,58.9383871 58.7075806,60.255 L58.4012903,61.173871 C50.2112903,62.8737097 43.8648387,68.8862903 41.5785484,76.6103226 L40.7148387,71.4251613 C42.5627419,68.4522581 43.5483871,65.051129 43.5483871,61.541129 L43.5483871,47.9032258 C43.5483871,46.0132258 42.3304839,44.4164516 40.6451613,43.8154839 L40.6451613,2.90322581 C40.6451613,1.30209677 39.3430645,0 37.7419355,0 L2.90322581,0 C1.30209677,0 0,1.30209677 0,2.90322581 L0,52.2580645 C0,53.8591935 1.30209677,55.1612903 2.90322581,55.1612903 L2.99322581,55.1612903 C3.14419355,55.773871 3.48677419,56.3254839 3.99193548,56.7304839 L9.2133871,60.9067742 C9.99435484,61.5324194 10.6040323,62.3540323 10.9770968,63.2859677 L11.2253226,63.9058065 C12.4882258,67.0616129 14.58,69.7601613 17.2916129,71.7779032 L14.7382258,87.0967742 L0,87.0967742 L0,90 L90,90 L90,82.9829032 C90,72.3382258 82.5808065,63.3193548 72.243871,61.173871 Z M49.3548387,46.4516129 C49.3548387,44.8504839 50.6569355,43.5483871 52.2580645,43.5483871 L52.2580645,49.3548387 C50.6569355,49.3548387 49.3548387,48.0527419 49.3548387,46.4516129 Z M59.3201613,63.9435484 L62.3090323,65.4387097 L59.085,67.3737097 L58.4375806,64.1322581 C58.7279032,64.0625806 59.0225806,64.0001613 59.3201613,63.9435484 Z M65.0046774,72.5806452 L65.6404839,72.5806452 L69.2695161,87.0967742 L61.3741935,87.0967742 L65.0046774,72.5806452 Z M65.7275806,69.6774194 L64.9175806,69.6774194 L64.2454839,67.6625806 L65.3225806,67.0151613 L66.3996774,67.661129 L65.7275806,69.6774194 Z M68.3375806,65.4387097 L71.3264516,63.9435484 C71.6240323,64.0001613 71.9187097,64.0625806 72.2104839,64.1322581 L71.5630645,67.3737097 L68.3375806,65.4387097 Z M81.2903226,46.4516129 C81.2903226,48.0527419 79.9882258,49.3548387 78.3870968,49.3548387 L78.3870968,43.5483871 C79.9882258,43.5483871 81.2903226,44.8504839 81.2903226,46.4516129 Z M55.1612903,50.8064516 L55.1612903,39.1935484 C55.1612903,37.188871 56.5229032,35.4962903 58.3708065,34.991129 C59.0109677,36.6009677 60.5845161,37.7419355 62.4193548,37.7419355 L74.0322581,37.7419355 C74.8335484,37.7419355 75.483871,38.3937097 75.483871,39.1935484 L75.483871,50.8064516 C75.483871,54.8085484 72.2279032,58.0645161 68.2258065,58.0645161 L62.4193548,58.0645161 C58.4172581,58.0645161 55.1612903,54.8085484 55.1612903,50.8064516 Z M62.4193548,60.9677419 L68.2258065,60.9677419 C68.5204839,60.9677419 68.8122581,60.948871 69.101129,60.9227419 L69.3551613,61.6833871 L65.3225806,63.6996774 L61.2914516,61.6848387 L61.5454839,60.9241935 C61.8329032,60.948871 62.1246774,60.9677419 62.4193548,60.9677419 L62.4193548,60.9677419 Z M55.6533871,65.0220968 L57.0454839,71.9825806 L61.695,69.1925806 L62.3598387,71.1885484 L58.383871,87.0967742 L52.2580645,87.0967742 L52.2580645,78.3870968 L49.3548387,78.3870968 L49.3548387,87.0967742 L43.5483871,87.0967742 L43.5483871,82.9829032 C43.5483871,74.9177419 48.4490323,67.9267742 55.6533871,65.0220968 L55.6533871,65.0220968 Z M2.90322581,2.90322581 L37.7419355,2.90322581 L37.7419355,43.8154839 C37.6867742,43.8358065 37.6272581,43.8459677 37.5735484,43.8677419 C37.0727419,42.0169355 35.3946774,40.6451613 33.3870968,40.6451613 C32.2679032,40.6451613 31.256129,41.0820968 30.483871,41.7774194 C29.7116129,41.0806452 28.6998387,40.6451613 27.5806452,40.6451613 C27.0696774,40.6451613 26.5848387,40.7496774 26.1290323,40.9122581 L26.1290323,37.7419355 L34.8387097,37.7419355 L34.8387097,34.8387097 L26.1290323,34.8387097 L26.1290323,33.3870968 C26.1290323,32.876129 26.0245161,32.3912903 25.8619355,31.9354839 L34.8387097,31.9354839 L34.8387097,29.0322581 L14.516129,29.0322581 L14.516129,31.9354839 L17.6864516,31.9354839 C17.523871,32.3912903 17.4193548,32.876129 17.4193548,33.3870968 L17.4193548,34.8387097 L5.80645161,34.8387097 L5.80645161,37.7419355 L17.4193548,37.7419355 L17.4193548,40.6451613 L5.80645161,40.6451613 L5.80645161,43.5483871 L17.4193548,43.5483871 L17.4193548,50.3666129 C17.4193548,51.4103226 16.5716129,52.2580645 15.5279032,52.2580645 C15.1533871,52.2580645 14.7904839,52.1477419 14.4783871,51.9401613 L12.753871,50.7904839 C11.3458065,49.8512903 9.70693548,49.3548387 8.01145161,49.3548387 C5.98790323,49.3548387 4.25177419,50.5466129 3.42435484,52.2580645 L2.90322581,52.2580645 L2.90322581,2.90322581 Z M13.9195161,62.8258065 L13.6712903,62.2074194 C13.113871,60.8124194 12.1993548,59.5785484 11.0264516,58.6393548 L5.80645161,54.4630645 C5.80645161,53.2466129 6.79645161,52.2580645 8.01290323,52.2580645 C9.13209677,52.2580645 10.215,52.586129 11.1440323,53.2059677 L12.8685484,54.3556452 C13.6582258,54.8825806 14.5785484,55.1612903 15.5279032,55.1612903 C18.1727419,55.1612903 20.3225806,53.0114516 20.3225806,50.3666129 L20.3225806,33.3870968 C20.3225806,32.5872581 20.9729032,31.9354839 21.7741935,31.9354839 C22.5754839,31.9354839 23.2258065,32.5872581 23.2258065,33.3870968 L23.2258065,55.1612903 L26.1290323,55.1612903 L26.1290323,45 C26.1290323,44.2001613 26.7793548,43.5483871 27.5806452,43.5483871 C28.3819355,43.5483871 29.0322581,44.2001613 29.0322581,45 L29.0322581,55.1612903 L31.9354839,55.1612903 L31.9354839,45 C31.9354839,44.2001613 32.5858065,43.5483871 33.3870968,43.5483871 C34.1883871,43.5483871 34.8387097,44.2001613 34.8387097,45 L34.8387097,55.1612903 L37.7419355,55.1612903 L37.7419355,47.9032258 C37.7419355,47.1033871 38.3922581,46.4516129 39.1935484,46.4516129 C39.9948387,46.4516129 40.6451613,47.1033871 40.6451613,47.9032258 L40.6451613,61.541129 C40.6451613,64.421129 39.87,67.2183871 38.3937097,69.6774194 L19.3224194,69.6774194 C16.8924194,67.9587097 15.03,65.5983871 13.9195161,62.8258065 Z M20.1004839,72.5806452 L37.9640323,72.5806452 L40.383871,87.0967742 L17.6806452,87.0967742 L20.1004839,72.5806452 Z M87.0967742,87.0967742 L81.2903226,87.0967742 L81.2903226,78.3870968 L78.3870968,78.3870968 L78.3870968,87.0967742 L72.2612903,87.0967742 L68.2853226,71.1870968 L68.9501613,69.191129 L73.5996774,71.981129 L74.9917742,65.0206452 C82.196129,67.9267742 87.0967742,74.9177419 87.0967742,82.9829032 L87.0967742,87.0967742 Z" id="Shape"></path>
                            <path d="M29.0322581,23.2258065 C29.0322581,19.9451613 27.2090323,17.0854839 24.5220968,15.6004839 C25.5120968,14.5582258 26.1290323,13.158871 26.1290323,11.6129032 C26.1290323,8.41064516 23.5248387,5.80645161 20.3225806,5.80645161 C17.1203226,5.80645161 14.516129,8.41064516 14.516129,11.6129032 C14.516129,13.158871 15.1330645,14.5582258 16.1230645,15.6004839 C13.436129,17.0854839 11.6129032,19.9451613 11.6129032,23.2258065 L11.6129032,26.1290323 L29.0322581,26.1290323 L29.0322581,23.2258065 Z M17.4193548,11.6129032 C17.4193548,10.0117742 18.7214516,8.70967742 20.3225806,8.70967742 C21.9237097,8.70967742 23.2258065,10.0117742 23.2258065,11.6129032 C23.2258065,13.2140323 21.9237097,14.516129 20.3225806,14.516129 C18.7214516,14.516129 17.4193548,13.2140323 17.4193548,11.6129032 Z M14.516129,23.2258065 C14.516129,20.0235484 17.1203226,17.4193548 20.3225806,17.4193548 C23.5248387,17.4193548 26.1290323,20.0235484 26.1290323,23.2258065 L14.516129,23.2258065 Z" id="Shape"></path>
                            <polygon id="Path" points="5.80645161 29.0322581 11.6129032 29.0322581 11.6129032 31.9354839 5.80645161 31.9354839"></polygon>
                        </g>
                    </g>
                </g>
            </g>
        </g>
    </g>
</svg>