<?xml version="1.0" encoding="UTF-8"?>
<svg width="152px" height="152px" viewBox="0 0 152 152" version="1.1" xmlns="http://www.w3.org/2000/svg" xmlns:xlink="http://www.w3.org/1999/xlink">
    <title>49BB9821-17F1-4AA7-8FDC-8DB357FAE050@1x</title>
    <g id="Dokodemo-Web-Profile" stroke="none" stroke-width="1" fill="none" fill-rule="evenodd">
        <g id="Desktop-" transform="translate(-810.000000, -2004.000000)">
            <g id="Group-17" transform="translate(200.500000, 1986.000000)">
                <g id="Group-13" transform="translate(610.500000, 19.000000)">
                    <circle id="Oval" stroke="#276EAD" fill="#F2F9FF" cx="75" cy="75" r="75"></circle>
                    <g id="budget" transform="translate(29.000000, 28.000000)">
                        <path d="M14.313253,28.626506 C6.42144578,28.626506 0,22.2050602 0,14.313253 C0,6.42144578 6.42144578,0 14.313253,0 C22.2050602,0 28.626506,6.42144578 28.626506,14.313253 C28.626506,22.2050602 22.2050602,28.626506 14.313253,28.626506 Z" id="Path" fill="#FFCA13" fill-rule="nonzero"></path>
                        <circle id="Oval" fill="#FFCA13" fill-rule="nonzero" cx="17.2048193" cy="74.253012" r="10"></circle>
                        <g id="Group" transform="translate(0.000000, 3.114819)" fill="#3B81BF">
                            <text id="Rp" font-family="OpenSans-Bold, Open Sans" font-size="14" font-weight="bold" letter-spacing="-0.0777777778">
                                <tspan x="6.29" y="15.6101807">Rp</tspan>
                            </text>
                            <text id="Rp-Copy" font-family="OpenSans-Bold, Open Sans" font-size="13" font-weight="bold" letter-spacing="-0.0722222222">
                                <tspan x="9" y="74.8385542">Rp</tspan>
                            </text>
                            <path d="M23.1325301,42.9172173 L19.6554217,42.9172173 C18.7879518,41.1913875 17.0327711,39.9945589 14.9898795,39.9945589 L11.0342169,39.9945589 C8.13831325,39.9945589 5.78313253,42.3750641 5.78313253,45.3021065 C5.78313253,45.7945744 5.85108434,46.285581 5.98554217,46.7590517 L8.53301205,55.7739914 L2.89156627,63.3758259 C1.02650602,65.8907734 0,69.0048659 0,72.143801 C0,80.2015702 6.48578313,86.7570929 14.4578313,86.7570929 L17.3493976,86.7570929 C19.4053012,86.7570929 21.36,86.3143101 23.1325301,85.528115 L23.1325301,86.7570929 L37.5903614,86.7570929 L37.5903614,31.2265838 L23.1325301,31.2265838 L23.1325301,42.9172173 Z M11.0342169,42.9172173 L14.9898795,42.9172173 C16.2910843,42.9172173 17.3493976,43.9869102 17.3493976,45.3021065 L17.3493976,48.762534 L20.2409639,48.762534 L20.2409639,45.8398756 L23.3812048,45.8398756 C24.8385542,45.8398756 26.0240964,47.0381656 26.0240964,48.5111854 C26.0240964,49.2140847 25.7421687,49.9038321 25.2506024,50.400684 L21.0881928,54.6078508 L11.2120482,54.6078508 L8.76578313,45.9553206 C8.70506024,45.7434279 8.6746988,45.5227672 8.6746988,45.3021065 C8.6746988,43.9869102 9.73301205,42.9172173 11.0342169,42.9172173 Z M14.4578313,83.8344345 C8.08048193,83.8344345 2.89156627,78.5897241 2.89156627,72.143801 C2.89156627,69.6317761 3.71277108,67.1402099 5.20481928,65.1279596 L10.8433735,57.5305091 L20.9638554,57.5305091 L26.6024096,65.1279596 C28.0944578,67.1402099 28.9156627,69.6317761 28.9156627,72.143801 C28.9156627,78.5897241 23.726747,83.8344345 17.3493976,83.8344345 L14.4578313,83.8344345 Z M34.6987952,34.1492421 L34.6987952,83.8344345 L26.0240964,83.8344345 L26.0240964,83.8066693 C29.5272289,81.1368208 31.8072289,76.9106568 31.8072289,72.143801 C31.8072289,69.0048659 30.7807229,65.8907734 28.9156627,63.3758259 L23.5951807,56.2065449 L27.2949398,52.4670035 C28.340241,51.4119238 28.9156627,50.0061251 28.9156627,48.5111854 C28.9156627,46.3995647 27.7373494,44.5787485 26.0240964,43.6274232 L26.0240964,34.1492421 L34.6987952,34.1492421 Z" id="Shape" fill-rule="nonzero"></path>
                            <path d="M40.4819277,86.7570929 L54.939759,86.7570929 L54.939759,39.9945589 L40.4819277,39.9945589 L40.4819277,86.7570929 Z M43.373494,42.9172173 L52.0481928,42.9172173 L52.0481928,83.8344345 L43.373494,83.8344345 L43.373494,42.9172173 Z" id="Shape" fill-rule="nonzero"></path>
                            <path d="M57.8313253,86.7570929 L72.2891566,86.7570929 L72.2891566,32.6879129 L57.8313253,32.6879129 L57.8313253,86.7570929 Z M60.7228916,35.6105713 L69.3975904,35.6105713 L69.3975904,83.8344345 L60.7228916,83.8344345 L60.7228916,35.6105713 Z" id="Shape" fill-rule="nonzero"></path>
                            <path d="M41.9277108,20.9972794 C41.9277108,24.2209716 44.5214458,26.8425962 47.7108434,26.8425962 C50.7253012,26.8425962 53.1787952,24.4913175 53.4419277,21.5131286 L59.7845783,20.444897 C60.686747,22.4878352 62.706506,23.9199378 65.060241,23.9199378 C66.4236145,23.9199378 67.659759,23.4216246 68.6501205,22.6208162 L84.6231325,34.7293898 L79.2809639,35.6295686 L79.7551807,38.5127711 L89.8554217,36.8103226 L88.1725301,26.6014769 L85.32,27.0822542 L86.173012,32.2538982 L70.4024096,20.2987641 C70.6843373,19.6119394 70.8433735,18.8622775 70.8433735,18.0746211 C70.8433735,14.8509289 68.2496386,12.2293043 65.060241,12.2293043 C62.0457831,12.2293043 59.5922892,14.580583 59.3291566,17.5587719 L52.986506,18.6270035 C52.0843373,16.5840653 50.0645783,15.1519627 47.7108434,15.1519627 C45.566747,15.1519627 43.7146988,16.3502526 42.7156627,18.105309 L31.5498795,15.0277497 C31.3792771,16.0009949 31.1204819,16.9420909 30.7850602,17.8466537 L41.9349398,20.919829 C41.9349398,20.9461329 41.9277108,20.9709755 41.9277108,20.9972794 Z M65.060241,15.1519627 C66.6549398,15.1519627 67.9518072,16.462775 67.9518072,18.0746211 C67.9518072,19.6864672 66.6549398,20.9972794 65.060241,20.9972794 C63.4655422,20.9972794 62.1686747,19.6864672 62.1686747,18.0746211 C62.1686747,16.462775 63.4655422,15.1519627 65.060241,15.1519627 Z M47.7108434,18.0746211 C49.3055422,18.0746211 50.6024096,19.3854333 50.6024096,20.9972794 C50.6024096,22.6091255 49.3055422,23.9199378 47.7108434,23.9199378 C46.1161446,23.9199378 44.8192771,22.6091255 44.8192771,20.9972794 C44.8192771,19.3854333 46.1161446,18.0746211 47.7108434,18.0746211 Z" id="Shape" fill-rule="nonzero"></path>
                            <path d="M75.1807229,86.7570929 L89.6385542,86.7570929 L89.6385542,45.8398756 L75.1807229,45.8398756 L75.1807229,86.7570929 Z M78.0722892,48.762534 L86.746988,48.762534 L86.746988,83.8344345 L78.0722892,83.8344345 L78.0722892,48.762534 Z" id="Shape" fill-rule="nonzero"></path>
                        </g>
                    </g>
                </g>
            </g>
        </g>
    </g>
</svg>