<?xml version="1.0" encoding="UTF-8"?>
<svg width="351px" height="214px" viewBox="0 0 351 214" version="1.1" xmlns="http://www.w3.org/2000/svg" xmlns:xlink="http://www.w3.org/1999/xlink">
    <!-- Generator: sketchtool 58 (101010) - https://sketch.com -->
    <title>23B5B48E-43BC-4168-B207-925DC2DCC474@1.00x</title>
    <desc>Created with sketchtool.</desc>
    <g id="Web" stroke="none" stroke-width="1" fill="none" fill-rule="evenodd">
        <g id="Landing-Page-(Japanese)" transform="translate(-181.000000, -710.000000)" stroke="#0B5EA2">
            <g id="Group-3" transform="translate(182.000000, 711.000000)">
                <rect id="Rectangle" x="0" y="0" width="349" height="187" rx="8"></rect>
                <rect id="Rectangle-Copy-3" x="140" y="187" width="70" height="14" rx="1"></rect>
                <path d="M126.483296,201 C152.80073,201 199.653926,201 225.015222,201 C229.499491,202.434964 231.824564,205.701126 231.990442,210.798488 C232.008374,211.350464 231.575471,211.81249 231.023495,211.830453 C231.013156,211.830789 231.002812,211.830965 230.992468,211.830981 L119.001725,211.99854 C118.449429,211.999388 118.001034,211.552334 118.000208,211.000038 C118.000205,210.997763 118.000209,210.995488 118.000221,210.993213 C118.028954,205.600921 120.856646,202.26985 126.483296,201 Z" id="Rectangle-Copy-4"></path>
                <rect id="Rectangle-Copy-2" x="9" y="6" width="331" height="171" rx="4"></rect>
            </g>
        </g>
    </g>
</svg>