<?xml version="1.0" encoding="UTF-8"?>
<svg width="58px" height="62px" viewBox="0 0 58 62" version="1.1" xmlns="http://www.w3.org/2000/svg" xmlns:xlink="http://www.w3.org/1999/xlink">
    <!-- Generator: sketchtool 58 (101010) - https://sketch.com -->
    <title>634B8DDA-0206-4836-95FA-8A6368B8373A@1.00x</title>
    <desc>Created with sketchtool.</desc>
    <defs>
        <linearGradient x1="41.6570618%" y1="50%" x2="71.9744658%" y2="50%" id="linearGradient-1">
            <stop stop-color="#7E8595" offset="0%"></stop>
            <stop stop-color="#555A66" offset="100%"></stop>
        </linearGradient>
        <linearGradient x1="28.6643306%" y1="50%" x2="84.4852108%" y2="50%" id="linearGradient-2">
            <stop stop-color="#7E8595" offset="0%"></stop>
            <stop stop-color="#555A66" offset="100%"></stop>
        </linearGradient>
        <linearGradient x1="50.2901191%" y1="49.3370733%" x2="46.6253791%" y2="57.7104155%" id="linearGradient-3">
            <stop stop-color="#BEC3D2" stop-opacity="0" offset="0%"></stop>
            <stop stop-color="#C5C9D7" stop-opacity="0.221" offset="22.1%"></stop>
            <stop stop-color="#D7DAE3" stop-opacity="0.534" offset="53.43%"></stop>
            <stop stop-color="#F6F6F8" stop-opacity="0.901" offset="90.14%"></stop>
            <stop stop-color="#FFFFFF" offset="100%"></stop>
        </linearGradient>
        <linearGradient x1="28.6646347%" y1="50%" x2="84.4854272%" y2="50%" id="linearGradient-4">
            <stop stop-color="#FFDA45" offset="0%"></stop>
            <stop stop-color="#FFA425" offset="100%"></stop>
        </linearGradient>
        <linearGradient x1="54.7577386%" y1="48.7151166%" x2="39.0898358%" y2="51.7068209%" id="linearGradient-5">
            <stop stop-color="#FFDA45" stop-opacity="0" offset="0%"></stop>
            <stop stop-color="#FCEE21" offset="100%"></stop>
        </linearGradient>
        <linearGradient x1="54.058277%" y1="52.3653454%" x2="49.4273208%" y2="48.0652237%" id="linearGradient-6">
            <stop stop-color="#555A66" stop-opacity="0" offset="0%"></stop>
            <stop stop-color="#555A66" offset="100%"></stop>
        </linearGradient>
        <linearGradient x1="28.6648411%" y1="49.9990202%" x2="84.4870225%" y2="49.9990202%" id="linearGradient-7">
            <stop stop-color="#FFDA45" offset="0%"></stop>
            <stop stop-color="#FFA425" offset="100%"></stop>
        </linearGradient>
        <linearGradient x1="33.3449299%" y1="50.6653897%" x2="-7.96027538%" y2="51.3922808%" id="linearGradient-8">
            <stop stop-color="#FFDA45" stop-opacity="0" offset="0%"></stop>
            <stop stop-color="#FCEE21" offset="100%"></stop>
        </linearGradient>
        <linearGradient x1="119.94214%" y1="81.07955%" x2="34.6965612%" y2="51.2859162%" id="linearGradient-9">
            <stop stop-color="#FFDA45" stop-opacity="0" offset="0%"></stop>
            <stop stop-color="#B53759" offset="100%"></stop>
        </linearGradient>
        <linearGradient x1="28.6617197%" y1="50%" x2="84.4815979%" y2="50%" id="linearGradient-10">
            <stop stop-color="#FFDA45" offset="0%"></stop>
            <stop stop-color="#FFA425" offset="100%"></stop>
        </linearGradient>
        <linearGradient x1="51.0241444%" y1="50.4411145%" x2="47.7999555%" y2="48.8767096%" id="linearGradient-11">
            <stop stop-color="#FFDA45" stop-opacity="0" offset="0%"></stop>
            <stop stop-color="#FCEE21" offset="100%"></stop>
        </linearGradient>
        <linearGradient x1="32.4093783%" y1="22.3284314%" x2="80.3816681%" y2="97.7933333%" id="linearGradient-12">
            <stop stop-color="#FFDAAA" offset="0%"></stop>
            <stop stop-color="#FFD8A8" offset="42.13%"></stop>
            <stop stop-color="#FED1A0" offset="65.19%"></stop>
            <stop stop-color="#FDC592" offset="83.59%"></stop>
            <stop stop-color="#FCB47F" offset="99.51%"></stop>
            <stop stop-color="#FCB37E" offset="100%"></stop>
        </linearGradient>
        <linearGradient x1="82.2540732%" y1="74.2199527%" x2="14.4998421%" y2="23.3358662%" id="linearGradient-13">
            <stop stop-color="#FCB37E" stop-opacity="0" offset="0%"></stop>
            <stop stop-color="#FF7044" offset="100%"></stop>
        </linearGradient>
        <linearGradient x1="72.1576551%" y1="77.4488341%" x2="34.0019114%" y2="32.6818807%" id="linearGradient-14">
            <stop stop-color="#FCB37E" stop-opacity="0" offset="0%"></stop>
            <stop stop-color="#FF7044" offset="100%"></stop>
        </linearGradient>
        <linearGradient x1="61.3445348%" y1="45.4978795%" x2="19.7042153%" y2="5.65261349%" id="linearGradient-15">
            <stop stop-color="#FCB37E" stop-opacity="0" offset="0%"></stop>
            <stop stop-color="#FF7044" offset="100%"></stop>
        </linearGradient>
        <linearGradient x1="13.8147013%" y1="-5.48008831%" x2="83.8808858%" y2="105.98582%" id="linearGradient-16">
            <stop stop-color="#F9F7FC" offset="0%"></stop>
            <stop stop-color="#F0DDFC" offset="100%"></stop>
        </linearGradient>
        <linearGradient x1="52.7525586%" y1="53.7678603%" x2="2.97565594%" y2="-8.57383905%" id="linearGradient-17">
            <stop stop-color="#E9EDF5" stop-opacity="0" offset="0%"></stop>
            <stop stop-color="#FFFFFF" offset="100%"></stop>
        </linearGradient>
        <linearGradient x1="81.713352%" y1="62.8260468%" x2="40.1083605%" y2="50.6444201%" id="linearGradient-18">
            <stop stop-color="#F0DDFC" stop-opacity="0" offset="0%"></stop>
            <stop stop-color="#C8B7E0" stop-opacity="0.289" offset="28.89%"></stop>
            <stop stop-color="#A595C8" stop-opacity="0.592" offset="59.15%"></stop>
            <stop stop-color="#8F81B8" stop-opacity="0.84" offset="83.95%"></stop>
            <stop stop-color="#8779B3" offset="100%"></stop>
        </linearGradient>
        <linearGradient x1="49.9998634%" y1="33.288884%" x2="49.9998634%" y2="80.8139243%" id="linearGradient-19">
            <stop stop-color="#F9F7FC" offset="0%"></stop>
            <stop stop-color="#F0DDFC" offset="100%"></stop>
        </linearGradient>
        <linearGradient x1="33.1097864%" y1="48.9935548%" x2="87.2329856%" y2="52.2138839%" id="linearGradient-20">
            <stop stop-color="#F9F7FC" offset="0%"></stop>
            <stop stop-color="#F0DDFC" offset="100%"></stop>
        </linearGradient>
        <linearGradient x1="53.9676479%" y1="35.2970612%" x2="33.5824152%" y2="-14.4440913%" id="linearGradient-21">
            <stop stop-color="#F0DDFC" stop-opacity="0" offset="0%"></stop>
            <stop stop-color="#C8B7E0" stop-opacity="0.289" offset="28.89%"></stop>
            <stop stop-color="#A595C8" stop-opacity="0.592" offset="59.15%"></stop>
            <stop stop-color="#8F81B8" stop-opacity="0.84" offset="83.95%"></stop>
            <stop stop-color="#8779B3" offset="100%"></stop>
        </linearGradient>
        <linearGradient x1="49.133916%" y1="46.4225426%" x2="51.2664263%" y2="55.2297785%" id="linearGradient-22">
            <stop stop-color="#18CFFC" offset="0%"></stop>
            <stop stop-color="#4A98F7" offset="100%"></stop>
        </linearGradient>
        <linearGradient x1="52.9644421%" y1="50.700831%" x2="15.2759288%" y2="41.7941708%" id="linearGradient-23">
            <stop stop-color="#18CFFC" stop-opacity="0" offset="0%"></stop>
            <stop stop-color="#65E1DC" offset="100%"></stop>
        </linearGradient>
        <linearGradient x1="53.0713053%" y1="47.8959703%" x2="64.7530848%" y2="30.8572487%" id="linearGradient-24">
            <stop stop-color="#0469BC" stop-opacity="0" offset="0%"></stop>
            <stop stop-color="#0469BC" offset="100%"></stop>
        </linearGradient>
    </defs>
    <g id="Page-1" stroke="none" stroke-width="1" fill="none" fill-rule="evenodd">
        <g id="Home" transform="translate(-796.000000, -2017.000000)" fill-rule="nonzero">
            <g id="Group-4-Copy-5" transform="translate(650.000000, 1962.000000)">
                <g id="exam" transform="translate(146.000000, 55.000000)">
                    <path d="M5,58 C5.29630286,60.5485588 5.63729054,62 6,62 C6.36279812,62 6.70369714,60.5485588 7,58 L5,58 Z" id="Path" fill="url(#linearGradient-1)"></path>
                    <ellipse id="Oval" fill="url(#linearGradient-2)" cx="6" cy="30" rx="6" ry="30"></ellipse>
                    <ellipse id="Oval" fill="url(#linearGradient-3)" cx="6.5" cy="30" rx="3.5" ry="30"></ellipse>
                    <path d="M6,45 C4.27757405,45 2.60360511,45.1019087 1,45.2929725 C1.99949995,54.0858417 3.86432041,60 6,60 C8.13567959,60 10.0005,54.0857225 11,45.2929725 C9.39639489,45.1019087 7.72242595,45 6,45 Z" id="Path" fill="url(#linearGradient-4)"></path>
                    <path d="M9,45.1149005 C8.02107773,45.0394524 7.01945054,45 6,45 C4.98043593,45 3.97880875,45.0394524 3,45.1149005 C3.59430107,54.0058642 4.71512904,60 6,60 C7.28475744,60 8.40569893,54.0059834 9,45.1149005 Z" id="Path" fill="url(#linearGradient-5)"></path>
                    <path d="M12,30.1678234 C12,23.519185 11.5755538,17.3815742 10.8587745,12.4354018 L7.93923903,9.48235738 C7.70549119,9.18653711 7.34888046,9 6.95265948,9 C6.48184318,9 6.01102688,9 5.54009198,9 C4.92364283,9 4.40123834,9.45008826 4.29225089,10.0638013 C3.16086864,16.4377324 5.74288691,22.7252926 4.83600221,29.0929858 C4.76081391,29.6212877 4.97404507,30.1158809 5.34642875,30.4253766 L11.8461842,37 C11.9466329,34.8064195 12,32.5193906 12,30.1678234 Z" id="Path" fill="url(#linearGradient-6)"></path>
                    <path d="M5.50011666,8 C4.20106875,8 2.9306034,8.06557179 1.69770369,8.18904615 C1.51057546,8.2077079 1.35786296,8.35968618 1.32088063,8.56138653 C1.21600016,9.1337656 1.0883703,9.92126614 1.00600588,10.458239 C0.959807144,10.7593835 1.18660096,11.0272947 1.46402673,10.9977683 C2.76984112,10.8586998 4.11870433,10.7845641 5.5,10.7845641 C6.88129567,10.7845641 8.23027555,10.8586998 9.53597327,10.9977683 C9.81339904,11.0272947 10.0401929,10.7593835 9.99399412,10.458239 C9.9116297,9.92126614 9.78411651,9.1337656 9.67911937,8.56138653 C9.64213704,8.35955836 9.48942454,8.2077079 9.30229631,8.18904615 C8.06962993,8.06557179 6.79916457,8 5.50011666,8 L5.50011666,8 Z" id="Path" fill="url(#linearGradient-7)"></path>
                    <path d="M9.99389607,10.5284603 C9.90985421,9.97450662 9.77974408,9.16210276 9.67260856,8.57162323 C9.63487305,8.3634126 9.4790504,8.20676014 9.2881111,8.18750824 C8.21830346,8.07924926 7.11956922,8.0171421 6,8 C4.88043695,8.0171421 3.78170272,8.07924926 2.71189507,8.18750824 C2.52095578,8.20676014 2.36513312,8.36354446 2.32739761,8.57162323 C2.22038113,9.16210276 2.09015196,9.97450662 2.0061101,10.5284603 C1.97706447,10.7201881 2.05408301,10.898466 2.18383602,11 C3.23531159,10.911916 4.31154736,10.8651048 5.40825792,10.8651048 C5.60622055,10.8651048 5.8033499,10.8669509 6,10.8699837 C6.19665628,10.8669509 6.39378563,10.8651048 6.59174825,10.8651048 C7.68845881,10.8651048 8.76469459,10.911916 9.81617015,11 C9.94580413,10.898466 10.0229417,10.7200563 9.99389607,10.5284603 L9.99389607,10.5284603 Z" id="Path" fill="url(#linearGradient-8)"></path>
                    <path d="M5.93821641,10.8766326 C6.9803625,10.8766326 8.0023451,10.919602 9,11 L7.50242181,9.45468423 C7.28643128,9.17583536 6.95691148,9 6.59079054,9 C6.15574112,9 5.7206917,9 5.28553269,9 C4.71591382,9 4.23319526,9.42426641 4.13248734,10.0027704 C4.07890065,10.3106802 4.03649155,10.6182507 4,10.9257081 C4.63756109,10.893368 5.28399851,10.8766326 5.93821641,10.8766326 Z" id="Path" fill="url(#linearGradient-9)"></path>
                    <path d="M5.99990819,31 C5.22270079,31 4.63353935,30.2060355 4.74429748,29.3220462 C5.55170205,22.8816399 3.25291661,16.5225227 4.26019261,10.0759287 C4.35722475,9.45521927 4.82232442,9 5.37115257,9 L6.62876939,9 C7.17759755,9 7.64269721,9.45521927 7.73972935,10.0759287 C8.74721652,16.5225227 6.44821992,22.8817612 7.25562448,29.3221676 C7.36627702,30.2060355 6.77711559,31 5.99990819,31 Z" id="Path" fill="url(#linearGradient-10)"></path>
                    <path d="M5.34055701,10.0811518 C4.0221687,16.5590406 7.03096851,22.9491499 5.97418493,29.4206991 C5.86058795,30.1168399 6.3106918,30.7554363 6.99987445,31 C7.6890571,30.7554363 8.13929914,30.116718 8.02556396,29.4206991 C6.96905677,22.949028 9.97799478,16.5589187 8.65933008,10.0811518 C8.53232811,9.45742912 7.92357544,9 7.20523346,9 C7.06828139,9 6.93146751,9 6.79465363,9 C6.07631165,9 5.46755898,9.45742912 5.34055701,10.0811518 L5.34055701,10.0811518 Z" id="Path" fill="url(#linearGradient-11)"></path>
                    <path d="M55.2172358,62 L17.7827642,62 C16.2458789,62 15,60.7435882 15,59.1937098 L15,2.8062902 C15,1.25641176 16.2458789,0 17.7827642,0 L55.2172358,0 C56.7541211,0 58,1.25641176 58,2.8062902 L58,59.1937098 C58,60.7435882 56.7540006,62 55.2172358,62 Z" id="Path" fill="url(#linearGradient-12)"></path>
                    <path d="M56.3366308,0 C56.6295573,0.444511813 56.8005123,0.976900756 56.8005123,1.54932261 L56.8005123,58.1607459 C56.8005123,59.7167813 55.5411965,60.9781843 53.9877357,60.9781843 L16.1495293,60.9781843 C15.7398709,60.9781843 15.3510488,60.8896969 15,60.7320063 C15.5031171,61.495805 16.3670309,62 17.3488951,62 L55.1872234,62 C56.7406842,62 58,60.738597 58,59.1825616 L58,2.5712604 C58,1.42556232 57.3167892,0.440240009 56.3366308,0 L56.3366308,0 Z" id="Path" fill="url(#linearGradient-13)"></path>
                    <path d="M58,59.2088127 L58,8.61147032 L54.3994281,5 L54.3994281,55.1978414 C54.3994281,56.6467582 53.2284104,57.8214413 51.7837454,57.8214413 L15,57.8214413 L15,59.2088127 C15,60.75035 16.2458789,62 17.7827642,62 L55.2172358,62 C56.7540006,62 58,60.75035 58,59.2088127 Z" id="Path" fill="url(#linearGradient-14)"></path>
                    <path d="M43.4900505,2.0430612 C43.0087648,1.41009454 42.2517591,1 41.3975412,1 L26.6337873,1 C25.1791561,1 24,2.18393899 24,3.64447053 L24,3.87693119 C24,4.73473685 24.4085603,5.49481315 25.0388474,5.97792811 L49.9170694,30.9569388 C50.3982326,31.5899055 51.1552383,32 52.0095786,32 L58,32 L58,16.6118663 L43.4900505,2.0430612 Z" id="Path" fill="url(#linearGradient-15)"></path>
                    <path d="M49.8074924,60 L13,60 L13,7.66043198 C13,5.63888925 14.6267191,4 16.6335184,4 L51.3435447,4 C53.3629533,4 55,5.64917238 55,7.68353878 L55,54.7690314 C55,57.6579865 52.6752063,60 49.8074924,60 Z" id="Path" fill="url(#linearGradient-16)"></path>
                    <path d="M19.6658711,6 C17.6413245,6 16,7.65020235 16,9.6858214 L16,60 L50.7612586,60 C53.6545065,60 56,57.6418198 56,54.7329225 L56,7.32228142 C56,6.92358708 55.9367556,6.53999756 55.8209288,6.18003979 C55.4630287,6.06358645 55.0813817,6 54.6848323,6 L19.6658711,6 L19.6658711,6 Z" id="Path" fill="url(#linearGradient-17)"></path>
                    <path d="M54,57.948866 L44.5438737,48.4892017 C44.3454278,48.1941888 44.0085509,48 43.6263321,48 L13,48 L13,60 L49.8631853,60 C51.5508171,59.9998797 53.0499855,59.1950911 54,57.948866 Z" id="Path" fill="url(#linearGradient-18)"></path>
                    <path d="M50,60 L11.1998043,60 C8.32701615,60 6,57.6699987 6,54.7970202 L6,49.1055655 C6,48.4949719 6.49466979,48 7.10489079,48 L43.6969882,48 C44.3072092,48 44.801879,48.4949719 44.801879,49.1055655 L44.801879,54.7970202 C44.8017588,57.6698784 47.1287749,60 50,60 Z" id="Path" fill="url(#linearGradient-19)"></path>
                    <path d="M51,59.9888157 L51,60.0111843 L50,60.0111843 C50.3368107,60.0111843 50.6698957,60.0031608 51,59.9888157 Z" id="Path" fill="url(#linearGradient-20)"></path>
                    <g id="Group" transform="translate(19.000000, 20.000000)" fill="#BEC3D2">
                        <path d="M16.2723591,24.9808326 L0.559535082,24.9808326 C0.290532483,24.9808326 0.0724516891,24.7579175 0.0724516891,24.4829518 L0.0724516891,23.0099565 C0.0724516891,22.7349908 0.290532483,22.5120757 0.559535082,22.5120757 L16.2723591,22.5120757 C16.5413617,22.5120757 16.7594425,22.7349908 16.7594425,23.0099565 L16.7594425,24.4829518 C16.7594425,24.7579175 16.5413617,24.9808326 16.2723591,24.9808326 Z" id="Path"></path>
                        <path d="M24.0947224,24.9808326 L19.222679,24.9808326 C18.9536764,24.9808326 18.7355956,24.7579175 18.7355956,24.4829518 L18.7355956,23.0099565 C18.7355956,22.7349908 18.9536764,22.5120757 19.222679,22.5120757 L24.0947224,22.5120757 C24.363725,22.5120757 24.5818058,22.7349908 24.5818058,23.0099565 L24.5818058,24.4829518 C24.5818058,24.7579175 24.363725,24.9808326 24.0947224,24.9808326 L24.0947224,24.9808326 Z" id="Path"></path>
                        <path d="M29.4243364,24.9808326 L26.8881644,24.9808326 C26.6191618,24.9808326 26.401081,24.7579175 26.401081,24.4829518 L26.401081,23.0099565 C26.401081,22.7349908 26.6191618,22.5120757 26.8881644,22.5120757 L29.4243364,22.5120757 C29.693339,22.5120757 29.9114198,22.7349908 29.9114198,23.0099565 L29.9114198,24.4829518 C29.9114198,24.7579175 29.693339,24.9808326 29.4243364,24.9808326 Z" id="Path"></path>
                        <path d="M24.0567427,9.97418333 L8.34391873,9.97418333 C8.07491614,9.97418333 7.85683534,9.75126823 7.85683534,9.47630252 L7.85683534,8.00330725 C7.85683534,7.72834154 8.07491614,7.50542645 8.34391873,7.50542645 L24.0567427,7.50542645 C24.3257453,7.50542645 24.5438261,7.72834154 24.5438261,8.00330725 L24.5438261,9.47630252 C24.5438261,9.75126823 24.3257453,9.97418333 24.0567427,9.97418333 Z" id="Path"></path>
                        <path d="M5.4316995,9.97418333 L0.559656036,9.97418333 C0.290653437,9.97418333 0.0725726435,9.75126823 0.0725726435,9.47630252 L0.0725726435,8.00330725 C0.0725726435,7.72834154 0.290653437,7.50542645 0.559656036,7.50542645 L5.4316995,7.50542645 C5.7007021,7.50542645 5.9187829,7.72834154 5.9187829,8.00330725 L5.9187829,9.47630252 C5.9187829,9.75126823 5.7007021,9.97418333 5.4316995,9.97418333 Z" id="Path"></path>
                        <path d="M29.4243364,9.97418333 L26.8881644,9.97418333 C26.6191618,9.97418333 26.401081,9.75126823 26.401081,9.47630252 L26.401081,8.00330725 C26.401081,7.72834154 26.6191618,7.50542645 26.8881644,7.50542645 L29.4243364,7.50542645 C29.693339,7.50542645 29.9114198,7.72834154 29.9114198,8.00330725 L29.9114198,9.47630252 C29.9114198,9.75126823 29.693339,9.97418333 29.4243364,9.97418333 Z" id="Path"></path>
                        <path d="M13.7115124,0.0022254419 L29.4243364,0.0022254419 C29.693339,0.0022254419 29.9114198,0.225140539 29.9114198,0.500106249 L29.9114198,1.97310152 C29.9114198,2.24806723 29.693339,2.47098232 29.4243364,2.47098232 L13.7115124,2.47098232 C13.4425098,2.47098232 13.224429,2.24806723 13.224429,1.97310152 L13.224429,0.500106249 C13.224429,0.225140539 13.4425098,0.0022254419 13.7115124,0.0022254419 Z" id="Path"></path>
                        <path d="M5.88914907,0.0022254419 L10.7611925,0.0022254419 C11.0301951,0.0022254419 11.2482759,0.225140539 11.2482759,0.500106249 L11.2482759,1.97310152 C11.2482759,2.24806723 11.0301951,2.47098232 10.7611925,2.47098232 L5.88914907,2.47098232 C5.62014647,2.47098232 5.40206567,2.24806723 5.40206567,1.97310152 L5.40206567,0.500106249 C5.40206567,0.225140539 5.62014647,0.0022254419 5.88914907,0.0022254419 Z" id="Path"></path>
                        <path d="M0.559535082,0.0022254419 L3.09570706,0.0022254419 C3.36470966,0.0022254419 3.58279046,0.225140539 3.58279046,0.500106249 L3.58279046,1.97310152 C3.58279046,2.24806723 3.36470966,2.47098232 3.09570706,2.47098232 L0.559535082,2.47098232 C0.290532483,2.47098232 0.0724516891,2.24806723 0.0724516891,1.97310152 L0.0724516891,0.500106249 C0.0724516891,0.225140539 0.290532483,0.0022254419 0.559535082,0.0022254419 Z" id="Path"></path>
                        <path d="M5.92712875,15.0087511 L21.6399528,15.0087511 C21.9089554,15.0087511 22.1270361,15.2316662 22.1270361,15.5066319 L22.1270361,16.9796272 C22.1270361,17.2545929 21.9089554,17.477508 21.6399528,17.477508 L5.92712875,17.477508 C5.65812615,17.477508 5.44004536,17.2545929 5.44004536,16.9796272 L5.44004536,15.5066319 C5.44004536,15.2316662 5.65812615,15.0087511 5.92712875,15.0087511 Z" id="Path"></path>
                        <path d="M24.5522929,15.0087511 L29.4243364,15.0087511 C29.693339,15.0087511 29.9114198,15.2316662 29.9114198,15.5066319 L29.9114198,16.9796272 C29.9114198,17.2545929 29.693339,17.477508 29.4243364,17.477508 L24.5522929,17.477508 C24.2832903,17.477508 24.0652095,17.2545929 24.0652095,16.9796272 L24.0652095,15.5066319 C24.0652095,15.2316662 24.2832903,15.0087511 24.5522929,15.0087511 L24.5522929,15.0087511 Z" id="Path"></path>
                        <path d="M0.559535082,15.0087511 L3.09570706,15.0087511 C3.36470966,15.0087511 3.58279046,15.2316662 3.58279046,15.5066319 L3.58279046,16.9796272 C3.58279046,17.2545929 3.36470966,17.477508 3.09570706,17.477508 L0.559535082,17.477508 C0.290532483,17.477508 0.0724516891,17.2545929 0.0724516891,16.9796272 L0.0724516891,15.5066319 C0.0724516891,15.2316662 0.290532483,15.0087511 0.559535082,15.0087511 Z" id="Path"></path>
                    </g>
                    <path d="M55,32 L55,14.3759154 L44.6041858,4 L24.0099035,4 C24.0050725,4.06449085 24,4.12910225 24,4.19479854 L24,4.42274659 C24,5.26390019 24.4030256,6.00922159 25.0247744,6.48295814 L49.5659781,30.9770666 C50.0406232,31.5977458 50.787374,32 51.6301407,32 L55,32 L55,32 Z" id="Path" fill="url(#linearGradient-21)"></path>
                    <path d="M40.0325382,10 L27.9674618,10 C26.3312655,10 25,8.64084116 25,6.97023714 L25,3 L43,3 L43,6.97023714 C43,8.64096644 41.6688572,10 40.0325382,10 L40.0325382,10 Z M25.9817914,4.00223714 L25.9817914,6.97023714 C25.9817914,8.08823266 26.8726558,8.99776286 27.9675845,8.99776286 L40.0326609,8.99776286 C41.1277124,8.99776286 42.0185767,8.08823266 42.0185767,6.97023714 L42.0185767,4.00223714 L25.9817914,4.00223714 Z" id="Shape" fill="#555A66"></path>
                    <path d="M41.3703319,7 L26.6296681,7 C25.1773119,7 24,5.71343649 24,4.12630524 L24,3.87369476 C24,2.28656351 25.1773119,1 26.6296681,1 L41.3703319,1 C42.8226881,1 44,2.28656351 44,3.87369476 L44,4.12630524 C44,5.71343649 42.8226881,7 41.3703319,7 Z" id="Path" fill="url(#linearGradient-22)"></path>
                    <path d="M27.6285942,3.00021739 C26.1768311,3.00021739 25,4.04706522 25,5.33847826 L25,5.54402174 C25,5.96304348 25.1254912,6.35532609 25.3425042,6.69543478 C25.7248429,6.88847826 26.165956,7 26.636884,7 L41.3714058,7 C42.8231689,7 44,5.95315217 44,4.66173913 L44,4.45619565 C44,4.03717391 43.8745088,3.6448913 43.6574958,3.30467391 C43.2751571,3.11163043 42.8341662,3 42.363116,3 L27.6285942,3 L27.6285942,3.00021739 Z" id="Path" fill="url(#linearGradient-23)"></path>
                    <path d="M42.3677323,1 L42.1025722,1 C42.1848,1.34638762 42.2287282,1.70974062 42.2287282,2.08418123 C42.2287282,4.46454414 40.4611981,6.39418902 38.2808161,6.39418902 L26,6.39418902 C26.4457675,6.77250362 27.0042312,7 27.6126188,7 L42.3677323,7 C43.8215243,7 45,5.71343649 45,4.12630524 L45,3.87369476 C45,2.28656351 43.8215243,1 42.3677323,1 Z" id="Path" fill="url(#linearGradient-24)"></path>
                </g>
            </g>
        </g>
    </g>
</svg>