<?xml version="1.0" encoding="UTF-8"?>
<svg width="86px" height="74px" viewBox="0 0 86 74" version="1.1" xmlns="http://www.w3.org/2000/svg" xmlns:xlink="http://www.w3.org/1999/xlink">
    <!-- Generator: sketchtool 58 (101010) - https://sketch.com -->
    <title>3099CC2C-6726-421B-8A00-6A925091A6AA@1.00x</title>
    <desc>Created with sketchtool.</desc>
    <g id="Web" stroke="none" stroke-width="1" fill="none" fill-rule="evenodd">
        <g id="Landing-Page-(Japanese)" transform="translate(-299.000000, -350.000000)">
            <g id="teleworking" transform="translate(299.000000, 350.000000)">
                <polygon id="Rectangle" fill="#FFCA13" points="11.6232867 52 73.584454 52 72 71 15 71"></polygon>
                <polygon id="Rectangle-Copy" fill="#FFCA13" points="34.5294118 2 54 2 45 11.5 27.6652771 10.493835"></polygon>
                <circle id="Oval" fill="#000000" fill-rule="nonzero" cx="43.5" cy="62.5" r="1.5"></circle>
                <path d="M55,21.45 L55,1.65 C55,0.738705 54.2361059,0 53.2941176,0 L37.9411765,0 C31.3568118,0 26,5.18133 26,11.55 L26,12.69015 C26,13.22145 26.2645824,13.720245 26.7105,14.03028 C27.1576118,14.34081 27.7307882,14.423145 28.2502294,14.253855 C29.1867588,13.94877 30.1459765,13.709685 31.1176471,13.53693 L31.1176471,21.45 C31.1176471,27.81867 36.4742882,33 43.0588235,33 C49.6433588,33 55,27.81867 55,21.45 Z M29.4813647,10.493835 C30.0192294,6.441765 33.6080647,3.3 37.9411765,3.29835 L51.4167941,3.29835 C50.6244118,7.06101 47.1778471,9.9 43.0588235,9.9 L34.9422353,9.9 C33.0475118,9.9 31.1903176,10.115655 29.4813647,10.493835 Z M43.0588235,29.7 C38.3557059,29.7 34.5294118,25.99905 34.5294118,21.45 L34.5294118,13.20462 C34.6667353,13.20198 43.0588235,13.2 43.0588235,13.2 C46.3975765,13.2 49.4190353,11.86614 51.5882353,9.722295 L51.5882353,21.45 C51.5882353,25.99905 47.7619412,29.7 43.0588235,29.7 Z" id="Shape" fill="#000000" fill-rule="nonzero"></path>
                <path d="M76.7617188,60.3333333 C75.7241758,60.3333333 74.706957,60.5132208 73.7466797,60.8507875 L75.8716523,52.2059375 C75.997125,51.6954875 75.884418,51.1549708 75.5661172,50.7401875 C75.2478164,50.325575 74.7593633,50.0833333 74.2421875,50.0833333 L67.3554688,50.0833333 C67.3554688,40.6635833 59.8205586,33 50.5585938,33 L35.4414062,33 C26.1794414,33 18.6445312,40.6635833 18.6445312,50.0833333 L11.7578125,50.0833333 C11.2406367,50.0833333 10.7521836,50.325575 10.4338828,50.7403583 C10.1154141,51.1549708 10.002875,51.6956583 10.1283477,52.2061083 L12.2533203,60.8509583 C11.293043,60.5132208 10.2758242,60.3333333 9.23828125,60.3333333 C4.14429297,60.3333333 0,64.5483042 0,69.7291667 L0,72.2916667 C0,73.2351792 0.752164063,74 1.6796875,74 L35.4414062,74 C36.3689297,74 37.1210938,73.2351792 37.1210938,72.2916667 C37.1210938,71.3481542 36.3689297,70.5833333 35.4414062,70.5833333 L18.108375,70.5833333 L13.9091563,53.5 L72.0910117,53.5 L67.891793,70.5833333 L50.5585938,70.5833333 C49.6310703,70.5833333 48.8789062,71.3481542 48.8789062,72.2916667 C48.8789062,73.2351792 49.6310703,74 50.5585938,74 L84.3203125,74 C85.2478359,74 86,73.2351792 86,72.2916667 L86,69.7291667 C86,64.5483042 81.855707,60.3333333 76.7617188,60.3333333 Z M14.6455312,70.5833333 L3.359375,70.5833333 L3.359375,69.7291667 C3.359375,66.4322542 5.99665234,63.75 9.23828125,63.75 C10.8029102,63.75 12.2976641,64.3863542 13.3976914,65.5063375 L14.6455312,70.5833333 Z M37.1210938,36.4166667 L48.8789063,36.4166667 L48.8789063,37.2708333 C48.8789063,40.5677458 46.2416289,43.25 43,43.25 C39.7583711,43.25 37.1210938,40.5677458 37.1210938,37.2708333 L37.1210938,36.4166667 Z M22.0039063,50.0833333 C22.0039063,43.1263167 27.1427422,37.3711125 33.7617188,36.5271958 L33.7617188,37.2708333 C33.7617188,42.4516958 37.9060117,46.6666667 43,46.6666667 C48.0939883,46.6666667 52.2382813,42.4516958 52.2382813,37.2708333 L52.2382813,36.5271958 C58.8572578,37.3709417 63.9960938,43.1263167 63.9960938,50.0833333 L22.0039063,50.0833333 Z M82.640625,70.5833333 L71.3544688,70.5833333 L72.6024766,65.5063375 C73.7023359,64.3863542 75.1970898,63.75 76.7617188,63.75 C80.0033477,63.75 82.640625,66.4322542 82.640625,69.7291667 L82.640625,70.5833333 Z" id="Shape" fill="#000000" fill-rule="nonzero"></path>
                <circle id="Oval" fill="#000000" fill-rule="nonzero" cx="43.5" cy="72.5" r="1.5"></circle>
            </g>
        </g>
    </g>
</svg>