<?xml version="1.0" encoding="UTF-8"?>
<svg width="74px" height="74px" viewBox="0 0 74 74" version="1.1" xmlns="http://www.w3.org/2000/svg" xmlns:xlink="http://www.w3.org/1999/xlink">
    <!-- Generator: sketchtool 58 (101010) - https://sketch.com -->
    <title>FF6A3CD7-BA70-4A1E-8276-014233F0EB31@1.00x</title>
    <desc>Created with sketchtool.</desc>
    <g id="Web" stroke="none" stroke-width="1" fill="none" fill-rule="evenodd">
        <g id="Landing-Page-(Japanese)" transform="translate(-889.000000, -350.000000)">
            <g id="teleworking-(1)" transform="translate(889.000000, 350.000000)">
                <path d="M17,74 C19.0798677,74 62.8327476,71.6449988 64.6334235,71.1093863 C70.0049766,69.5116136 72.6193621,66.0028753 72.6193621,61.6597929 C72.6193621,58.3778808 66.5493259,48.8849594 64.6334235,53.2077433 C60.887388,61.6597929 57.1271193,66.5 36.5,66.5 C11.7071301,66.5 11.9266881,53.2077433 9.97569283,53.2077433 C1.69142158,53.2077433 2,57.7010101 2,63.5 C2,69.2989899 8.71572875,74 17,74 Z" id="Oval" fill="#FFCA13"></path>
                <rect id="Rectangle" fill="#FFCA13" x="25" y="21" width="24" height="8"></rect>
                <path d="M34.5002999,15 C35.3284343,15 36,14.3283 36,13.5 C36,12.6717 35.3284343,12 34.5002999,12 L34.4992501,12 C33.6711158,12 33,12.6717 33,13.5 C33,14.3283 33.6721656,15 34.5002999,15 L34.5002999,15 Z" id="Path" fill="#000000" fill-rule="nonzero"></path>
                <path d="M39.5002999,15 C40.3284343,15 41,14.3283 41,13.5 C41,12.6717 40.3284343,12 39.5002999,12 L39.4991002,12 C38.6709658,12 38,12.6717 38,13.5 C38,14.3283 38.6721656,15 39.5002999,15 L39.5002999,15 Z" id="Path" fill="#000000" fill-rule="nonzero"></path>
                <path d="M37.0000714,44 C39.7571108,44 42,41.757 42,39 C42,36.243 39.7571108,34 37.0000714,34 C34.243032,34 32,36.243 32,39 C32,41.757 34.2431749,44 37.0000714,44 Z M37.0000714,36.8571429 C38.1816597,36.8571429 39.1428163,37.8184286 39.1428163,39 C39.1428163,40.1815714 38.1815169,41.1428571 37.0000714,41.1428571 C35.818626,41.1428571 34.8571837,40.1815714 34.8571837,39 C34.8571837,37.8184286 35.818626,36.8571429 37.0000714,36.8571429 Z" id="Shape" fill="#000000" fill-rule="nonzero"></path>
                <path d="M71.0979684,55.4077172 C69.4916543,53.6440092 67.3884438,52.4539435 65.0895387,51.9862422 C64.5737087,48.6542318 61.9803946,46.0013711 58.6796028,45.3921742 L58.6796028,30.7645126 C58.6796028,28.373686 56.7345088,26.4285921 54.3435377,26.4285921 L51.7203058,26.4285921 C50.4410647,23.3155456 48.1616712,20.6411498 45.292159,18.8693482 C46.1875266,17.4003383 46.7039348,15.6762317 46.7039348,13.83361 L46.7039348,9.70422381 C46.7040793,4.35326425 42.350815,0 36.9998555,0 C31.6488959,0 27.2956317,4.35326425 27.2956317,9.70422381 L27.2956317,13.8337546 C27.2956317,15.6763763 27.8120398,17.4006273 28.7075519,18.8696372 C25.8378952,20.6414389 23.5589353,23.3151121 22.2795497,26.4287366 L19.6561732,26.4287366 C17.2653466,26.4287366 15.3203972,28.3738306 15.3203972,30.7646572 L15.3203972,45.3923188 C12.0198945,46.0013711 9.4267249,48.6539428 8.91060582,51.9856641 C6.60548592,52.4546662 4.49721681,53.6506576 2.88989106,55.421303 C1.0263124,57.4739278 0,60.1231753 0,62.8809653 C0,69.011957 4.98804302,74 11.1190347,74 L62.8809653,74 C69.011957,74 74,69.011957 74,62.8809653 C74,60.1166714 72.9693517,57.4626544 71.0979684,55.4077172 Z M62.2928699,53.207382 C62.2928699,55.9966797 60.0235937,58.265956 57.234296,58.265956 L57.1790852,58.265956 C57.6728021,57.4148148 57.9569494,56.4278147 57.9569494,55.3751978 C57.9569494,52.4290843 55.5993648,50.002125 52.3513268,49.6045211 L48.8922739,49.1810462 L57.3169675,48.1495307 C60.0683982,48.1936125 62.2928699,50.4455451 62.2928699,53.207382 L62.2928699,53.207382 Z M30.1863899,9.70422381 C30.1863899,5.94714864 33.2429248,2.89061371 36.9998555,2.89061371 C40.7567861,2.89061371 43.8134656,5.94714864 43.8134656,9.70422381 L43.8134656,13.8337546 C43.8134656,17.5906852 40.7569306,20.6473647 36.9998555,20.6473647 C33.2427803,20.6473647 30.1862454,17.5908297 30.1862454,13.8337546 L30.1862454,9.70422381 L30.1863899,9.70422381 Z M30.5920875,21.1123199 C32.3028973,22.6202085 34.5457244,23.5378338 37,23.5378338 C39.4544201,23.5378338 41.6973918,22.620064 43.4082015,21.1118863 C45.5825212,22.356151 47.3748462,24.2218976 48.5344159,26.4285921 L25.4658732,26.4285921 C26.6252983,24.2218976 28.4174788,22.3568736 30.5920875,21.1123199 L30.5920875,21.1123199 Z M19.6561732,29.3192058 L54.3435377,29.3192058 C55.1406245,29.3192058 55.7889891,29.9675704 55.7889891,30.7645126 L55.7889891,45.4242601 L37,47.724755 L18.2110109,45.4242601 L18.2110109,30.7645126 C18.2110109,29.967715 18.8593755,29.3192058 19.6561732,29.3192058 Z M16.6830325,48.1495307 L51.9999727,52.4737442 C53.4767872,52.6545521 55.0663357,53.6395288 55.0663357,55.3751978 C55.0663357,56.9690822 53.7694618,58.265956 52.1755774,58.265956 L16.765704,58.265956 C13.9764063,58.265956 11.7071301,55.9966797 11.7071301,53.207382 C11.7071301,50.4455451 13.9317464,48.1936125 16.6830325,48.1495307 L16.6830325,48.1495307 Z M62.8809653,71.1093863 L11.1190347,71.1093863 C6.58192741,71.1093863 2.89061371,67.4182171 2.89061371,62.8809653 C2.89061371,59.155976 5.49202152,55.8846684 9.00758591,54.933801 C9.30445194,56.2683974 9.93706275,57.477252 10.8129187,58.4672872 C10.6465639,58.8703833 10.5601345,59.285909 10.5601345,59.7112628 C10.5601345,65.5897594 25.7417823,67.1086324 30.3946586,67.4341155 C30.4290569,67.4365725 30.4631662,67.4375842 30.4971309,67.4375842 C31.2492686,67.4375842 31.8840473,66.8551256 31.9373792,66.0931598 C31.993168,65.2967957 31.392643,64.6062281 30.596568,64.5504393 C25.5067754,64.1943156 20.9322346,63.4054672 17.7154152,62.3291472 C16.0775934,61.7810868 15.0388514,61.245167 14.3968461,60.7959656 C15.1453705,61.0301054 15.9410119,61.1565697 16.765704,61.1565697 L52.1755774,61.1565697 L57.234296,61.1565697 C58.0588435,61.1565697 58.8543404,61.0302499 59.6027203,60.7961102 C58.960715,61.2453115 57.9218284,61.7812313 56.2841512,62.3292917 C53.0671872,63.4056117 48.4923575,64.1944602 43.4025648,64.5504393 C42.6062008,64.6060836 42.0058203,65.2967957 42.0616091,66.0930153 C42.1147964,66.854981 42.7495752,67.4375842 43.5020019,67.4375842 C43.5358221,67.4375842 43.5699314,67.436428 43.6041851,67.4341155 C48.2574951,67.1087769 63.4398655,65.5900485 63.4398655,59.7112628 C63.4398655,59.2860536 63.3534361,58.8706724 63.1870813,58.4674318 C64.0629373,57.4773966 64.6956926,56.2683974 64.9925586,54.933801 C68.5095683,55.8839458 71.1093863,59.1514955 71.1093863,62.8809653 C71.1093863,67.4182171 67.4180726,71.1093863 62.8809653,71.1093863 L62.8809653,71.1093863 Z" id="Shape" fill="#000000" fill-rule="nonzero"></path>
                <path d="M36.5002999,65 L36.4991002,65 C35.6709658,65 35,65.6717 35,66.5 C35,67.3283 35.6720156,68 36.5002999,68 C37.3285843,68 38,67.3283 38,66.5 C38,65.6717 37.3285843,65 36.5002999,65 Z" id="Path" fill="#000000" fill-rule="nonzero"></path>
            </g>
        </g>
    </g>
</svg>