<?xml version="1.0" encoding="UTF-8"?>
<svg width="75px" height="75px" viewBox="0 0 75 75" version="1.1" xmlns="http://www.w3.org/2000/svg" xmlns:xlink="http://www.w3.org/1999/xlink">
    <!-- Generator: sketchtool 58 (101010) - https://sketch.com -->
    <title>E07959C0-E10F-40D4-9B9E-A0877A9A47C4@1.00x</title>
    <desc>Created with sketchtool.</desc>
    <g id="Web" stroke="none" stroke-width="1" fill="none" fill-rule="evenodd">
        <g id="Landing-Page-(Japanese)" transform="translate(-602.000000, -349.000000)" fill-rule="nonzero">
            <g id="working-hours" transform="translate(603.000000, 350.000000)">
                <path d="M68.1093867,58.585569 C68.1093867,63.8370743 63.8369516,68.1093817 58.5854565,68.1093817 L13.4145439,68.1093817 C8.1630488,68.1093817 3.89061371,63.8370743 3.89061371,58.585569 L3.89061371,13.4145682 C3.89061371,8.16306279 8.1630488,3.89061935 13.4145439,3.89061935 L58.5854565,3.89061935 C63.8369516,3.89061935 68.1093867,8.16306279 68.1093867,13.4145682 L68.1093867,58.585569 Z" id="Path" stroke="#FFCA13" stroke-width="8"></path>
                <path d="M60.9922383,0 L13.0077617,0 C5.83528189,0 0,5.83543782 0,13.0077871 L0,60.9923574 C0,68.1648512 5.83528189,74 13.0077617,74 L60.9922383,74 C68.1647181,74 74,68.1648512 74,60.9923574 L74,13.0077871 C74,5.83543782 68.1647181,0 60.9922383,0 Z M71.1093863,60.9923574 C71.1093863,66.5709637 66.5708337,71.1093806 60.9922383,71.1093806 L13.0077617,71.1093806 C7.42916629,71.1093806 2.89061371,66.5709637 2.89061371,60.9923574 L2.89061371,13.0077871 C2.89061371,7.4291808 7.42916629,2.89061935 13.0077617,2.89061935 L60.9922383,2.89061935 C66.5708337,2.89061935 71.1093863,7.4291808 71.1093863,13.0077871 L71.1093863,60.9923574 Z" id="Shape" fill="#000000"></path>
                <path d="M60.2718725,7 L12.7281275,7 C9.56963801,7 7,9.56963801 7,12.7281275 L7,60.2718725 C7,63.430362 9.56963801,66 12.7281275,66 L60.2718725,66 C63.430362,66 66,63.430362 66,60.2718725 L66,12.7281275 C66,9.56963801 63.430362,7 60.2718725,7 Z M63.1359362,60.2718725 C63.1359362,61.8511172 61.8511172,63.1359362 60.2718725,63.1359362 L37.9320319,63.1359362 L37.9320319,58.8398406 C37.9320319,58.0490726 37.290768,57.4078087 36.5,57.4078087 C35.7090888,57.4078087 35.0679681,58.0490726 35.0679681,58.8398406 L35.0679681,63.1359362 L12.7281275,63.1359362 C11.1488828,63.1359362 9.86406377,61.8511172 9.86406377,60.2718725 L9.86406377,37.9320319 L14.1601594,37.9320319 C14.9510706,37.9320319 15.5921913,37.290768 15.5921913,36.5 C15.5921913,35.709232 14.9510706,35.0679681 14.1601594,35.0679681 L9.86406377,35.0679681 L9.86406377,12.7281275 C9.86406377,11.1488828 11.1488828,9.86392056 12.7281275,9.86392056 L35.0679681,9.86392056 L35.0679681,9.86392056 L35.0679681,14.1601594 C35.0679681,14.9509274 35.7090888,15.5921913 36.5,15.5921913 C37.290768,15.5921913 37.9320319,14.9509274 37.9320319,14.1601594 L37.9320319,9.86392056 L37.9320319,9.86392056 L60.2718725,9.86392056 C61.8511172,9.86392056 63.1359362,11.1488828 63.1359362,12.7281275 L63.1359362,35.0679681 L58.8399838,35.0679681 C58.0492158,35.0679681 57.4079519,35.709232 57.4079519,36.5 C57.4079519,37.290768 58.0492158,37.9320319 58.8399838,37.9320319 L63.1359362,37.9320319 L63.1359362,60.2718725 Z" id="Shape" fill="#000000"></path>
                <path d="M23.5119741,16.3299253 C23.7588868,16.7596733 24.2069827,17 24.6677442,17 C24.8938587,17 25.1231729,16.9419947 25.3331554,16.8202239 C25.9708355,16.4503566 26.1893505,15.6310489 25.8211146,14.9903117 L24.4880259,12.6701011 C24.1199233,12.0293639 23.3045247,11.8096673 22.6668446,12.1798025 C22.0291645,12.5496698 21.8106495,13.3689775 22.1788854,14.0097146 L23.5119741,16.3299253 Z" id="Path" fill="#000000"></path>
                <path d="M16.8202537,25.3331255 C17.1902618,24.6954484 16.9706951,23.8801869 16.329946,23.5119527 L14.0096923,22.178737 C13.3692112,21.8107694 12.5497544,22.0291502 12.1797463,22.6666939 C11.8097382,23.304371 12.0293049,24.1196325 12.670054,24.4878667 L14.9903077,25.8210824 C15.2013007,25.9422718 15.4315845,26 15.6589212,26 C16.1219002,26 16.5721527,25.7608211 16.8202537,25.3331255 Z" id="Path" fill="#000000"></path>
                <path d="M14.9902997,48.1788273 L12.6700835,49.5119247 C12.0293449,49.8800298 11.8097817,50.6954337 12.1796499,51.333118 C12.4278808,51.7608184 12.878126,52 13.3410976,52 C13.5682966,52 13.7987106,51.9422711 14.0097003,51.8210804 L16.3299165,50.487983 C16.9706551,50.119878 17.1902183,49.304474 16.8203501,48.6667898 C16.450348,48.0291055 15.6309044,47.8107223 14.9902997,48.1788273 Z" id="Path" fill="#000000"></path>
                <path d="M25.3332111,56.1796644 C24.6958125,55.8097762 23.8801662,56.0293512 23.5120722,56.6699906 L22.1788812,58.9901983 C21.8106539,59.6309716 22.0291639,60.4501916 22.6668291,60.8202137 C22.8768067,60.9419915 23.1059822,61 23.3322247,61 C23.7929756,61 24.241061,60.7596598 24.487968,60.3298875 L25.8210257,58.0096798 C26.1893864,57.3689064 25.9708764,56.5496865 25.3332111,56.1796644 Z" id="Path" fill="#000000"></path>
                <path d="M50.4880259,56.6700168 C50.1199233,56.0295153 49.3049247,55.8096737 48.6668446,56.1796936 C48.0291645,56.5495795 47.8106495,57.3689285 48.1788854,58.0096979 L49.5119741,60.3298915 C49.7590201,60.7596612 50.2069827,61 50.6678776,61 C50.893992,61 51.1231729,60.9419918 51.3331554,60.8202148 C51.9708355,60.4503289 52.1893505,59.6309799 51.8211146,58.9902105 L50.4880259,56.6700168 Z" id="Path" fill="#000000"></path>
                <path d="M56.1797463,48.6667404 C55.8097382,49.3044341 56.0293049,50.1198501 56.670054,50.4879606 L58.9903077,51.8210778 C59.2013007,51.9422703 59.4315845,52 59.6587872,52 C60.1217662,52 60.5721527,51.7608149 60.8202537,51.3331081 C61.1902618,50.6954144 60.9706951,49.8799984 60.329946,49.5118879 L58.0096923,48.1787707 C57.3688093,47.8107936 56.5494865,48.0290467 56.1797463,48.6667404 Z" id="Path" fill="#000000"></path>
                <path d="M57.3412128,26 C57.5684155,26 57.7988333,25.9422726 58.0096923,25.8210851 L60.329946,24.4878891 C60.9706951,24.1196603 61.1902618,23.304411 60.8202537,22.6667433 C60.4503795,22.029209 59.6311907,21.8106981 58.9903077,22.1787936 L56.670054,23.5119896 C56.0293049,23.8802183 55.8097382,24.6954677 56.1797463,25.3331354 C56.4279813,25.7608246 56.8780998,26 57.3412128,26 Z" id="Path" fill="#000000"></path>
                <path d="M48.6668446,16.8202207 C48.8768271,16.9419937 49.106008,17 49.3321224,17 C49.792884,17 50.2411132,16.7596691 50.4880259,16.3299134 L51.8211146,14.0096615 C52.1893505,13.368913 51.9708355,12.5495908 51.3331554,12.1797169 C50.6952086,11.8097091 49.8799434,12.0294096 49.5119741,12.6700242 L48.1788854,14.9902761 C47.8106495,15.6310246 48.0291645,16.4503468 48.6668446,16.8202207 Z" id="Path" fill="#000000"></path>
                <path d="M37.9584792,19.5058764 L37.9584792,19.4451788 C37.9584792,18.6471511 37.3054375,18 36.5001458,18 C35.6947083,18 35.0418125,18.6471511 35.0418125,19.4451788 L35.0418125,19.5055873 C33.3221458,19.6459142 31.644625,20.0339447 30.0384167,20.6664995 C29.29,20.961316 28.9243958,21.8015429 29.2218958,22.5433532 C29.5195417,23.285019 30.3674167,23.6474699 31.1158333,23.3525089 C32.3777292,22.8553674 33.6932917,22.5403184 35.0418125,22.4080845 L35.0418125,26.1669947 C30.2421458,26.8109664 26.4316667,30.5854845 25.782125,35.3421461 L21.9885625,35.3421461 C22.1180625,34.0476994 22.422125,32.7833124 22.89725,31.5680615 C23.1883333,30.823939 22.8154375,29.9867469 22.0643958,29.6982892 C21.3133542,29.4096869 20.4686875,29.7795082 20.1776042,30.5236308 C19.3962292,32.5218796 19,34.6292394 19,36.7873249 C19,37.5853527 19.6528958,38.2325038 20.4583333,38.2325038 L27.1423125,38.2325038 C27.94775,38.2325038 28.6006458,37.5853527 28.6006458,36.7873249 C28.6006458,32.9646824 31.3805208,29.7754617 35.0416667,29.095216 L35.0416667,36.8841519 C35.0416667,37.6821797 35.6945625,38.3293308 36.5,38.3293308 L44.2433125,38.3293308 C43.7986667,40.5060591 42.4284167,42.4334941 40.4491667,43.5685376 C39.7525208,43.967985 39.5140833,44.8512783 39.9165833,45.5419293 L43.2579167,51.2771215 C43.5281458,51.7407349 44.0181458,52 44.5222917,52 C44.769625,52 45.0204583,51.9374238 45.25,51.806057 C50.6472917,48.7181434 54,42.9632967 54,36.7873249 C54,27.7114573 46.9281042,20.242773 37.9584792,19.5058764 Z" id="Path-Copy" fill="#FFCA13"></path>
                <path d="M37.9584792,19.5058764 L37.9584792,19.4451788 C37.9584792,18.6471511 37.3054375,18 36.5001458,18 C35.6947083,18 35.0418125,18.6471511 35.0418125,19.4451788 L35.0418125,19.5055873 C33.3221458,19.6459142 31.644625,20.0339447 30.0384167,20.6664995 C29.29,20.961316 28.9243958,21.8015429 29.2218958,22.5433532 C29.5195417,23.285019 30.3674167,23.6474699 31.1158333,23.3525089 C32.3777292,22.8553674 33.6932917,22.5403184 35.0418125,22.4080845 L35.0418125,26.1669947 C30.2421458,26.8109664 26.4316667,30.5854845 25.782125,35.3421461 L21.9885625,35.3421461 C22.1180625,34.0476994 22.422125,32.7833124 22.89725,31.5680615 C23.1883333,30.823939 22.8154375,29.9867469 22.0643958,29.6982892 C21.3133542,29.4096869 20.4686875,29.7795082 20.1776042,30.5236308 C19.3962292,32.5218796 19,34.6292394 19,36.7873249 C19,37.5853527 19.6528958,38.2325038 20.4583333,38.2325038 L27.1423125,38.2325038 C27.94775,38.2325038 28.6006458,37.5853527 28.6006458,36.7873249 C28.6006458,32.9646824 31.3805208,29.7754617 35.0416667,29.095216 L35.0416667,36.8841519 C35.0416667,37.6821797 35.6945625,38.3293308 36.5,38.3293308 L44.2433125,38.3293308 C43.7986667,40.5060591 42.4284167,42.4334941 40.4491667,43.5685376 C39.7525208,43.967985 39.5140833,44.8512783 39.9165833,45.5419293 L43.2579167,51.2771215 C43.5281458,51.7407349 44.0181458,52 44.5222917,52 C44.769625,52 45.0204583,51.9374238 45.25,51.806057 C50.6472917,48.7181434 54,42.9632967 54,36.7873249 C54,27.7114573 46.9281042,20.242773 37.9584792,19.5058764 Z M37.9584792,29.0950715 C41.1792083,29.6935201 43.7156875,32.2337109 44.2797708,35.4388286 L37.9584792,35.4388286 L37.9584792,29.0950715 Z M45.0179792,48.517119 L43.1214167,45.2621427 C45.3297708,43.5624679 46.797875,41.0667885 47.2027083,38.3293308 L47.3161667,38.3293308 C48.1214583,38.3293308 48.7745,37.6821797 48.7745,36.8841519 C48.7745,36.0861242 48.1214583,35.4389731 47.3161667,35.4389731 L47.2275,35.4389731 C46.6163125,30.6377999 42.7899375,26.8176142 37.9584792,26.1690179 L37.9584792,22.4075064 C45.3176667,23.1348649 51.0834792,29.3062121 51.0834792,36.7871804 C51.0834792,41.4484602 48.7917083,45.8218605 45.0179792,48.517119 Z" id="Shape" fill="#000000"></path>
                <path d="M24.3947604,24.486447 L24.3940106,24.4873469 C23.8343186,25.0979247 23.8760105,26.0462627 24.4865427,26.6058466 C24.7743372,26.8698154 25.1372671,27 25.4992973,27 C25.9052689,27 26.3100408,26.8360694 26.6057837,26.5133075 C27.1654757,25.9027296 27.1242337,24.9540917 26.5137015,24.3943579 C25.9030194,23.834474 24.9543024,23.8757191 24.3947604,24.486447 L24.3947604,24.486447 Z" id="Path" fill="#000000"></path>
            </g>
        </g>
    </g>
</svg>