<?xml version="1.0" encoding="UTF-8"?>
<svg width="45px" height="45px" viewBox="0 0 45 45" version="1.1" xmlns="http://www.w3.org/2000/svg" xmlns:xlink="http://www.w3.org/1999/xlink">
    <title>D36FD2E3-F93D-48DB-8191-503742428FCF@1x</title>
    <g id="Dokodemo-Web-Profile" stroke="none" stroke-width="1" fill="none" fill-rule="evenodd">
        <g id="Desktop-" transform="translate(-375.000000, -314.000000)" fill-rule="nonzero">
            <g id="blockchain" transform="translate(375.000000, 314.000000)">
                <path d="M29,0 L29,14 L34.7592727,14 C34.7905455,13.8131 34.8181818,13.6248 34.8181818,13.4344 C34.8181818,12.2675 34.2443636,11.228 33.3534545,10.5623 L35.2210909,8.4119 C36.7490909,9.5914 37.7272727,11.403 37.7272727,13.4344 C37.7272727,13.6241 37.7156364,13.8124 37.6981818,14 L45,14 L45,0 L29,0 Z" id="Path" fill="#FFCA13"></path>
                <polygon id="Path" fill="#3B81BF" points="42 8 40.5 8 40.5 4.66666667 36 4.66666667 36 3 42 3"></polygon>
                <polygon id="Path" fill="#3B81BF" points="33 3 35 3 35 5 33 5"></polygon>
                <path d="M10.1818182,31.5656 C10.1818182,32.7703 10.7941818,33.8406 11.7345455,34.5021 L10.1810909,36.8758 C8.42472727,35.7159 7.27272727,33.7699 7.27272727,31.5656 C7.27272727,31.3759 7.28436364,31.1876 7.30181818,31 L0,31 L0,45 L16,45 L16,31 L10.2407273,31 C10.2094545,31.1869 10.1818182,31.3752 10.1818182,31.5656 Z" id="Path" fill="#FFCA13"></path>
                <path d="M36.2218182,8.34513602 L35.6661818,7.89057793 L32.8574545,11.3157065 L33.4530909,11.7873198 C34.2050909,12.3827687 34.6363636,13.2785373 34.6363636,14.2440098 C34.6363636,15.0619178 34.3105455,15.8635121 33.7432727,16.4426473 L28.3301818,21.9618575 C27.5745455,19.9159753 25.9963636,18.3164944 24.0254545,17.5571674 L29.4305455,12.0461139 C29.4647273,12.011262 29.5090909,11.98605 29.5454545,11.9526811 L29.5454545,10.1566946 C29.1229091,10.3761876 28.7338182,10.6601937 28.4029091,10.99759 L22.3781818,17.1404273 C22.0589091,17.096677 21.7352727,17.0677573 21.4058182,17.0677573 C21.0370909,17.0677573 20.6749091,17.1040923 20.3163636,17.1574825 C20.3396364,17.133012 20.3578182,17.1033508 20.3810909,17.0788803 L27.3738182,9.94906614 C27.9927273,9.31802382 28.7323636,8.84047829 29.5447273,8.53941697 L29.5447273,7 C28.3396364,7.35222691 27.2385455,7.98994299 26.3454545,8.90054224 L19.3527273,16.0303564 C18.8116364,16.582055 18.3665455,17.2145803 18.016,17.9056866 C17.3418182,18.2601381 16.7156364,18.7191454 16.1636364,19.2819669 L9.17090909,26.4117811 C7.77090909,27.8384854 7,29.7368031 7,31.7559902 C7,34.2490152 8.20509091,36.5803865 10.224,37.9922603 L10.8472727,38.4282801 L13.1665455,34.6761366 L12.6181818,34.2675534 C11.8327273,33.682486 11.3636364,32.742967 11.3636364,31.7559902 C11.3636364,30.9380822 11.6894545,30.1364879 12.2567273,29.5573527 L17.6698182,24.0381425 C18.4254545,26.0840247 20.0036364,27.6835056 21.9745455,28.4428326 L16.5694545,33.9538861 C16.5345455,33.988738 16.4909091,34.01395 16.4545455,34.0473189 L16.4545455,35.8433054 C16.8770909,35.6238124 17.2661818,35.3398063 17.5970909,35.00241 L23.6218182,28.8595727 C23.9410909,28.903323 24.2647273,28.9322427 24.5941818,28.9322427 C24.9629091,28.9322427 25.3250909,28.8959077 25.6836364,28.8425175 C25.6603636,28.866988 25.6421818,28.8966492 25.6189091,28.9211197 L18.6261818,36.0509339 C18.0072727,36.6819762 17.2676364,37.1595217 16.4552727,37.460583 L16.4552727,39 C17.6603636,38.6477731 18.7614545,38.010057 19.6545455,37.0994578 L26.6472727,29.9696436 C27.1883636,29.417945 27.6334545,28.7854197 27.984,28.0943134 C28.6581818,27.7398619 29.2843636,27.2808546 29.8363636,26.7180331 L36.8290909,19.5882189 C38.2290909,18.1615146 39,16.2631969 39,14.2440098 C39,11.938592 37.9876364,9.78889558 36.2218182,8.34513602 L36.2218182,8.34513602 Z M11.2276364,28.5088288 C10.3898182,29.3645549 9.90909091,30.5472957 9.90909091,31.7559902 C9.90909091,32.9809983 10.3970909,34.1555823 11.24,35.0120499 L10.4487273,36.2919312 C9.18836364,35.1455253 8.45454545,33.5000695 8.45454545,31.7559902 C8.45454545,30.1335218 9.07418182,28.6074524 10.1992727,27.460305 L17.192,20.3304908 C18.3178182,19.1826018 19.8138182,18.550818 21.4058182,18.550818 C24.1498182,18.550818 26.5185455,20.4587755 27.1789091,23.1364416 L26.7512727,23.5724614 C26.5010909,23.8268063 26.2043636,24.0240534 25.8872727,24.1760671 C25.6647273,21.8543356 23.7403636,20.0338787 21.4058182,20.0338787 C20.2210909,20.0338787 19.0603636,20.5240302 18.2210909,21.3782732 L11.2276364,28.5088288 Z M24.4385455,24.466747 C22.8836364,24.3851787 21.6414545,23.1179033 21.5607273,21.5325115 C23.1163636,21.6148213 24.3585455,22.8813551 24.4385455,24.466747 Z M35.8007273,18.539695 L28.808,25.6695092 C27.6821818,26.8173982 26.1861818,27.449182 24.5941818,27.449182 C21.8501818,27.449182 19.4814545,25.5412245 18.8210909,22.8635584 L19.2487273,22.4275386 C19.4989091,22.1731937 19.7956364,21.9759466 20.1127273,21.8239329 C20.3352727,24.1456644 22.2596364,25.9661213 24.5941818,25.9661213 C25.7789091,25.9661213 26.9396364,25.4759698 27.7789091,24.6217268 L34.7723636,17.4911712 C35.6101818,16.6354451 36.0909091,15.4527043 36.0909091,14.2440098 C36.0909091,13.075358 35.6647273,11.9771516 34.9010909,11.1355147 L35.8407273,9.98910877 C36.9316364,11.1206841 37.5454545,12.6356305 37.5454545,14.2440098 C37.5454545,15.8672197 36.9258182,17.3925476 35.8007273,18.539695 Z" id="Shape" fill="#3B81BF"></path>
                <polygon id="Path" fill="#3B81BF" points="8 42 3 42 3 36 4.66666667 36 4.66666667 40.5 8 40.5"></polygon>
                <polygon id="Path" fill="#3B81BF" points="3 33 5 33 5 35 3 35"></polygon>
                <polygon id="Path" fill="#3B81BF" points="31 28 33 28 33 30 31 30"></polygon>
                <polygon id="Path" fill="#3B81BF" points="31 31 33 31 33 33 31 33"></polygon>
                <polygon id="Path" fill="#3B81BF" points="33 29 35 29 35 31 33 31"></polygon>
                <polygon id="Path" fill="#3B81BF" points="30 29 32 29 32 31 30 31"></polygon>
                <polygon id="Path" fill="#3B81BF" points="35 34 37 34 37 36 35 36"></polygon>
                <polygon id="Path" fill="#3B81BF" points="35 37 37 37 37 39 35 39"></polygon>
                <polygon id="Path" fill="#3B81BF" points="37 35 39 35 39 37 37 37"></polygon>
                <polygon id="Path" fill="#3B81BF" points="34 35 36 35 36 37 34 37"></polygon>
                <polygon id="Path" fill="#3B81BF" points="19 7 21 7 21 9 19 9"></polygon>
                <polygon id="Path" fill="#3B81BF" points="19 10 21 10 21 12 19 12"></polygon>
                <polygon id="Path" fill="#3B81BF" points="21 8 23 8 23 10 21 10"></polygon>
                <polygon id="Path" fill="#3B81BF" points="18 8 20 8 20 10 18 10"></polygon>
                <polygon id="Path" fill="#3B81BF" points="8 13 10 13 10 15 8 15"></polygon>
                <polygon id="Path" fill="#3B81BF" points="8 16 10 16 10 18 8 18"></polygon>
                <polygon id="Path" fill="#3B81BF" points="10 15 12 15 12 17 10 17"></polygon>
                <polygon id="Path" fill="#3B81BF" points="7 15 9 15 9 17 7 17"></polygon>
                <polygon id="Path" fill="#3B81BF" points="10 5 12 5 12 7 10 7"></polygon>
                <polygon id="Path" fill="#3B81BF" points="10 8 12 8 12 10 10 10"></polygon>
                <polygon id="Path" fill="#3B81BF" points="12 7 14 7 14 9 12 9"></polygon>
                <polygon id="Path" fill="#3B81BF" points="10 7 12 7 12 9 10 9"></polygon>
                <polygon id="Path" fill="#3B81BF" points="40 20 42 20 42 22 40 22"></polygon>
                <polygon id="Path" fill="#3B81BF" points="40 23 42 23 42 25 40 25"></polygon>
                <polygon id="Path" fill="#3B81BF" points="42 22 44 22 44 24 42 24"></polygon>
                <polygon id="Path" fill="#3B81BF" points="39 22 41 22 41 24 39 24"></polygon>
                <polygon id="Path" fill="#3B81BF" points="24 36 26 36 26 38 24 38"></polygon>
                <polygon id="Path" fill="#3B81BF" points="24 39 26 39 26 41 24 41"></polygon>
                <polygon id="Path" fill="#3B81BF" points="25 37 27 37 27 39 25 39"></polygon>
                <polygon id="Path" fill="#3B81BF" points="22 37 24 37 24 39 22 39"></polygon>
            </g>
        </g>
    </g>
</svg>