<?xml version="1.0" encoding="UTF-8"?>
<svg width="49px" height="49px" viewBox="0 0 49 49" version="1.1" xmlns="http://www.w3.org/2000/svg" xmlns:xlink="http://www.w3.org/1999/xlink">
    <title>004AF31F-ABFA-4860-BD97-6A27F0A22BA6@1x</title>
    <g id="Dokodemo-Web-Profile" stroke="none" stroke-width="1" fill="none" fill-rule="evenodd">
        <g id="Desktop-" transform="translate(-223.000000, -313.000000)">
            <g id="calculator" transform="translate(223.000000, 313.000000)">
                <path d="M41.6278287,18.7619881 C40.3102438,19.5039399 38.7918912,19.9310345 37.1724138,19.9310345 C36.9023774,19.9310345 36.6375269,19.9143656 36.3734173,19.8906587 L39.4482759,22.9655172 L34.8965517,27.5172414 L20.4827586,13.1034483 L25.0344828,8.55172414 L28.1093413,11.6265827 C28.0856344,11.3624731 28.0689655,11.0976226 28.0689655,10.8275862 C28.0689655,9.20810884 28.4960601,7.68975617 29.2380119,6.37217134 L28.1608297,5.29498922 C27.3377559,4.47191536 26.1983433,4 25.0344828,4 C23.8706223,4 22.7312096,4.47191536 21.9081358,5.29498922 L1.29498922,25.9081358 C0.471915362,26.7312096 0,27.8706223 0,29.0344828 C0,30.1983433 0.471915362,31.3377559 1.29498922,32.1608297 L15.8391703,46.7050108 C16.6622441,47.5280846 17.8016567,48 18.9655172,48 C20.1293777,48 21.2687904,47.5280846 22.0918642,46.7050108 L42.7050108,26.0918642 C43.5280846,25.2687904 44,24.1293777 44,22.9655172 C44,21.8016567 43.5280846,20.6622441 42.7050108,19.8391703 L41.6278287,18.7619881 Z M26.5517241,24.4827586 L23.5172414,27.5172414 L20.4827586,24.4827586 L23.5172414,21.4482759 L26.5517241,24.4827586 Z M21.2413793,29.7931034 L18.2068966,32.8275862 L15.1724138,29.7931034 L18.2068966,26.7586207 L21.2413793,29.7931034 Z M18.2068966,16.137931 L21.2413793,19.1724138 L18.2068966,22.2068966 L15.1724138,19.1724138 L18.2068966,16.137931 Z M12.8965517,21.4482759 L15.9310345,24.4827586 L12.8965517,27.5172414 L9.86206897,24.4827586 L12.8965517,21.4482759 Z M4.55172414,29.7931034 L7.5862069,26.7586207 L10.6206897,29.7931034 L7.5862069,32.8275862 L4.55172414,29.7931034 Z M9.86206897,35.1034483 L12.8965517,32.0689655 L15.9310345,35.1034483 L12.8965517,38.137931 L9.86206897,35.1034483 Z M18.2068966,43.4482759 L15.1724138,40.4137931 L23.5172414,32.0689655 L26.5517241,35.1034483 L18.2068966,43.4482759 Z M28.8275862,32.8275862 L25.7931034,29.7931034 L28.8275862,26.7586207 L31.862069,29.7931034 L28.8275862,32.8275862 Z" id="Shape" fill="#FFCA13" fill-rule="nonzero"></path>
                <path d="M41,14.5 C41,14.7761231 40.7761231,15 40.5,15 C40.2238769,15 40,14.7761231 40,14.5 C40,14.2238769 40.2238769,14 40.5,14 C40.7761231,14 41,14.2238769 41,14.5 Z" id="Path" fill="#000000" fill-rule="nonzero"></path>
                <path d="M34,7.5 C34,7.77612306 33.7761231,8 33.5,8 C33.2238769,8 33,7.77612306 33,7.5 C33,7.22387694 33.2238769,7 33.5,7 C33.7761231,7 34,7.22387694 34,7.5 Z" id="Path" fill="#000000" fill-rule="nonzero"></path>
                <path d="M47,10.6391332 C47,5.32428663 42.6757134,1 37.3608668,1 C32.3827236,1 28.274217,4.79425016 27.7735062,9.6424185 L25.4973182,7.36623042 L20,12.8635486 L35.1364514,28 L40.6337696,22.5026818 L38.3575815,20.2264938 C43.2057498,19.725783 47,15.6172764 47,10.6391332 Z M35.1364514,25.9030251 L22.0969749,12.8635486 L25.4973182,9.46320532 L27.7923327,11.7578577 C28.3068011,16.179535 31.820465,19.6931989 36.2421423,20.2076673 L38.5367947,22.5026818 L35.1364514,25.9030251 Z M37.3608668,18.7953229 C32.8638838,18.7953229 29.2046771,15.1361162 29.2046771,10.6391332 C29.2046771,6.14215031 32.8638838,2.48294357 37.3608668,2.48294357 C41.8578497,2.48294357 45.5170564,6.14215031 45.5170564,10.6391332 C45.5170564,15.1361162 41.8578497,18.7953229 37.3608668,18.7953229 Z" id="Shape" fill="#3B81BF" fill-rule="nonzero"></path>
                <text id="Rp" transform="translate(38.500000, 10.000000) rotate(-315.000000) translate(-38.500000, -10.000000) " font-family="Open Sans" font-size="10" font-weight="bold" letter-spacing="-0.455556" fill="#3B81BF">
                    <tspan x="32" y="14">Rp</tspan>
                </text>
                <path d="M14,40.0521472 L17.9478528,44 L27,34.9478528 L23.0521472,31 L14,40.0521472 Z M17.9478528,41.9377739 L16.0622261,40.0521472 L23.0521472,33.0622261 L24.9377739,34.9478528 L17.9478528,41.9377739 Z" id="Shape" fill="#3B81BF" fill-rule="nonzero"></path>
                <path d="M13,31 L9,35 L13,39 L17,35 L13,31 Z M11.0894661,35 L13,33.0894661 L14.9105339,35 L13,36.9105339 L11.0894661,35 Z" id="Shape" fill="#3B81BF" fill-rule="nonzero"></path>
                <path d="M14,30 L18,34 L22,30 L18,26 L14,30 Z M18,31.9105339 L16.0894661,30 L18,28.0894661 L19.9105339,30 L18,31.9105339 Z" id="Shape" fill="#3B81BF" fill-rule="nonzero"></path>
                <path d="M8,26 L4,30 L8,34 L12,30 L8,26 Z M6.08946609,30 L8,28.0894661 L9.91053391,30 L8,31.9105339 L6.08946609,30 Z" id="Shape" fill="#3B81BF" fill-rule="nonzero"></path>
                <path d="M17,25 L13,21 L9,25 L13,29 L17,25 Z M13,23.0894661 L14.9105339,25 L13,26.9105339 L11.0894661,25 L13,23.0894661 Z" id="Shape" fill="#3B81BF" fill-rule="nonzero"></path>
                <path d="M28,25 L24,21 L20,25 L24,29 L28,25 Z M24,23.0894661 L25.9105339,25 L24,26.9105339 L22.0894661,25 L24,23.0894661 Z" id="Shape" fill="#3B81BF" fill-rule="nonzero"></path>
                <path d="M25,30 L29,34 L33,30 L29,26 L25,30 Z M29,31.9105339 L27.0894661,30 L29,28.0894661 L30.9105339,30 L29,31.9105339 Z" id="Shape" fill="#3B81BF" fill-rule="nonzero"></path>
                <path d="M22,19 L18,15 L14,19 L18,23 L22,19 Z M18,17.0894661 L19.9105339,19 L18,20.9105339 L16.0894661,19 L18,17.0894661 Z" id="Shape" fill="#3B81BF" fill-rule="nonzero"></path>
            </g>
        </g>
    </g>
</svg>