<?xml version="1.0" encoding="UTF-8"?>
<svg width="44px" height="44px" viewBox="0 0 44 44" version="1.1" xmlns="http://www.w3.org/2000/svg" xmlns:xlink="http://www.w3.org/1999/xlink">
    <title>E3A072CF-3634-4686-8E17-1E92CA1B3664@1x</title>
    <g id="Dokodemo-Web-Profile" stroke="none" stroke-width="1" fill="none" fill-rule="evenodd">
        <g id="Desktop-" transform="translate(-529.000000, -315.000000)" fill-rule="nonzero">
            <g id="laptop-(3)" transform="translate(529.000000, 315.000000)">
                <polygon id="Path" fill="#FFCA13" points="13 38 13.8996789 41 25.1003211 41 26 38"></polygon>
                <polygon id="Path" fill="#3B81BF" points="5 40 6 40 6 41 5 41"></polygon>
                <polygon id="Path" fill="#3B81BF" points="9 40 10 40 10 41 9 41"></polygon>
                <path d="M22.7310455,22.34375 C22.9212727,23.0294375 23.0227273,23.7525 23.0227273,24.5 C23.0227273,28.8664063 19.5528409,32.40625 15.2727273,32.40625 C10.9926136,32.40625 7.52272727,28.8664063 7.52272727,24.5 C7.52272727,20.3758125 10.6177955,16.9890625 14.5681818,16.6260938 L14.5681818,13 L5.40909091,13 C4.63197727,13 4,13.6447187 4,14.4375 L4,34.5625 C4,35.3552813 4.63197727,36 5.40909091,36 L33.5909091,36 C34.3680227,36 35,35.3552813 35,34.5625 L35,22.34375 L22.7310455,22.34375 Z" id="Path" fill="#FFCA13"></path>
                <polygon id="Path" fill="#FFCA13" points="15 1 44 1 44 6 15 6"></polygon>
                <polygon id="Path" fill="#3B81BF" points="17 3 18 3 18 4 17 4"></polygon>
                <polygon id="Path" fill="#3B81BF" points="20 3 21 3 21 4 20 4"></polygon>
                <polygon id="Path" fill="#3B81BF" points="23 3 24 3 24 4 23 4"></polygon>
                <polygon id="Path" fill="#3B81BF" points="26 25 34 25 34 26 26 26"></polygon>
                <polygon id="Path" fill="#3B81BF" points="26 28 34 28 34 29 26 29"></polygon>
                <polygon id="Path" fill="#3B81BF" points="26 31 34 31 34 32 26 32"></polygon>
                <path d="M36.5,9.5 L36.5,16.5 L22.5,16.5 L22.5,9.5 L36.5,9.5 Z" id="Path" stroke="#3B81BF"></path>
                <path d="M44,22.7096774 L44,0 L14.1935484,0 L14.1935484,9.93548387 L4.96774194,9.93548387 C3.01116129,9.93548387 1.41935484,11.5272903 1.41935484,13.483871 L1.41935484,36.9032258 L0,36.9032258 L0,40.4516129 C0,42.4081935 1.59180645,44 3.5483871,44 L36.1935484,44 C38.150129,44 39.7419355,42.4081935 39.7419355,40.4516129 L39.7419355,36.9032258 L38.3225806,36.9032258 L38.3225806,22.7096774 L44,22.7096774 Z M15.6129032,1.41935484 L42.5806452,1.41935484 L42.5806452,21.2903226 L15.6129032,21.2903226 L15.6129032,1.41935484 Z M22.7096774,24.1290323 C22.7096774,25.8308387 22.1064516,27.3935484 21.1043871,28.6170323 L16.3225806,23.8352258 L16.3225806,22.7096774 L22.5507097,22.7096774 C22.6450968,23.1759355 22.7096774,23.6485806 22.7096774,24.1290323 L22.7096774,24.1290323 Z M14.9032258,22.7096774 L14.9032258,23.8352258 L10.1214194,28.6170323 C9.11935484,27.3935484 8.51612903,25.8308387 8.51612903,24.1290323 C8.51612903,20.6956129 10.9084516,17.8349032 14.1935484,17.1770323 L14.1935484,22.7096774 L14.9032258,22.7096774 Z M15.6129032,25.1325161 L20.1009032,29.6205161 C18.8774194,30.6225806 17.3147097,31.2258065 15.6129032,31.2258065 C13.9110968,31.2258065 12.3483871,30.6225806 11.1249032,29.6205161 L15.6129032,25.1325161 Z M38.3225806,40.4516129 C38.3225806,41.6254194 37.3673548,42.5806452 36.1935484,42.5806452 L3.5483871,42.5806452 C2.37458065,42.5806452 1.41935484,41.6254194 1.41935484,40.4516129 L1.41935484,38.3225806 L38.3225806,38.3225806 L38.3225806,40.4516129 Z M36.9032258,36.9032258 L2.83870968,36.9032258 L2.83870968,13.483871 C2.83870968,12.3100645 3.79393548,11.3548387 4.96774194,11.3548387 L14.1935484,11.3548387 L14.1935484,15.7363871 C10.1058065,16.4155484 7.09677419,19.9114194 7.09677419,24.1290323 C7.09677419,28.8249677 10.9169677,32.6451613 15.6129032,32.6451613 C20.3088387,32.6451613 24.1290323,28.8249677 24.1290323,24.1290323 C24.1290323,23.6514194 24.0843226,23.1773548 24.0062581,22.7096774 L36.9032258,22.7096774 L36.9032258,36.9032258 Z" id="Shape" fill="#3B81BF"></path>
            </g>
        </g>
    </g>
</svg>