<?xml version="1.0" encoding="UTF-8"?>
<svg width="62px" height="62px" viewBox="0 0 62 62" version="1.1" xmlns="http://www.w3.org/2000/svg" xmlns:xlink="http://www.w3.org/1999/xlink">
    <!-- Generator: sketchtool 58 (101010) - https://sketch.com -->
    <title>2CC85C1D-712B-40CE-85BA-1D027C695047@1.00x</title>
    <desc>Created with sketchtool.</desc>
    <defs>
        <radialGradient cx="33.296613%" cy="26.0064284%" fx="33.296613%" fy="26.0064284%" r="73.3451504%" gradientTransform="translate(0.332966,0.260064),scale(0.932203,1.000000),translate(-0.332966,-0.260064)" id="radialGradient-1">
            <stop stop-color="#FFDA45" offset="0%"></stop>
            <stop stop-color="#FFCE3E" offset="30.43%"></stop>
            <stop stop-color="#FFAE2B" offset="85.58%"></stop>
            <stop stop-color="#FFA425" offset="100%"></stop>
        </radialGradient>
        <linearGradient x1="49.8989837%" y1="53.1312205%" x2="3.6757618%" y2="8.91052065%" id="linearGradient-2">
            <stop stop-color="#FFDA45" stop-opacity="0" offset="0%"></stop>
            <stop stop-color="#FCEE21" offset="100%"></stop>
        </linearGradient>
        <linearGradient x1="55.4496597%" y1="63.5135064%" x2="40.4659795%" y2="26.3577695%" id="linearGradient-3">
            <stop stop-color="#FFDA45" stop-opacity="0" offset="0%"></stop>
            <stop stop-color="#FFFFFF" offset="100%"></stop>
        </linearGradient>
        <linearGradient x1="42.2936483%" y1="75.3602797%" x2="76.6535314%" y2="-37.3044064%" id="linearGradient-4">
            <stop stop-color="#FFDA45" stop-opacity="0" offset="0%"></stop>
            <stop stop-color="#B53759" offset="100%"></stop>
        </linearGradient>
        <linearGradient x1="45.4173473%" y1="26.7907151%" x2="95.728761%" y2="58.8560595%" id="linearGradient-5">
            <stop stop-color="#FF7044" offset="0%"></stop>
            <stop stop-color="#F92814" offset="100%"></stop>
        </linearGradient>
        <linearGradient x1="57.3934724%" y1="56.9631287%" x2="41.1144646%" y2="-5.50819419%" id="linearGradient-6">
            <stop stop-color="#FF7044" stop-opacity="0" offset="0%"></stop>
            <stop stop-color="#FFA425" offset="100%"></stop>
        </linearGradient>
        <linearGradient x1="48.3307768%" y1="56.5492887%" x2="103.917122%" y2="-77.1645449%" id="linearGradient-7">
            <stop stop-color="#F92814" stop-opacity="0" offset="0%"></stop>
            <stop stop-color="#C1272D" offset="100%"></stop>
        </linearGradient>
        <radialGradient cx="0.203696371%" cy="-3.06070183%" fx="0.203696371%" fy="-3.06070183%" r="111.538769%" gradientTransform="translate(0.002037,-0.030607),scale(0.684211,1.000000),translate(-0.002037,0.030607)" id="radialGradient-8">
            <stop stop-color="#C1272D" offset="0%"></stop>
            <stop stop-color="#C3272C" stop-opacity="0.495" offset="50.53%"></stop>
            <stop stop-color="#CA2729" stop-opacity="0.313" offset="68.73%"></stop>
            <stop stop-color="#D52724" stop-opacity="0.183" offset="81.7%"></stop>
            <stop stop-color="#E6281C" stop-opacity="0.079" offset="92.11%"></stop>
            <stop stop-color="#F92814" stop-opacity="0" offset="100%"></stop>
        </radialGradient>
        <radialGradient cx="36.8146889%" cy="-0.350916088%" fx="36.8146889%" fy="-0.350916088%" r="100.847725%" gradientTransform="translate(0.368147,-0.003509),scale(0.783784,1.000000),translate(-0.368147,0.003509)" id="radialGradient-9">
            <stop stop-color="#18CFFC" offset="0%"></stop>
            <stop stop-color="#4A98F7" offset="100%"></stop>
        </radialGradient>
        <linearGradient x1="43.0652958%" y1="57.2427137%" x2="2.07543176%" y2="8.89468622%" id="linearGradient-10">
            <stop stop-color="#18CFFC" stop-opacity="0" offset="0%"></stop>
            <stop stop-color="#65E1DC" offset="100%"></stop>
        </linearGradient>
        <linearGradient x1="57.4510697%" y1="47.8464545%" x2="136.788373%" y2="10.8554828%" id="linearGradient-11">
            <stop stop-color="#0469BC" stop-opacity="0" offset="0%"></stop>
            <stop stop-color="#0469BC" offset="100%"></stop>
        </linearGradient>
        <radialGradient cx="43.0218921%" cy="7.86653832%" fx="43.0218921%" fy="7.86653832%" r="70.3754709%" gradientTransform="translate(0.430219,0.078665),scale(0.777778,1.000000),translate(-0.430219,-0.078665)" id="radialGradient-12">
            <stop stop-color="#0469BC" offset="0%"></stop>
            <stop stop-color="#0469BC" stop-opacity="0.147" offset="85.32%"></stop>
            <stop stop-color="#0469BC" stop-opacity="0" offset="100%"></stop>
        </radialGradient>
        <linearGradient x1="5.48042619e-15%" y1="50%" x2="100%" y2="50%" id="linearGradient-13">
            <stop stop-color="#F9F7FC" offset="0%"></stop>
            <stop stop-color="#F0DDFC" offset="100%"></stop>
        </linearGradient>
        <linearGradient x1="50.8902663%" y1="50.5157317%" x2="7.07922635%" y2="25.130685%" id="linearGradient-14">
            <stop stop-color="#E9EDF5" stop-opacity="0" offset="0%"></stop>
            <stop stop-color="#FFFFFF" offset="100%"></stop>
        </linearGradient>
        <linearGradient x1="50%" y1="86.5727782%" x2="50%" y2="7.41886809%" id="linearGradient-15">
            <stop stop-color="#E9EDF5" stop-opacity="0" offset="0%"></stop>
            <stop stop-color="#FFFFFF" offset="100%"></stop>
        </linearGradient>
        <linearGradient x1="53.1366666%" y1="55.9915808%" x2="176.945938%" y2="-5.40125719%" id="linearGradient-16">
            <stop stop-color="#F0DDFC" stop-opacity="0" offset="0%"></stop>
            <stop stop-color="#C8B7E0" stop-opacity="0.289" offset="28.89%"></stop>
            <stop stop-color="#A595C8" stop-opacity="0.592" offset="59.15%"></stop>
            <stop stop-color="#8F81B8" stop-opacity="0.84" offset="83.95%"></stop>
            <stop stop-color="#8779B3" offset="100%"></stop>
        </linearGradient>
        <linearGradient x1="47.8272691%" y1="52.177473%" x2="-13.8742925%" y2="0.429509249%" id="linearGradient-17">
            <stop stop-color="#F0DDFC" stop-opacity="0" offset="0%"></stop>
            <stop stop-color="#C8B7E0" stop-opacity="0.289" offset="28.89%"></stop>
            <stop stop-color="#A595C8" stop-opacity="0.592" offset="59.15%"></stop>
            <stop stop-color="#8F81B8" stop-opacity="0.84" offset="83.95%"></stop>
            <stop stop-color="#8779B3" offset="100%"></stop>
        </linearGradient>
        <linearGradient x1="52.6892058%" y1="57.0901961%" x2="22.8470614%" y2="36.4643727%" id="linearGradient-18">
            <stop stop-color="#F0DDFC" stop-opacity="0" offset="0%"></stop>
            <stop stop-color="#C8B7E0" stop-opacity="0.289" offset="28.89%"></stop>
            <stop stop-color="#A595C8" stop-opacity="0.592" offset="59.15%"></stop>
            <stop stop-color="#8F81B8" stop-opacity="0.84" offset="83.95%"></stop>
            <stop stop-color="#8779B3" offset="100%"></stop>
        </linearGradient>
        <linearGradient x1="74.2980194%" y1="65.2994582%" x2="-3.3071409%" y2="25.2765594%" id="linearGradient-19">
            <stop stop-color="#F0DDFC" stop-opacity="0" offset="0%"></stop>
            <stop stop-color="#C8B7E0" stop-opacity="0.289" offset="28.89%"></stop>
            <stop stop-color="#A595C8" stop-opacity="0.592" offset="59.15%"></stop>
            <stop stop-color="#8F81B8" stop-opacity="0.84" offset="83.95%"></stop>
            <stop stop-color="#8779B3" offset="100%"></stop>
        </linearGradient>
        <linearGradient x1="50.0042247%" y1="50.0746253%" x2="70.6954823%" y2="203.765469%" id="linearGradient-20">
            <stop stop-color="#7E8595" offset="0%"></stop>
            <stop stop-color="#555A66" offset="100%"></stop>
        </linearGradient>
        <linearGradient x1="46.9357808%" y1="25.3943975%" x2="56.587753%" y2="102.804373%" id="linearGradient-21">
            <stop stop-color="#7E8595" offset="0%"></stop>
            <stop stop-color="#555A66" offset="100%"></stop>
        </linearGradient>
        <linearGradient x1="36.9141688%" y1="-47.1553985%" x2="57.6054265%" y2="106.539111%" id="linearGradient-22">
            <stop stop-color="#7E8595" offset="0%"></stop>
            <stop stop-color="#555A66" offset="100%"></stop>
        </linearGradient>
    </defs>
    <g id="Page-1" stroke="none" stroke-width="1" fill="none" fill-rule="evenodd">
        <g id="Home" transform="translate(-424.000000, -2290.000000)" fill-rule="nonzero">
            <g id="Group-4-Copy-4" transform="translate(280.000000, 2235.000000)">
                <g id="maths" transform="translate(144.000000, 55.000000)">
                    <path d="M29.5029746,29.5536878 L15.1681027,54.7058945 C15.0049551,54.9921063 14.6393006,55.0847115 14.3569813,54.9155641 C5.47546385,49.5932646 0,39.9490684 0,29.5536878 C0,13.3409778 13.3180852,0 29.5029746,0 C45.4876652,0 58.6761313,13.0131484 59,28.9536407 C59.0065567,29.2824436 58.7439171,29.5536878 58.4155569,29.5536878 L29.5029746,29.5536878 Z" id="Path" fill="url(#radialGradient-1)"></path>
                    <path d="M29.5,29.8264265 L15.8611785,54 C7.27084039,49.061226 2,39.8237602 2,29.8264265 C2,14.5613367 14.4139821,2 29.5,2 C44.5860179,2 57,14.5613367 57,29.8264265 L29.5,29.8264265 Z" id="Path" fill="url(#linearGradient-2)"></path>
                    <ellipse id="Oval" fill="url(#linearGradient-3)" cx="30" cy="13.5" rx="18" ry="10.5"></ellipse>
                    <path d="M43.0255126,3 C44.9607773,7.05729878 46.0517406,11.6312415 46.0517406,16.4723493 C46.0517406,21.3352539 44.9515975,25.929125 43,30 L59,30 C59,29.7638484 58.9965427,29.5285687 58.9912971,29.2936626 C58.9901049,29.2423469 58.9886743,29.1911558 58.9873629,29.1399648 C58.6770386,17.7683184 52.2350978,7.88420305 43.0255126,3 L43.0255126,3 Z" id="Path" fill="url(#linearGradient-4)"></path>
                    <path d="M55.5871381,49.83625 C59.5221061,44.7583008 61.9036153,38.379491 62,31.4384726 C62.0032926,31.1971495 61.8092492,31 61.5717282,31 L33.5467225,31 C33.0325261,31 32.8037747,31.6564539 33.2033485,31.9852456 L54.9835162,49.9027613 C55.1679253,50.0546078 55.4404013,50.0257444 55.5871381,49.83625 L55.5871381,49.83625 Z" id="Path" fill="url(#linearGradient-5)"></path>
                    <path d="M62,33 L38.5292909,33 C38.031489,33 37.8100311,33.6325463 38.1968649,33.9493636 L56.5781084,49 C59.8024012,44.4628616 61.7796183,38.9590677 62,33 L62,33 Z" id="Path" fill="url(#linearGradient-6)"></path>
                    <path d="M61.5739764,31 L59.3776115,31 C58.2608096,33.050938 56.8929208,35.0017322 55.2707497,36.8067032 C52.8334988,39.5186146 50.0258241,41.67572 47,43.2735014 L55.018311,49.9028136 C55.2018022,50.054535 55.472922,50.025797 55.6190513,49.8363021 C59.5344333,44.7583388 61.9040886,38.3795114 62,31.4384738 C62.0035156,31.1971501 61.8103151,31 61.5739764,31 Z" id="Path" fill="url(#linearGradient-7)"></path>
                    <path d="M53,31 C52.6558554,35.880104 50.9408481,40.3560349 48.2578298,44 L34.1957704,31.9867502 C33.8111382,31.658336 34.0312002,31 34.5264589,31 L53,31 Z" id="Path" fill="url(#radialGradient-8)"></path>
                    <path d="M30.0662353,33.2685429 L16.0702115,57.6861227 C15.9210974,57.9462548 16.0178037,58.2755786 16.2816581,58.4195071 C20.4667763,60.7018709 25.2701368,62 30.3780192,62 C39.4049868,62 47.480142,57.9462548 52.8722125,51.5683173 C53.0661092,51.3389237 53.0365769,50.9965812 52.8024969,50.8079312 L30.8669971,33.1187077 C30.6107679,32.9120968 30.2296314,32.9834583 30.0662353,33.2685429 L30.0662353,33.2685429 Z" id="Path" fill="url(#radialGradient-9)"></path>
                    <path d="M29.8878205,62 C38.6932935,62 46.595532,58.1201013 52,51.9704892 L31.2941068,35.1202422 C31.0369941,34.9110195 30.6545435,34.983161 30.4904626,35.2719715 L17,59.0233969 C20.8940978,60.9281299 25.2657427,62 29.8878205,62 Z" id="Path" fill="url(#linearGradient-10)"></path>
                    <path d="M52.8025362,50.6550587 L45.8843389,45 C40.3867208,52.8666911 31.3148398,58.0053763 21.0533131,58.0053763 C19.3622224,58.0053763 17.7041741,57.8635142 16.0883667,57.5951857 L16.0702116,57.6273216 C15.9210974,57.8910068 16.0178037,58.2248289 16.2816584,58.3707234 C20.4667811,60.684262 25.2701468,62 30.3780346,62 C39.4050119,62 47.4801757,57.8908847 52.872252,51.4258309 C53.0661489,51.193304 53.0364955,50.8462854 52.8025362,50.6550587 Z" id="Path" fill="url(#linearGradient-11)"></path>
                    <path d="M47,45.2475153 C42.7766321,50.0086014 36.6720538,53 29.884751,53 C26.3471062,53 22.996455,52.1875259 20,50.7363382 L30.3249476,32.2721753 C30.4877123,31.9829418 30.8645782,31.9105723 31.1193404,32.1213135 L47,45.2475153 Z" id="Path" fill="url(#radialGradient-12)"></path>
                    <circle id="Oval" fill="url(#linearGradient-13)" cx="30" cy="30" r="16"></circle>
                    <ellipse id="Oval" fill="url(#linearGradient-14)" cx="29.5" cy="30" rx="14.5" ry="15"></ellipse>
                    <ellipse id="Oval" fill="url(#linearGradient-15)" cx="29.5" cy="20.5" rx="9.5" ry="5.5"></ellipse>
                    <path d="M36.2485598,16 C37.3165206,18.131516 37.9185309,20.5369828 37.9185309,23.0833944 C37.9185309,31.8288143 30.8288787,38.9184376 22.0835454,38.9184376 C19.5371234,38.9184376 17.1316468,38.3164297 15,37.2484733 C17.5999178,42.4374176 22.9659809,46 29.1650144,46 C37.9104699,46 45,38.9104988 45,30.1650789 C45,23.9659485 41.4374031,18.5999072 36.2485598,16 Z" id="Path" fill="url(#linearGradient-16)"></path>
                    <path d="M43,37.5734739 C41.1507514,41.0278487 38.1157277,43.7000187 34.468359,45 L25.2204394,35.3847196 C22.3419146,32.3918494 20.1134527,30.0764833 20.1014788,30.0639093 C19.3672394,29.4334644 19,28.4368784 19,27.0757698 L19,22.9361721 C19,21.576682 19.3671197,20.5800961 20.1014788,19.9480327 C20.8357181,19.3159694 21.8288331,19 23.0792672,19 C24.3206011,19 25.3152727,19.3159694 26.0645992,19.9480327 L30.2942585,24.3504403 L43,37.5734739 Z" id="Path" fill="url(#linearGradient-17)"></path>
                    <path d="M45,29.8967489 C45,32.7374762 44.2844221,35.4065501 43.026509,37.7228775 C41.1594056,41.1692358 38.0950785,43.8352046 34.412494,45.132169 C32.8172836,45.6955698 31.1066185,46 29.326076,46 C28.8794896,46 28.4373764,45.9812448 28.0013079,45.942244 L23.452752,41.3128186 C23.1503935,40.9928626 23,40.6385014 23,40.2514738 C23,40.0765911 23.0455774,39.892517 23.138304,39.698879 L25.0752847,35.5392027 L30.1980921,24.5305304 L32.8992505,18.7273534 C33.1210929,18.2434448 33.5100123,18 34.0675803,18 C34.4823713,18 34.8651251,18.1451974 35.2146327,18.4370827 C35.3710709,18.5666301 35.4911197,18.7149327 35.5776806,18.875656 L44.9407614,28.496693 C44.9802941,28.958617 45,29.4252609 45,29.8967489 L45,29.8967489 Z" id="Path" fill="url(#linearGradient-18)"></path>
                    <path d="M39.3760133,29.9205073 C38.5943207,29.3070777 37.5554808,29 36.2596186,29 C34.9531306,29 33.9166659,29.3071986 33.1499745,29.9205073 C32.3832832,30.5342998 32,31.5020964 32,32.8235342 L32,36.845417 C32,38.1672176 32.3832832,39.1351351 33.1499745,39.7484438 C33.1626006,39.7586032 35.0146359,41.5495469 37.5476051,44 C40.1785828,42.579025 42.3590215,40.4710862 43.8247733,37.9232729 C44.2921887,37.1129459 44.6857228,36.2576276 45,35.3667516 L39.3760133,29.9205073 Z" id="Path" fill="url(#linearGradient-19)"></path>
                    <path d="M27,27.067992 L27,22.932008 C27,21.573081 26.6340504,20.577828 25.9028531,19.9466222 C25.1713049,19.3157895 24.199105,19 22.9863705,19 C21.7636917,19 20.7937146,19.3159138 20.0762054,19.9466222 C19.3586961,20.577828 19,21.573081 19,22.932008 L19,27.067992 C19,28.4272921 19.3586961,29.4226695 20.0762054,30.0533778 C20.7937146,30.6845837 21.7636917,31 22.9863705,31 C24.198988,31 25.1713049,30.6845837 25.9028531,30.0533778 C26.6340504,29.4226695 27,28.4272921 27,27.067992 L27,27.067992 Z M24.3699127,27.067992 C24.3699127,27.9999378 23.908498,28.4659729 22.9863705,28.4659729 C22.0822597,28.4659729 21.6300873,27.9999378 21.6300873,27.067992 L21.6300873,22.932008 C21.6300873,21.9999378 22.0822597,21.5340271 22.9863705,21.5340271 C23.908498,21.5340271 24.3699127,22.0000622 24.3699127,22.932008 L24.3699127,27.067992 Z" id="Shape" fill="url(#linearGradient-20)"></path>
                    <path d="M36,19.4900448 C36,19.0591205 35.8217302,18.7027584 35.4650673,18.4216791 C35.1084044,18.1404796 34.717938,18 34.2940384,18 C33.7261658,18 33.3289142,18.234613 33.1022833,18.7028785 L23.1416289,38.9756523 C23.0467573,39.1633187 23,39.3411395 23,39.5098351 C23,39.8845676 23.154336,40.2268817 23.4631313,40.536177 C23.7719267,40.8453523 24.1578283,41 24.6209596,41 C25.2448422,41 25.670469,40.765387 25.8980868,40.2971215 L35.8866229,20.0243477 C35.962002,19.8745028 36,19.6965619 36,19.4900448 L36,19.4900448 Z" id="Path" fill="url(#linearGradient-21)"></path>
                    <path d="M38.9027361,28.946632 C38.1711879,28.3157927 37.199105,28 35.9862535,28 C34.7635747,28 33.7935976,28.3159171 33.0760884,28.946632 C32.3586961,29.5778443 32,30.5731077 32,31.9320488 L32,36.0679512 C32,37.4273898 32.3586961,38.4227775 33.0760884,39.0534924 C33.7935976,39.6847048 34.7635747,40 35.9862535,40 C37.199105,40 38.1711879,39.6847048 38.9027361,39.0534924 C39.6340504,38.4226532 40,37.4273898 40,36.0679512 L40,31.9320488 C40,30.5731077 39.6339334,29.57772 38.9027361,28.946632 Z M37.3697957,36.0679512 C37.3697957,37.0001555 36.908381,37.466071 35.9862535,37.466071 C35.0821427,37.466071 34.6299703,37.0000311 34.6299703,36.0679512 L34.6299703,31.9320488 C34.6299703,31.0000933 35.0821427,30.533929 35.9862535,30.533929 C36.908381,30.533929 37.3697957,31.0000933 37.3697957,31.9320488 L37.3697957,36.0679512 Z" id="Shape" fill="url(#linearGradient-22)"></path>
                </g>
            </g>
        </g>
    </g>
</svg>