<?xml version="1.0" encoding="UTF-8"?>
<svg width="58px" height="65px" viewBox="0 0 58 65" version="1.1" xmlns="http://www.w3.org/2000/svg" xmlns:xlink="http://www.w3.org/1999/xlink">
    <!-- Generator: sketchtool 58 (101010) - https://sketch.com -->
    <title>5DA46FA7-0814-48B5-914A-7B9126DF630C@1.00x</title>
    <desc>Created with sketchtool.</desc>
    <defs>
        <linearGradient x1="50%" y1="70.6942698%" x2="50%" y2="110.225863%" id="linearGradient-1">
            <stop stop-color="#7E8595" offset="0%"></stop>
            <stop stop-color="#555A66" offset="100%"></stop>
        </linearGradient>
        <linearGradient x1="18.0007186%" y1="49.9995228%" x2="112.188111%" y2="49.9995228%" id="linearGradient-2">
            <stop stop-color="#7E8595" offset="0%"></stop>
            <stop stop-color="#555A66" offset="100%"></stop>
        </linearGradient>
        <linearGradient x1="49.999005%" y1="13.3906567%" x2="49.999005%" y2="55.5096117%" id="linearGradient-3">
            <stop stop-color="#7E8595" offset="0%"></stop>
            <stop stop-color="#555A66" offset="100%"></stop>
        </linearGradient>
        <linearGradient x1="49.9979172%" y1="29.2914209%" x2="49.9979172%" y2="127.137311%" id="linearGradient-4">
            <stop stop-color="#7E8595" offset="0%"></stop>
            <stop stop-color="#555A66" offset="100%"></stop>
        </linearGradient>
        <linearGradient x1="50%" y1="29.2914209%" x2="50%" y2="127.137311%" id="linearGradient-5">
            <stop stop-color="#555A66" stop-opacity="0" offset="0%"></stop>
            <stop stop-color="#555A66" offset="100%"></stop>
        </linearGradient>
        <linearGradient x1="30.3672113%" y1="47.8578291%" x2="-62.9689971%" y2="29.5794343%" id="linearGradient-6">
            <stop stop-color="#BEC3D2" stop-opacity="0" offset="0%"></stop>
            <stop stop-color="#C5C9D7" stop-opacity="0.221" offset="22.1%"></stop>
            <stop stop-color="#D7DAE3" stop-opacity="0.534" offset="53.43%"></stop>
            <stop stop-color="#F6F6F8" stop-opacity="0.901" offset="90.14%"></stop>
            <stop stop-color="#FFFFFF" offset="100%"></stop>
        </linearGradient>
        <linearGradient x1="49.9993057%" y1="29.2914209%" x2="49.9993057%" y2="127.137311%" id="linearGradient-7">
            <stop stop-color="#7E8595" offset="0%"></stop>
            <stop stop-color="#555A66" offset="100%"></stop>
        </linearGradient>
        <linearGradient x1="49.9974659%" y1="29.2914209%" x2="49.9974659%" y2="127.137311%" id="linearGradient-8">
            <stop stop-color="#555A66" stop-opacity="0" offset="0%"></stop>
            <stop stop-color="#555A66" offset="100%"></stop>
        </linearGradient>
        <linearGradient x1="50.000995%" y1="13.3906567%" x2="50.000995%" y2="55.5096117%" id="linearGradient-9">
            <stop stop-color="#7E8595" offset="0%"></stop>
            <stop stop-color="#555A66" offset="100%"></stop>
        </linearGradient>
        <linearGradient x1="30.3656141%" y1="47.8578291%" x2="-62.9689971%" y2="29.5794343%" id="linearGradient-10">
            <stop stop-color="#BEC3D2" stop-opacity="0" offset="0%"></stop>
            <stop stop-color="#C5C9D7" stop-opacity="0.221" offset="22.1%"></stop>
            <stop stop-color="#D7DAE3" stop-opacity="0.534" offset="53.43%"></stop>
            <stop stop-color="#F6F6F8" stop-opacity="0.901" offset="90.14%"></stop>
            <stop stop-color="#FFFFFF" offset="100%"></stop>
        </linearGradient>
        <linearGradient x1="39.0364455%" y1="30.6500531%" x2="71.3001804%" y2="87.5924987%" id="linearGradient-11">
            <stop stop-color="#F9F7FC" offset="0%"></stop>
            <stop stop-color="#F0DDFC" offset="100%"></stop>
        </linearGradient>
        <linearGradient x1="51.7206467%" y1="46.3771478%" x2="47.9049015%" y2="2.29162657%" id="linearGradient-12">
            <stop stop-color="#F0DDFC" stop-opacity="0" offset="0%"></stop>
            <stop stop-color="#C8B7E0" stop-opacity="0.289" offset="28.89%"></stop>
            <stop stop-color="#A595C8" stop-opacity="0.592" offset="59.15%"></stop>
            <stop stop-color="#8F81B8" stop-opacity="0.84" offset="83.95%"></stop>
            <stop stop-color="#8779B3" offset="100%"></stop>
        </linearGradient>
        <linearGradient x1="50.0031821%" y1="28.0532418%" x2="50.0031821%" y2="90.2887213%" id="linearGradient-13">
            <stop stop-color="#7E8595" offset="0%"></stop>
            <stop stop-color="#555A66" offset="100%"></stop>
        </linearGradient>
        <linearGradient x1="50.0002343%" y1="37.3811884%" x2="50.0002343%" y2="128.852994%" id="linearGradient-14">
            <stop stop-color="#F9F7FC" offset="0%"></stop>
            <stop stop-color="#F0DDFC" offset="100%"></stop>
        </linearGradient>
        <linearGradient x1="139.96785%" y1="49.9985422%" x2="-33.8298001%" y2="49.9985422%" id="linearGradient-15">
            <stop stop-color="#F0DDFC" stop-opacity="0" offset="0%"></stop>
            <stop stop-color="#C8B7E0" stop-opacity="0.289" offset="28.89%"></stop>
            <stop stop-color="#A595C8" stop-opacity="0.592" offset="59.15%"></stop>
            <stop stop-color="#8F81B8" stop-opacity="0.84" offset="83.95%"></stop>
            <stop stop-color="#8779B3" offset="100%"></stop>
        </linearGradient>
        <linearGradient x1="68.3030442%" y1="12.9429389%" x2="27.908903%" y2="107.542205%" id="linearGradient-16">
            <stop stop-color="#F0DDFC" stop-opacity="0" offset="0%"></stop>
            <stop stop-color="#C8B7E0" stop-opacity="0.289" offset="28.89%"></stop>
            <stop stop-color="#A595C8" stop-opacity="0.592" offset="59.15%"></stop>
            <stop stop-color="#8F81B8" stop-opacity="0.84" offset="83.95%"></stop>
            <stop stop-color="#8779B3" offset="100%"></stop>
        </linearGradient>
        <linearGradient x1="49.9989216%" y1="48.4327518%" x2="49.9989216%" y2="87.9009567%" id="linearGradient-17">
            <stop stop-color="#7E8595" offset="0%"></stop>
            <stop stop-color="#555A66" offset="100%"></stop>
        </linearGradient>
        <linearGradient x1="64.7597002%" y1="29.6375507%" x2="39.7597002%" y2="64.1265196%" id="linearGradient-18">
            <stop stop-color="#7E8595" offset="0%"></stop>
            <stop stop-color="#555A66" offset="100%"></stop>
        </linearGradient>
        <linearGradient x1="52.0983764%" y1="64.7026553%" x2="-122.607326%" y2="-111.987053%" id="linearGradient-19">
            <stop stop-color="#F9F7FC" offset="0%"></stop>
            <stop stop-color="#F0DDFC" offset="100%"></stop>
        </linearGradient>
        <linearGradient x1="50%" y1="37.3830141%" x2="50%" y2="128.852153%" id="linearGradient-20">
            <stop stop-color="#F9F7FC" offset="0%"></stop>
            <stop stop-color="#F0DDFC" offset="100%"></stop>
        </linearGradient>
        <linearGradient x1="139.96785%" y1="50%" x2="-33.8298004%" y2="50%" id="linearGradient-21">
            <stop stop-color="#F0DDFC" stop-opacity="0" offset="0%"></stop>
            <stop stop-color="#C8B7E0" stop-opacity="0.289" offset="28.89%"></stop>
            <stop stop-color="#A595C8" stop-opacity="0.592" offset="59.15%"></stop>
            <stop stop-color="#8F81B8" stop-opacity="0.84" offset="83.95%"></stop>
            <stop stop-color="#8779B3" offset="100%"></stop>
        </linearGradient>
        <linearGradient x1="68.3030442%" y1="12.9448595%" x2="27.908903%" y2="107.544126%" id="linearGradient-22">
            <stop stop-color="#F0DDFC" stop-opacity="0" offset="0%"></stop>
            <stop stop-color="#C8B7E0" stop-opacity="0.289" offset="28.89%"></stop>
            <stop stop-color="#A595C8" stop-opacity="0.592" offset="59.15%"></stop>
            <stop stop-color="#8F81B8" stop-opacity="0.84" offset="83.95%"></stop>
            <stop stop-color="#8779B3" offset="100%"></stop>
        </linearGradient>
        <linearGradient x1="49.9989216%" y1="48.4327518%" x2="49.9989216%" y2="87.9037704%" id="linearGradient-23">
            <stop stop-color="#7E8595" offset="0%"></stop>
            <stop stop-color="#555A66" offset="100%"></stop>
        </linearGradient>
        <linearGradient x1="64.7597002%" y1="29.6403647%" x2="39.7597002%" y2="64.1265196%" id="linearGradient-24">
            <stop stop-color="#7E8595" offset="0%"></stop>
            <stop stop-color="#555A66" offset="100%"></stop>
        </linearGradient>
        <linearGradient x1="22.4299503%" y1="21.0708985%" x2="60.4887077%" y2="64.8730753%" id="linearGradient-25">
            <stop stop-color="#FF7044" offset="0%"></stop>
            <stop stop-color="#F92814" offset="100%"></stop>
        </linearGradient>
        <linearGradient x1="24.5733296%" y1="-8.60813516%" x2="72.4593759%" y2="109.175705%" id="linearGradient-26">
            <stop stop-color="#FFDA45" offset="0%"></stop>
            <stop stop-color="#FFA425" offset="100%"></stop>
        </linearGradient>
        <linearGradient x1="0.00234279824%" y1="50%" x2="100%" y2="50%" id="linearGradient-27">
            <stop stop-color="#18CFFC" offset="0%"></stop>
            <stop stop-color="#4A98F7" offset="100%"></stop>
        </linearGradient>
        <linearGradient x1="50%" y1="12.595779%" x2="50%" y2="124.680737%" id="linearGradient-28">
            <stop stop-color="#7E8595" offset="0%"></stop>
            <stop stop-color="#555A66" offset="100%"></stop>
        </linearGradient>
        <linearGradient x1="101.228751%" y1="81.1348972%" x2="-64.8974501%" y2="20.7067482%" id="linearGradient-29">
            <stop stop-color="#555A66" stop-opacity="0" offset="0%"></stop>
            <stop stop-color="#555A66" offset="100%"></stop>
        </linearGradient>
        <linearGradient x1="12.6025003%" y1="50%" x2="124.680737%" y2="50%" id="linearGradient-30">
            <stop stop-color="#7E8595" offset="0%"></stop>
            <stop stop-color="#555A66" offset="100%"></stop>
        </linearGradient>
        <linearGradient x1="50.7279121%" y1="50.8252541%" x2="66.8514645%" y2="69.9776328%" id="linearGradient-31">
            <stop stop-color="#92F37F" offset="0%"></stop>
            <stop stop-color="#4AB272" offset="100%"></stop>
        </linearGradient>
    </defs>
    <g id="Page-1" stroke="none" stroke-width="1" fill="none" fill-rule="evenodd">
        <g id="Home" transform="translate(-797.000000, -1754.000000)" fill-rule="nonzero">
            <g id="Group-4-Copy" transform="translate(650.000000, 1699.000000)">
                <g id="presentation-(1)" transform="translate(147.000000, 55.000000)">
                    <polygon id="Path" fill="url(#linearGradient-1)" points="42.0010019 61.625 28.3958333 37.7320531 14.7906647 61.625 12.0833333 60.0638594 28.3958333 31.4166667 44.7083333 60.0638594"></polygon>
                    <polygon id="Path" fill="url(#linearGradient-2)" points="26.5833333 33.8333333 30.2083333 33.8333333 30.2083333 60.4166667 26.5833333 60.4166667"></polygon>
                    <path d="M16.0432828,64.0416667 L11.7483839,64.0416667 C11.2660028,64.0416667 10.875,63.6112488 10.875,63.0802413 L10.875,60.1697587 C10.875,59.6387512 11.2660028,59.2083333 11.7483839,59.2083333 L16.0432828,59.2083333 C16.5256639,59.2083333 16.9166667,59.6387512 16.9166667,60.1697587 L16.9166667,63.0802413 C16.9166667,63.6112488 16.5256639,64.0416667 16.0432828,64.0416667 Z" id="Path" fill="url(#linearGradient-3)"></path>
                    <path d="M17.1498367,64.0416667 L9.43336238,64.0416667 C8.89484138,64.0416667 8.45833333,63.6015674 8.45833333,63.0586158 L8.45833333,62.5024018 C8.45833333,61.3504567 9.38450354,60.4166667 10.5270486,60.4166667 L16.0562847,60.4166667 C17.1988298,60.4166667 18.125,61.3504567 18.125,62.5024018 L18.125,63.0586158 C18.1247315,63.6015674 17.6882235,64.0416667 17.1498367,64.0416667 L17.1498367,64.0416667 Z" id="Path" fill="url(#linearGradient-4)"></path>
                    <path d="M16.2373275,60.4166667 L14.2764115,60.4166667 C14.4718907,60.8332182 14.5829807,61.3059325 14.5829807,61.8076078 L14.5829807,62.6148626 C14.5829807,63.4029001 14.0048718,64.0416667 13.2916667,64.0416667 L17.2353002,64.0416667 C17.7266928,64.0416667 18.125,63.6015674 18.125,63.0586158 L18.125,62.5024018 C18.1248775,61.3504567 17.2797607,60.4166667 16.2373275,60.4166667 Z" id="Path" fill="url(#linearGradient-5)"></path>
                    <path d="M18.125,63.1672125 L18.125,62.6724429 C18.125,61.8374741 17.5059625,61.1315546 16.6546845,60.898736 L16.6546845,60.0827875 C16.6546845,59.5998153 16.2153327,59.2083333 15.6733033,59.2083333 L12.1183634,59.2083333 C11.576334,59.2083333 11.1369822,59.5998153 11.1369822,60.0827875 L11.1369822,60.898736 C10.2857042,61.1315546 9.66666667,61.8375944 9.66666667,62.6724429 L9.66666667,63.1672125 C9.66666667,63.6501847 10.1060185,64.0416667 10.6480479,64.0416667 L17.1437539,64.0416667 C17.6856482,64.0416667 18.125,63.6501847 18.125,63.1672125 L18.125,63.1672125 Z" id="Path" fill="url(#linearGradient-6)"></path>
                    <path d="M30.5432828,64.0416667 L26.2483839,64.0416667 C25.7660028,64.0416667 25.375,63.6112488 25.375,63.0802413 L25.375,60.1697587 C25.375,59.6387512 25.7660028,59.2083333 26.2483839,59.2083333 L30.5432828,59.2083333 C31.0256639,59.2083333 31.4166667,59.6387512 31.4166667,60.1697587 L31.4166667,63.0802413 C31.4166667,63.6112488 31.0256639,64.0416667 30.5432828,64.0416667 Z" id="Path" fill="url(#linearGradient-3)"></path>
                    <path d="M32.8581701,64.0416667 L25.1416957,64.0416667 C24.6031747,64.0416667 24.1666667,63.6015674 24.1666667,63.0586158 L24.1666667,62.5024018 C24.1666667,61.3504567 25.0928369,60.4166667 26.2353819,60.4166667 L31.7646181,60.4166667 C32.9071631,60.4166667 33.8333333,61.3504567 33.8333333,62.5024018 L33.8333333,63.0586158 C33.8331991,63.6015674 33.3966911,64.0416667 32.8581701,64.0416667 Z" id="Path" fill="url(#linearGradient-7)"></path>
                    <path d="M30.7373275,60.4166667 L28.7764115,60.4166667 C28.9718907,60.8332182 29.0829807,61.3059325 29.0829807,61.8076078 L29.0829807,62.6148626 C29.0829807,63.4029001 28.5048718,64.0416667 27.7916667,64.0416667 L31.7353002,64.0416667 C32.2266928,64.0416667 32.625,63.6015674 32.625,63.0586158 L32.625,62.5024018 C32.6248775,61.3504567 31.7797607,60.4166667 30.7373275,60.4166667 Z" id="Path" fill="url(#linearGradient-8)"></path>
                    <path d="M33.8333333,63.1672125 L33.8333333,62.6724429 C33.8333333,61.8374741 33.2142958,61.1315546 32.3630178,60.898736 L32.3630178,60.0827875 C32.3630178,59.5998153 31.923666,59.2083333 31.3816366,59.2083333 L27.8266967,59.2083333 C27.2846673,59.2083333 26.8453155,59.5998153 26.8453155,60.0827875 L26.8453155,60.898736 C25.9940375,61.1315546 25.375,61.8375944 25.375,62.6724429 L25.375,63.1672125 C25.375,63.6501847 25.8143518,64.0416667 26.3563812,64.0416667 L32.8520872,64.0416667 C33.3939815,64.0416667 33.8333333,63.6501847 33.8333333,63.1672125 Z" id="Path" fill="url(#linearGradient-6)"></path>
                    <path d="M46.2516161,64.0416667 L41.9567172,64.0416667 C41.4743361,64.0416667 41.0833333,63.6112488 41.0833333,63.0802413 L41.0833333,60.1697587 C41.0833333,59.6387512 41.4743361,59.2083333 41.9567172,59.2083333 L46.2516161,59.2083333 C46.7339972,59.2083333 47.125,59.6387512 47.125,60.1697587 L47.125,63.0802413 C47.125,63.6112488 46.7339972,64.0416667 46.2516161,64.0416667 Z" id="Path" fill="url(#linearGradient-9)"></path>
                    <path d="M47.3581701,64.0416667 L39.6416957,64.0416667 C39.1031747,64.0416667 38.6666667,63.6015674 38.6666667,63.0586158 L38.6666667,62.5024018 C38.6666667,61.3504567 39.5928369,60.4166667 40.7353819,60.4166667 L46.2646181,60.4166667 C47.4071631,60.4166667 48.3333333,61.3504567 48.3333333,62.5024018 L48.3333333,63.0586158 C48.3331991,63.6015674 47.8966911,64.0416667 47.3581701,64.0416667 L47.3581701,64.0416667 Z" id="Path" fill="url(#linearGradient-7)"></path>
                    <path d="M46.4456608,60.4166667 L44.4847448,60.4166667 C44.680224,60.8332182 44.791314,61.3059325 44.791314,61.8076078 L44.791314,62.6148626 C44.791314,63.4029001 44.2132051,64.0416667 43.5,64.0416667 L47.4436335,64.0416667 C47.9350261,64.0416667 48.3333333,63.6015674 48.3333333,63.0586158 L48.3333333,62.5024018 C48.3333333,61.3504567 47.4882165,60.4166667 46.4456608,60.4166667 Z" id="Path" fill="url(#linearGradient-5)"></path>
                    <path d="M48.3333333,63.1672125 L48.3333333,62.6724429 C48.3333333,61.8374741 47.7142958,61.1315546 46.8630178,60.898736 L46.8630178,60.0827875 C46.8630178,59.5998153 46.423666,59.2083333 45.8816366,59.2083333 L42.3266967,59.2083333 C41.7846673,59.2083333 41.3453155,59.5998153 41.3453155,60.0827875 L41.3453155,60.898736 C40.4940375,61.1315546 39.875,61.8375944 39.875,62.6724429 L39.875,63.1672125 C39.875,63.6501847 40.3143518,64.0416667 40.8563812,64.0416667 L47.3520872,64.0416667 C47.8939815,64.0416667 48.3333333,63.6501847 48.3333333,63.1672125 Z" id="Path" fill="url(#linearGradient-10)"></path>
                    <polygon id="Path" fill="url(#linearGradient-11)" points="4.83333333 4.83333333 54.375 4.83333333 54.375 41.0833333 4.83333333 41.0833333"></polygon>
                    <polygon id="Path" fill="url(#linearGradient-12)" points="36.9462914 41.0833333 54.375 41.0833333 54.375 4.83333333 4.83333333 4.83333333 4.83333333 9.25947191"></polygon>
                    <path d="M0.915651053,2.41666667 C0.409955133,2.41666667 0,3.49864457 0,4.83333333 C0,6.1680221 0.409955133,7.25 0.915651053,7.25 L3.625,7.25 L3.625,2.41666667 L0.915651053,2.41666667 Z" id="Path" fill="url(#linearGradient-13)"></path>
                    <path d="M4.27967881,0.00209621066 C3.2475788,0.045006876 2.41666667,1.92037558 2.41666667,4.22916667 C2.41666667,6.53795775 3.2475788,8.41344976 4.27955423,8.45623712 L4.27955423,8.45833333 L53.6850666,8.45833333 C54.7332367,8.45833333 55.5833333,6.56496188 55.5833333,4.22904336 C55.5833333,1.89312484 54.7333613,0 53.6851912,0 L4.27967881,0 L4.27967881,0.00209621066 Z" id="Path" fill="url(#linearGradient-14)"></path>
                    <path d="M53.7711901,0 C54.7718052,0 55.5833333,1.89331625 55.5833333,4.22916667 C55.5833333,6.56501708 54.7718052,8.45833333 53.7711901,8.45833333 C53.1140236,8.45833333 52.5385569,7.64293116 52.2206767,6.42223231 C52.054185,5.78278339 52.3161716,6.265391 52.3161716,5.46244242 C52.3161716,5.44357707 51.9582144,4.19143597 51.9583333,4.17257063 C51.9712959,1.86286043 52.7778293,0 53.7711901,0 Z" id="Path" fill="url(#linearGradient-15)"></path>
                    <path d="M53.771309,0 C54.7718585,0 55.5833333,2.1380865 55.5833333,4.77591853 C55.5833333,5.07612787 55.5725121,5.36979277 55.5526533,5.6549638 C55.5418321,5.73280101 55.5294649,5.80813183 55.515314,5.88193097 C55.4979525,5.97174314 55.4788072,6.05877043 55.458116,6.14259512 C55.4440841,6.1980141 55.4291008,6.25217988 55.413404,6.30425701 C55.40508,6.33071331 55.3977073,6.35633415 55.3893832,6.38153725 C55.2749872,6.7366086 55.1224194,7.00451342 54.9492794,7.14306086 C54.8754333,7.20251791 54.7967117,7.23872126 54.7163252,7.24805059 C54.7030068,7.24930378 54.6889748,7.25 54.6756564,7.25 L52.2203027,7.25 C52.0545354,6.52802159 51.9583333,5.68142009 51.9583333,4.77591853 C51.9583333,4.75475349 51.9583333,4.73303148 51.9591657,4.71186644 C51.9716518,2.10383256 52.7782512,0 53.771309,0 Z" id="Path" fill="url(#linearGradient-16)"></path>
                    <path d="M58,4.83333333 C58,6.16814388 57.5368703,7.25 56.9655814,7.25 L52.635957,7.25 C52.4537805,6.54553555 51.9583333,5.7182658 51.9583333,4.83333333 C51.9583333,3.94840086 52.0628438,3.12126712 52.2450203,2.41666667 L56.9655814,2.41666667 C57.5368703,2.41666667 58,3.49838679 58,4.83333333 L58,4.83333333 Z" id="Path" fill="url(#linearGradient-17)"></path>
                    <ellipse id="Oval" fill="url(#linearGradient-18)" cx="56.7916667" cy="4.83333333" rx="1.20833333" ry="2.41666667"></ellipse>
                    <path d="M51.9591794,4.83333333 L53.5404669,4.83333333 C53.5404669,4.85348548 53.5397266,4.87350505 53.5397266,4.89432009 C53.5397266,6.19492905 53.9134739,7.25 54.375,7.25 L52.1913173,7.25 C52.0438912,6.56257315 51.9583333,5.75648727 51.9583333,4.89432009 C51.9584391,4.87416795 51.9584391,4.85348548 51.9591794,4.83333333 Z" id="Path" fill="url(#linearGradient-19)"></path>
                    <path d="M0.915651053,38.6666667 C0.409955133,38.6666667 0,39.7486446 0,41.0833333 C0,42.4180221 0.409955133,43.5 0.915651053,43.5 L3.625,43.5 L3.625,38.6668027 L0.915651053,38.6668027 L0.915651053,38.6666667 Z" id="Path" fill="url(#linearGradient-13)"></path>
                    <path d="M4.27955423,36.2523428 C3.24745423,36.2952522 2.41666667,38.1705662 2.41666667,40.47929 C2.41666667,42.7880137 3.2475788,44.6634511 4.27955423,44.7062372 L4.27955423,44.7083333 L53.6850666,44.7083333 C54.7332367,44.7083333 55.5833333,42.8150171 55.5833333,40.4791667 C55.5833333,38.1434396 54.7332367,36.25 53.6850666,36.25 L4.27955423,36.25 L4.27955423,36.2523428 Z" id="Path" fill="url(#linearGradient-20)"></path>
                    <path d="M53.7711901,36.25 C54.7718052,36.25 55.5833333,38.1433163 55.5833333,40.4791667 C55.5833333,42.8148938 54.7718052,44.7083333 53.7711901,44.7083333 C53.1136668,44.7083333 52.5379623,43.8919447 52.2200821,42.6700129 C52.0538282,42.0310571 53.0091338,42.0377155 52.5530655,41.389882 C52.4752901,41.2794026 51.9582144,40.441436 51.9583333,40.4225706 C51.9712959,38.1128604 52.7778293,36.25 53.7711901,36.25 L53.7711901,36.25 Z" id="Path" fill="url(#linearGradient-21)"></path>
                    <path d="M53.771309,36.25 C54.7718585,36.25 55.5833333,38.3880865 55.5833333,41.0259185 C55.5833333,41.3261279 55.5725121,41.6197928 55.5526533,41.9049638 C55.5418321,41.982801 55.5294649,42.0581318 55.515314,42.131931 C55.4979525,42.2217431 55.4788072,42.3087704 55.458116,42.3925951 C55.4440841,42.4480141 55.4291008,42.5021799 55.413404,42.554257 C55.40508,42.5807133 55.3977073,42.6063341 55.3893832,42.6315373 C55.2749872,42.9866086 55.1224194,43.2545134 54.9492794,43.3930609 C54.8754333,43.4525179 54.7967117,43.4887213 54.7163252,43.4980506 C54.7030068,43.4993038 54.6889748,43.5 54.6756564,43.5 L52.2203027,43.5 C52.0545354,42.7780216 51.9583333,41.9314201 51.9583333,41.0259185 C51.9583333,41.0047535 51.9583333,40.9830315 51.9591657,40.9618664 C51.9716518,38.3538326 52.7782512,36.25 53.771309,36.25 L53.771309,36.25 Z" id="Path" fill="url(#linearGradient-22)"></path>
                    <path d="M58,41.0833333 C58,42.4181439 57.5368703,43.5 56.9655814,43.5 L52.635957,43.5 C52.4537805,42.7955355 51.9583333,41.9682658 51.9583333,41.0833333 C51.9583333,40.1985369 52.0628438,39.3712671 52.2450203,38.6666667 L56.9655814,38.6666667 C57.5368703,38.6666667 58,39.7485228 58,41.0833333 Z" id="Path" fill="url(#linearGradient-23)"></path>
                    <ellipse id="Oval" fill="url(#linearGradient-24)" cx="56.7916667" cy="41.0833333" rx="1.20833333" ry="2.41666667"></ellipse>
                    <path d="M51.9591794,41.0833333 L53.5404669,41.0833333 C53.5404669,41.1034855 53.5397266,41.123505 53.5397266,41.1443201 C53.5397266,42.444929 53.9134739,43.5 54.375,43.5 L52.1913173,43.5 C52.0438912,42.8125731 51.9583333,42.0064873 51.9583333,41.1443201 C51.9584391,41.1241679 51.9584391,41.1034855 51.9591794,41.0833333 L51.9591794,41.0833333 Z" id="Path" fill="url(#linearGradient-19)"></path>
                    <path d="M13.2916667,32.625 L18.125,32.625 L18.125,30.9462902 C18.125,30.5387551 17.8746369,30.2083333 17.5658443,30.2083333 L13.8509356,30.2083333 C13.542143,30.2083333 13.2917799,30.5387551 13.2917799,30.9462902 L13.2917799,32.625 L13.2916667,32.625 Z" id="Path" fill="url(#linearGradient-25)"></path>
                    <path d="M21.75,31.4166667 L26.5833333,31.4166667 L26.5833333,26.0313071 C26.5833333,25.6688629 26.3329702,25.375 26.0241777,25.375 L22.3092689,25.375 C22.0004764,25.375 21.7501132,25.6688629 21.7501132,26.0313071 L21.7501132,31.4166667 L21.75,31.4166667 Z" id="Path" fill="url(#linearGradient-26)"></path>
                    <path d="M30.2083333,32.625 L35.0416667,32.625 L35.0416667,23.5586704 C35.0416667,23.2271355 34.7913035,22.9583333 34.482511,22.9583333 L30.7676022,22.9583333 C30.4588097,22.9583333 30.2084466,23.2271355 30.2084466,23.5586704 L30.2084466,32.625 L30.2083333,32.625 Z" id="Path" fill="url(#linearGradient-27)"></path>
                    <path d="M7.25,32.0208333 C7.25,31.6871975 7.66712655,31.4166667 8.1815534,31.4166667 L35.3184466,31.4166667 C35.8328735,31.4166667 36.25,31.6871975 36.25,32.0208333 C36.25,32.3544691 35.8328735,32.625 35.3184466,32.625 L8.1815534,32.625 C7.66712655,32.625 7.25,32.3544691 7.25,32.0208333 Z" id="Path" fill="url(#linearGradient-28)"></path>
                    <polygon id="Path" fill="url(#linearGradient-29)" points="12.0833333 32.625 14.5 32.625 12.8390998 31.4166667 12.0833333 31.4166667"></polygon>
                    <path d="M11.4791667,35.0416667 C11.1455309,35.0416667 10.875,34.6203479 10.875,34.100751 L10.875,10.6075824 C10.875,10.0879854 11.1455309,9.66666667 11.4791667,9.66666667 C11.8128025,9.66666667 12.0833333,10.0879854 12.0833333,10.6075824 L12.0833333,34.100751 C12.0833333,34.6203479 11.8128837,35.0416667 11.4791667,35.0416667 L11.4791667,35.0416667 Z" id="Path" fill="url(#linearGradient-30)"></path>
                    <path d="M33.577754,12.2186016 L29.8390888,14.4459663 C29.1833323,14.8365965 29.1688643,15.830916 29.8128734,16.2428914 L30.8053496,16.8777473 C29.5283371,18.7761602 27.8912336,20.4765736 25.9182758,21.949654 C23.8347682,23.5051034 21.374352,24.8134461 18.6051627,25.8382774 C17.4330119,26.2721218 16.3030283,26.6179663 15.265046,26.8929658 C14.8103568,27.0134418 14.493546,27.4485957 14.5,27.9450352 C14.5092505,28.6342362 15.1225924,29.135259 15.7538647,28.9673784 C16.8280786,28.6817718 17.9981273,28.3230939 19.2187519,27.8734044 C22.174046,26.7846684 24.8103033,25.385314 27.0543186,23.7143649 C29.2721185,22.0627967 31.1093001,20.141729 32.536433,17.9850785 L33.4297358,18.5565535 C34.0737448,18.9685289 34.8980467,18.4921251 34.9194395,17.6956743 L35.0412423,13.1547784 C35.063006,12.34628 34.2434031,11.8220786 33.577754,12.2186016 L33.577754,12.2186016 Z" id="Path" fill="url(#linearGradient-31)"></path>
                    <g id="Group" transform="translate(36.250000, 15.708333)" fill="#BEC3D2">
                        <path d="M9.13838982,2.37271701 L0.683661782,2.37271701 C0.362389267,2.37271701 0.102025731,2.1094546 0.102025731,1.78489334 L0.102025731,0.702420248 C0.102025731,0.37772994 0.362516959,0.114596579 0.683661782,0.114596579 L9.13838982,0.114596579 C9.45966233,0.114596579 9.72002587,0.37785899 9.72002587,0.702420248 L9.72002587,1.78489334 C9.72002587,2.1094546 9.45966233,2.37271701 9.13838982,2.37271701 Z" id="Path"></path>
                        <path d="M13.8504718,2.37271701 L12.2702861,2.37271701 C11.9490136,2.37271701 11.68865,2.1094546 11.68865,1.78489334 L11.68865,0.702420248 C11.68865,0.37772994 11.9491412,0.114596579 12.2702861,0.114596579 L13.8504718,0.114596579 C14.1717443,0.114596579 14.4321079,0.37785899 14.4321079,0.702420248 L14.4321079,1.78489334 C14.4322356,2.1094546 14.1717443,2.37271701 13.8504718,2.37271701 Z" id="Path"></path>
                        <path d="M6.02258273,5.93437352 L0.68353409,5.93437352 C0.362261576,5.93437352 0.101898039,5.67111111 0.101898039,5.34654985 L0.101898039,4.26407676 C0.101898039,3.93938646 0.362389267,3.67625309 0.68353409,3.67625309 L6.02258273,3.67625309 C6.34385525,3.67625309 6.60421883,3.93951551 6.60421883,4.26407676 L6.60421883,5.34654985 C6.60434647,5.67124016 6.34385525,5.93437352 6.02258273,5.93437352 Z" id="Path"></path>
                        <path d="M13.8504718,5.93437352 L9.09637922,5.93437352 C8.77510671,5.93437352 8.51474317,5.67111111 8.51474317,5.34654985 L8.51474317,4.26407676 C8.51474317,3.93938646 8.7752344,3.67625309 9.09637922,3.67625309 L13.8504718,3.67625309 C14.1717443,3.67625309 14.4321079,3.93951551 14.4321079,4.26407676 L14.4321079,5.34654985 C14.4322356,5.67124016 14.1717443,5.93437352 13.8504718,5.93437352 Z" id="Path"></path>
                    </g>
                </g>
            </g>
        </g>
    </g>
</svg>