<?xml version="1.0" encoding="UTF-8"?>
<svg width="20px" height="32px" viewBox="0 0 20 32" version="1.1" xmlns="http://www.w3.org/2000/svg" xmlns:xlink="http://www.w3.org/1999/xlink">
    <!-- Generator: sketchtool 58 (101010) - https://sketch.com -->
    <title>C412B49E-41FA-4CF7-9880-E4E0FA9381CC@1.00x</title>
    <desc>Created with sketchtool.</desc>
    <g id="Web" stroke="none" stroke-width="1" fill="none" fill-rule="evenodd">
        <g id="Landing-Page-(Japanese)" transform="translate(-633.000000, -768.000000)">
            <g id="down-arrow" transform="translate(633.000000, 768.000000)">
                <rect id="Rectangle" fill="#FFCA13" x="8" y="1" width="4" height="18"></rect>
                <path d="M17.8830675,19.0820625 L12.6491262,19.0820625 L12.6491262,2.8243125 C12.6491848,1.2669375 11.4608066,0 10,0 C8.53919344,0 7.35081517,1.2669375 7.35081517,2.8243125 L7.35081517,19.0821875 L2.1168739,19.0821875 C0.949600474,19.0821875 0,20.0945625 0,21.339 C0,21.94175 0.220135188,22.5085 0.620013249,22.934875 L8.50313934,31.339 C8.90301741,31.76525 9.43462483,32 10,32 C10.5653752,32 11.0969826,31.76525 11.4969193,31.3389375 L19.3800454,22.9346875 C19.7797476,22.5084375 20,21.9416875 20,21.338875 C20,20.0945 19.0503409,19.0820625 17.8830675,19.0820625 Z M18.5344449,22.0333125 L10.651436,30.4375 C10.4773797,30.6229375 10.2461059,30.725125 10.0000586,30.725125 C9.75401138,30.725125 9.52267891,30.623 9.34873987,30.4375 L1.46567239,22.033375 C1.29173335,21.8478125 1.19588221,21.6011875 1.19588221,21.3389375 C1.19588221,20.7975 1.60906805,20.357 2.11693253,20.357 L2.11693253,20.3569375 L7.94878559,20.3569375 C8.27895906,20.3569375 8.54669739,20.0715625 8.54669739,19.7195 L8.54669739,2.8243125 C8.54669739,1.97 9.19866102,1.2749375 10,1.2749375 C10.801339,1.2749375 11.4533026,1.97 11.4534199,2.8243125 L11.4534199,19.719625 C11.4534199,20.0716875 11.7211582,20.3570625 12.0513317,20.3570625 L17.8831847,20.3570625 C18.3910492,20.3570625 18.804235,20.7975625 18.804235,21.339 C18.804235,21.60125 18.7083839,21.8479375 18.5344449,22.0333125 Z" id="Shape" fill="#000000" fill-rule="nonzero"></path>
                <path d="M14.4126197,23.6203687 C14.1421306,23.346056 13.703918,23.346056 13.4334969,23.6203687 L13.279688,23.7764301 C13.0093348,24.0508116 13.0093348,24.4955798 13.279688,24.7698925 C13.4148986,24.9070832 13.5919892,24.9756098 13.7692155,24.9756098 C13.9464418,24.9756098 14.1235324,24.9070832 14.2588108,24.7698925 L14.4126197,24.613831 C14.6829729,24.3394495 14.6829729,23.8946814 14.4126197,23.6203687 Z" id="Path" fill="#000000" fill-rule="nonzero"></path>
                <path d="M12.9621228,25.9308418 C12.808979,25.6978202 12.5608744,25.6978787 12.407769,25.9308418 L10.1148002,29.4206665 C9.96173325,29.6536296 9.96173325,30.0313537 10.1148002,30.2643167 C10.1913529,30.3808275 10.291617,30.4390244 10.3919579,30.4390244 C10.4922989,30.4390244 10.5925629,30.380769 10.6691541,30.2643752 L12.9621228,26.7745505 C13.1151898,26.5415289 13.1151898,26.1638048 12.9621228,25.9308418 Z" id="Path" fill="#000000" fill-rule="nonzero"></path>
            </g>
        </g>
    </g>
</svg>