<?xml version="1.0" encoding="UTF-8"?>
<svg width="40px" height="37px" viewBox="0 0 40 37" version="1.1" xmlns="http://www.w3.org/2000/svg" xmlns:xlink="http://www.w3.org/1999/xlink">
    <!-- Generator: sketchtool 58 (101010) - https://sketch.com -->
    <title>7605AAD5-A894-4A0D-9732-8312A6DD6F5F@1.00x</title>
    <desc>Created with sketchtool.</desc>
    <g id="Web" stroke="none" stroke-width="1" fill="none" fill-rule="evenodd">
        <g id="Landing-Page-(Japanese)" transform="translate(-1000.000000, -765.000000)">
            <g id="happy" transform="translate(1000.000000, 765.000000)">
                <path d="M3,32.0952381 C2.4477,32.0952381 2,32.539826 2,33.0882868 L2,33.1021894 C2,33.6506502 2.4477,34.0952381 3,34.0952381 C3.5523,34.0952381 4,33.6506502 4,33.1021894 L4,33.0882868 C4,32.5399253 3.5523,32.0952381 3,32.0952381 Z" id="Path" fill="#000000" fill-rule="nonzero"></path>
                <path d="M30,27.2847066 C33.7725518,23.8636014 40.8079121,18.0951807 38.4039561,13.0952381 C36,8.09529554 34.418278,11.0952381 30,11.0952381 C25.581722,11.0952381 26,7.39517292 21.1611739,13.0952381 C20.3478888,22.5290163 27.7275178,17.4910209 30,19.9478532 C32.5113402,22.6629202 24.3146118,23.0640848 30,27.2847066 Z" id="Oval" fill="#FFCA13"></path>
                <rect id="Rectangle" fill="#FFCA13" x="0" y="20" width="5" height="15"></rect>
                <path d="M10.6398988,11.322273 C10.2177477,10.973821 9.59230919,11.0330519 9.24307958,11.4547006 L9.22740393,11.4736189 C8.87837274,11.8953666 8.93770209,12.5196683 9.36015087,12.8682193 C9.54508383,13.0208528 9.76900748,13.0952381 9.99164136,13.0952381 C10.2772755,13.0952381 10.5607269,12.9727153 10.7568709,12.7356927 L10.7725466,12.7167744 C11.121677,12.2951257 11.0622484,11.670725 10.6398988,11.322273 Z" id="Path" fill="#000000" fill-rule="nonzero"></path>
                <path d="M33.7432812,9.40302369 C32.2911719,9.40302369 30.8792187,9.89795845 29.765625,10.7802495 C28.6521094,9.89788477 27.2401562,9.40302369 25.7879687,9.40302369 C22.3379687,9.40302369 19.53125,12.1097281 19.53125,15.4367773 C19.53125,16.2042689 19.7904687,17.0878862 20.3189062,18.1163661 L15.6421875,18.1163661 L17.4864844,14.3570134 C18.3227344,12.6524101 18.0265625,10.6289028 16.731875,9.20179295 L15.9620312,8.35317546 C15.8121875,8.18797615 15.5933594,8.0925555 15.3619531,8.09529554 C15.1314062,8.0971239 14.9134375,8.19490243 14.7664844,8.36245963 L11.7916406,11.7535401 C11.5165625,12.0670651 11.563125,12.5315685 11.8955469,12.7909358 C12.2279687,13.0503768 12.7204687,13.0065349 12.9954687,12.6929362 L15.3783594,9.97657918 L15.5445312,10.1597574 C16.443125,11.1503637 16.64875,12.5549263 16.0682812,13.7380687 L13.7107031,18.543659 C13.59875,18.7718581 13.6178906,19.038078 13.7614844,19.2499192 C13.905,19.4617605 14.1532031,19.5898968 14.4197656,19.5898968 L28.1239844,19.5898968 C28.8878125,19.5898968 29.5092969,20.1760522 29.5092969,20.8964597 L29.5092969,20.9358806 C29.5092969,21.6563618 28.8878125,22.2424435 28.1239844,22.2424435 L23.8952344,22.2424435 L18.0807812,22.2424435 C17.6492969,22.2424435 17.2995312,22.5723264 17.2995312,22.9792826 C17.2995312,23.3862387 17.6492969,23.7161216 18.0807812,23.7161216 L23.8952344,23.7161216 C24.2677344,23.7161216 24.6057031,23.8561947 24.8549219,24.0826253 C24.9028125,24.1338356 24.9505469,24.1848986 24.9982812,24.2355931 C25.1746094,24.4548027 25.2805469,24.726991 25.2805469,25.0227582 L25.2805469,25.0621791 C25.2805469,25.7826603 24.6590625,26.368742 23.8952344,26.368742 L18.0807812,26.368742 C17.6492969,26.368742 17.2995312,26.6986249 17.2995312,27.105581 C17.2995312,27.5125372 17.6492969,27.8424201 18.0807812,27.8424201 L23.8952344,27.8424201 C24.6590625,27.8424201 25.2805469,28.4285755 25.2805469,29.148983 L25.2805469,29.1884039 C25.2805469,29.9088851 24.6590625,30.4949668 23.8952344,30.4949668 L21.2448437,30.4949668 L18.0807812,30.4949668 C17.6492969,30.4949668 17.2995312,30.8248497 17.2995312,31.2318059 C17.2995312,31.638762 17.6492969,31.9686449 18.0807812,31.9686449 L21.2448437,31.9686449 C22.0086719,31.9686449 22.6301562,32.5548003 22.6301562,33.2752078 L22.6301562,33.3146287 C22.6301562,34.0351099 22.0086719,34.6211916 21.2448437,34.6211916 L9.93890625,34.6211916 C8.88570312,34.6211916 7.85445312,34.4372766 6.87382812,34.0746045 L5.78125,33.6708167 L5.78125,20.9167965 L8.95679687,17.2968537 C9.231875,16.9833287 9.1853125,16.5188254 8.85289062,16.2594581 C8.52054687,16.0000171 8.02796875,16.043859 7.75296875,16.3574577 L5.63039062,18.777016 C5.48828125,18.5936904 5.25921875,18.4741014 5,18.4741014 L0.78125,18.4741014 C0.349765625,18.4741014 0,18.8039843 0,19.2109405 L0,35.3583991 C0,35.7653553 0.349765625,36.0952381 0.78125,36.0952381 L5,36.0952381 C5.43148437,36.0952381 5.78125,35.7653553 5.78125,35.3583991 L5.78125,35.2537679 L6.30335937,35.4468934 C7.46640625,35.8771337 8.68960937,36.0952381 9.93890625,36.0952381 L21.2449219,36.0952381 C22.8703906,36.0952381 24.1927344,34.8479907 24.1927344,33.3149971 L24.1927344,33.2755762 C24.1927344,32.8034835 24.0669531,32.3588011 23.8460156,31.9690133 L23.8953125,31.9690133 C25.5207812,31.9690133 26.843125,30.7217659 26.843125,29.1887723 L26.843125,29.1493514 C26.843125,28.3420706 26.4760937,27.6142947 25.8915625,27.1059495 C26.2485937,26.7954455 26.5238281,26.4029314 26.6844531,25.9605332 C28.0960937,27.3539695 29.166875,28.2945445 29.2340625,28.3534179 C29.3839844,28.4847226 29.5748437,28.5503013 29.7657031,28.5503013 C29.9565625,28.5503013 30.1474219,28.4846489 30.2972656,28.3534179 C30.3569531,28.301176 31.7796094,27.052455 33.5357812,25.2706308 C33.8295312,24.9725795 33.8114844,24.5063077 33.4954687,24.2292563 C33.179375,23.9521311 32.6850781,23.9691521 32.3913281,24.2672772 C31.3061719,25.368262 30.335625,26.2747951 29.7657031,26.7951508 C29.1049219,26.1916059 27.9045312,25.0676317 26.6040625,23.7165637 L28.1239844,23.7165637 C29.7494531,23.7165637 31.0717969,22.4693163 31.0717969,20.9363227 L31.0717969,20.8969018 C31.0717969,19.3638346 29.7494531,18.1166608 28.1239844,18.1166608 L22.0821094,18.1166608 C21.2723437,16.750635 21.09375,15.9107122 21.09375,15.4367773 C21.09375,12.9223142 23.1996094,10.8767017 25.7879687,10.8767017 C27.0871094,10.8767017 28.2957812,11.3809207 29.1913281,12.2965168 C29.3392969,12.4477162 29.5474219,12.5337053 29.7655469,12.5337053 C29.9836719,12.5337053 30.191875,12.4477162 30.3397656,12.2965168 C31.2353906,11.3809207 32.4441406,10.8767017 33.7432031,10.8767017 C36.3316406,10.8767017 38.4374219,12.9223879 38.4374219,15.4367773 C38.4374219,16.1476059 38.0496875,17.5069266 36.2025,19.9459374 C35.9517187,20.2770728 36.0330469,20.7373025 36.3841406,20.9738278 C36.5217969,21.0665222 36.6803906,21.1111746 36.8375781,21.1111746 C37.0813281,21.1111746 37.3214844,21.0038908 37.4739844,20.8025864 C39.17375,18.5582485 40,16.8030979 40,15.4367773 C40,12.1097281 37.1932031,9.40302369 33.7432812,9.40302369 Z M4.21875,34.6215601 L1.5625,34.6215601 L1.5625,19.9478532 L4.21875,19.9478532 L4.21875,34.6215601 Z" id="Shape" fill="#000000" fill-rule="nonzero"></path>
                <path d="M35.6555416,21.3254993 C35.2447965,20.9789085 34.6296051,21.0292811 34.2814517,21.4381826 L34.2313394,21.4969992 C33.8830884,21.9058036 33.9337857,22.5183308 34.3445307,22.8649216 C34.5278207,23.0196306 34.7516685,23.0952381 34.9745413,23.0952381 C35.2510362,23.0952381 35.5258737,22.9787696 35.7186206,22.7523354 L35.7687329,22.6935188 C36.1168864,22.2846174 36.0661891,21.6721872 35.6555416,21.3254993 Z" id="Path" fill="#000000" fill-rule="nonzero"></path>
                <path d="M30,0.0952380952 C29.4477,0.0952380952 29,0.374688183 29,0.719428598 L29,3.47104759 C29,3.81578801 29.4477,4.0952381 30,4.0952381 C30.5523,4.0952381 31,3.81578801 31,3.47104759 L31,0.719428598 C31,0.374688183 30.5523,0.0952380952 30,0.0952380952 Z" id="Path" fill="#000000" fill-rule="nonzero"></path>
                <path d="M26.919321,3.39697179 L26.1221232,2.32809043 C25.9560453,2.10540487 25.5882928,2.02911273 25.3007532,2.15772481 C25.0131535,2.28624379 24.9146011,2.57093126 25.080679,2.79357027 L25.8778768,3.86245163 C25.9892368,4.01177756 26.1913323,4.0952381 26.3991401,4.0952381 C26.5011198,4.0952381 26.6045427,4.07512937 26.6992468,4.03281725 C26.9868465,3.90429826 27.0853989,3.61961079 26.919321,3.39697179 Z" id="Path" fill="#000000" fill-rule="nonzero"></path>
                <path d="M35.6992468,2.15767489 C35.4117072,2.02915259 35.0439547,2.10540015 34.8778768,2.3280449 L34.080679,3.3969538 C33.9146011,3.61959854 34.0131535,3.9042468 34.3007532,4.03281564 C34.3954573,4.07512885 34.49882,4.0952381 34.6008599,4.0952381 C34.8086677,4.0952381 35.0107632,4.01177541 35.1221232,3.86244563 L35.919321,2.79353673 C36.0853989,2.57089199 35.9868465,2.28619718 35.6992468,2.15767489 Z" id="Path" fill="#000000" fill-rule="nonzero"></path>
            </g>
        </g>
    </g>
</svg>