<?xml version="1.0" encoding="UTF-8"?>
<svg width="35px" height="33px" viewBox="0 0 35 33" version="1.1" xmlns="http://www.w3.org/2000/svg" xmlns:xlink="http://www.w3.org/1999/xlink">
    <!-- Generator: sketchtool 58 (101010) - https://sketch.com -->
    <title>7CA89FE7-81AF-4A1E-A47C-9FF1ECC87D57@1.00x</title>
    <desc>Created with sketchtool.</desc>
    <g id="Web" stroke="none" stroke-width="1" fill="none" fill-rule="evenodd">
        <g id="Landing-Page-(Japanese)" transform="translate(-808.000000, -767.000000)">
            <g id="scissors" transform="translate(825.500000, 783.500000) scale(-1, 1) translate(-825.500000, -783.500000) translate(808.000000, 767.000000)">
                <circle id="Oval" fill="#FFCA13" cx="5.5" cy="18.5" r="4.5"></circle>
                <rect id="Rectangle" fill="#FFCA13" transform="translate(27.114487, 13.088985) rotate(68.000000) translate(-27.114487, -13.088985) " x="25.6144872" y="6.08898533" width="3" height="14"></rect>
                <path d="M7.2083252,16.678227 C6.84104217,16.3158745 6.35275742,16.1162791 5.83336111,16.1162791 C5.3139648,16.1162791 4.82568005,16.3158745 4.45845258,16.678227 C4.09116956,17.0405796 3.88888889,17.5223824 3.88888889,18.0348837 C3.88888889,18.5473851 4.09116956,19.0292427 4.45839702,19.3915404 C4.82562449,19.7539478 5.3139648,19.9534884 5.83336111,19.9534884 C6.35275742,19.9534884 6.84104217,19.753893 7.20826964,19.3915404 C7.57549711,19.0291879 7.77777778,18.5473851 7.77777778,18.0348289 C7.77777778,17.5223275 7.57549711,17.0405247 7.2083252,16.678227 Z M6.42259175,18.6163472 C6.26520061,18.771649 6.05591985,18.8571664 5.83336111,18.8571664 C5.61080238,18.8571664 5.40152161,18.771649 5.24407492,18.6162924 C5.08668378,18.4610454 5.00001587,18.2545428 5.00001587,18.0349385 C5.00001587,17.8153343 5.08668378,17.6088865 5.24413047,17.4535299 C5.40152161,17.2982281 5.61080238,17.2126559 5.83336111,17.2126559 C6.05591985,17.2126559 6.26520061,17.2981733 6.42259175,17.4535299 C6.57998289,17.6087769 6.66665079,17.8152794 6.66665079,18.0348837 C6.66665079,18.2545428 6.57998289,18.4609906 6.42259175,18.6163472 Z" id="Shape" fill="#000000" fill-rule="nonzero"></path>
                <path d="M34.7963483,8.60145549 C34.6187472,8.43639055 34.359797,8.37554662 34.120808,8.44283588 L22.6094166,11.6822595 L26.0452927,0.828836898 C26.1166613,0.603508109 26.0521971,0.359423406 25.8769887,0.191973694 C25.701917,0.0245884353 25.4441973,-0.0396070663 25.2039095,0.024330622 L22.219419,0.821360313 C22.0254114,0.873180778 21.8655841,1.00305421 21.7826626,1.17636917 L15.8415043,13.5867905 L9.77975788,15.2926119 C8.36845167,13.7110565 6.09019533,13.0540838 3.95706871,13.6545309 C1.0292492,14.4785021 -0.641827597,17.3946279 0.23202696,20.1551633 C0.948720316,22.4191505 3.15800073,23.8861079 5.54474547,23.8861079 C6.06818319,23.8861079 6.60016599,23.8155315 7.12681666,23.6673534 C9.1736721,23.0913341 10.6631829,21.4723957 11.0084727,19.5264213 L13.9965864,19.8028615 L14.2897853,22.6201159 C12.2258397,22.9456052 10.5086878,24.3499784 9.89768005,26.279904 C9.0238255,29.0404395 10.6949706,31.9566297 13.6227902,32.7805365 C14.1402121,32.9261365 14.674109,33 15.2095782,33 C16.3779306,33 17.5425915,32.6393193 18.4891134,31.9844736 C19.4680384,31.3071981 20.1694873,30.3679844 20.5175799,29.2684109 C21.1542229,27.2572097 20.4575592,25.109174 18.7801248,23.7785353 L20.5893586,18.063331 L33.7522756,12.4617579 C33.9360291,12.383576 34.0737759,12.2328842 34.1287379,12.0499656 L34.974086,9.23612728 C35.0421049,9.00976724 34.9739493,8.76664934 34.7963483,8.60145549 Z M13.8697773,17.7054862 C13.8205576,17.8082248 13.8008014,17.9213404 13.812491,18.0335536 L13.8604802,18.4949104 L10.4648002,18.1808939 C10.2768767,18.1636204 10.0898419,18.2201459 9.94778843,18.3373221 C9.80573494,18.4544982 9.72144622,18.621819 9.71481524,18.7996457 C9.65185505,20.4886448 8.45465448,21.9484479 6.73579358,22.4321056 C4.53006792,23.0527266 2.20033598,21.8658188 1.54209101,19.7864904 C0.883914393,17.7070331 2.14263957,15.5103997 4.34816015,14.8897142 C6.07700172,14.4031562 7.93210546,15.0125623 8.96435171,16.4060429 C9.13320258,16.6338854 9.43802285,16.7339814 9.72028409,16.6545105 L15.0972616,15.14134 L13.8697773,17.7054862 Z M17.3355953,23.8346097 C17.2513066,24.1008664 17.3575391,24.3881348 17.5991941,24.54727 C19.077152,25.520644 19.7235022,27.269778 19.2075158,28.8996735 C18.6835312,30.5548346 17.0395252,31.7108693 15.2095782,31.7108693 C14.806592,31.7108693 14.4042894,31.6551171 14.0138132,31.5452887 C11.808361,30.9246677 10.5495675,28.7279698 11.2078125,26.6485125 C11.7208594,25.0278339 13.2691604,23.899063 15.060552,23.8397015 C15.2491591,23.8334496 15.4266918,23.7539786 15.5509715,23.6200446 C15.617418,23.5485015 15.664792,23.4646477 15.6923413,23.375251 C15.702322,23.3565595 15.7117558,23.3375458 15.7199591,23.3176941 L17.3530273,19.3554911 C17.4897487,19.0236854 17.3153606,18.6502429 16.9634398,18.5212718 C16.6114507,18.3921718 16.2153689,18.5567856 16.0786475,18.8885913 L15.4372193,20.4448165 L15.1910525,18.0789287 L22.8980354,1.97984419 L24.379343,1.58422975 L17.3355953,23.8346097 Z M32.8999547,11.4101376 L21.1067806,16.4288594 L22.1418979,13.1590783 L33.3195525,10.0136276 L32.8999547,11.4101376 Z" id="Shape" fill="#000000" fill-rule="nonzero"></path>
                <path d="M15.7645938,25.8874745 C15.3972751,25.525122 14.9088691,25.3255814 14.3893439,25.3255814 C13.8698186,25.3255814 13.3814126,25.525122 13.014094,25.8875293 C12.6467198,26.2498819 12.4444444,26.7316847 12.4444444,27.244186 C12.4444444,27.7566874 12.6467198,28.2384902 13.014094,28.6008427 C13.3814126,28.9632501 13.8698186,29.1627907 14.3893439,29.1627907 C14.9088691,29.1627907 15.3972751,28.9632501 15.7646493,28.6008427 C16.5229039,27.8527848 16.5229039,26.6355873 15.7645938,25.8874745 Z M14.9788319,27.8255947 C14.8213462,27.9808965 14.6120134,28.0664687 14.3893994,28.0664687 C14.1667854,28.0664687 13.9574527,27.9808965 13.7999669,27.8256495 C13.6425923,27.6703477 13.5558473,27.4638451 13.5558473,27.2442409 C13.5558473,27.0246366 13.6425923,26.818134 13.7999669,26.6628322 C13.9573972,26.5075304 14.1667299,26.4220131 14.3893994,26.4220131 C14.612069,26.4220131 14.8214017,26.5075304 14.9788319,26.6628322 C15.3037506,26.983358 15.3037506,27.5050141 14.9788319,27.8255947 Z" id="Shape" fill="#000000" fill-rule="nonzero"></path>
                <path d="M17.3951245,14.6327323 C16.9969264,14.4817927 16.5491758,14.6749833 16.394875,15.0642367 L16.3858303,15.0870628 C16.2314522,15.4762407 16.4291211,15.914094 16.8271646,16.0649581 C16.9190029,16.0997264 17.0134697,16.1162791 17.1063903,16.1162791 C17.4162288,16.1162791 17.7086736,15.9328387 17.8273368,15.6334537 L17.8363815,15.6106276 C17.9907596,15.2214497 17.793168,14.7836719 17.3951245,14.6327323 Z" id="Path" fill="#000000" fill-rule="nonzero"></path>
            </g>
        </g>
    </g>
</svg>