<?xml version="1.0" encoding="UTF-8"?>
<svg width="53px" height="59px" viewBox="0 0 53 59" version="1.1" xmlns="http://www.w3.org/2000/svg" xmlns:xlink="http://www.w3.org/1999/xlink">
    <!-- Generator: sketchtool 58 (101010) - https://sketch.com -->
    <title>F5C13DDE-0DCC-42D5-A9BB-1849B946C7D6@1.00x</title>
    <desc>Created with sketchtool.</desc>
    <defs>
        <linearGradient x1="51.6341141%" y1="8.33319394%" x2="51.0502383%" y2="23.2110505%" id="linearGradient-1">
            <stop stop-color="#FFB92D" offset="0%"></stop>
            <stop stop-color="#F59500" offset="100%"></stop>
        </linearGradient>
        <linearGradient x1="54.6406035%" y1="15.9074809%" x2="52.9763632%" y2="28.1314023%" id="linearGradient-2">
            <stop stop-color="#FFB92D" offset="0%"></stop>
            <stop stop-color="#F59500" offset="100%"></stop>
        </linearGradient>
        <linearGradient x1="49.9986374%" y1="57.7600336%" x2="49.9986374%" y2="84.5056149%" id="linearGradient-3">
            <stop stop-color="#A7F3CE" offset="0%"></stop>
            <stop stop-color="#61DB99" offset="100%"></stop>
        </linearGradient>
        <linearGradient x1="49.9988742%" y1="18.2844428%" x2="49.9988742%" y2="104.441226%" id="linearGradient-4">
            <stop stop-color="#FF4C54" offset="0%"></stop>
            <stop stop-color="#BE3F45" offset="100%"></stop>
        </linearGradient>
        <linearGradient x1="49.9988742%" y1="18.2782067%" x2="49.9988742%" y2="104.441195%" id="linearGradient-5">
            <stop stop-color="#FF4C54" offset="0%"></stop>
            <stop stop-color="#BE3F45" offset="100%"></stop>
        </linearGradient>
        <linearGradient x1="62.2906955%" y1="50.0012475%" x2="13.9350935%" y2="50.0012475%" id="linearGradient-6">
            <stop stop-color="#BE3F45" stop-opacity="0" offset="0%"></stop>
            <stop stop-color="#BE3F45" offset="100%"></stop>
        </linearGradient>
        <linearGradient x1="33.012784%" y1="44.270236%" x2="75.1631252%" y2="63.8079956%" id="linearGradient-7">
            <stop stop-color="#FFB92D" offset="0%"></stop>
            <stop stop-color="#F59500" offset="100%"></stop>
        </linearGradient>
        <linearGradient x1="48.6560335%" y1="51.8721661%" x2="46.9137421%" y2="56.3796462%" id="linearGradient-8">
            <stop stop-color="#BE3F45" stop-opacity="0" offset="0%"></stop>
            <stop stop-color="#BE3F45" offset="100%"></stop>
        </linearGradient>
        <linearGradient x1="49.9950386%" y1="0.0414039654%" x2="49.9950386%" y2="2091.41819%" id="linearGradient-9">
            <stop stop-color="#FFF465" offset="0%"></stop>
            <stop stop-color="#FFE600" offset="100%"></stop>
        </linearGradient>
        <linearGradient x1="49.9986407%" y1="-1.40577025%" x2="49.9986407%" y2="100.000617%" id="linearGradient-10">
            <stop stop-color="#FFF465" offset="0%"></stop>
            <stop stop-color="#FFE600" offset="100%"></stop>
        </linearGradient>
        <linearGradient x1="49.9933355%" y1="-1737.58856%" x2="49.9933355%" y2="322.344674%" id="linearGradient-11">
            <stop stop-color="#FFF465" offset="0%"></stop>
            <stop stop-color="#FFE600" offset="100%"></stop>
        </linearGradient>
        <linearGradient x1="61.995806%" y1="52.5278768%" x2="20.9195773%" y2="-10.5191309%" id="linearGradient-12">
            <stop stop-color="#BE3F45" stop-opacity="0" offset="0%"></stop>
            <stop stop-color="#BE3F45" offset="100%"></stop>
        </linearGradient>
        <linearGradient x1="49.9891747%" y1="18.6200785%" x2="49.9891747%" y2="90.9236153%" id="linearGradient-13">
            <stop stop-color="#FF4C54" offset="0%"></stop>
            <stop stop-color="#BE3F45" offset="100%"></stop>
        </linearGradient>
        <linearGradient x1="49.984314%" y1="81.3971613%" x2="49.984314%" y2="9.10170122%" id="linearGradient-14">
            <stop stop-color="#FF4C54" offset="0%"></stop>
            <stop stop-color="#BE3F45" offset="100%"></stop>
        </linearGradient>
        <linearGradient x1="-423.973341%" y1="-2042.80783%" x2="-323.983301%" y2="-1601.23181%" id="linearGradient-15">
            <stop stop-color="#A7F3CE" offset="0%"></stop>
            <stop stop-color="#61DB99" offset="100%"></stop>
        </linearGradient>
        <linearGradient x1="-423.977197%" y1="-2042.78688%" x2="-323.987157%" y2="-1601.21181%" id="linearGradient-16">
            <stop stop-color="#A7F3CE" offset="0%"></stop>
            <stop stop-color="#61DB99" offset="100%"></stop>
        </linearGradient>
        <linearGradient x1="-463.540828%" y1="-2217.54156%" x2="-363.550788%" y2="-1775.9665%" id="linearGradient-17">
            <stop stop-color="#A7F3CE" offset="0%"></stop>
            <stop stop-color="#61DB99" offset="100%"></stop>
        </linearGradient>
        <linearGradient x1="-463.543731%" y1="-2217.52061%" x2="-363.553692%" y2="-1775.94555%" id="linearGradient-18">
            <stop stop-color="#A7F3CE" offset="0%"></stop>
            <stop stop-color="#61DB99" offset="100%"></stop>
        </linearGradient>
    </defs>
    <g id="Page-1" stroke="none" stroke-width="1" fill="none" fill-rule="evenodd">
        <g id="Home" transform="translate(-428.000000, -1754.000000)" fill-rule="nonzero">
            <g id="Group-4" transform="translate(280.000000, 1699.000000)">
                <g id="purse" transform="translate(148.000000, 55.000000)">
                    <path d="M48.7127954,53.8983051 L4.28720464,53.8983051 C1.91946561,53.8983051 0,51.96845 0,49.5878951 L0,12.3951558 C0,10.0146009 1.91946561,8.08474576 4.28720464,8.08474576 L48.7127954,8.08474576 C51.0805344,8.08474576 53,10.0146009 53,12.3951558 L53,49.5878951 C53,51.96845 51.0805344,53.8983051 48.7127954,53.8983051 Z" id="Path" fill="url(#linearGradient-1)"></path>
                    <path d="M47.1341799,53 L4.96762799,53 C2.72023986,53 0.898305085,51.1457577 0.898305085,48.8585177 L0.898305085,13.1245331 C0.898305085,10.8372931 2.72012686,8.98305085 4.96762799,8.98305085 L47.1340669,8.98305085 C49.3814551,8.98305085 51.2033898,10.8371781 51.2033898,13.1245331 L51.2033898,48.8586327 C51.2033898,51.1458727 49.3815681,53 47.1341799,53 Z" id="Path" fill="url(#linearGradient-2)"></path>
                    <path d="M50.3050847,19.7627119 L39.6835284,1.28699536 C38.976103,0.0562725635 37.4089585,-0.365436495 36.1834856,0.345246595 L2.69491525,19.7627119 L50.3050847,19.7627119 Z" id="Path" fill="url(#linearGradient-3)"></path>
                    <path d="M0,35.0338983 L53,35.0338983 L53,21.1410973 C53,19.387555 51.5637279,17.9661017 49.7919047,17.9661017 L3.20809529,17.9661017 C1.43627213,17.9661017 0,19.387555 0,21.1410973 L0,35.0338983 Z" id="Path" fill="url(#linearGradient-4)"></path>
                    <path d="M0,29.6286217 L0,49.5600511 C0,51.9559201 1.91946561,53.8983051 4.28731838,53.8983051 L48.7127954,53.8983051 C51.0805344,53.8983051 53,51.9560352 53,49.5601662 L53,29.6286217 C53,28.1488135 51.8144243,26.9491525 50.3519906,26.9491525 L2.64800944,26.9491525 C1.18557571,26.9491525 0,28.1486984 0,29.6286217 Z" id="Path" fill="url(#linearGradient-5)"></path>
                    <path d="M44.9152542,19.7627119 L44.9152542,53.8983051 L48.6651566,53.8983051 C51.0592056,53.8983051 53,51.9793357 53,49.6122089 L53,27.7565411 L44.9152542,19.7627119 Z" id="Path" fill="url(#linearGradient-6)"></path>
                    <path d="M41.431175,58.3574253 L4.18841178,54.0110098 C1.80095444,53.7322936 0,51.700389 0,49.2851925 L0,11.6779661 C0,12.4861971 0.602671294,13.1660539 1.40141286,13.2593025 L42.5234526,18.0585746 C44.91091,18.3372907 46.7118644,20.3691953 46.7118644,22.7843918 L46.7118644,53.6317224 C46.7118644,56.4766635 44.2434512,58.6857977 41.431175,58.3574253 Z" id="Path" fill="url(#linearGradient-7)"></path>
                    <path d="M41.431074,51.0485405 L4.18840157,46.8190379 C1.80095005,46.5478189 0,44.5705698 0,42.220339 L0,49.5301148 C0,51.8803456 1.80095005,53.857706 4.18840157,54.1288137 L41.431074,58.3583163 C44.2433434,58.6777446 46.7118644,56.5281446 46.7118644,53.7596174 L46.7118644,46.4498416 C46.7118644,49.2183688 44.2433434,51.3678575 41.431074,51.0485405 Z" id="Path" fill="url(#linearGradient-8)"></path>
                    <path d="M3.59155414,17.9661017 C3.55876633,17.9661017 3.52549987,17.9643809 3.49211374,17.9611545 L1.70098991,17.7841298 C1.20630085,17.7351953 0.849344518,17.3353303 0.903791428,16.8908328 C0.958238337,16.4463352 1.40350636,16.125841 1.89771677,16.1743453 L3.6888406,16.35137 C4.18352966,16.4003045 4.54048599,16.8001695 4.48603908,17.244667 C4.43530174,17.6592661 4.04495928,17.9661017 3.59155414,17.9661017 Z" id="Path" fill="url(#linearGradient-9)"></path>
                    <path d="M38.4475016,55.6949153 C38.4119632,55.6949153 38.3757501,55.692501 38.339537,55.6879023 L35.0678731,55.2626409 C34.6040753,55.2023984 34.275683,54.7689744 34.3347262,54.2946223 C34.3937693,53.8205001 34.8176427,53.4867521 35.2816654,53.5451552 L38.5533293,53.9704165 C39.0171271,54.030659 39.3456318,54.464083 39.2864763,54.9384352 C39.2319317,55.3755381 38.8675512,55.6949153 38.4475016,55.6949153 Z M41.6677698,55.2664348 C41.3501741,55.2664348 41.0455115,55.0828332 40.9012214,54.7694343 C40.7018243,54.337045 40.8832273,53.8211899 41.3063135,53.6175841 C42.165419,53.2037044 42.8115195,52.5173539 43.0790692,51.7342016 C43.2332561,51.2830727 43.7163976,51.0450919 44.1577028,51.2023662 C44.5991204,51.3599854 44.832144,51.8536518 44.6779571,52.3050106 C44.2554332,53.5418211 43.3144545,54.5642189 42.0281016,55.1836589 C41.9114774,55.2397626 41.7887801,55.2664348 41.6677698,55.2664348 Z M31.9042862,54.8443925 C31.8687479,54.8443925 31.8325347,54.8419782 31.7963216,54.8373795 L28.5246577,54.4121181 C28.0608599,54.3518757 27.7323552,53.9184516 27.7915108,53.4440995 C27.8505539,52.9699774 28.2744273,52.6361144 28.7384501,52.6946324 L32.010114,53.1198938 C32.4739118,53.1801363 32.8024165,53.6135603 32.7432609,54.0879124 C32.6887163,54.5249004 32.3241109,54.8443925 31.9042862,54.8443925 Z M25.3610708,53.9937548 C25.3255325,53.9937548 25.2894318,53.9913405 25.2531063,53.9867418 L21.9814423,53.5614804 C21.5176445,53.5012379 21.1891398,53.0678139 21.2482954,52.5934618 C21.3073386,52.1193396 21.7313244,51.7838671 22.1952347,51.8439947 L25.4668986,52.269256 C25.9306964,52.3294985 26.2592011,52.7629225 26.2000455,53.2372747 C26.1455009,53.6742626 25.7808956,53.9937548 25.3610708,53.9937548 Z M18.8176305,53.143117 C18.7820922,53.143117 18.7459916,53.1407027 18.709666,53.1361041 L15.4378896,52.7107277 C14.9739793,52.6503703 14.6455871,52.2170612 14.7047427,51.7427091 C14.7637858,51.268472 15.1878841,50.934609 15.6516819,50.993242 L18.9234583,51.4186183 C19.3873686,51.4789758 19.7157608,51.9122848 19.6566052,52.3866369 C19.6022856,52.8238548 19.2376802,53.143117 18.8176305,53.143117 Z M12.2744152,52.2924793 C12.2388768,52.2924793 12.2027762,52.290065 12.1664506,52.2854663 L8.89467423,51.86009 C8.43076396,51.7997325 8.10237172,51.3664235 8.16152731,50.8920714 C8.22057044,50.4178342 8.64466877,50.0838563 9.10846658,50.1426042 L12.380243,50.5679806 C12.8441532,50.628338 13.1725455,51.0616471 13.1133899,51.5359992 C13.0589577,51.9732171 12.6944648,52.2924793 12.2744152,52.2924793 Z M44.0685195,49.5361555 C43.6007855,49.5361555 43.2217849,49.1487181 43.2217849,48.6705721 L43.2217849,45.2991771 C43.2217849,44.8210311 43.6007855,44.4335937 44.0685195,44.4335937 C44.5362536,44.4335937 44.9152542,44.8210311 44.9152542,45.2991771 L44.9152542,48.6705721 C44.9153667,49.1487181 44.536366,49.5361555 44.0685195,49.5361555 Z M44.0685195,42.7934805 C43.6007855,42.7934805 43.2217849,42.4060431 43.2217849,41.9278971 L43.2217849,38.5565021 C43.2217849,38.0783561 43.6007855,37.6909187 44.0685195,37.6909187 C44.5362536,37.6909187 44.9152542,38.0783561 44.9152542,38.5565021 L44.9152542,41.9278971 C44.9153667,42.4059282 44.536366,42.7934805 44.0685195,42.7934805 Z M44.0685195,36.0506905 C43.6007855,36.0506905 43.2217849,35.6632531 43.2217849,35.1851071 L43.2217849,31.8137121 C43.2217849,31.3355661 43.6007855,30.9481288 44.0685195,30.9481288 C44.5362536,30.9481288 44.9152542,31.3355661 44.9152542,31.8137121 L44.9152542,35.1851071 C44.9153667,35.6631382 44.536366,36.0506905 44.0685195,36.0506905 Z M44.0685195,29.3079005 C43.6007855,29.3079005 43.2217849,28.9204632 43.2217849,28.4423172 L43.2217849,25.0709222 C43.2217849,24.5927762 43.6007855,24.2053388 44.0685195,24.2053388 C44.5362536,24.2053388 44.9152542,24.5927762 44.9152542,25.0709222 L44.9152542,28.4423172 C44.9153667,28.9203482 44.536366,29.3079005 44.0685195,29.3079005 Z M42.8842831,22.9105851 C42.6752142,22.9105851 42.4656955,22.831833 42.3020617,22.6732941 C41.6744052,22.0653508 40.8033785,21.6780284 39.8491291,21.5824912 L39.826749,21.5800769 C39.3617141,21.5289168 39.0253369,21.1020459 39.0754955,20.626774 C39.1255416,20.1513872 39.5430046,19.8074072 40.0080395,19.8587972 L40.0224348,19.8604068 C41.3412895,19.9925034 42.5673621,20.5454926 43.4669544,21.4165944 C43.8064805,21.7453988 43.8208758,22.2933296 43.4992314,22.6404137 C43.332561,22.8198765 43.108647,22.9105851 42.8842831,22.9105851 Z M36.6399947,21.2166675 C36.6091798,21.2166675 36.5779151,21.2148281 36.5465379,21.2113791 L33.2683511,20.8429112 C32.8035411,20.7906014 32.4679512,20.3631556 32.5191219,19.8879988 C32.5702926,19.4128419 32.9887678,19.0708163 33.4532404,19.1220914 L36.7314272,19.4905593 C37.1962372,19.5428691 37.531827,19.9703148 37.4806563,20.4454717 C37.4330844,20.8885529 37.0661174,21.2166675 36.6399947,21.2166675 Z M30.0837336,20.4797318 C30.0529187,20.4797318 30.021654,20.4778923 29.9902768,20.4744433 L26.7119775,20.1059754 C26.2471676,20.0536656 25.9115777,19.6262199 25.9627484,19.151063 C26.0138066,18.6757911 26.4329566,18.3334207 26.8968669,18.3851556 L30.1751661,18.7536235 C30.6399761,18.8059333 30.975566,19.233379 30.9243952,19.7085359 C30.8767109,20.1517321 30.5098563,20.4797318 30.0837336,20.4797318 Z M23.5271351,19.7429109 C23.4963202,19.7429109 23.4650555,19.7410715 23.4336783,19.7376225 L20.1554915,19.3691546 C19.6906816,19.3168448 19.3550917,18.889399 19.4062624,18.4142422 C19.4573206,17.9390853 19.8755709,17.5967148 20.3403809,17.6483348 L23.6185676,18.0168027 C24.0833776,18.0691125 24.4189675,18.4965582 24.3677968,18.9717151 C24.3202249,19.4147963 23.9533703,19.7429109 23.5271351,19.7429109 Z M16.9706491,19.0060901 C16.9398342,19.0060901 16.9085695,19.0042507 16.8771923,19.0008017 L13.5990055,18.6323338 C13.1340831,18.580024 12.7986057,18.1525782 12.8497764,17.6774213 C12.9008346,17.2023794 13.318635,16.8601239 13.7838948,16.911514 L17.0620816,17.2799819 C17.5268916,17.3322917 17.8624815,17.7597374 17.8113108,18.2348943 C17.7638513,18.6779755 17.3968843,19.0060901 16.9706491,19.0060901 Z M10.4141631,18.2691543 C10.3833482,18.2691543 10.3520835,18.2673149 10.3207063,18.2638659 L7.04251951,17.895398 C6.57770954,17.8430882 6.24211966,17.4156424 6.29329037,16.9404856 C6.34446108,16.4654436 6.76237394,16.1233031 7.22740884,16.1745782 L10.5055956,16.5430461 C10.9705181,16.5953559 11.3059955,17.0228016 11.2548248,17.4979585 C11.2072529,17.9410397 10.8402858,18.2691543 10.4141631,18.2691543 Z" id="Shape" fill="url(#linearGradient-10)"></path>
                    <path d="M5.38730124,51.2033898 C5.34945325,51.2033898 5.31112616,51.2012711 5.27243976,51.1969278 L3.48316379,50.9957583 C2.98910373,50.9402486 2.63924931,50.5408757 2.70224946,50.103896 C2.76501006,49.6669163 3.21655102,49.3577995 3.71061108,49.4132032 L5.49988705,49.6143728 C5.99394712,49.6698824 6.34380154,50.0692554 6.28080139,50.5062351 C6.22283168,50.9091039 5.83453041,51.2033898 5.38730124,51.2033898 Z" id="Path" fill="url(#linearGradient-11)"></path>
                    <path d="M36.9912109,6.52657237 L31.7316103,9.69117082 C31.0464914,10.1033096 30.1889193,9.82344143 29.8160714,9.06590255 L29.8160714,9.06590255 C29.4433326,8.30836367 29.6964457,7.36014271 30.3815647,6.94788322 L35.6412744,3.78340545 C36.3263933,3.37126665 37.1839654,3.65113484 37.5568133,4.40867372 L37.5568133,4.40867372 C37.9295521,5.16609192 37.676439,6.11443356 36.9912109,6.52657237 Z" id="Path" fill="#61DB99"></path>
                    <path d="M46.7118644,41.9067691 L41.3383749,36.4084495 C40.5802524,35.5637128 39.4923404,35.0338983 38.2831873,35.0338983 C35.992527,35.0338983 34.1355932,36.9341247 34.1355932,39.2779328 C34.1355932,40.5152013 34.6533683,41.6285245 35.4789094,42.40416 L46.7118644,53.8983051 L46.7118644,41.9067691 L46.7118644,41.9067691 Z" id="Path" fill="url(#linearGradient-12)"></path>
                    <circle id="Oval" fill="url(#linearGradient-13)" cx="38.1779661" cy="39.0762712" r="4.04237288"></circle>
                    <circle id="Oval" fill="url(#linearGradient-14)" cx="37.7288136" cy="38.6271186" r="2.69491525"></circle>
                    <circle id="Oval" fill="url(#linearGradient-15)" cx="37.279661" cy="38.1779661" r="1"></circle>
                    <circle id="Oval" fill="url(#linearGradient-16)" cx="39.0762712" cy="38.1779661" r="1"></circle>
                    <circle id="Oval" fill="url(#linearGradient-17)" cx="37.279661" cy="39.9745763" r="1"></circle>
                    <circle id="Oval" fill="url(#linearGradient-18)" cx="39.0762712" cy="39.9745763" r="1"></circle>
                </g>
            </g>
        </g>
    </g>
</svg>