<?xml version="1.0" encoding="UTF-8"?>
<svg width="67px" height="59px" viewBox="0 0 67 59" version="1.1" xmlns="http://www.w3.org/2000/svg" xmlns:xlink="http://www.w3.org/1999/xlink">
    <!-- Generator: sketchtool 58 (101010) - https://sketch.com -->
    <title>35772DFB-8BDA-4BF4-B61B-321E75B70246@1.00x</title>
    <desc>Created with sketchtool.</desc>
    <defs>
        <linearGradient x1="15.777599%" y1="48.379421%" x2="70.3234416%" y2="53.342197%" id="linearGradient-1">
            <stop stop-color="#7E8595" offset="0%"></stop>
            <stop stop-color="#555A66" offset="100%"></stop>
        </linearGradient>
        <linearGradient x1="57.5850431%" y1="55.972302%" x2="-44.0756522%" y2="33.2407781%" id="linearGradient-2">
            <stop stop-color="#BEC3D2" stop-opacity="0" offset="0%"></stop>
            <stop stop-color="#C5C9D7" stop-opacity="0.221" offset="22.1%"></stop>
            <stop stop-color="#D7DAE3" stop-opacity="0.534" offset="53.43%"></stop>
            <stop stop-color="#F6F6F8" stop-opacity="0.901" offset="90.14%"></stop>
            <stop stop-color="#FFFFFF" offset="100%"></stop>
        </linearGradient>
        <linearGradient x1="90.7244936%" y1="78.6011141%" x2="2.61944255%" y2="-20.8583192%" id="linearGradient-3">
            <stop stop-color="#555A66" stop-opacity="0" offset="0%"></stop>
            <stop stop-color="#555A66" offset="100%"></stop>
        </linearGradient>
        <linearGradient x1="43.8981253%" y1="39.1482835%" x2="76.4572087%" y2="97.0509363%" id="linearGradient-4">
            <stop stop-color="#7E8595" offset="0%"></stop>
            <stop stop-color="#555A66" offset="100%"></stop>
        </linearGradient>
        <linearGradient x1="92.6242036%" y1="79.1157343%" x2="-29.34162%" y2="-4.19705798%" id="linearGradient-5">
            <stop stop-color="#7E8595" offset="0%"></stop>
            <stop stop-color="#555A66" offset="100%"></stop>
        </linearGradient>
        <linearGradient x1="102.137368%" y1="101.462085%" x2="51.9518402%" y2="58.1263108%" id="linearGradient-6">
            <stop stop-color="#555A66" stop-opacity="0" offset="0%"></stop>
            <stop stop-color="#555A66" offset="100%"></stop>
        </linearGradient>
        <linearGradient x1="44.04148%" y1="39.3744963%" x2="75.8349394%" y2="96.0701621%" id="linearGradient-7">
            <stop stop-color="#18CFFC" offset="0%"></stop>
            <stop stop-color="#4A98F7" offset="100%"></stop>
        </linearGradient>
        <linearGradient x1="68.5808198%" y1="50.0001614%" x2="-28.1225831%" y2="50.0001614%" id="linearGradient-8">
            <stop stop-color="#0469BC" stop-opacity="0" offset="0%"></stop>
            <stop stop-color="#0469BC" offset="100%"></stop>
        </linearGradient>
        <linearGradient x1="50%" y1="83.3064382%" x2="50%" y2="-34.3748261%" id="linearGradient-9">
            <stop stop-color="#0469BC" stop-opacity="0" offset="0%"></stop>
            <stop stop-color="#0469BC" offset="100%"></stop>
        </linearGradient>
        <linearGradient x1="102.8071%" y1="88.5502871%" x2="47.5371479%" y2="52.3573656%" id="linearGradient-10">
            <stop stop-color="#0469BC" stop-opacity="0" offset="0%"></stop>
            <stop stop-color="#0469BC" offset="100%"></stop>
        </linearGradient>
        <linearGradient x1="65.6992398%" y1="72.5993012%" x2="2.46371276%" y2="-18.4286708%" id="linearGradient-11">
            <stop stop-color="#18CFFC" stop-opacity="0" offset="0%"></stop>
            <stop stop-color="#65E1DC" offset="100%"></stop>
        </linearGradient>
        <linearGradient x1="9.43340235e-15%" y1="49.9971427%" x2="100.001327%" y2="49.9971427%" id="linearGradient-12">
            <stop stop-color="#F9F7FC" offset="0%"></stop>
            <stop stop-color="#F0DDFC" offset="100%"></stop>
        </linearGradient>
        <linearGradient x1="-0.00465441005%" y1="49.9971427%" x2="100%" y2="49.9971427%" id="linearGradient-13">
            <stop stop-color="#F9F7FC" offset="0%"></stop>
            <stop stop-color="#F0DDFC" offset="100%"></stop>
        </linearGradient>
        <linearGradient x1="1.39535512e-14%" y1="50.0028573%" x2="100%" y2="50.0028573%" id="linearGradient-14">
            <stop stop-color="#F9F7FC" offset="0%"></stop>
            <stop stop-color="#F0DDFC" offset="100%"></stop>
        </linearGradient>
        <linearGradient x1="-0.00215791632%" y1="50.0028573%" x2="100%" y2="50.0028573%" id="linearGradient-15">
            <stop stop-color="#F9F7FC" offset="0%"></stop>
            <stop stop-color="#F0DDFC" offset="100%"></stop>
        </linearGradient>
        <linearGradient x1="50%" y1="7.96756613%" x2="50%" y2="117.671142%" id="linearGradient-16">
            <stop stop-color="#F9F7FC" offset="0%"></stop>
            <stop stop-color="#F0DDFC" offset="100%"></stop>
        </linearGradient>
        <linearGradient x1="50.0001323%" y1="106.338493%" x2="50.0001323%" y2="-20.9123705%" id="linearGradient-17">
            <stop stop-color="#F9F7FC" offset="0%"></stop>
            <stop stop-color="#F0DDFC" offset="100%"></stop>
        </linearGradient>
        <linearGradient x1="50%" y1="29.3902746%" x2="50%" y2="83.9821114%" id="linearGradient-18">
            <stop stop-color="#7E8595" offset="0%"></stop>
            <stop stop-color="#555A66" offset="100%"></stop>
        </linearGradient>
        <linearGradient x1="121.695334%" y1="87.5007939%" x2="25.5885824%" y2="35.1187232%" id="linearGradient-19">
            <stop stop-color="#F0DDFC" stop-opacity="0" offset="0%"></stop>
            <stop stop-color="#C8B7E0" stop-opacity="0.289" offset="28.89%"></stop>
            <stop stop-color="#A595C8" stop-opacity="0.592" offset="59.15%"></stop>
            <stop stop-color="#8F81B8" stop-opacity="0.84" offset="83.95%"></stop>
            <stop stop-color="#8779B3" offset="100%"></stop>
        </linearGradient>
        <linearGradient x1="78.4962045%" y1="82.7065189%" x2="21.8447796%" y2="17.6858922%" id="linearGradient-20">
            <stop stop-color="#E9EDF5" stop-opacity="0" offset="0%"></stop>
            <stop stop-color="#FFFFFF" offset="100%"></stop>
        </linearGradient>
        <linearGradient x1="39.5666432%" y1="60.5785906%" x2="75.3873723%" y2="24.7578615%" id="linearGradient-21">
            <stop stop-color="#7E8595" offset="0%"></stop>
            <stop stop-color="#555A66" offset="100%"></stop>
        </linearGradient>
        <linearGradient x1="84.5771617%" y1="65.0207573%" x2="13.0581177%" y2="45.5922643%" id="linearGradient-22">
            <stop stop-color="#555A66" stop-opacity="0" offset="0%"></stop>
            <stop stop-color="#555A66" offset="100%"></stop>
        </linearGradient>
        <linearGradient x1="32.4928654%" y1="32.4924702%" x2="97.7679313%" y2="97.767536%" id="linearGradient-23">
            <stop stop-color="#FFDA45" offset="0%"></stop>
            <stop stop-color="#FFA425" offset="100%"></stop>
        </linearGradient>
        <linearGradient x1="32.4927553%" y1="32.4922591%" x2="80.7421301%" y2="80.7416339%" id="linearGradient-24">
            <stop stop-color="#FFDA45" offset="0%"></stop>
            <stop stop-color="#FFA425" offset="100%"></stop>
        </linearGradient>
        <linearGradient x1="54.3693386%" y1="70.6915579%" x2="9.52785592%" y2="-67.9566721%" id="linearGradient-25">
            <stop stop-color="#FFDA45" stop-opacity="0" offset="0%"></stop>
            <stop stop-color="#B53759" offset="100%"></stop>
        </linearGradient>
        <linearGradient x1="49.2359254%" y1="74.9921344%" x2="49.2359254%" y2="-16.575336%" id="linearGradient-26">
            <stop stop-color="#BEC3D2" offset="0%"></stop>
            <stop stop-color="#808797" offset="97%"></stop>
            <stop stop-color="#7E8595" offset="100%"></stop>
        </linearGradient>
        <linearGradient x1="59.1499251%" y1="103.135763%" x2="45.0560724%" y2="26.2815232%" id="linearGradient-27">
            <stop stop-color="#BEC3D2" offset="0%"></stop>
            <stop stop-color="#7E8595" stop-opacity="0" offset="100%"></stop>
        </linearGradient>
        <linearGradient x1="67.9831769%" y1="65.9989581%" x2="133.01714%" y2="98.2254843%" id="linearGradient-28">
            <stop stop-color="#7E8595" stop-opacity="0" offset="0%"></stop>
            <stop stop-color="#7E8595" offset="100%"></stop>
        </linearGradient>
        <linearGradient x1="60.5975223%" y1="59.8962925%" x2="41.8158197%" y2="41.1150102%" id="linearGradient-29">
            <stop stop-color="#7E8595" stop-opacity="0" offset="0%"></stop>
            <stop stop-color="#7E8595" offset="100%"></stop>
        </linearGradient>
        <linearGradient x1="56.8819691%" y1="41.2813921%" x2="30.5817332%" y2="67.5818923%" id="linearGradient-30">
            <stop stop-color="#FF7044" offset="0%"></stop>
            <stop stop-color="#F92814" offset="100%"></stop>
        </linearGradient>
        <linearGradient x1="36.9977892%" y1="53.8552293%" x2="94.6800902%" y2="35.4203941%" id="linearGradient-31">
            <stop stop-color="#FF7044" stop-opacity="0" offset="0%"></stop>
            <stop stop-color="#FFA425" offset="100%"></stop>
        </linearGradient>
        <linearGradient x1="47.6998859%" y1="44.2774067%" x2="29.3396717%" y2="-1.40473953%" id="linearGradient-32">
            <stop stop-color="#FFDA45" stop-opacity="0" offset="0%"></stop>
            <stop stop-color="#FCEE21" offset="100%"></stop>
        </linearGradient>
    </defs>
    <g id="Page-1" stroke="none" stroke-width="1" fill="none" fill-rule="evenodd">
        <g id="Home" transform="translate(-421.000000, -2072.000000)" fill-rule="nonzero">
            <g id="Group-4-Copy-2" transform="translate(280.000000, 2017.000000)">
                <g id="research" transform="translate(141.000000, 55.000000)">
                    <path d="M36.2408565,47.722116 L35.6366628,44 L31.3634095,44 L30.7592157,47.722116 C30.1209793,51.6541414 28.174659,55.0592457 25.4081146,57.0842132 C24.6848995,57.6136282 24.9847567,59 25.822514,59 L41.1774303,59 C42.0151876,59 42.3151728,57.6136282 41.5918296,57.0842132 C38.8254133,55.0592457 36.8790929,51.6541414 36.2408565,47.722116 Z" id="Path" fill="url(#linearGradient-1)"></path>
                    <path d="M41.5566782,57.0842132 C38.5514143,55.0591072 36.4372889,51.6541414 35.7438413,47.722116 L35.0875129,44 L32.9124953,44 L32.2561669,47.722116 C31.5628584,51.6541414 29.448594,55.0592457 26.44333,57.0842132 C25.6577101,57.6136282 25.9834414,59 26.8934871,59 L41.1063821,59 C42.0165668,59 42.3422981,57.6136282 41.5566782,57.0842132 L41.5566782,57.0842132 Z" id="Path" fill="url(#linearGradient-2)"></path>
                    <path d="M42.556233,56.8077113 C39.545808,54.8254008 37.4280519,51.4922548 36.7334134,47.6434585 L36.0759579,44 L31.4260022,44 L31,46.3609784 L42.9510405,58 C43.0754014,57.5832211 42.9695624,57.0799128 42.556233,56.8077113 L42.556233,56.8077113 Z" id="Path" fill="url(#linearGradient-3)"></path>
                    <path d="M64.911041,47 L2.08909037,47 C0.935374383,47 0,46.0626934 0,44.9065943 L0,2.09340575 C0,0.937174916 0.935374383,0 2.08909037,0 L64.9109096,0 C66.064757,0 67,0.93730656 67,2.09340575 L67,44.9065943 C67,46.0626934 66.064757,47 64.911041,47 Z" id="Path" fill="url(#linearGradient-4)"></path>
                    <path d="M64.0161363,45 L3.98399363,45 C2.88827005,45 2,44.1174367 2,43.0287527 L2,2.97124729 C2,1.88256328 2.88827005,1 3.98399363,1 L64.0160064,1 C65.1117299,1 66,1.88256328 66,2.97124729 L66,43.0286236 C66,44.1174367 65.1118599,45 64.0161363,45 Z" id="Path" fill="url(#linearGradient-5)"></path>
                    <path d="M67,44.9141251 L67,29.8574739 L53.4295133,16.1861595 C50.4277371,12.9924873 46.1797342,11 41.4692786,11 C32.3735946,11 25,18.4283799 25,27.5916442 C25,32.336967 26.9779226,36.6166634 30.1479108,39.6407427 L37.4528927,47 L64.9295087,47 C66.0730115,47 67,46.0659929 67,44.9141251 L67,44.9141251 Z" id="Path" fill="url(#linearGradient-6)"></path>
                    <path d="M62.3072325,45 L4.69263508,45 C3.75781331,45 3,44.2242 3,43.2671903 L3,4.73294523 C3,3.77593551 3.75781331,3 4.69263508,3 L62.3072325,3 C63.2420543,3 64,3.77579998 64,4.73294523 L64,43.2671903 C64,44.2242 63.2421867,45 62.3072325,45 Z" id="Path" fill="url(#linearGradient-7)"></path>
                    <path d="M9,3 L4.85397332,3 C3.8300464,3 3,3.77580248 3,4.73295082 L3,43.2671847 C3,44.2241975 3.8300464,45 4.85397332,45 L9,45 L9,3 Z" id="Path" fill="url(#linearGradient-8)"></path>
                    <path d="M62.3072325,4 L4.69263508,4 C3.75781331,4 3,4.7962829 3,5.77869902 L3,9 L64,9 L64,5.7785599 C64,4.7962829 63.2421867,4 62.3072325,4 Z" id="Path" fill="url(#linearGradient-9)"></path>
                    <path d="M63,26.5472907 L63,42.3176051 C63,43.3107311 62.218584,44 61.202481,44 L33.3835474,44 L29.1172258,39.7196928 C29.1172258,39.7196928 29.1159147,39.7196928 29.1159147,39.7183774 C29.0267599,39.6341919 28.9389162,39.548691 28.8523835,39.4618747 C28.7645398,39.3750583 28.6780071,39.288242 28.5927856,39.1987949 C28.520675,39.1238172 28.4485645,39.0475241 28.376454,38.9699156 C28.3607208,38.9541308 28.3462987,38.938346 28.3318766,38.9212458 C28.2571438,38.8396911 28.1824111,38.7581364 28.1089894,38.6752663 C28.1024339,38.6686893 28.0971895,38.6621123 28.0919451,38.6555353 C28.0106569,38.5634574 27.9306798,38.4700641 27.8507026,38.3753554 C27.8493915,38.3753554 27.8493915,38.37404 27.8480804,38.3727246 C27.777281,38.2872237 27.7051704,38.2017227 27.6356821,38.1149064 C27.62126,38.0978063 27.608149,38.0820215 27.595038,38.0649213 C27.5347274,37.9886282 27.4744167,37.912335 27.4141061,37.8360419 C27.3918174,37.8084186 27.3695287,37.7794798 27.3485511,37.750541 C27.2869293,37.6689863 27.2253076,37.5874316 27.164997,37.5045615 C27.0915753,37.4045912 27.0194648,37.3046209 26.9486654,37.2033352 C26.8778659,37.1033649 26.8070665,37.0007638 26.7388893,36.8981627 C26.6772675,36.8074002 26.6169569,36.7153223 26.5579574,36.621929 C26.5461575,36.6035134 26.5343576,36.5850978 26.5225577,36.5666822 C26.3980031,36.3706878 26.2773818,36.1707472 26.1593828,35.9681758 C26.148894,35.9510757 26.1397163,35.9352909 26.1305386,35.9181907 C26.0767834,35.8221666 26.0217172,35.7261425 25.9692732,35.6274876 C25.9089625,35.5196249 25.8512741,35.4091314 25.7935857,35.2986379 C25.7358973,35.1881444 25.680831,35.077651 25.6257648,34.9658421 C25.5772541,34.8671872 25.5300545,34.7672169 25.4828548,34.6672466 C25.4749882,34.6514618 25.4684327,34.6369924 25.4618772,34.6212076 C25.4120554,34.5146603 25.3635447,34.4067976 25.3163451,34.2976196 C25.3124118,34.2897272 25.3084785,34.2818348 25.3058562,34.272627 C25.2586566,34.1634489 25.211457,34.05164 25.1655685,33.9398311 C25.1629463,33.9345695 25.1603241,33.9293079 25.159013,33.9253617 C25.1144356,33.8148682 25.0698581,33.7030594 25.0279029,33.5912505 C25.0213474,33.5767811 25.016103,33.5623117 25.0108586,33.5465269 C24.9715256,33.4439258 24.9335037,33.3400093 24.8967928,33.2374082 C24.8548376,33.1190224 24.8141935,32.9993211 24.7748605,32.8796198 C24.7342164,32.7599185 24.6961944,32.6402173 24.6594836,32.5192006 C24.6227728,32.3981839 24.5873731,32.2771672 24.5532845,32.1548352 C24.5191959,32.0351339 24.4864183,31.9141172 24.4549519,31.7931005 C24.4549519,31.7917851 24.4536408,31.7891543 24.4536408,31.7865235 C24.4234855,31.6655069 24.3933302,31.5431748 24.364486,31.4195273 C24.3618638,31.4103195 24.3592416,31.4024271 24.3579305,31.3932193 C24.3317085,31.2761489 24.3054865,31.1590784 24.2818866,31.0420079 C24.2556646,30.9157296 24.2307537,30.7907668 24.208465,30.6644885 C24.1848652,30.5382102 24.1638876,30.4119319 24.14291,30.2856537 L24.14291,30.2830229 C24.1232435,30.1554292 24.103577,30.0278355 24.0865326,29.9002419 C24.052444,29.6437391 24.0235998,29.385921 24,29.1254721 L28.9218718,25.875122 C28.8353392,26.4486358 28.7907618,27.036619 28.7907618,27.6351254 C28.7907618,34.1331947 34.0404088,39.4013663 40.517246,39.4013663 C46.9940832,39.4013663 52.2450414,34.1331947 52.2450414,27.6351254 C52.2450414,22.1670132 48.528071,17.5723257 43.4895112,16.2516655 L48.4126941,13 C48.5097156,13.0513005 48.6054259,13.1052319 48.7011363,13.1604786 C48.9882673,13.3249035 49.2688429,13.4972207 49.5454851,13.6761149 C49.7290392,13.7958162 49.9112822,13.9194637 50.0895919,14.0470573 C50.1000807,14.0523189 50.1092584,14.0602113 50.1184361,14.0667883 C50.1971021,14.1233504 50.2744571,14.1799126 50.351812,14.2364747 C50.3544342,14.2377901 50.3570564,14.2391055 50.3596786,14.2417363 C50.4409669,14.3022447 50.520944,14.362753 50.59961,14.4232613 C50.9536072,14.6942335 51.2944934,14.979675 51.6248907,15.2795859 C51.6891347,15.3374634 51.7520675,15.3953409 51.8150003,15.4545339 C51.8425334,15.4795265 51.8687555,15.504519 51.8949775,15.5295116 C51.9644658,15.5952815 52.0339541,15.6623669 52.1021314,15.7294522 L52.1034425,15.7294522 C52.1821085,15.8070607 52.2581524,15.8833538 52.3341962,15.9609624 C52.3984401,16.0254169 52.4600619,16.0898714 52.5229947,16.1556414 C52.5361057,16.1687953 52.5492167,16.1832647 52.5623277,16.1977341 L63,26.5472907 Z" id="Path" fill="url(#linearGradient-10)"></path>
                    <path d="M60.4799791,42 L7.52002087,42 C6.68057911,42 6,41.3106903 6,40.46048 L6,6.53952 C6,5.68930971 6.68057911,5 7.52002087,5 L60.4799791,5 C61.3194209,5 62,5.68930971 62,6.53952 L62,40.46048 C62,41.3108224 61.3194209,42 60.4799791,42 Z" id="Path" fill="url(#linearGradient-11)"></path>
                    <path d="M16.4830195,37 L7.51698043,37 C7.23140649,37 7,36.7010115 7,36.332419 L7,34.667581 C7,34.2988171 7.23153926,34 7.51698043,34 L16.4830195,34 C16.7685934,34 17,34.2989885 17,34.667581 L17,36.332419 C17.0001327,36.7010115 16.7685934,37 16.4830195,37 Z" id="Path" fill="url(#linearGradient-12)"></path>
                    <path d="M20.4562718,37 L18.5437282,37 C18.2433791,37 18,36.7010115 18,36.332419 L18,34.667581 C18,34.2988171 18.2435187,34 18.5437282,34 L20.4562718,34 C20.7566209,34 21,34.2989885 21,34.667581 L21,36.332419 C21,36.7010115 20.7566209,37 20.4562718,37 Z" id="Path" fill="url(#linearGradient-13)"></path>
                    <path d="M13.4647107,41 L7.53528927,41 C7.23960174,41 7,40.7010115 7,40.332419 L7,38.667581 C7,38.2988171 7.23973921,38 7.53528927,38 L13.4647107,38 C13.7603983,38 14,38.2989885 14,38.667581 L14,40.332419 C14,40.7011829 13.7603983,41 13.4647107,41 Z" id="Path" fill="url(#linearGradient-14)"></path>
                    <path d="M20.4958244,41 L15.5041756,41 C15.2256749,41 15,40.7010115 15,40.332419 L15,38.667581 C15,38.2988171 15.2258044,38 15.5041756,38 L20.4958244,38 C20.7743251,38 21,38.2989885 21,38.667581 L21,40.332419 C21,40.7011829 20.7743251,41 20.4958244,41 Z" id="Path" fill="url(#linearGradient-15)"></path>
                    <path d="M58.4943891,26 L8.50561089,26 C7.67407262,26 7,25.3109132 7,24.4608534 L7,17.5391466 C7,16.6890868 7.67407262,16 8.50561089,16 L58.4943891,16 C59.3259274,16 60,16.6890868 60,17.5391466 L60,24.4608534 C60,25.3109132 59.3259274,26 58.4943891,26 Z" id="Path" fill="url(#linearGradient-16)"></path>
                    <path d="M10.221035,18 L57.778965,18 C58.4533054,18 59,18.561135 59,19.2532876 L59,23.7467124 C59,24.438865 58.4533054,25 57.778965,25 L10.221035,25 C9.54669457,25 9,24.438865 9,23.7467124 L9,19.2532876 C9,18.561135 9.54669457,18 10.221035,18 Z" id="Path" fill="url(#linearGradient-17)"></path>
                    <path d="M42.9904103,59 L25.0095897,59 C24.4520133,59 24,58.3284203 24,57.5 C24,56.6715797 24.4520133,56 25.0095897,56 L42.9904103,56 C43.5479867,56 44,56.6715797 44,57.5 C44,58.3284203 43.5479867,59 42.9904103,59 Z" id="Path" fill="url(#linearGradient-18)"></path>
                    <path d="M53.4043627,16 L45,16 C49.1049402,17.6554346 52.0781263,21.4646356 52.4630362,26 L58.435087,26 C59.2993774,26 60,25.3109224 60,24.4608738 L60,22.4113198 L53.4043627,16 Z" id="Path" fill="url(#linearGradient-19)"></path>
                    <circle id="Oval" fill="url(#linearGradient-20)" cx="40.5" cy="28.5" r="11.5"></circle>
                    <polygon id="Path" fill="url(#linearGradient-21)" points="57 41.3992391 54.3992391 44 51 40.6007609 53.6007609 38"></polygon>
                    <polygon id="Path" fill="url(#linearGradient-22)" points="53.6207026 38 51 41.1019532 51.7585948 42 57 42"></polygon>
                    <path d="M41.5,11 C32.3873491,11 25,18.3873491 25,27.5 C25,36.6126509 32.3873491,44 41.5,44 C50.6126509,44 58,36.6126509 58,27.5 C58,18.3872187 50.6126509,11 41.5,11 Z M41.5,39.1671463 C35.0563689,39.1671463 29.8327233,33.9435006 29.8327233,27.4998696 C29.8327233,21.0562385 35.0563689,15.8325929 41.5,15.8325929 C47.9436311,15.8325929 53.1672767,21.0562385 53.1672767,27.4998696 C53.1672767,33.9435006 47.9436311,39.1671463 41.5,39.1671463 Z" id="Shape" fill="url(#linearGradient-23)"></path>
                    <path d="M40.5,42 C47.9559218,42 54,35.9557878 54,28.5 C54,21.0440782 47.9557878,15 40.5,15 C33.0440782,15 27,21.0442122 27,28.5 C27,35.9557878 33.0440782,42 40.5,42 Z M40.5,16.5162111 C47.1184352,16.5162111 52.4837889,21.8815648 52.4837889,28.5 C52.4837889,35.1184352 47.1184352,40.4837889 40.5,40.4837889 C33.8815648,40.4837889 28.5162111,35.1184352 28.5162111,28.5 C28.5162111,21.8815648 33.8815648,16.5162111 40.5,16.5162111 Z" id="Shape" fill="url(#linearGradient-24)"></path>
                    <path d="M53.2254846,15 L49.8240935,18.522902 C51.9042938,20.6965102 53.1895205,23.6875748 53.1895205,26.9898079 C53.1895205,33.6327333 47.9900584,39.0179404 41.5762589,39.0179404 C38.3879254,39.0179404 35.5000278,37.6868004 33.4013911,35.5322872 L30,39.0551892 C32.9691737,42.1113383 37.0595938,44 41.5763888,44 C50.6468515,44 58,36.3841685 58,26.9896735 C58,22.31179 56.1762218,18.0752441 53.2254846,15 Z" id="Path" fill="url(#linearGradient-25)"></path>
                    <circle id="Oval" fill="url(#linearGradient-26)" cx="64" cy="50" r="3"></circle>
                    <circle id="Oval" fill="url(#linearGradient-27)" cx="63.5" cy="50.5" r="2.5"></circle>
                    <path d="M66.8466207,51 C66.7040839,50.5657558 66.4625483,50.1577019 66.1213442,49.8120706 C64.9497024,48.6252269 63.0501048,48.6252269 61.8785969,49.8120706 C61.5373927,50.1577019 61.2958572,50.5657558 61.1533204,51 C60.8064897,49.9430224 61.0480253,48.7313453 61.8785969,47.8901328 C63.0502387,46.7032891 64.9497024,46.7032891 66.1213442,47.8901328 C66.9519158,48.7313453 67.1935853,49.9430224 66.8466207,51 L66.8466207,51 Z" id="Path" fill="url(#linearGradient-28)"></path>
                    <path d="M61.8808935,52.1339652 C60.7063688,50.9594669 60.7063688,49.0552379 61.8808935,47.8808738 C63.0554182,46.7063754 64.9596898,46.7063754 66.1340802,47.8808738 C66.6454671,48.3922492 66.933928,49.0419432 67,49.7094976 L63.709424,53 C63.0419889,52.9337951 62.3922804,52.6453407 61.8808935,52.1339652 Z" id="Path" fill="url(#linearGradient-29)"></path>
                    <path d="M61.5445289,53 L66,48.5444842 L56.6431028,39.1874929 C56.3931147,38.9375024 55.9876754,38.9375024 55.7375467,39.1874929 L52.1874911,42.7375843 C51.937503,42.9875748 51.937503,43.3930182 52.1874911,43.6431495 L61.5445289,53 Z" id="Path" fill="url(#linearGradient-30)"></path>
                    <path d="M53.1739584,43.4783939 L55.4783939,41.1739584 C55.7103385,40.9420139 56.0865142,40.9420139 56.3184588,41.1739584 L65,49.8554996 L61.8554996,53 L53.1739584,44.3184588 C52.9420139,44.0865142 52.9420139,43.7103385 53.1739584,43.4783939 L53.1739584,43.4783939 Z" id="Path" fill="url(#linearGradient-31)"></path>
                    <path d="M41.5,12 C32.9395433,12 26,18.9395433 26,27.5 C26,36.0604567 32.9395433,43 41.5,43 C50.0604567,43 57,36.0604567 57,27.5 C57,18.9396734 50.0604567,12 41.5,12 Z M41.5,39.1342349 C35.0746173,39.1342349 29.8657651,33.9253827 29.8657651,27.5 C29.8657651,21.0746173 35.0746173,15.8657651 41.5,15.8657651 C47.9253827,15.8657651 53.1342349,21.0746173 53.1342349,27.5 C53.1342349,33.9253827 47.9253827,39.1342349 41.5,39.1342349 Z" id="Shape" fill="url(#linearGradient-32)"></path>
                </g>
            </g>
        </g>
    </g>
</svg>