<?xml version="1.0" encoding="UTF-8"?>
<svg width="16px" height="16px" viewBox="0 0 16 16" version="1.1" xmlns="http://www.w3.org/2000/svg" xmlns:xlink="http://www.w3.org/1999/xlink">
    <!-- Generator: sketchtool 58 (101010) - https://sketch.com -->
    <title>61147693-DB65-40FD-A5B7-42C94E632002@1.00x</title>
    <desc>Created with sketchtool.</desc>
    <g id="Dokodemo-Web-Profile" stroke="none" stroke-width="1" fill="none" fill-rule="evenodd">
        <g id="Home-Revision" transform="translate(-1252.000000, -14.000000)" fill="#FFFFFF" fill-rule="nonzero">
            <g id="Top---CDWeb-(Alt-1)" transform="translate(0.000000, -79.000000)">
                <g id="plus" transform="translate(1260.000000, 101.000000) rotate(-315.000000) translate(-1260.000000, -101.000000) translate(1251.000000, 92.000000)">
                    <path d="M17.25,7.5 L10.875,7.5 C10.65,7.5 10.5,7.35 10.5,7.125 L10.5,0.75 C10.5,0.3 10.2,0 9.75,0 L8.25,0 C7.8,0 7.5,0.3 7.5,0.75 L7.5,7.125 C7.5,7.35 7.35,7.5 7.125,7.5 L0.75,7.5 C0.3,7.5 0,7.8 0,8.25 L0,9.75 C0,10.2 0.3,10.5 0.75,10.5 L7.125,10.5 C7.35,10.5 7.5,10.65 7.5,10.875 L7.5,17.25 C7.5,17.7 7.8,18 8.25,18 L9.75,18 C10.2,18 10.5,17.7 10.5,17.25 L10.5,10.875 C10.5,10.65 10.65,10.5 10.875,10.5 L17.25,10.5 C17.7,10.5 18,10.2 18,9.75 L18,8.25 C18,7.8 17.7,7.5 17.25,7.5 Z" id="Path"></path>
                </g>
            </g>
        </g>
    </g>
</svg>