<?xml version="1.0" encoding="UTF-8"?>
<svg width="116px" height="69px" viewBox="0 0 116 69" version="1.1" xmlns="http://www.w3.org/2000/svg" xmlns:xlink="http://www.w3.org/1999/xlink">
    <!-- Generator: sketchtool 58 (101010) - https://sketch.com -->
    <title>68CC83F9-1C71-4A01-97D1-8628EA071960@1.00x</title>
    <desc>Created with sketchtool.</desc>
    <defs>
        <path d="M0,5 C0,7.76152675 2.01522484,10 4.50024468,10 L4.50024468,10 C6.98526453,10 9,7.76152675 9,5 L9,5 C9,2.23901696 6.98526453,0 4.50024468,0 L4.50024468,0 C2.01522484,0 0,2.23901696 0,5" id="path-1"></path>
        <linearGradient x1="46.8369661%" y1="116.885293%" x2="53.752914%" y2="-29.3254872%" id="linearGradient-3">
            <stop stop-color="#F479CD" offset="0%"></stop>
            <stop stop-color="#7C67FF" offset="100%"></stop>
        </linearGradient>
        <linearGradient x1="50%" y1="0%" x2="50%" y2="100%" id="linearGradient-4">
            <stop stop-color="#FFDA5A" offset="0%"></stop>
            <stop stop-color="#FFFFFF" stop-opacity="0.5" offset="100%"></stop>
        </linearGradient>
        <path d="M0,5 C0,7.76152675 2.01522484,10 4.50024468,10 L4.50024468,10 C6.98526453,10 9,7.76152675 9,5 L9,5 C9,2.23901696 6.98526453,0 4.50024468,0 L4.50024468,0 C2.01522484,0 0,2.23901696 0,5" id="path-5"></path>
        <path d="M27.0659837,1.85041969 C18.7749207,4.56306606 11.5487365,10.1359194 6.53760335,17.2105998 L6.53760335,17.2105998 C1.62468718,24.1454319 -2.86486216,33.9322446 2.28584246,41.901543 L2.28584246,41.901543 C5.13516842,46.3093363 10.1876561,48.9787942 15.4195189,49.7505308 L15.4195189,49.7505308 C15.833581,49.8112003 16.2486769,49.8610727 16.6642898,49.8980914 L16.6642898,49.8980914 C21.7938002,50.3577399 27.1600652,49.2266137 31.8775813,47.2286334 L31.8775813,47.2286334 C36.5501244,45.2486484 41.4304739,45.7941597 46.3847446,46.5504719 L46.3847446,46.5504719 C52.1485299,47.4296654 58.2390158,48.5170891 63.6518046,46.3622936 L63.6518046,46.3622936 C70.7270449,43.544761 74.7394666,35.6489857 74.9860429,28.0735248 L74.9860429,28.0735248 C74.9943138,27.8128516 74.9989661,27.5516643 75,27.290477 L75,27.290477 L75,27.1434306 C74.9901783,23.2564695 74.1206997,19.3443152 72.1775545,15.9781863 L72.1775545,15.9781863 C66.0048764,5.28698685 52.1883336,-0.000514148288 39.4315001,0 L39.4315001,0 C35.0706667,0.000514148288 30.8307952,0.618520391 27.0659837,1.85041969" id="path-6"></path>
        <linearGradient x1="0.000436039368%" y1="50.0000925%" x2="99.9999833%" y2="50.0000925%" id="linearGradient-8">
            <stop stop-color="#12DFCD" offset="0%"></stop>
            <stop stop-color="#3BD3FF" offset="100%"></stop>
        </linearGradient>
        <linearGradient x1="100%" y1="50%" x2="0.583298142%" y2="50%" id="linearGradient-9">
            <stop stop-color="#2AA6FF" offset="0%"></stop>
            <stop stop-color="#FFFFFF" stop-opacity="0.5" offset="100%"></stop>
        </linearGradient>
        <path d="M27.0659837,1.85041969 C18.7749207,4.56306606 11.5487365,10.1359194 6.53760335,17.2105998 L6.53760335,17.2105998 C1.62468718,24.1454319 -2.86486216,33.9322446 2.28584246,41.901543 L2.28584246,41.901543 C5.13516842,46.3093363 10.1876561,48.9787942 15.4195189,49.7505308 L15.4195189,49.7505308 C15.833581,49.8112003 16.2486769,49.8610727 16.6642898,49.8980914 L16.6642898,49.8980914 C21.7938002,50.3577399 27.1600652,49.2266137 31.8775813,47.2286334 L31.8775813,47.2286334 C36.5501244,45.2486484 41.4304739,45.7941597 46.3847446,46.5504719 L46.3847446,46.5504719 C52.1485299,47.4296654 58.2390158,48.5170891 63.6518046,46.3622936 L63.6518046,46.3622936 C70.7270449,43.544761 74.7394666,35.6489857 74.9860429,28.0735248 L74.9860429,28.0735248 C74.9943138,27.8128516 74.9989661,27.5516643 75,27.290477 L75,27.290477 L75,27.1434306 C74.9901783,23.2564695 74.1206997,19.3443152 72.1775545,15.9781863 L72.1775545,15.9781863 C66.0048764,5.28698685 52.1883336,-0.000514148288 39.4315001,0 L39.4315001,0 C35.0706667,0.000514148288 30.8307952,0.618520391 27.0659837,1.85041969" id="path-10"></path>
        <path d="M5.77156146,0 C5.5809277,0.00195363627 5.39029394,0.00976818137 5.19865684,0.0234436353 L5.19865684,0.0234436353 C0.419769367,0.365329983 -1.53171838,5.99864018 1.34183478,9.42824866 L1.34183478,9.42824866 C2.79014973,11.1572168 5.14046337,12.0656576 7.43057688,11.9963035 L7.43057688,11.9963035 C10.733056,11.8966681 13.1465798,9.19820799 12.9930695,6.01622291 L12.9930695,6.01622291 C12.8074524,2.17439717 9.54560833,0.0351654529 5.95216187,0 L5.95216187,0 L5.77156146,0 Z" id="path-11"></path>
        <linearGradient x1="46.322341%" y1="106.655148%" x2="54.3719864%" y2="-17.2297821%" id="linearGradient-13">
            <stop stop-color="#12DFCD" offset="0%"></stop>
            <stop stop-color="#3BD3FF" offset="100%"></stop>
        </linearGradient>
        <linearGradient x1="100%" y1="50%" x2="0.583298142%" y2="50%" id="linearGradient-14">
            <stop stop-color="#2AA6FF" offset="0%"></stop>
            <stop stop-color="#FFFFFF" stop-opacity="0.5" offset="100%"></stop>
        </linearGradient>
        <path d="M5.77156146,0 C5.5809277,0.00195363627 5.39029394,0.00976818137 5.19865684,0.0234436353 L5.19865684,0.0234436353 C0.419769367,0.365329983 -1.53171838,5.99864018 1.34183478,9.42824866 L1.34183478,9.42824866 C2.79014973,11.1572168 5.14046337,12.0656576 7.43057688,11.9963035 L7.43057688,11.9963035 C10.733056,11.8966681 13.1465798,9.19820799 12.9930695,6.01622291 L12.9930695,6.01622291 C12.8074524,2.17439717 9.54560833,0.0351654529 5.95216187,0 L5.95216187,0 L5.77156146,0 Z" id="path-15"></path>
        <path d="M1.11589937,0.371672904 C-0.765264861,1.48192658 -0.0294723022,3.57794733 1.56172441,4.5375067 L1.56172441,4.5375067 C2.33255471,5.0015022 3.36677217,5.20937695 4.1194795,4.7161956 L4.1194795,4.7161956 C4.84741877,4.23909625 5.0691231,3.26762428 4.98213284,2.41051321 L4.98213284,2.41051321 C4.84198188,1.02865241 3.71352498,0 2.42860645,0 L2.42860645,0 C1.99848798,0 1.55024653,0.115552153 1.11589937,0.371672904" id="path-16"></path>
        <linearGradient x1="50%" y1="0%" x2="50%" y2="100%" id="linearGradient-18">
            <stop stop-color="#FFDA5A" offset="0%"></stop>
            <stop stop-color="#F7C20B" offset="100%"></stop>
        </linearGradient>
        <path d="M2.92551915,0.2088 C1.31635902,0.2088 0,1.4766 0,3.0258 L0,3.0258 C0,4.5756 1.31635902,5.8434 2.92551915,5.8434 L2.92551915,5.8434 L71.913821,5.8434 C73.5229811,5.8434 74.8387171,4.5756 74.8387171,3.0258 L74.8387171,3.0258 C74.8387171,1.4766 73.5229811,0.2088 71.913821,0.2088 L71.913821,0.2088 L2.92551915,0.2088 Z" id="path-19"></path>
        <linearGradient x1="50%" y1="0%" x2="50%" y2="100%" id="linearGradient-21">
            <stop stop-color="#FFDA5A" offset="0%"></stop>
            <stop stop-color="#F7C20B" offset="100%"></stop>
        </linearGradient>
        <path d="M1.32732026,0.032 C0.670936819,0.032 0.133507625,0.434742857 0.133507625,0.926628571 L0.133507625,0.926628571 C0.133507625,1.41851429 0.670936819,1.82125714 1.32732026,1.82125714 L1.32732026,1.82125714 L8.48836601,1.82125714 C9.14413943,1.82125714 9.68156863,1.41851429 9.68156863,0.926628571 L9.68156863,0.926628571 C9.68156863,0.434742857 9.14413943,0.032 8.48836601,0.032 L8.48836601,0.032 L1.32732026,0.032 Z" id="path-22"></path>
        <linearGradient x1="50%" y1="0%" x2="50%" y2="100%" id="linearGradient-24">
            <stop stop-color="#FFDA5A" offset="0%"></stop>
            <stop stop-color="#F7C20B" offset="100%"></stop>
        </linearGradient>
        <polygon id="path-25" points="0.1794 41.9197059 29.9622 41.9197059 7.8252 0.247058824"></polygon>
        <linearGradient x1="-0.00181413433%" y1="50.0001501%" x2="100.0004%" y2="50.0001501%" id="linearGradient-27">
            <stop stop-color="#12DFCD" offset="0%"></stop>
            <stop stop-color="#128ACD" offset="100%"></stop>
        </linearGradient>
        <polygon id="path-28" points="0.1794 41.9197059 29.9622 41.9197059 7.8252 0.247058824"></polygon>
        <polygon id="path-29" points="0.188380952 8.91262987 15.9701685 8.91262987 8.21693773 0.0909350649"></polygon>
        <linearGradient x1="78.3223326%" y1="92.2131979%" x2="29.3748357%" y2="46.260236%" id="linearGradient-31">
            <stop stop-color="#12DFCD" offset="0%"></stop>
            <stop stop-color="#128ACD" offset="100%"></stop>
        </linearGradient>
        <linearGradient x1="50%" y1="0%" x2="50%" y2="100%" id="linearGradient-32">
            <stop stop-color="#3CB0FF" offset="0%"></stop>
            <stop stop-color="#1772B0" offset="100%"></stop>
        </linearGradient>
        <polygon id="path-33" points="0.188380952 8.91262987 15.9701685 8.91262987 8.21693773 0.0909350649"></polygon>
        <polygon id="path-34" points="0.0252 0.0909350649 7.4088 8.91262987 11.9514 0.0909350649"></polygon>
        <linearGradient x1="-0.00302359511%" y1="49.9973351%" x2="99.9989858%" y2="49.9973351%" id="linearGradient-36">
            <stop stop-color="#12DFCD" offset="0%"></stop>
            <stop stop-color="#128ACD" offset="100%"></stop>
        </linearGradient>
        <linearGradient x1="98.8070101%" y1="50%" x2="0%" y2="50%" id="linearGradient-37">
            <stop stop-color="#235C8B" offset="0%"></stop>
            <stop stop-color="#249CEC" offset="100%"></stop>
        </linearGradient>
        <polygon id="path-38" points="0.0252 0.0909350649 7.4088 8.91262987 11.9514 0.0909350649"></polygon>
        <polygon id="path-39" points="0.0249565217 0.258823529 1.51504348 8.93458824 1.86078261 10.9534118 41.9713913 10.9534118 41.6256522 8.93458824 40.1361739 0.258823529"></polygon>
        <linearGradient x1="0.000288338751%" y1="50.0018091%" x2="100.000281%" y2="50.0018091%" id="linearGradient-41">
            <stop stop-color="#F479CD" offset="0%"></stop>
            <stop stop-color="#7C67FF" offset="100%"></stop>
        </linearGradient>
        <polygon id="path-42" points="0.0249565217 0.258823529 1.51504348 8.93458824 1.86078261 10.9534118 41.9713913 10.9534118 41.6256522 8.93458824 40.1361739 0.258823529"></polygon>
        <path d="M0.005625,3.54359649 C0.005625,3.85184211 0.306988636,4.10236842 0.677784091,4.10236842 L0.677784091,4.10236842 C1.04931818,4.10236842 1.35068182,3.85184211 1.35068182,3.54359649 L1.35068182,3.54359649 C1.35068182,2.17798246 2.0125,1.2722807 2.45125,1.2722807 L2.45125,1.2722807 C2.88926136,1.2722807 3.55181818,2.17798246 3.55181818,3.54359649 L3.55181818,3.54359649 C3.55181818,4.90921053 2.88926136,5.81491228 2.45125,5.81491228 L2.45125,5.81491228 C2.07971591,5.81491228 1.77909091,6.06482456 1.77909091,6.37368421 L1.77909091,6.37368421 C1.77909091,6.68192982 2.07971591,6.93245614 2.45125,6.93245614 L2.45125,6.93245614 C3.84579545,6.93245614 4.896875,5.47473684 4.896875,3.54359649 L4.896875,3.54359649 C4.896875,1.61122807 3.84579545,0.154736842 2.45125,0.154736842 L2.45125,0.154736842 C1.05744318,0.154736842 0.005625,1.61122807 0.005625,3.54359649" id="path-43"></path>
        <linearGradient x1="45.520951%" y1="-208.39903%" x2="51.6762012%" y2="146.110381%" id="linearGradient-45">
            <stop stop-color="#12DFCD" offset="0%"></stop>
            <stop stop-color="#3BD3FF" offset="100%"></stop>
        </linearGradient>
        <path d="M0.0277840909,3.54359649 C0.0277840909,3.85184211 0.328409091,4.10236842 0.699943182,4.10236842 L0.699943182,4.10236842 C1.07147727,4.10236842 1.37210227,3.85184211 1.37210227,3.54359649 L1.37210227,3.54359649 C1.37210227,2.17798246 2.03465909,1.2722807 2.47340909,1.2722807 L2.47340909,1.2722807 C2.91142045,1.2722807 3.57471591,2.17798246 3.57471591,3.54359649 L3.57471591,3.54359649 C3.57471591,4.90921053 2.91142045,5.81491228 2.47340909,5.81491228 L2.47340909,5.81491228 C2.101875,5.81491228 1.80125,6.06482456 1.80125,6.37368421 L1.80125,6.37368421 C1.80125,6.68192982 2.101875,6.93245614 2.47340909,6.93245614 L2.47340909,6.93245614 C3.86795455,6.93245614 4.91903409,5.47473684 4.91903409,3.54359649 L4.91903409,3.54359649 C4.91903409,1.61122807 3.86795455,0.154736842 2.47340909,0.154736842 L2.47340909,0.154736842 C1.07886364,0.154736842 0.0277840909,1.61122807 0.0277840909,3.54359649" id="path-46"></path>
        <linearGradient x1="45.491375%" y1="-210.034463%" x2="51.6466251%" y2="144.474947%" id="linearGradient-48">
            <stop stop-color="#12DFCD" offset="0%"></stop>
            <stop stop-color="#3BD3FF" offset="100%"></stop>
        </linearGradient>
        <path d="M0.0492045455,3.54359649 C0.0492045455,3.85184211 0.350568182,4.10236842 0.722102273,4.10236842 L0.722102273,4.10236842 C1.09289773,4.10236842 1.39426136,3.85184211 1.39426136,3.54359649 L1.39426136,3.54359649 C1.39426136,2.17798246 2.05681818,1.2722807 2.49482955,1.2722807 L2.49482955,1.2722807 C2.93357955,1.2722807 3.596875,2.17798246 3.596875,3.54359649 L3.596875,3.54359649 C3.596875,4.90921053 2.93357955,5.81491228 2.49482955,5.81491228 L2.49482955,5.81491228 C2.12329545,5.81491228 1.82267045,6.06482456 1.82267045,6.37368421 L1.82267045,6.37368421 C1.82267045,6.68192982 2.12329545,6.93245614 2.49482955,6.93245614 L2.49482955,6.93245614 C3.89011364,6.93245614 4.94119318,5.47473684 4.94119318,3.54359649 L4.94119318,3.54359649 C4.94119318,1.61122807 3.89011364,0.154736842 2.49482955,0.154736842 L2.49482955,0.154736842 C1.10102273,0.154736842 0.0492045455,1.61122807 0.0492045455,3.54359649" id="path-49"></path>
        <linearGradient x1="45.4647012%" y1="-211.669896%" x2="51.6208809%" y2="142.839514%" id="linearGradient-51">
            <stop stop-color="#12DFCD" offset="0%"></stop>
            <stop stop-color="#3BD3FF" offset="100%"></stop>
        </linearGradient>
        <path d="M0.0713636364,3.54359649 C0.0713636364,3.85184211 0.372727273,4.10236842 0.744261364,4.10236842 L0.744261364,4.10236842 C1.11505682,4.10236842 1.41642045,3.85184211 1.41642045,3.54359649 L1.41642045,3.54359649 C1.41642045,2.17798246 2.07897727,1.2722807 2.51698864,1.2722807 L2.51698864,1.2722807 C2.95573864,1.2722807 3.61829545,2.17798246 3.61829545,3.54359649 L3.61829545,3.54359649 C3.61829545,4.90921053 2.95573864,5.81491228 2.51698864,5.81491228 L2.51698864,5.81491228 C2.14619318,5.81491228 1.84482955,6.06482456 1.84482955,6.37368421 L1.84482955,6.37368421 C1.84482955,6.68192982 2.14619318,6.93245614 2.51698864,6.93245614 L2.51698864,6.93245614 C3.91153409,6.93245614 4.96261364,5.47473684 4.96261364,3.54359649 L4.96261364,3.54359649 C4.96261364,1.61122807 3.91153409,0.154736842 2.51698864,0.154736842 L2.51698864,0.154736842 C1.12318182,0.154736842 0.0713636364,1.61122807 0.0713636364,3.54359649" id="path-52"></path>
        <linearGradient x1="0.00601781939%" y1="49.99684%" x2="100.006013%" y2="49.99684%" id="linearGradient-54">
            <stop stop-color="#12DFCD" offset="0%"></stop>
            <stop stop-color="#3BD3FF" offset="100%"></stop>
        </linearGradient>
        <path d="M0.0942613636,3.54359649 C0.0942613636,3.85184211 0.394147727,4.10236842 0.765681818,4.10236842 L0.765681818,4.10236842 C1.13721591,4.10236842 1.43784091,3.85184211 1.43784091,3.54359649 L1.43784091,3.54359649 C1.43784091,2.17798246 2.10113636,1.2722807 2.53914773,1.2722807 L2.53914773,1.2722807 C2.97789773,1.2722807 3.64045455,2.17798246 3.64045455,3.54359649 L3.64045455,3.54359649 C3.64045455,4.90921053 2.97789773,5.81491228 2.53914773,5.81491228 L2.53914773,5.81491228 C2.16835227,5.81491228 1.86698864,6.06482456 1.86698864,6.37368421 L1.86698864,6.37368421 C1.86698864,6.68192982 2.16835227,6.93245614 2.53914773,6.93245614 L2.53914773,6.93245614 C3.93369318,6.93245614 4.98477273,5.47473684 4.98477273,3.54359649 L4.98477273,3.54359649 C4.98477273,1.61122807 3.93369318,0.154736842 2.53914773,0.154736842 L2.53914773,0.154736842 C1.14460227,0.154736842 0.0942613636,1.61122807 0.0942613636,3.54359649" id="path-55"></path>
        <linearGradient x1="45.4056977%" y1="-214.940762%" x2="51.5600183%" y2="139.568648%" id="linearGradient-57">
            <stop stop-color="#12DFCD" offset="0%"></stop>
            <stop stop-color="#3BD3FF" offset="100%"></stop>
        </linearGradient>
        <path d="M0.114878472,3.54359649 C0.114878472,3.85184211 0.413415799,4.10236842 0.782369792,4.10236842 L0.782369792,4.10236842 C1.15059028,4.10236842 1.44986111,3.85184211 1.44986111,3.54359649 L1.44986111,3.54359649 C1.44986111,2.17798246 2.10781684,1.2722807 2.54351997,1.2722807 L2.54351997,1.2722807 C2.97848958,1.2722807 3.63717882,2.17798246 3.63717882,3.54359649 L3.63717882,3.54359649 C3.63717882,4.90921053 2.97848958,5.81491228 2.54351997,5.81491228 L2.54351997,5.81491228 C2.17456597,5.81491228 1.87602865,6.06482456 1.87602865,6.37368421 L1.87602865,6.37368421 C1.87602865,6.68192982 2.17456597,6.93245614 2.54351997,6.93245614 L2.54351997,6.93245614 C3.92838108,6.93245614 4.97216146,5.47473684 4.97216146,3.54359649 L4.97216146,3.54359649 C4.97216146,1.61122807 3.92838108,0.154736842 2.54351997,0.154736842 L2.54351997,0.154736842 C1.15865885,0.154736842 0.114878472,1.61122807 0.114878472,3.54359649" id="path-58"></path>
        <linearGradient x1="45.4432981%" y1="-216.576195%" x2="51.5133555%" y2="137.933215%" id="linearGradient-60">
            <stop stop-color="#12DFCD" offset="0%"></stop>
            <stop stop-color="#3BD3FF" offset="100%"></stop>
        </linearGradient>
        <path d="M0.136883681,3.54359649 C0.136883681,3.85184211 0.435421007,4.10236842 0.804375,4.10236842 L0.804375,4.10236842 C1.17259549,4.10236842 1.47186632,3.85184211 1.47186632,3.54359649 L1.47186632,3.54359649 C1.47186632,2.17798246 2.12982205,1.2722807 2.56552517,1.2722807 L2.56552517,1.2722807 C3.00049479,1.2722807 3.65918403,2.17798246 3.65918403,3.54359649 L3.65918403,3.54359649 C3.65918403,4.90921053 3.00049479,5.81491228 2.56552517,5.81491228 L2.56552517,5.81491228 C2.19657118,5.81491228 1.89730035,6.06482456 1.89730035,6.37368421 L1.89730035,6.37368421 C1.89730035,6.68192982 2.19657118,6.93245614 2.56552517,6.93245614 L2.56552517,6.93245614 C3.94965278,6.93245614 4.99416667,5.47473684 4.99416667,3.54359649 L4.99416667,3.54359649 C4.99416667,1.61122807 3.94965278,0.154736842 2.56552517,0.154736842 L2.56552517,0.154736842 C1.18066406,0.154736842 0.136883681,1.61122807 0.136883681,3.54359649" id="path-61"></path>
        <linearGradient x1="45.4137614%" y1="-218.211628%" x2="51.4838188%" y2="136.297782%" id="linearGradient-63">
            <stop stop-color="#12DFCD" offset="0%"></stop>
            <stop stop-color="#3BD3FF" offset="100%"></stop>
        </linearGradient>
        <path d="M2.84710345,0.348 C1.39965517,0.348 0.21537931,1.61933333 0.21537931,3.174 L0.21537931,3.174 C0.21537931,4.728 1.39965517,6 2.84710345,6 L2.84710345,6 L33.0448966,6 C34.4923448,6 35.676,4.728 35.676,3.174 L35.676,3.174 C35.676,1.61933333 34.4923448,0.348 33.0448966,0.348 L33.0448966,0.348 L2.84710345,0.348 Z" id="path-64"></path>
        <linearGradient x1="50%" y1="0%" x2="50%" y2="100%" id="linearGradient-66">
            <stop stop-color="#FFDA5A" offset="0%"></stop>
            <stop stop-color="#F7C20B" offset="100%"></stop>
        </linearGradient>
        <linearGradient x1="100%" y1="50%" x2="3.27285999%" y2="50%" id="linearGradient-67">
            <stop stop-color="#2AA6FF" offset="0%"></stop>
            <stop stop-color="#88E2F2" offset="100%"></stop>
        </linearGradient>
        <path d="M2.84710345,0.348 C1.39965517,0.348 0.21537931,1.61933333 0.21537931,3.174 L0.21537931,3.174 C0.21537931,4.728 1.39965517,6 2.84710345,6 L2.84710345,6 L33.0448966,6 C34.4923448,6 35.676,4.728 35.676,3.174 L35.676,3.174 C35.676,1.61933333 34.4923448,0.348 33.0448966,0.348 L33.0448966,0.348 L2.84710345,0.348 Z" id="path-68"></path>
        <path d="M4.1443875,0.346547368 C3.36105,0.435957895 3.3523875,1.74317895 4.1443875,1.65115789 L4.1443875,1.65115789 C6.33290625,1.39858947 8.92670625,1.54804211 10.1642062,3.80288421 L10.1642062,3.80288421 C11.5495875,6.32726316 9.9383625,9.55126316 7.437375,10.3905474 L7.437375,10.3905474 C5.4239625,11.0660211 2.4651,10.6307158 1.7089875,8.22903158 L1.7089875,8.22903158 C0.641025,4.836 3.962475,2.53025263 6.81676875,3.09869474 L6.81676875,3.09869474 C7.5945375,3.25336842 7.92804375,1.99574737 7.145325,1.83976842 L7.145325,1.83976842 C3.8399625,1.18126316 0.26296875,3.25728421 0.29885625,7.12608421 L0.29885625,7.12608421 C0.33165,10.6959789 3.64010625,12.3132 6.63485625,11.8981263 L6.63485625,11.8981263 C9.8467875,11.4530316 12.5989875,8.16311579 11.8001812,4.6376 L11.8001812,4.6376 C11.0644875,1.39141053 8.23246875,0.272147368 5.4214875,0.271494737 L5.4214875,0.271494737 C4.99269375,0.271494737 4.56451875,0.2976 4.1443875,0.346547368" id="path-69"></path>
        <linearGradient x1="-0.00138053674%" y1="50.0010443%" x2="99.9977123%" y2="50.0010443%" id="linearGradient-71">
            <stop stop-color="#F479CD" offset="0%"></stop>
            <stop stop-color="#7C67FF" offset="100%"></stop>
        </linearGradient>
        <path d="M4.1443875,0.346547368 C3.36105,0.435957895 3.3523875,1.74317895 4.1443875,1.65115789 L4.1443875,1.65115789 C6.33290625,1.39858947 8.92670625,1.54804211 10.1642062,3.80288421 L10.1642062,3.80288421 C11.5495875,6.32726316 9.9383625,9.55126316 7.437375,10.3905474 L7.437375,10.3905474 C5.4239625,11.0660211 2.4651,10.6307158 1.7089875,8.22903158 L1.7089875,8.22903158 C0.641025,4.836 3.962475,2.53025263 6.81676875,3.09869474 L6.81676875,3.09869474 C7.5945375,3.25336842 7.92804375,1.99574737 7.145325,1.83976842 L7.145325,1.83976842 C3.8399625,1.18126316 0.26296875,3.25728421 0.29885625,7.12608421 L0.29885625,7.12608421 C0.33165,10.6959789 3.64010625,12.3132 6.63485625,11.8981263 L6.63485625,11.8981263 C9.8467875,11.4530316 12.5989875,8.16311579 11.8001812,4.6376 L11.8001812,4.6376 C11.0644875,1.39141053 8.23246875,0.272147368 5.4214875,0.271494737 L5.4214875,0.271494737 C4.99269375,0.271494737 4.56451875,0.2976 4.1443875,0.346547368" id="path-72"></path>
    </defs>
    <g id="Dokodemo-Web-Profile" stroke="none" stroke-width="1" fill="none" fill-rule="evenodd">
        <g id="Android" transform="translate(-9.000000, -2.000000)">
            <g id="Top---CDMobile-(Alt-1)" transform="translate(0.000000, -47.000000)">
                <g id="Group-342" transform="translate(9.000000, 0.000000)">
                    <g id="Group-241" fill="#4677BC">
                        <path d="M0.634920635,109.714286 C0.985405348,109.714286 1.26984127,110.002277 1.26984127,110.357143 C1.26984127,110.712009 0.985405348,111 0.634920635,111 C0.284435922,111 0,110.712009 0,110.357143 C0,110.002277 0.284435922,109.714286 0.634920635,109.714286" id="Fill-1"></path>
                        <path d="M0.634920635,99.4285714 C0.985405348,99.4285714 1.26984127,99.7165628 1.26984127,100.071429 C1.26984127,100.426294 0.985405348,100.714286 0.634920635,100.714286 C0.284435922,100.714286 0,100.426294 0,100.071429 C0,99.7165628 0.284435922,99.4285714 0.634920635,99.4285714" id="Fill-3"></path>
                        <path d="M0.634920635,89.5714286 C0.985405348,89.5714286 1.26984127,89.8594199 1.26984127,90.2142857 C1.26984127,90.5702301 0.985405348,90.8571429 0.634920635,90.8571429 C0.284435922,90.8571429 0,90.5702301 0,90.2142857 C0,89.8594199 0.284435922,89.5714286 0.634920635,89.5714286" id="Fill-5"></path>
                        <path d="M0.634920635,79.7142857 C0.985405348,79.7142857 1.26984127,80.0022771 1.26984127,80.3571429 C1.26984127,80.7120086 0.985405348,81 0.634920635,81 C0.284435922,81 0,80.7120086 0,80.3571429 C0,80.0022771 0.284435922,79.7142857 0.634920635,79.7142857" id="Fill-7"></path>
                        <path d="M0.634920635,69.8571429 C0.985405348,69.8571429 1.26984127,70.1451342 1.26984127,70.5 C1.26984127,70.8548658 0.985405348,71.1428571 0.634920635,71.1428571 C0.284435922,71.1428571 0,70.8548658 0,70.5 C0,70.1451342 0.284435922,69.8571429 0.634920635,69.8571429" id="Fill-9"></path>
                        <path d="M0.634920635,60.4285714 C0.985405348,60.4285714 1.26984127,60.7163214 1.26984127,61.0708897 C1.26984127,61.4265357 0.985405348,61.7142857 0.634920635,61.7142857 C0.284435922,61.7142857 0,61.4265357 0,61.0708897 C0,60.7163214 0.284435922,60.4285714 0.634920635,60.4285714" id="Fill-11"></path>
                        <path d="M9.1005291,109.714286 C9.45101381,109.714286 9.73544974,110.002277 9.73544974,110.357143 C9.73544974,110.712009 9.45101381,111 9.1005291,111 C8.75004439,111 8.46560847,110.712009 8.46560847,110.357143 C8.46560847,110.002277 8.75004439,109.714286 9.1005291,109.714286" id="Fill-13"></path>
                        <path d="M9.1005291,99.4285714 C9.45101381,99.4285714 9.73544974,99.7165628 9.73544974,100.071429 C9.73544974,100.426294 9.45101381,100.714286 9.1005291,100.714286 C8.75004439,100.714286 8.46560847,100.426294 8.46560847,100.071429 C8.46560847,99.7165628 8.75004439,99.4285714 9.1005291,99.4285714" id="Fill-15"></path>
                        <path d="M9.1005291,89.5714286 C9.45101381,89.5714286 9.73544974,89.8594199 9.73544974,90.2142857 C9.73544974,90.5702301 9.45101381,90.8571429 9.1005291,90.8571429 C8.75004439,90.8571429 8.46560847,90.5702301 8.46560847,90.2142857 C8.46560847,89.8594199 8.75004439,89.5714286 9.1005291,89.5714286" id="Fill-17"></path>
                        <path d="M9.1005291,79.7142857 C9.45101381,79.7142857 9.73544974,80.0022771 9.73544974,80.3571429 C9.73544974,80.7120086 9.45101381,81 9.1005291,81 C8.75004439,81 8.46560847,80.7120086 8.46560847,80.3571429 C8.46560847,80.0022771 8.75004439,79.7142857 9.1005291,79.7142857" id="Fill-19"></path>
                        <path d="M9.1005291,69.8571429 C9.45101381,69.8571429 9.73544974,70.1451342 9.73544974,70.5 C9.73544974,70.8548658 9.45101381,71.1428571 9.1005291,71.1428571 C8.75004439,71.1428571 8.46560847,70.8548658 8.46560847,70.5 C8.46560847,70.1451342 8.75004439,69.8571429 9.1005291,69.8571429" id="Fill-21"></path>
                        <path d="M9.1005291,60.4285714 C9.45101381,60.4285714 9.73544974,60.7163214 9.73544974,61.0708897 C9.73544974,61.4265357 9.45101381,61.7142857 9.1005291,61.7142857 C8.75004439,61.7142857 8.46560847,61.4265357 8.46560847,61.0708897 C8.46560847,60.7163214 8.75004439,60.4285714 9.1005291,60.4285714" id="Fill-23"></path>
                        <path d="M17.5661376,109.714286 C17.9166223,109.714286 18.2010582,110.002277 18.2010582,110.357143 C18.2010582,110.712009 17.9166223,111 17.5661376,111 C17.2156529,111 16.9312169,110.712009 16.9312169,110.357143 C16.9312169,110.002277 17.2156529,109.714286 17.5661376,109.714286" id="Fill-25"></path>
                        <path d="M17.5661376,99.4285714 C17.9166223,99.4285714 18.2010582,99.7165628 18.2010582,100.071429 C18.2010582,100.426294 17.9166223,100.714286 17.5661376,100.714286 C17.2156529,100.714286 16.9312169,100.426294 16.9312169,100.071429 C16.9312169,99.7165628 17.2156529,99.4285714 17.5661376,99.4285714" id="Fill-27"></path>
                        <path d="M17.5661376,89.5714286 C17.9166223,89.5714286 18.2010582,89.8594199 18.2010582,90.2142857 C18.2010582,90.5702301 17.9166223,90.8571429 17.5661376,90.8571429 C17.2156529,90.8571429 16.9312169,90.5702301 16.9312169,90.2142857 C16.9312169,89.8594199 17.2156529,89.5714286 17.5661376,89.5714286" id="Fill-29"></path>
                        <path d="M17.5661376,79.7142857 C17.9166223,79.7142857 18.2010582,80.0022771 18.2010582,80.3571429 C18.2010582,80.7120086 17.9166223,81 17.5661376,81 C17.2156529,81 16.9312169,80.7120086 16.9312169,80.3571429 C16.9312169,80.0022771 17.2156529,79.7142857 17.5661376,79.7142857" id="Fill-31"></path>
                        <path d="M17.5661376,69.8571429 C17.9166223,69.8571429 18.2010582,70.1451342 18.2010582,70.5 C18.2010582,70.8548658 17.9166223,71.1428571 17.5661376,71.1428571 C17.2156529,71.1428571 16.9312169,70.8548658 16.9312169,70.5 C16.9312169,70.1451342 17.2156529,69.8571429 17.5661376,69.8571429" id="Fill-33"></path>
                        <path d="M17.5661376,60.4285714 C17.9166223,60.4285714 18.2010582,60.7163214 18.2010582,61.0708897 C18.2010582,61.4265357 17.9166223,61.7142857 17.5661376,61.7142857 C17.2156529,61.7142857 16.9312169,61.4265357 16.9312169,61.0708897 C16.9312169,60.7163214 17.2156529,60.4285714 17.5661376,60.4285714" id="Fill-35"></path>
                        <path d="M26.4550265,109.714286 C26.8055112,109.714286 27.0899471,110.002277 27.0899471,110.357143 C27.0899471,110.712009 26.8055112,111 26.4550265,111 C26.1045417,111 25.8201058,110.712009 25.8201058,110.357143 C25.8201058,110.002277 26.1045417,109.714286 26.4550265,109.714286" id="Fill-37"></path>
                        <path d="M26.4550265,99.4285714 C26.8055112,99.4285714 27.0899471,99.7165628 27.0899471,100.071429 C27.0899471,100.426294 26.8055112,100.714286 26.4550265,100.714286 C26.1045417,100.714286 25.8201058,100.426294 25.8201058,100.071429 C25.8201058,99.7165628 26.1045417,99.4285714 26.4550265,99.4285714" id="Fill-39"></path>
                        <path d="M26.4550265,89.5714286 C26.8055112,89.5714286 27.0899471,89.8594199 27.0899471,90.2142857 C27.0899471,90.5702301 26.8055112,90.8571429 26.4550265,90.8571429 C26.1045417,90.8571429 25.8201058,90.5702301 25.8201058,90.2142857 C25.8201058,89.8594199 26.1045417,89.5714286 26.4550265,89.5714286" id="Fill-41"></path>
                        <path d="M26.4550265,79.7142857 C26.8055112,79.7142857 27.0899471,80.0022771 27.0899471,80.3571429 C27.0899471,80.7120086 26.8055112,81 26.4550265,81 C26.1045417,81 25.8201058,80.7120086 25.8201058,80.3571429 C25.8201058,80.0022771 26.1045417,79.7142857 26.4550265,79.7142857" id="Fill-43"></path>
                        <path d="M26.4550265,69.8571429 C26.8055112,69.8571429 27.0899471,70.1451342 27.0899471,70.5 C27.0899471,70.8548658 26.8055112,71.1428571 26.4550265,71.1428571 C26.1045417,71.1428571 25.8201058,70.8548658 25.8201058,70.5 C25.8201058,70.1451342 26.1045417,69.8571429 26.4550265,69.8571429" id="Fill-45"></path>
                        <path d="M26.4550265,60.4285714 C26.8055112,60.4285714 27.0899471,60.7163214 27.0899471,61.0708897 C27.0899471,61.4265357 26.8055112,61.7142857 26.4550265,61.7142857 C26.1045417,61.7142857 25.8201058,61.4265357 25.8201058,61.0708897 C25.8201058,60.7163214 26.1045417,60.4285714 26.4550265,60.4285714" id="Fill-47"></path>
                        <path d="M34.9206349,109.714286 C35.2711196,109.714286 35.5555556,110.002277 35.5555556,110.357143 C35.5555556,110.712009 35.2711196,111 34.9206349,111 C34.5701502,111 34.2857143,110.712009 34.2857143,110.357143 C34.2857143,110.002277 34.5701502,109.714286 34.9206349,109.714286" id="Fill-49"></path>
                        <path d="M34.9206349,99.4285714 C35.2711196,99.4285714 35.5555556,99.7165628 35.5555556,100.071429 C35.5555556,100.426294 35.2711196,100.714286 34.9206349,100.714286 C34.5701502,100.714286 34.2857143,100.426294 34.2857143,100.071429 C34.2857143,99.7165628 34.5701502,99.4285714 34.9206349,99.4285714" id="Fill-51"></path>
                        <path d="M34.9206349,89.5714286 C35.2711196,89.5714286 35.5555556,89.8594199 35.5555556,90.2142857 C35.5555556,90.5702301 35.2711196,90.8571429 34.9206349,90.8571429 C34.5701502,90.8571429 34.2857143,90.5702301 34.2857143,90.2142857 C34.2857143,89.8594199 34.5701502,89.5714286 34.9206349,89.5714286" id="Fill-53"></path>
                        <path d="M34.9206349,79.7142857 C35.2711196,79.7142857 35.5555556,80.0022771 35.5555556,80.3571429 C35.5555556,80.7120086 35.2711196,81 34.9206349,81 C34.5701502,81 34.2857143,80.7120086 34.2857143,80.3571429 C34.2857143,80.0022771 34.5701502,79.7142857 34.9206349,79.7142857" id="Fill-55"></path>
                        <path d="M34.9206349,69.8571429 C35.2711196,69.8571429 35.5555556,70.1451342 35.5555556,70.5 C35.5555556,70.8548658 35.2711196,71.1428571 34.9206349,71.1428571 C34.5701502,71.1428571 34.2857143,70.8548658 34.2857143,70.5 C34.2857143,70.1451342 34.5701502,69.8571429 34.9206349,69.8571429" id="Fill-57"></path>
                        <path d="M34.9206349,60.4285714 C35.2711196,60.4285714 35.5555556,60.7163214 35.5555556,61.0708897 C35.5555556,61.4265357 35.2711196,61.7142857 34.9206349,61.7142857 C34.5701502,61.7142857 34.2857143,61.4265357 34.2857143,61.0708897 C34.2857143,60.7163214 34.5701502,60.4285714 34.9206349,60.4285714" id="Fill-59"></path>
                        <path d="M45.0793651,109.714286 C45.4309151,109.714286 45.7142857,110.002277 45.7142857,110.357143 C45.7142857,110.712009 45.4309151,111 45.0793651,111 C44.7288804,111 44.4444444,110.712009 44.4444444,110.357143 C44.4444444,110.002277 44.7288804,109.714286 45.0793651,109.714286" id="Fill-61"></path>
                        <path d="M45.0793651,99.4285714 C45.4309151,99.4285714 45.7142857,99.7165628 45.7142857,100.071429 C45.7142857,100.426294 45.4309151,100.714286 45.0793651,100.714286 C44.7288804,100.714286 44.4444444,100.426294 44.4444444,100.071429 C44.4444444,99.7165628 44.7288804,99.4285714 45.0793651,99.4285714" id="Fill-63"></path>
                        <path d="M45.0793651,89.5714286 C45.4309151,89.5714286 45.7142857,89.8594199 45.7142857,90.2142857 C45.7142857,90.5702301 45.4309151,90.8571429 45.0793651,90.8571429 C44.7288804,90.8571429 44.4444444,90.5702301 44.4444444,90.2142857 C44.4444444,89.8594199 44.7288804,89.5714286 45.0793651,89.5714286" id="Fill-65"></path>
                        <path d="M45.0793651,79.7142857 C45.4309151,79.7142857 45.7142857,80.0022771 45.7142857,80.3571429 C45.7142857,80.7120086 45.4309151,81 45.0793651,81 C44.7288804,81 44.4444444,80.7120086 44.4444444,80.3571429 C44.4444444,80.0022771 44.7288804,79.7142857 45.0793651,79.7142857" id="Fill-67"></path>
                        <path d="M45.0793651,69.8571429 C45.4309151,69.8571429 45.7142857,70.1451342 45.7142857,70.5 C45.7142857,70.8548658 45.4309151,71.1428571 45.0793651,71.1428571 C44.7288804,71.1428571 44.4444444,70.8548658 44.4444444,70.5 C44.4444444,70.1451342 44.7288804,69.8571429 45.0793651,69.8571429" id="Fill-69"></path>
                        <path d="M45.0793651,60.4285714 C45.4309151,60.4285714 45.7142857,60.7163214 45.7142857,61.0708897 C45.7142857,61.4265357 45.4309151,61.7142857 45.0793651,61.7142857 C44.7288804,61.7142857 44.4444444,61.4265357 44.4444444,61.0708897 C44.4444444,60.7163214 44.7288804,60.4285714 45.0793651,60.4285714" id="Fill-71"></path>
                        <path d="M53.1216931,109.714286 C53.4721778,109.714286 53.7566138,110.002277 53.7566138,110.357143 C53.7566138,110.712009 53.4721778,111 53.1216931,111 C52.7701431,111 52.4867725,110.712009 52.4867725,110.357143 C52.4867725,110.002277 52.7701431,109.714286 53.1216931,109.714286" id="Fill-73"></path>
                        <path d="M53.1216931,99.4285714 C53.4721778,99.4285714 53.7566138,99.7165628 53.7566138,100.071429 C53.7566138,100.426294 53.4721778,100.714286 53.1216931,100.714286 C52.7701431,100.714286 52.4867725,100.426294 52.4867725,100.071429 C52.4867725,99.7165628 52.7701431,99.4285714 53.1216931,99.4285714" id="Fill-75"></path>
                        <path d="M53.1216931,89.5714286 C53.4721778,89.5714286 53.7566138,89.8594199 53.7566138,90.2142857 C53.7566138,90.5702301 53.4721778,90.8571429 53.1216931,90.8571429 C52.7701431,90.8571429 52.4867725,90.5702301 52.4867725,90.2142857 C52.4867725,89.8594199 52.7701431,89.5714286 53.1216931,89.5714286" id="Fill-77"></path>
                        <path d="M53.1216931,79.7142857 C53.4721778,79.7142857 53.7566138,80.0022771 53.7566138,80.3571429 C53.7566138,80.7120086 53.4721778,81 53.1216931,81 C52.7701431,81 52.4867725,80.7120086 52.4867725,80.3571429 C52.4867725,80.0022771 52.7701431,79.7142857 53.1216931,79.7142857" id="Fill-79"></path>
                        <path d="M53.1216931,69.8571429 C53.4721778,69.8571429 53.7566138,70.1451342 53.7566138,70.5 C53.7566138,70.8548658 53.4721778,71.1428571 53.1216931,71.1428571 C52.7701431,71.1428571 52.4867725,70.8548658 52.4867725,70.5 C52.4867725,70.1451342 52.7701431,69.8571429 53.1216931,69.8571429" id="Fill-81"></path>
                        <path d="M53.1216931,60.4285714 C53.4721778,60.4285714 53.7566138,60.7163214 53.7566138,61.0708897 C53.7566138,61.4265357 53.4721778,61.7142857 53.1216931,61.7142857 C52.7701431,61.7142857 52.4867725,61.4265357 52.4867725,61.0708897 C52.4867725,60.7163214 52.7701431,60.4285714 53.1216931,60.4285714" id="Fill-83"></path>
                        <path d="M62.010582,109.714286 C62.362132,109.714286 62.6455026,110.002277 62.6455026,110.357143 C62.6455026,110.712009 62.362132,111 62.010582,111 C61.6600973,111 61.3756614,110.712009 61.3756614,110.357143 C61.3756614,110.002277 61.6600973,109.714286 62.010582,109.714286" id="Fill-85"></path>
                        <path d="M62.010582,99.4285714 C62.362132,99.4285714 62.6455026,99.7165628 62.6455026,100.071429 C62.6455026,100.426294 62.362132,100.714286 62.010582,100.714286 C61.6600973,100.714286 61.3756614,100.426294 61.3756614,100.071429 C61.3756614,99.7165628 61.6600973,99.4285714 62.010582,99.4285714" id="Fill-87"></path>
                        <path d="M62.010582,89.5714286 C62.362132,89.5714286 62.6455026,89.8594199 62.6455026,90.2142857 C62.6455026,90.5702301 62.362132,90.8571429 62.010582,90.8571429 C61.6600973,90.8571429 61.3756614,90.5702301 61.3756614,90.2142857 C61.3756614,89.8594199 61.6600973,89.5714286 62.010582,89.5714286" id="Fill-89"></path>
                        <path d="M62.010582,79.7142857 C62.362132,79.7142857 62.6455026,80.0022771 62.6455026,80.3571429 C62.6455026,80.7120086 62.362132,81 62.010582,81 C61.6600973,81 61.3756614,80.7120086 61.3756614,80.3571429 C61.3756614,80.0022771 61.6600973,79.7142857 62.010582,79.7142857" id="Fill-91"></path>
                        <path d="M62.010582,69.8571429 C62.362132,69.8571429 62.6455026,70.1451342 62.6455026,70.5 C62.6455026,70.8548658 62.362132,71.1428571 62.010582,71.1428571 C61.6600973,71.1428571 61.3756614,70.8548658 61.3756614,70.5 C61.3756614,70.1451342 61.6600973,69.8571429 62.010582,69.8571429" id="Fill-93"></path>
                        <path d="M62.010582,60.4285714 C62.362132,60.4285714 62.6455026,60.7163214 62.6455026,61.0708897 C62.6455026,61.4265357 62.362132,61.7142857 62.010582,61.7142857 C61.6600973,61.7142857 61.3756614,61.4265357 61.3756614,61.0708897 C61.3756614,60.7163214 61.6600973,60.4285714 62.010582,60.4285714" id="Fill-95"></path>
                        <path d="M70.4761905,109.714286 C70.8277405,109.714286 71.1111111,110.002277 71.1111111,110.357143 C71.1111111,110.712009 70.8277405,111 70.4761905,111 C70.1257058,111 69.8412698,110.712009 69.8412698,110.357143 C69.8412698,110.002277 70.1257058,109.714286 70.4761905,109.714286" id="Fill-97"></path>
                        <path d="M70.4761905,99.4285714 C70.8277405,99.4285714 71.1111111,99.7165628 71.1111111,100.071429 C71.1111111,100.426294 70.8277405,100.714286 70.4761905,100.714286 C70.1257058,100.714286 69.8412698,100.426294 69.8412698,100.071429 C69.8412698,99.7165628 70.1257058,99.4285714 70.4761905,99.4285714" id="Fill-99"></path>
                        <path d="M70.4761905,89.5714286 C70.8277405,89.5714286 71.1111111,89.8594199 71.1111111,90.2142857 C71.1111111,90.5702301 70.8277405,90.8571429 70.4761905,90.8571429 C70.1257058,90.8571429 69.8412698,90.5702301 69.8412698,90.2142857 C69.8412698,89.8594199 70.1257058,89.5714286 70.4761905,89.5714286" id="Fill-101"></path>
                        <path d="M70.4761905,79.7142857 C70.8277405,79.7142857 71.1111111,80.0022771 71.1111111,80.3571429 C71.1111111,80.7120086 70.8277405,81 70.4761905,81 C70.1257058,81 69.8412698,80.7120086 69.8412698,80.3571429 C69.8412698,80.0022771 70.1257058,79.7142857 70.4761905,79.7142857" id="Fill-103"></path>
                        <path d="M70.4761905,69.8571429 C70.8277405,69.8571429 71.1111111,70.1451342 71.1111111,70.5 C71.1111111,70.8548658 70.8277405,71.1428571 70.4761905,71.1428571 C70.1257058,71.1428571 69.8412698,70.8548658 69.8412698,70.5 C69.8412698,70.1451342 70.1257058,69.8571429 70.4761905,69.8571429" id="Fill-105"></path>
                        <path d="M70.4761905,60.4285714 C70.8277405,60.4285714 71.1111111,60.7163214 71.1111111,61.0708897 C71.1111111,61.4265357 70.8277405,61.7142857 70.4761905,61.7142857 C70.1257058,61.7142857 69.8412698,61.4265357 69.8412698,61.0708897 C69.8412698,60.7163214 70.1257058,60.4285714 70.4761905,60.4285714" id="Fill-107"></path>
                        <path d="M79.3650794,109.714286 C79.7155641,109.714286 80,110.002277 80,110.357143 C80,110.712009 79.7155641,111 79.3650794,111 C79.0135293,111 78.7301587,110.712009 78.7301587,110.357143 C78.7301587,110.002277 79.0135293,109.714286 79.3650794,109.714286" id="Fill-109"></path>
                        <path d="M79.3650794,99.4285714 C79.7155641,99.4285714 80,99.7165628 80,100.071429 C80,100.426294 79.7155641,100.714286 79.3650794,100.714286 C79.0135293,100.714286 78.7301587,100.426294 78.7301587,100.071429 C78.7301587,99.7165628 79.0135293,99.4285714 79.3650794,99.4285714" id="Fill-111"></path>
                        <path d="M79.3650794,89.5714286 C79.7155641,89.5714286 80,89.8594199 80,90.2142857 C80,90.5702301 79.7155641,90.8571429 79.3650794,90.8571429 C79.0135293,90.8571429 78.7301587,90.5702301 78.7301587,90.2142857 C78.7301587,89.8594199 79.0135293,89.5714286 79.3650794,89.5714286" id="Fill-113"></path>
                        <path d="M79.3650794,79.7142857 C79.7155641,79.7142857 80,80.0022771 80,80.3571429 C80,80.7120086 79.7155641,81 79.3650794,81 C79.0135293,81 78.7301587,80.7120086 78.7301587,80.3571429 C78.7301587,80.0022771 79.0135293,79.7142857 79.3650794,79.7142857" id="Fill-115"></path>
                        <path d="M79.3650794,69.8571429 C79.7155641,69.8571429 80,70.1451342 80,70.5 C80,70.8548658 79.7155641,71.1428571 79.3650794,71.1428571 C79.0135293,71.1428571 78.7301587,70.8548658 78.7301587,70.5 C78.7301587,70.1451342 79.0135293,69.8571429 79.3650794,69.8571429" id="Fill-117"></path>
                        <path d="M79.3650794,60.4285714 C79.7155641,60.4285714 80,60.7163214 80,61.0708897 C80,61.4265357 79.7155641,61.7142857 79.3650794,61.7142857 C79.0135293,61.7142857 78.7301587,61.4265357 78.7301587,61.0708897 C78.7301587,60.7163214 79.0135293,60.4285714 79.3650794,60.4285714" id="Fill-119"></path>
                        <path d="M0.634920635,49.2857143 C0.985405348,49.2857143 1.26984127,49.5737057 1.26984127,49.9285714 C1.26984127,50.2834372 0.985405348,50.5714286 0.634920635,50.5714286 C0.284435922,50.5714286 0,50.2834372 0,49.9285714 C0,49.5737057 0.284435922,49.2857143 0.634920635,49.2857143" id="Fill-121"></path>
                        <path d="M9.1005291,49.2857143 C9.45101381,49.2857143 9.73544974,49.5737057 9.73544974,49.9285714 C9.73544974,50.2834372 9.45101381,50.5714286 9.1005291,50.5714286 C8.75004439,50.5714286 8.46560847,50.2834372 8.46560847,49.9285714 C8.46560847,49.5737057 8.75004439,49.2857143 9.1005291,49.2857143" id="Fill-133"></path>
                        <path d="M17.5661376,49.2857143 C17.9166223,49.2857143 18.2010582,49.5737057 18.2010582,49.9285714 C18.2010582,50.2834372 17.9166223,50.5714286 17.5661376,50.5714286 C17.2156529,50.5714286 16.9312169,50.2834372 16.9312169,49.9285714 C16.9312169,49.5737057 17.2156529,49.2857143 17.5661376,49.2857143" id="Fill-145"></path>
                        <path d="M26.4550265,49.2857143 C26.8055112,49.2857143 27.0899471,49.5737057 27.0899471,49.9285714 C27.0899471,50.2834372 26.8055112,50.5714286 26.4550265,50.5714286 C26.1045417,50.5714286 25.8201058,50.2834372 25.8201058,49.9285714 C25.8201058,49.5737057 26.1045417,49.2857143 26.4550265,49.2857143" id="Fill-157"></path>
                        <path d="M34.9206349,49.2857143 C35.2711196,49.2857143 35.5555556,49.5737057 35.5555556,49.9285714 C35.5555556,50.2834372 35.2711196,50.5714286 34.9206349,50.5714286 C34.5701502,50.5714286 34.2857143,50.2834372 34.2857143,49.9285714 C34.2857143,49.5737057 34.5701502,49.2857143 34.9206349,49.2857143" id="Fill-169"></path>
                        <path d="M45.0793651,49.2857143 C45.4309151,49.2857143 45.7142857,49.5737057 45.7142857,49.9285714 C45.7142857,50.2834372 45.4309151,50.5714286 45.0793651,50.5714286 C44.7288804,50.5714286 44.4444444,50.2834372 44.4444444,49.9285714 C44.4444444,49.5737057 44.7288804,49.2857143 45.0793651,49.2857143" id="Fill-181"></path>
                        <path d="M53.1216931,49.2857143 C53.4721778,49.2857143 53.7566138,49.5737057 53.7566138,49.9285714 C53.7566138,50.2834372 53.4721778,50.5714286 53.1216931,50.5714286 C52.7701431,50.5714286 52.4867725,50.2834372 52.4867725,49.9285714 C52.4867725,49.5737057 52.7701431,49.2857143 53.1216931,49.2857143" id="Fill-193"></path>
                        <path d="M62.010582,49.2857143 C62.362132,49.2857143 62.6455026,49.5737057 62.6455026,49.9285714 C62.6455026,50.2834372 62.362132,50.5714286 62.010582,50.5714286 C61.6600973,50.5714286 61.3756614,50.2834372 61.3756614,49.9285714 C61.3756614,49.5737057 61.6600973,49.2857143 62.010582,49.2857143" id="Fill-205"></path>
                        <path d="M70.4761905,49.2857143 C70.8277405,49.2857143 71.1111111,49.5737057 71.1111111,49.9285714 C71.1111111,50.2834372 70.8277405,50.5714286 70.4761905,50.5714286 C70.1257058,50.5714286 69.8412698,50.2834372 69.8412698,49.9285714 C69.8412698,49.5737057 70.1257058,49.2857143 70.4761905,49.2857143" id="Fill-217"></path>
                        <path d="M79.3650794,49.2857143 C79.7155641,49.2857143 80,49.5737057 80,49.9285714 C80,50.2834372 79.7155641,50.5714286 79.3650794,50.5714286 C79.0135293,50.5714286 78.7301587,50.2834372 78.7301587,49.9285714 C78.7301587,49.5737057 79.0135293,49.2857143 79.3650794,49.2857143" id="Fill-229"></path>
                    </g>
                    <g id="Group-244" transform="translate(67.000000, 65.000000)">
                        <mask id="mask-2" fill="white">
                            <use xlink:href="#path-1"></use>
                        </mask>
                        <g id="Clip-243"></g>
                        <g id="Fill-242" mask="url(#mask-2)">
                            <use fill="url(#linearGradient-3)" xlink:href="#path-5"></use>
                            <use fill="url(#linearGradient-4)" xlink:href="#path-5"></use>
                        </g>
                    </g>
                    <g id="Group-247" transform="translate(41.000000, 66.000000)">
                        <mask id="mask-7" fill="white">
                            <use xlink:href="#path-6"></use>
                        </mask>
                        <g id="Clip-246"></g>
                        <g id="Fill-245" mask="url(#mask-7)">
                            <use fill="url(#linearGradient-8)" xlink:href="#path-10"></use>
                            <use fill="url(#linearGradient-9)" xlink:href="#path-10"></use>
                        </g>
                    </g>
                    <g id="Group-250" transform="translate(93.000000, 62.000000)">
                        <mask id="mask-12" fill="white">
                            <use xlink:href="#path-11"></use>
                        </mask>
                        <g id="Clip-249"></g>
                        <g id="Fill-248" mask="url(#mask-12)">
                            <use fill="url(#linearGradient-13)" xlink:href="#path-15"></use>
                            <use fill="url(#linearGradient-14)" xlink:href="#path-15"></use>
                        </g>
                    </g>
                    <g id="Group-253" transform="translate(110.000000, 74.000000)">
                        <mask id="mask-17" fill="white">
                            <use xlink:href="#path-16"></use>
                        </mask>
                        <g id="Clip-252"></g>
                        <path d="M1.11589937,0.371672904 C-0.765264861,1.48192658 -0.0294723022,3.57794733 1.56172441,4.5375067 L1.56172441,4.5375067 C2.33255471,5.0015022 3.36677217,5.20937695 4.1194795,4.7161956 L4.1194795,4.7161956 C4.84741877,4.23909625 5.0691231,3.26762428 4.98213284,2.41051321 L4.98213284,2.41051321 C4.84198188,1.02865241 3.71352498,0 2.42860645,0 L2.42860645,0 C1.99848798,0 1.55024653,0.115552153 1.11589937,0.371672904" id="Fill-251" fill="url(#linearGradient-18)" mask="url(#mask-17)"></path>
                    </g>
                    <g id="Group-256" transform="translate(7.000000, 108.000000)">
                        <mask id="mask-20" fill="white">
                            <use xlink:href="#path-19"></use>
                        </mask>
                        <g id="Clip-255"></g>
                        <path d="M2.92551915,0.2088 C1.31635902,0.2088 0,1.4766 0,3.0258 L0,3.0258 C0,4.5756 1.31635902,5.8434 2.92551915,5.8434 L2.92551915,5.8434 L71.913821,5.8434 C73.5229811,5.8434 74.8387171,4.5756 74.8387171,3.0258 L74.8387171,3.0258 C74.8387171,1.4766 73.5229811,0.2088 71.913821,0.2088 L71.913821,0.2088 L2.92551915,0.2088 Z" id="Fill-254" fill="url(#linearGradient-21)" mask="url(#mask-20)"></path>
                    </g>
                    <g id="Group-259" transform="translate(30.000000, 116.000000)">
                        <mask id="mask-23" fill="white">
                            <use xlink:href="#path-22"></use>
                        </mask>
                        <g id="Clip-258"></g>
                        <path d="M1.32732026,0.032 C0.670936819,0.032 0.133507625,0.434742857 0.133507625,0.926628571 L0.133507625,0.926628571 C0.133507625,1.41851429 0.670936819,1.82125714 1.32732026,1.82125714 L1.32732026,1.82125714 L8.48836601,1.82125714 C9.14413943,1.82125714 9.68156863,1.41851429 9.68156863,0.926628571 L9.68156863,0.926628571 C9.68156863,0.434742857 9.14413943,0.032 8.48836601,0.032 L8.48836601,0.032 L1.32732026,0.032 Z" id="Fill-257" fill="url(#linearGradient-24)" mask="url(#mask-23)"></path>
                    </g>
                    <g id="Group-274" transform="translate(25.000000, 65.000000)" fill="#FFD249">
                        <path d="M2.05533481,1.2722807 C1.68762965,1.2722807 1.13235771,2.17798246 1.13235771,3.54359649 C1.13235771,4.90859649 1.68762965,5.81429825 2.05533481,5.81429825 C2.42242094,5.81429825 2.9783119,4.90859649 2.9783119,3.54359649 C2.9783119,2.17798246 2.42242094,1.2722807 2.05533481,1.2722807 M2.05533481,6.93245614 C0.886601903,6.93245614 0.005719,5.47535088 0.005719,3.54359649 C0.005719,1.61122807 0.886601903,0.154736842 2.05533481,0.154736842 C3.22406771,0.154736842 4.10495061,1.61122807 4.10495061,3.54359649 C4.10495061,5.47535088 3.22406771,6.93245614 2.05533481,6.93245614" id="Fill-260"></path>
                        <path d="M7.64507229,1.2722807 C7.27736713,1.2722807 6.72209519,2.17798246 6.72209519,3.54359649 C6.72209519,4.90859649 7.27736713,5.81429825 7.64507229,5.81429825 C8.01215842,5.81429825 8.56804939,4.90859649 8.56804939,3.54359649 C8.56804939,2.17798246 8.01215842,1.2722807 7.64507229,1.2722807 M7.64507229,6.93245614 C6.47633939,6.93245614 5.59545648,5.47535088 5.59545648,3.54359649 C5.59545648,1.61122807 6.47633939,0.154736842 7.64507229,0.154736842 C8.81380519,0.154736842 9.6946881,1.61122807 9.6946881,3.54359649 C9.6946881,5.47535088 8.81380519,6.93245614 7.64507229,6.93245614" id="Fill-262"></path>
                        <path d="M13.2347479,1.2722807 C12.8670427,1.2722807 12.3117708,2.17798246 12.3117708,3.54359649 C12.3117708,4.90859649 12.8670427,5.81429825 13.2347479,5.81429825 C13.601834,5.81429825 14.157725,4.90859649 14.157725,3.54359649 C14.157725,2.17798246 13.601834,1.2722807 13.2347479,1.2722807 M13.2347479,6.93245614 C12.066015,6.93245614 11.1851321,5.47535088 11.1851321,3.54359649 C11.1851321,1.61122807 12.066015,0.154736842 13.2347479,0.154736842 C14.4034808,0.154736842 15.2843637,1.61122807 15.2843637,3.54359649 C15.2843637,5.47535088 14.4034808,6.93245614 13.2347479,6.93245614" id="Fill-264"></path>
                        <path d="M18.8244854,1.2722807 C18.4567802,1.2722807 17.9015083,2.17798246 17.9015083,3.54359649 C17.9015083,4.90859649 18.4567802,5.81429825 18.8244854,5.81429825 C19.1915715,5.81429825 19.7474625,4.90859649 19.7474625,3.54359649 C19.7474625,2.17798246 19.1915715,1.2722807 18.8244854,1.2722807 M18.8244854,6.93245614 C17.6557525,6.93245614 16.7748695,5.47535088 16.7748695,3.54359649 C16.7748695,1.61122807 17.6557525,0.154736842 18.8244854,0.154736842 C19.9932183,0.154736842 20.8741012,1.61122807 20.8741012,3.54359649 C20.8741012,5.47535088 19.9932183,6.93245614 18.8244854,6.93245614" id="Fill-266"></path>
                        <path d="M24.4142228,1.2722807 C24.0471367,1.2722807 23.4912457,2.17798246 23.4912457,3.54359649 C23.4912457,4.90859649 24.0471367,5.81429825 24.4142228,5.81429825 C24.781309,5.81429825 25.3371999,4.90859649 25.3371999,3.54359649 C25.3371999,2.17798246 24.781309,1.2722807 24.4142228,1.2722807 M24.4142228,6.93245614 C23.2454899,6.93245614 22.364607,5.47535088 22.364607,3.54359649 C22.364607,1.61122807 23.2454899,0.154736842 24.4142228,0.154736842 C25.5829557,0.154736842 26.4638386,1.61122807 26.4638386,3.54359649 C26.4638386,5.47535088 25.5829557,6.93245614 24.4142228,6.93245614" id="Fill-268"></path>
                        <path d="M30.0039603,1.2722807 C29.6368742,1.2722807 29.0809832,2.17798246 29.0809832,3.54359649 C29.0809832,4.90859649 29.6368742,5.81429825 30.0039603,5.81429825 C30.3716655,5.81429825 30.9269374,4.90859649 30.9269374,3.54359649 C30.9269374,2.17798246 30.3716655,1.2722807 30.0039603,1.2722807 M30.0039603,6.93245614 C28.8352274,6.93245614 27.9537255,5.47535088 27.9537255,3.54359649 C27.9537255,1.61122807 28.8352274,0.154736842 30.0039603,0.154736842 C31.1726932,0.154736842 32.0535761,1.61122807 32.0535761,3.54359649 C32.0535761,5.47535088 31.1726932,6.93245614 30.0039603,6.93245614" id="Fill-270"></path>
                        <path d="M35.5936978,1.2722807 C35.2266117,1.2722807 34.6707207,2.17798246 34.6707207,3.54359649 C34.6707207,4.90859649 35.2266117,5.81429825 35.5936978,5.81429825 C35.961403,5.81429825 36.5166749,4.90859649 36.5166749,3.54359649 C36.5166749,2.17798246 35.961403,1.2722807 35.5936978,1.2722807 M35.5936978,6.93245614 C34.4249649,6.93245614 33.544082,5.47535088 33.544082,3.54359649 C33.544082,1.61122807 34.4249649,0.154736842 35.5936978,0.154736842 C36.7624307,0.154736842 37.6433136,1.61122807 37.6433136,3.54359649 C37.6433136,5.47535088 36.7624307,6.93245614 35.5936978,6.93245614" id="Fill-272"></path>
                    </g>
                    <g id="Group-277" transform="translate(15.000000, 67.000000)">
                        <mask id="mask-26" fill="white">
                            <use xlink:href="#path-25"></use>
                        </mask>
                        <g id="Clip-276"></g>
                        <g id="Fill-275" mask="url(#mask-26)">
                            <use fill="url(#linearGradient-27)" xlink:href="#path-28"></use>
                            <use fill="#256E9F" xlink:href="#path-28"></use>
                        </g>
                    </g>
                    <g id="Group-280" transform="translate(14.000000, 101.000000)">
                        <mask id="mask-30" fill="white">
                            <use xlink:href="#path-29"></use>
                        </mask>
                        <g id="Clip-279"></g>
                        <g id="Fill-278" mask="url(#mask-30)">
                            <use fill="url(#linearGradient-31)" xlink:href="#path-33"></use>
                            <use fill="url(#linearGradient-32)" xlink:href="#path-33"></use>
                        </g>
                    </g>
                    <g id="Group-283" transform="translate(22.000000, 101.000000)">
                        <mask id="mask-35" fill="white">
                            <use xlink:href="#path-34"></use>
                        </mask>
                        <g id="Clip-282"></g>
                        <g id="Fill-281" mask="url(#mask-35)">
                            <use fill="url(#linearGradient-36)" xlink:href="#path-38"></use>
                            <use fill="url(#linearGradient-37)" xlink:href="#path-38"></use>
                        </g>
                    </g>
                    <polygon id="Fill-284" fill="#FFFFFF" points="71 110 31.3970129 110 25.8125927 78.2889666 25.4712291 76.34609 24 68 63.6035881 68 65.0742162 76.34609 65.4155798 78.2889666"></polygon>
                    <g id="Group-288" transform="translate(23.000000, 67.000000)">
                        <mask id="mask-40" fill="white">
                            <use xlink:href="#path-39"></use>
                        </mask>
                        <g id="Clip-287"></g>
                        <g id="Fill-286" mask="url(#mask-40)">
                            <use fill="url(#linearGradient-41)" xlink:href="#path-42"></use>
                            <use fill="#F7C20B" xlink:href="#path-42"></use>
                        </g>
                    </g>
                    <g id="Group-305" transform="translate(26.000000, 71.000000)">
                        <path d="M37.7197843,34.5148051 L36.9083129,30.1042402 L41.6899129,30.1042402 L42.4995414,34.5148051 L37.7197843,34.5148051 Z M32.2698414,34.5148051 L31.4589843,30.1042402 L36.6263557,30.1042402 L37.4378271,34.5148051 L32.2698414,34.5148051 Z M26.8223557,34.5148051 L26.0108843,30.1042402 L31.1782557,30.1042402 L31.9897271,34.5148051 L26.8223557,34.5148051 Z M21.3730271,34.5148051 L20.5609414,30.1042402 L25.7283129,30.1042402 L26.5403986,34.5148051 L21.3730271,34.5148051 Z M15.9249271,34.5148051 L15.1134557,30.1042402 L20.2808271,30.1042402 L21.0922986,34.5148051 L15.9249271,34.5148051 Z M10.4755986,34.5148051 L9.66412714,30.1042402 L14.8314986,30.1042402 L15.64297,34.5148051 L10.4755986,34.5148051 Z M5.23819857,34.5148051 L4.42857,30.1042402 L9.38401286,30.1042402 L10.19487,34.5148051 L5.23819857,34.5148051 Z M3.53908429,25.2667677 L8.49452714,25.2667677 L9.33425571,29.8291897 L4.37697,29.8291897 L3.53908429,25.2667677 Z M2.65082714,20.4292952 L7.60749857,20.4292952 L8.44477,24.9923271 L3.48748429,24.9923271 L2.65082714,20.4292952 Z M1.76134143,15.5942622 L6.71862714,15.5942622 L7.55589857,20.1548546 L2.59922714,20.1548546 L1.76134143,15.5942622 Z M0.933898571,11.0861184 L5.89118429,11.0861184 L6.66887,15.3192118 L1.71158429,15.3192118 L0.933898571,11.0861184 Z M11.33867,11.0861184 L12.11697,15.3192118 L6.94775571,15.3192118 L6.17129857,11.0861184 L11.33867,11.0861184 Z M16.7879986,11.0861184 L17.5662986,15.3192118 L12.3970843,15.3192118 L11.6206271,11.0861184 L16.7879986,11.0861184 Z M22.2354843,11.0861184 L23.0143986,15.3192118 L17.8451843,15.3192118 L17.0681129,11.0861184 L22.2354843,11.0861184 Z M27.6854271,11.0861184 L28.4637271,15.3192118 L23.2945129,15.3192118 L22.5180557,11.0861184 L27.6854271,11.0861184 Z M33.1329129,11.0861184 L33.9112129,15.3192118 L28.7419986,15.3192118 L27.9655414,11.0861184 L33.1329129,11.0861184 Z M38.1952414,11.0861184 L38.9741557,15.3192118 L34.1919414,15.3192118 L33.4154843,11.0861184 L38.1952414,11.0861184 Z M39.86057,20.1548546 L35.0808129,20.1548546 L34.2435414,15.5942622 L39.0239129,15.5942622 L39.86057,20.1548546 Z M40.7494414,24.9923271 L35.9696843,24.9923271 L35.13057,20.4292952 L39.91217,20.4292952 L40.7494414,24.9923271 Z M30.5694986,25.2667677 L35.73687,25.2667677 L36.5759843,29.8291897 L31.4092271,29.8291897 L30.5694986,25.2667677 Z M25.1220129,25.2667677 L30.2893843,25.2667677 L31.1284986,29.8291897 L25.9611271,29.8291897 L25.1220129,25.2667677 Z M19.6726843,25.2667677 L24.8400557,25.2667677 L25.6785557,29.8291897 L20.5111843,29.8291897 L19.6726843,25.2667677 Z M14.2245843,25.2667677 L19.3919557,25.2667677 L20.23107,29.8291897 L15.0636986,29.8291897 L14.2245843,25.2667677 Z M13.9426271,25.2667677 L14.7817414,29.8291897 L9.61437,29.8291897 L8.77525571,25.2667677 L13.9426271,25.2667677 Z M13.0555986,20.4292952 L13.89287,24.9923271 L8.72549857,24.9923271 L7.88638429,20.4292952 L13.0555986,20.4292952 Z M13.0039986,20.1548546 L7.83662714,20.1548546 L6.99935571,15.5942622 L12.1667271,15.5942622 L13.0039986,20.1548546 Z M18.4533271,20.1548546 L13.2859557,20.1548546 L12.4486843,15.5942622 L17.6160557,15.5942622 L18.4533271,20.1548546 Z M23.9008129,20.1548546 L18.7334414,20.1548546 L17.89617,15.5942622 L23.0641557,15.5942622 L23.9008129,20.1548546 Z M29.3507557,20.1548546 L24.1833843,20.1548546 L23.3461129,15.5942622 L28.5134843,15.5942622 L29.3507557,20.1548546 Z M29.63087,20.1548546 L28.7935986,15.5942622 L33.96097,15.5942622 L34.7982414,20.1548546 L29.63087,20.1548546 Z M29.6812414,20.4292952 L34.8504557,20.4292952 L35.6871129,24.9923271 L30.5197414,24.9923271 L29.6812414,20.4292952 Z M24.2331414,20.4292952 L29.4023557,20.4292952 L30.2396271,24.9923271 L25.0722557,24.9923271 L24.2331414,20.4292952 Z M19.3421986,24.9923271 L14.1748271,24.9923271 L13.3357129,20.4292952 L18.5049271,20.4292952 L19.3421986,24.9923271 Z M18.7831986,20.4292952 L23.9530271,20.4292952 L24.7902986,24.9923271 L19.6229271,24.9923271 L18.7831986,20.4292952 Z M41.6383129,29.8291897 L36.8585557,29.8291897 L36.0194414,25.2667677 L40.8016557,25.2667677 L41.6383129,29.8291897 Z M41.9706414,30.1042402 L41.9208843,29.8291897 L41.08177,25.2667677 L41.0320129,24.9923271 L40.1928986,20.4292952 L40.1431414,20.1548546 L39.3040271,15.5942622 L39.25427,15.3192118 L38.4255986,10.8116778 L33.3638843,10.8116778 L33.0831557,10.8116778 L27.9139414,10.8116778 L27.63567,10.8116778 L22.4664557,10.8116778 L22.1857271,10.8116778 L17.0165129,10.8116778 L16.7382414,10.8116778 L11.5690271,10.8116778 L11.2889129,10.8116778 L6.11969857,10.8116778 L5.84081286,10.8116778 L0.60157,10.8116778 L1.42962714,15.3192118 L1.47938429,15.5942622 L2.31849857,20.1548546 L2.36825571,20.4292952 L3.20737,24.9923271 L3.25712714,25.2667677 L4.09624143,29.8291897 L4.14599857,30.1042402 L5.00784143,34.7898556 L10.2446271,34.7898556 L10.5253557,34.7898556 L15.6927271,34.7898556 L15.9746843,34.7898556 L21.1420557,34.7898556 L21.4227843,34.7898556 L26.5901557,34.7898556 L26.8721129,34.7898556 L32.0394843,34.7898556 L32.3195986,34.7898556 L37.4875843,34.7898556 L37.7695414,34.7898556 L42.83187,34.7898556 L41.9706414,30.1042402 Z" id="Fill-289" fill="#0ECCC6"></path>
                        <path d="M1.01590571,0.265414527 C0.567477143,0.326401321 0.264634286,0.824053558 0.340191429,1.37659391 C0.416362857,1.92974413 0.841448571,2.32920763 1.29049143,2.26822084 C1.73953429,2.20784391 2.04176286,1.71019167 1.96620571,1.15704145 C1.89064857,0.603891233 1.46494857,0.205037601 1.01590571,0.265414527" id="Fill-291" fill="#256E9F"></path>
                        <path d="M35.2821143,1.15698047 C35.2059429,0.603830246 34.7808571,0.204976614 34.3318143,0.26535354 C33.8827714,0.326340334 33.5805429,0.823992572 33.6567143,1.37653292 C33.7322714,1.93029301 34.1573571,2.32914664 34.6064,2.26815985 C35.0554429,2.20778292 35.3582857,1.71013069 35.2821143,1.15698047" id="Fill-293" fill="#256E9F"></path>
                        <path d="M28.7793471,0.265414527 C28.3303043,0.326401321 28.0280757,0.824053558 28.1036329,1.37659391 C28.17919,1.92974413 28.60489,2.32920763 29.0539329,2.26822084 C29.5029757,2.20784391 29.8052043,1.71019167 29.7296471,1.15704145 C29.6534757,0.603891233 29.22839,0.205037601 28.7793471,0.265414527" id="Fill-295" fill="#256E9F"></path>
                        <path d="M23.2267571,0.265414527 C22.7777143,0.326401321 22.4748714,0.824053558 22.5510429,1.37659391 C22.6266,1.92974413 23.0523,2.32920763 23.5013429,2.26822084 C23.9503857,2.20784391 24.2526143,1.71019167 24.1770571,1.15704145 C24.1008857,0.603891233 23.6751857,0.205037601 23.2267571,0.265414527" id="Fill-297" fill="#256E9F"></path>
                        <path d="M17.6739214,0.265414527 C17.2248786,0.326401321 16.92265,0.824053558 16.9982071,1.37659391 C17.0743786,1.92974413 17.4994643,2.32920763 17.9485071,2.26822084 C18.39755,2.20784391 18.6997786,1.71019167 18.6242214,1.15704145 C18.5486643,0.603891233 18.1229643,0.205037601 17.6739214,0.265414527" id="Fill-299" fill="#256E9F"></path>
                        <path d="M12.1213314,0.265414527 C11.6722886,0.326401321 11.37006,0.824053558 11.4456171,1.37659391 C11.5217886,1.92974413 11.9468743,2.32920763 12.3959171,2.26822084 C12.84496,2.20784391 13.1471886,1.71019167 13.0716314,1.15704145 C12.99546,0.603891233 12.5703743,0.205037601 12.1213314,0.265414527" id="Fill-301" fill="#256E9F"></path>
                        <path d="M6.56874143,0.265414527 C6.11969857,0.326401321 5.81685571,0.824053558 5.89302714,1.37659391 C5.96858429,1.92974413 6.39428429,2.32920763 6.84332714,2.26822084 C7.29237,2.20784391 7.59459857,1.71019167 7.51904143,1.15704145 C7.44287,0.603891233 7.01778429,0.205037601 6.56874143,0.265414527" id="Fill-303" fill="#256E9F"></path>
                    </g>
                    <g id="Group-308" transform="translate(25.000000, 65.000000)">
                        <mask id="mask-44" fill="white">
                            <use xlink:href="#path-43"></use>
                        </mask>
                        <g id="Clip-307"></g>
                        <path d="M0.005625,3.54359649 C0.005625,3.85184211 0.306988636,4.10236842 0.677784091,4.10236842 L0.677784091,4.10236842 C1.04931818,4.10236842 1.35068182,3.85184211 1.35068182,3.54359649 L1.35068182,3.54359649 C1.35068182,2.17798246 2.0125,1.2722807 2.45125,1.2722807 L2.45125,1.2722807 C2.88926136,1.2722807 3.55181818,2.17798246 3.55181818,3.54359649 L3.55181818,3.54359649 C3.55181818,4.90921053 2.88926136,5.81491228 2.45125,5.81491228 L2.45125,5.81491228 C2.07971591,5.81491228 1.77909091,6.06482456 1.77909091,6.37368421 L1.77909091,6.37368421 C1.77909091,6.68192982 2.07971591,6.93245614 2.45125,6.93245614 L2.45125,6.93245614 C3.84579545,6.93245614 4.896875,5.47473684 4.896875,3.54359649 L4.896875,3.54359649 C4.896875,1.61122807 3.84579545,0.154736842 2.45125,0.154736842 L2.45125,0.154736842 C1.05744318,0.154736842 0.005625,1.61122807 0.005625,3.54359649" id="Fill-306" fill="url(#linearGradient-45)" mask="url(#mask-44)"></path>
                    </g>
                    <g id="Group-311" transform="translate(29.000000, 65.000000)">
                        <mask id="mask-47" fill="white">
                            <use xlink:href="#path-46"></use>
                        </mask>
                        <g id="Clip-310"></g>
                        <path d="M0.0277840909,3.54359649 C0.0277840909,3.85184211 0.328409091,4.10236842 0.699943182,4.10236842 L0.699943182,4.10236842 C1.07147727,4.10236842 1.37210227,3.85184211 1.37210227,3.54359649 L1.37210227,3.54359649 C1.37210227,2.17798246 2.03465909,1.2722807 2.47340909,1.2722807 L2.47340909,1.2722807 C2.91142045,1.2722807 3.57471591,2.17798246 3.57471591,3.54359649 L3.57471591,3.54359649 C3.57471591,4.90921053 2.91142045,5.81491228 2.47340909,5.81491228 L2.47340909,5.81491228 C2.101875,5.81491228 1.80125,6.06482456 1.80125,6.37368421 L1.80125,6.37368421 C1.80125,6.68192982 2.101875,6.93245614 2.47340909,6.93245614 L2.47340909,6.93245614 C3.86795455,6.93245614 4.91903409,5.47473684 4.91903409,3.54359649 L4.91903409,3.54359649 C4.91903409,1.61122807 3.86795455,0.154736842 2.47340909,0.154736842 L2.47340909,0.154736842 C1.07886364,0.154736842 0.0277840909,1.61122807 0.0277840909,3.54359649" id="Fill-309" fill="url(#linearGradient-48)" mask="url(#mask-47)"></path>
                    </g>
                    <g id="Group-314" transform="translate(36.000000, 65.000000)">
                        <mask id="mask-50" fill="white">
                            <use xlink:href="#path-49"></use>
                        </mask>
                        <g id="Clip-313"></g>
                        <path d="M0.0492045455,3.54359649 C0.0492045455,3.85184211 0.350568182,4.10236842 0.722102273,4.10236842 L0.722102273,4.10236842 C1.09289773,4.10236842 1.39426136,3.85184211 1.39426136,3.54359649 L1.39426136,3.54359649 C1.39426136,2.17798246 2.05681818,1.2722807 2.49482955,1.2722807 L2.49482955,1.2722807 C2.93357955,1.2722807 3.596875,2.17798246 3.596875,3.54359649 L3.596875,3.54359649 C3.596875,4.90921053 2.93357955,5.81491228 2.49482955,5.81491228 L2.49482955,5.81491228 C2.12329545,5.81491228 1.82267045,6.06482456 1.82267045,6.37368421 L1.82267045,6.37368421 C1.82267045,6.68192982 2.12329545,6.93245614 2.49482955,6.93245614 L2.49482955,6.93245614 C3.89011364,6.93245614 4.94119318,5.47473684 4.94119318,3.54359649 L4.94119318,3.54359649 C4.94119318,1.61122807 3.89011364,0.154736842 2.49482955,0.154736842 L2.49482955,0.154736842 C1.10102273,0.154736842 0.0492045455,1.61122807 0.0492045455,3.54359649" id="Fill-312" fill="url(#linearGradient-51)" mask="url(#mask-50)"></path>
                    </g>
                    <g id="Group-317" transform="translate(41.000000, 65.000000)">
                        <mask id="mask-53" fill="white">
                            <use xlink:href="#path-52"></use>
                        </mask>
                        <g id="Clip-316"></g>
                        <path d="M0.0713636364,3.54359649 C0.0713636364,3.85184211 0.372727273,4.10236842 0.744261364,4.10236842 L0.744261364,4.10236842 C1.11505682,4.10236842 1.41642045,3.85184211 1.41642045,3.54359649 L1.41642045,3.54359649 C1.41642045,2.17798246 2.07897727,1.2722807 2.51698864,1.2722807 L2.51698864,1.2722807 C2.95573864,1.2722807 3.61829545,2.17798246 3.61829545,3.54359649 L3.61829545,3.54359649 C3.61829545,4.90921053 2.95573864,5.81491228 2.51698864,5.81491228 L2.51698864,5.81491228 C2.14619318,5.81491228 1.84482955,6.06482456 1.84482955,6.37368421 L1.84482955,6.37368421 C1.84482955,6.68192982 2.14619318,6.93245614 2.51698864,6.93245614 L2.51698864,6.93245614 C3.91153409,6.93245614 4.96261364,5.47473684 4.96261364,3.54359649 L4.96261364,3.54359649 C4.96261364,1.61122807 3.91153409,0.154736842 2.51698864,0.154736842 L2.51698864,0.154736842 C1.12318182,0.154736842 0.0713636364,1.61122807 0.0713636364,3.54359649" id="Fill-315" fill="url(#linearGradient-54)" mask="url(#mask-53)"></path>
                    </g>
                    <g id="Group-320" transform="translate(46.000000, 65.000000)">
                        <mask id="mask-56" fill="white">
                            <use xlink:href="#path-55"></use>
                        </mask>
                        <g id="Clip-319"></g>
                        <path d="M0.0942613636,3.54359649 C0.0942613636,3.85184211 0.394147727,4.10236842 0.765681818,4.10236842 L0.765681818,4.10236842 C1.13721591,4.10236842 1.43784091,3.85184211 1.43784091,3.54359649 L1.43784091,3.54359649 C1.43784091,2.17798246 2.10113636,1.2722807 2.53914773,1.2722807 L2.53914773,1.2722807 C2.97789773,1.2722807 3.64045455,2.17798246 3.64045455,3.54359649 L3.64045455,3.54359649 C3.64045455,4.90921053 2.97789773,5.81491228 2.53914773,5.81491228 L2.53914773,5.81491228 C2.16835227,5.81491228 1.86698864,6.06482456 1.86698864,6.37368421 L1.86698864,6.37368421 C1.86698864,6.68192982 2.16835227,6.93245614 2.53914773,6.93245614 L2.53914773,6.93245614 C3.93369318,6.93245614 4.98477273,5.47473684 4.98477273,3.54359649 L4.98477273,3.54359649 C4.98477273,1.61122807 3.93369318,0.154736842 2.53914773,0.154736842 L2.53914773,0.154736842 C1.14460227,0.154736842 0.0942613636,1.61122807 0.0942613636,3.54359649" id="Fill-318" fill="url(#linearGradient-57)" mask="url(#mask-56)"></path>
                    </g>
                    <g id="Group-323" transform="translate(52.000000, 65.000000)">
                        <mask id="mask-59" fill="white">
                            <use xlink:href="#path-58"></use>
                        </mask>
                        <g id="Clip-322"></g>
                        <path d="M0.114878472,3.54359649 C0.114878472,3.85184211 0.413415799,4.10236842 0.782369792,4.10236842 L0.782369792,4.10236842 C1.15059028,4.10236842 1.44986111,3.85184211 1.44986111,3.54359649 L1.44986111,3.54359649 C1.44986111,2.17798246 2.10781684,1.2722807 2.54351997,1.2722807 L2.54351997,1.2722807 C2.97848958,1.2722807 3.63717882,2.17798246 3.63717882,3.54359649 L3.63717882,3.54359649 C3.63717882,4.90921053 2.97848958,5.81491228 2.54351997,5.81491228 L2.54351997,5.81491228 C2.17456597,5.81491228 1.87602865,6.06482456 1.87602865,6.37368421 L1.87602865,6.37368421 C1.87602865,6.68192982 2.17456597,6.93245614 2.54351997,6.93245614 L2.54351997,6.93245614 C3.92838108,6.93245614 4.97216146,5.47473684 4.97216146,3.54359649 L4.97216146,3.54359649 C4.97216146,1.61122807 3.92838108,0.154736842 2.54351997,0.154736842 L2.54351997,0.154736842 C1.15865885,0.154736842 0.114878472,1.61122807 0.114878472,3.54359649" id="Fill-321" fill="url(#linearGradient-60)" mask="url(#mask-59)"></path>
                    </g>
                    <g id="Group-326" transform="translate(57.000000, 65.000000)">
                        <mask id="mask-62" fill="white">
                            <use xlink:href="#path-61"></use>
                        </mask>
                        <g id="Clip-325"></g>
                        <path d="M0.136883681,3.54359649 C0.136883681,3.85184211 0.435421007,4.10236842 0.804375,4.10236842 L0.804375,4.10236842 C1.17259549,4.10236842 1.47186632,3.85184211 1.47186632,3.54359649 L1.47186632,3.54359649 C1.47186632,2.17798246 2.12982205,1.2722807 2.56552517,1.2722807 L2.56552517,1.2722807 C3.00049479,1.2722807 3.65918403,2.17798246 3.65918403,3.54359649 L3.65918403,3.54359649 C3.65918403,4.90921053 3.00049479,5.81491228 2.56552517,5.81491228 L2.56552517,5.81491228 C2.19657118,5.81491228 1.89730035,6.06482456 1.89730035,6.37368421 L1.89730035,6.37368421 C1.89730035,6.68192982 2.19657118,6.93245614 2.56552517,6.93245614 L2.56552517,6.93245614 C3.94965278,6.93245614 4.99416667,5.47473684 4.99416667,3.54359649 L4.99416667,3.54359649 C4.99416667,1.61122807 3.94965278,0.154736842 2.56552517,0.154736842 L2.56552517,0.154736842 C1.18066406,0.154736842 0.136883681,1.61122807 0.136883681,3.54359649" id="Fill-324" fill="url(#linearGradient-63)" mask="url(#mask-62)"></path>
                    </g>
                    <g id="Group-329" transform="translate(42.000000, 112.000000)">
                        <mask id="mask-65" fill="white">
                            <use xlink:href="#path-64"></use>
                        </mask>
                        <g id="Clip-328"></g>
                        <g id="Fill-327" mask="url(#mask-65)">
                            <use fill="url(#linearGradient-66)" xlink:href="#path-68"></use>
                            <use fill="url(#linearGradient-67)" xlink:href="#path-68"></use>
                        </g>
                    </g>
                    <g id="Group-332" transform="translate(30.000000, 81.000000)">
                        <mask id="mask-70" fill="white">
                            <use xlink:href="#path-69"></use>
                        </mask>
                        <g id="Clip-331"></g>
                        <g id="Fill-330" mask="url(#mask-70)">
                            <use fill="url(#linearGradient-71)" xlink:href="#path-72"></use>
                            <use fill="#0D69B6" xlink:href="#path-72"></use>
                        </g>
                    </g>
                    <g id="Group-341" transform="translate(103.000000, 65.000000)" fill="#FFFFFF">
                        <path d="M10.3870878,25.2458096 C10.1982797,21.4066425 8.83904689,17.9248087 6.42953993,15.2897465 C5.59080513,14.3725911 4.32435268,15.8446959 5.1658709,16.7650998 C7.23162648,19.0244207 8.43684386,21.9388526 8.59967346,25.2458096 C8.66554755,26.5803953 10.4534258,26.5890579 10.3870878,25.2458096" id="Fill-333"></path>
                        <path d="M10.0833333,30 C11.3045701,30 11.3065406,28.125 10.0833333,28.125 C8.86209658,28.125 8.86012604,30 10.0833333,30" id="Fill-335"></path>
                        <path d="M0.103294355,0.773937785 C0.924194778,1.87619475 1.3521711,3.10953997 1.35499789,4.48122513 C1.35669397,5.17236702 2.44557428,5.17348267 2.44444444,4.48122513 C2.44105141,2.93773068 1.97067321,1.47679395 1.04405076,0.231734459 C0.633035193,-0.319951846 -0.312244082,0.215557611 0.103294355,0.773937785" id="Fill-337"></path>
                        <path d="M1.52777778,6.875 C1.93485683,6.875 1.93551341,5.625 1.52777778,5.625 C1.12069873,5.625 1.12004215,6.875 1.52777778,6.875" id="Fill-339"></path>
                    </g>
                </g>
            </g>
        </g>
    </g>
</svg>