<svg width="116" height="69" xmlns="http://www.w3.org/2000/svg" xmlns:xlink="http://www.w3.org/1999/xlink"><defs><path d="M0 5c0 2.762 2.015 5 4.5 5S9 7.762 9 5c0-2.761-2.015-5-4.5-5S0 2.239 0 5" id="a"/><path d="M0 5c0 2.762 2.015 5 4.5 5S9 7.762 9 5c0-2.761-2.015-5-4.5-5S0 2.239 0 5" id="d"/><path d="M27.066 1.85c-8.291 2.713-15.517 8.286-20.528 15.36-4.913 6.935-9.403 16.722-4.252 24.692 2.85 4.407 7.902 7.077 13.134 7.849.414.06.829.11 1.244.147 5.13.46 10.496-.671 15.214-2.67 4.672-1.98 9.552-1.434 14.507-.678 5.764.88 11.854 1.967 17.267-.188 7.075-2.817 11.087-10.713 11.334-18.288.008-.261.013-.522.014-.784v-.147c-.01-3.887-.88-7.799-2.822-11.165C66.005 5.287 52.188 0 39.432 0 35.07 0 30.83.619 27.066 1.85" id="f"/><path d="M27.066 1.85c-8.291 2.713-15.517 8.286-20.528 15.36-4.913 6.935-9.403 16.722-4.252 24.692 2.85 4.407 7.902 7.077 13.134 7.849.414.06.829.11 1.244.147 5.13.46 10.496-.671 15.214-2.67 4.672-1.98 9.552-1.434 14.507-.678 5.764.88 11.854 1.967 17.267-.188 7.075-2.817 11.087-10.713 11.334-18.288.008-.261.013-.522.014-.784v-.147c-.01-3.887-.88-7.799-2.822-11.165C66.005 5.287 52.188 0 39.432 0 35.07 0 30.83.619 27.066 1.85" id="i"/><path d="M5.772 0c-.191.002-.382.01-.573.023C.419.365-1.531 6 1.342 9.428c1.448 1.73 3.798 2.638 6.089 2.568 3.302-.1 5.716-2.798 5.562-5.98C12.807 2.174 9.546.036 5.953 0h-.181z" id="k"/><path d="M5.772 0c-.191.002-.382.01-.573.023C.419.365-1.531 6 1.342 9.428c1.448 1.73 3.798 2.638 6.089 2.568 3.302-.1 5.716-2.798 5.562-5.98C12.807 2.174 9.546.036 5.953 0h-.181z" id="n"/><path d="M1.116.372c-1.881 1.11-1.145 3.206.446 4.166.77.464 1.805.671 2.557.178.728-.477.95-1.448.863-2.305C4.842 1.029 3.714 0 2.43 0c-.43 0-.879.116-1.313.372" id="p"/><path d="M2.926.209C1.316.209 0 1.477 0 3.026c0 1.55 1.316 2.817 2.926 2.817h68.988c1.609 0 2.925-1.267 2.925-2.817 0-1.55-1.316-2.817-2.925-2.817H2.926z" id="s"/><path d="M1.327.032C.671.032.134.435.134.927s.537.894 1.193.894h7.161c.656 0 1.194-.402 1.194-.894S9.144.032 8.488.032h-7.16z" id="v"/><path id="y" d="M.18 41.92h29.782L7.825.247z"/><path id="B" d="M.18 41.92h29.782L7.825.247z"/><path id="C" d="M.188 8.913H15.97L8.217.09z"/><path id="F" d="M.188 8.913H15.97L8.217.09z"/><path id="H" d="M.025.09L7.41 8.914 11.95.09z"/><path id="K" d="M.025.09L7.41 8.914 11.95.09z"/><path id="M" d="M.025.259l1.49 8.676.346 2.018h40.11l-.345-2.018-1.49-8.676z"/><path id="P" d="M.025.259l1.49 8.676.346 2.018h40.11l-.345-2.018-1.49-8.676z"/><path d="M.006 3.544c0 .308.301.558.672.558.371 0 .673-.25.673-.558 0-1.366.662-2.272 1.1-2.272.438 0 1.1.906 1.1 2.272 0 1.365-.662 2.27-1.1 2.27-.371 0-.672.25-.672.56 0 .308.3.558.672.558 1.395 0 2.446-1.457 2.446-3.388 0-1.933-1.051-3.39-2.446-3.39C1.057.155.006 1.612.006 3.545" id="Q"/><path d="M.028 3.544c0 .308.3.558.672.558.371 0 .672-.25.672-.558 0-1.366.663-2.272 1.101-2.272.438 0 1.102.906 1.102 2.272 0 1.365-.664 2.27-1.102 2.27-.371 0-.672.25-.672.56 0 .308.3.558.672.558 1.395 0 2.446-1.457 2.446-3.388 0-1.933-1.051-3.39-2.446-3.39C1.08.155.028 1.612.028 3.545" id="T"/><path d="M.05 3.544c0 .308.3.558.672.558.37 0 .672-.25.672-.558 0-1.366.663-2.272 1.1-2.272.44 0 1.103.906 1.103 2.272 0 1.365-.663 2.27-1.102 2.27-.372 0-.672.25-.672.56 0 .308.3.558.672.558 1.395 0 2.446-1.457 2.446-3.388 0-1.933-1.05-3.39-2.446-3.39C1.1.155.049 1.612.049 3.545" id="W"/><path d="M.071 3.544c0 .308.302.558.673.558.371 0 .672-.25.672-.558 0-1.366.663-2.272 1.101-2.272.439 0 1.101.906 1.101 2.272 0 1.365-.662 2.27-1.101 2.27-.37 0-.672.25-.672.56 0 .308.301.558.672.558 1.395 0 2.446-1.457 2.446-3.388 0-1.933-1.051-3.39-2.446-3.39C1.123.155.071 1.612.071 3.545" id="Z"/><path d="M.094 3.544c0 .308.3.558.672.558.371 0 .672-.25.672-.558 0-1.366.663-2.272 1.101-2.272.439 0 1.101.906 1.101 2.272 0 1.365-.662 2.27-1.1 2.27-.372 0-.673.25-.673.56 0 .308.301.558.672.558 1.395 0 2.446-1.457 2.446-3.388 0-1.933-1.051-3.39-2.446-3.39C1.145.155.094 1.612.094 3.545" id="ac"/><path d="M.115 3.544c0 .308.298.558.667.558.369 0 .668-.25.668-.558 0-1.366.658-2.272 1.094-2.272.434 0 1.093.906 1.093 2.272 0 1.365-.659 2.27-1.093 2.27-.37 0-.668.25-.668.56 0 .308.299.558.668.558 1.384 0 2.428-1.457 2.428-3.388 0-1.933-1.044-3.39-2.428-3.39-1.385 0-2.43 1.457-2.43 3.39" id="af"/><path d="M.137 3.544c0 .308.298.558.667.558.369 0 .668-.25.668-.558 0-1.366.658-2.272 1.094-2.272.434 0 1.093.906 1.093 2.272 0 1.365-.659 2.27-1.093 2.27-.37 0-.669.25-.669.56 0 .308.3.558.669.558 1.384 0 2.428-1.457 2.428-3.388 0-1.933-1.044-3.39-2.428-3.39-1.385 0-2.43 1.457-2.43 3.39" id="ai"/><path d="M2.847.348C1.4.348.215 1.619.215 3.174.215 4.728 1.4 6 2.847 6h30.198c1.447 0 2.631-1.272 2.631-2.826 0-1.555-1.184-2.826-2.631-2.826H2.847z" id="al"/><path d="M2.847.348C1.4.348.215 1.619.215 3.174.215 4.728 1.4 6 2.847 6h30.198c1.447 0 2.631-1.272 2.631-2.826 0-1.555-1.184-2.826-2.631-2.826H2.847z" id="ao"/><path d="M4.144.347c-.783.089-.792 1.396 0 1.304 2.189-.252 4.783-.103 6.02 2.152 1.386 2.524-.226 5.748-2.727 6.588-2.013.675-4.972.24-5.728-2.162C.641 4.836 3.962 2.53 6.817 3.099c.778.154 1.111-1.103.328-1.26C3.84 1.182.263 3.258.3 7.127c.033 3.57 3.341 5.187 6.336 4.772 3.212-.445 5.964-3.735 5.165-7.26C11.064 1.39 8.232.272 5.421.27c-.428 0-.856.027-1.277.076" id="aq"/><path d="M4.144.347c-.783.089-.792 1.396 0 1.304 2.189-.252 4.783-.103 6.02 2.152 1.386 2.524-.226 5.748-2.727 6.588-2.013.675-4.972.24-5.728-2.162C.641 4.836 3.962 2.53 6.817 3.099c.778.154 1.111-1.103.328-1.26C3.84 1.182.263 3.258.3 7.127c.033 3.57 3.341 5.187 6.336 4.772 3.212-.445 5.964-3.735 5.165-7.26C11.064 1.39 8.232.272 5.421.27c-.428 0-.856.027-1.277.076" id="at"/><linearGradient x1="46.837%" y1="116.885%" x2="53.753%" y2="-29.325%" id="c"><stop stop-color="#F479CD" offset="0%"/><stop stop-color="#7C67FF" offset="100%"/></linearGradient><linearGradient x1="50%" y1="0%" x2="50%" y2="100%" id="e"><stop stop-color="#FFDA5A" offset="0%"/><stop stop-color="#FFF" stop-opacity=".5" offset="100%"/></linearGradient><linearGradient x1="0%" y1="50%" x2="100%" y2="50%" id="h"><stop stop-color="#12DFCD" offset="0%"/><stop stop-color="#3BD3FF" offset="100%"/></linearGradient><linearGradient x1="100%" y1="50%" x2=".583%" y2="50%" id="j"><stop stop-color="#2AA6FF" offset="0%"/><stop stop-color="#FFF" stop-opacity=".5" offset="100%"/></linearGradient><linearGradient x1="46.322%" y1="106.655%" x2="54.372%" y2="-17.23%" id="m"><stop stop-color="#12DFCD" offset="0%"/><stop stop-color="#3BD3FF" offset="100%"/></linearGradient><linearGradient x1="100%" y1="50%" x2=".583%" y2="50%" id="o"><stop stop-color="#2AA6FF" offset="0%"/><stop stop-color="#FFF" stop-opacity=".5" offset="100%"/></linearGradient><linearGradient x1="50%" y1="0%" x2="50%" y2="100%" id="q"><stop stop-color="#FFDA5A" offset="0%"/><stop stop-color="#F7C20B" offset="100%"/></linearGradient><linearGradient x1="50%" y1="0%" x2="50%" y2="100%" id="t"><stop stop-color="#FFDA5A" offset="0%"/><stop stop-color="#F7C20B" offset="100%"/></linearGradient><linearGradient x1="50%" y1="0%" x2="50%" y2="100%" id="w"><stop stop-color="#FFDA5A" offset="0%"/><stop stop-color="#F7C20B" offset="100%"/></linearGradient><linearGradient x1="-.002%" y1="50%" x2="100%" y2="50%" id="A"><stop stop-color="#12DFCD" offset="0%"/><stop stop-color="#128ACD" offset="100%"/></linearGradient><linearGradient x1="78.322%" y1="92.213%" x2="29.375%" y2="46.26%" id="E"><stop stop-color="#12DFCD" offset="0%"/><stop stop-color="#128ACD" offset="100%"/></linearGradient><linearGradient x1="50%" y1="0%" x2="50%" y2="100%" id="G"><stop stop-color="#3CB0FF" offset="0%"/><stop stop-color="#1772B0" offset="100%"/></linearGradient><linearGradient x1="-.003%" y1="49.997%" x2="99.999%" y2="49.997%" id="J"><stop stop-color="#12DFCD" offset="0%"/><stop stop-color="#128ACD" offset="100%"/></linearGradient><linearGradient x1="98.807%" y1="50%" x2="0%" y2="50%" id="L"><stop stop-color="#235C8B" offset="0%"/><stop stop-color="#249CEC" offset="100%"/></linearGradient><linearGradient x1="0%" y1="50.002%" x2="100%" y2="50.002%" id="O"><stop stop-color="#F479CD" offset="0%"/><stop stop-color="#7C67FF" offset="100%"/></linearGradient><linearGradient x1="45.521%" y1="-208.399%" x2="51.676%" y2="146.11%" id="R"><stop stop-color="#12DFCD" offset="0%"/><stop stop-color="#3BD3FF" offset="100%"/></linearGradient><linearGradient x1="45.491%" y1="-210.034%" x2="51.647%" y2="144.475%" id="U"><stop stop-color="#12DFCD" offset="0%"/><stop stop-color="#3BD3FF" offset="100%"/></linearGradient><linearGradient x1="45.465%" y1="-211.67%" x2="51.621%" y2="142.84%" id="X"><stop stop-color="#12DFCD" offset="0%"/><stop stop-color="#3BD3FF" offset="100%"/></linearGradient><linearGradient x1=".006%" y1="49.997%" x2="100.006%" y2="49.997%" id="aa"><stop stop-color="#12DFCD" offset="0%"/><stop stop-color="#3BD3FF" offset="100%"/></linearGradient><linearGradient x1="45.406%" y1="-214.941%" x2="51.56%" y2="139.569%" id="ad"><stop stop-color="#12DFCD" offset="0%"/><stop stop-color="#3BD3FF" offset="100%"/></linearGradient><linearGradient x1="45.443%" y1="-216.576%" x2="51.513%" y2="137.933%" id="ag"><stop stop-color="#12DFCD" offset="0%"/><stop stop-color="#3BD3FF" offset="100%"/></linearGradient><linearGradient x1="45.414%" y1="-218.212%" x2="51.484%" y2="136.298%" id="aj"><stop stop-color="#12DFCD" offset="0%"/><stop stop-color="#3BD3FF" offset="100%"/></linearGradient><linearGradient x1="50%" y1="0%" x2="50%" y2="100%" id="an"><stop stop-color="#FFDA5A" offset="0%"/><stop stop-color="#F7C20B" offset="100%"/></linearGradient><linearGradient x1="100%" y1="50%" x2="3.273%" y2="50%" id="ap"><stop stop-color="#2AA6FF" offset="0%"/><stop stop-color="#88E2F2" offset="100%"/></linearGradient><linearGradient x1="-.001%" y1="50.001%" x2="99.998%" y2="50.001%" id="as"><stop stop-color="#F479CD" offset="0%"/><stop stop-color="#7C67FF" offset="100%"/></linearGradient></defs><g fill="none" fill-rule="evenodd"><g fill="#4677BC"><path d="M.635 60.714a.64.64 0 01.635.643.64.64 0 01-.635.643.64.64 0 01-.635-.643.64.64 0 01.635-.643M.635 50.429a.64.64 0 01.635.642.64.64 0 01-.635.643.64.64 0 01-.635-.643.64.64 0 01.635-.642M.635 40.571a.64.64 0 01.635.643.638.638 0 01-.635.643.638.638 0 01-.635-.643.64.64 0 01.635-.643M.635 30.714a.64.64 0 01.635.643.64.64 0 01-.635.643.64.64 0 01-.635-.643.64.64 0 01.635-.643M.635 20.857a.64.64 0 01.635.643.64.64 0 01-.635.643A.64.64 0 010 21.5a.64.64 0 01.635-.643M.635 11.429c.35 0 .635.287.635.642a.64.64 0 01-.635.643.64.64 0 01-.635-.643c0-.355.284-.642.635-.642M9.1 60.714a.64.64 0 01.635.643.64.64 0 01-.634.643.64.64 0 01-.635-.643.64.64 0 01.635-.643M9.1 50.429a.64.64 0 01.635.642.64.64 0 01-.634.643.64.64 0 01-.635-.643.64.64 0 01.635-.642M9.1 40.571a.64.64 0 01.635.643.638.638 0 01-.634.643.638.638 0 01-.635-.643.64.64 0 01.635-.643M9.1 30.714a.64.64 0 01.635.643.64.64 0 01-.634.643.64.64 0 01-.635-.643.64.64 0 01.635-.643M9.1 20.857a.64.64 0 01.635.643.64.64 0 01-.634.643.64.64 0 01-.635-.643.64.64 0 01.635-.643M9.1 11.429c.351 0 .635.287.635.642a.64.64 0 01-.634.643.64.64 0 01-.635-.643c0-.355.284-.642.635-.642M17.566 60.714a.64.64 0 01.635.643.64.64 0 01-.635.643.64.64 0 01-.635-.643.64.64 0 01.635-.643M17.566 50.429a.64.64 0 01.635.642.64.64 0 01-.635.643.64.64 0 01-.635-.643.64.64 0 01.635-.642M17.566 40.571a.64.64 0 01.635.643.638.638 0 01-.635.643.638.638 0 01-.635-.643.64.64 0 01.635-.643M17.566 30.714a.64.64 0 01.635.643.64.64 0 01-.635.643.64.64 0 01-.635-.643.64.64 0 01.635-.643M17.566 20.857a.64.64 0 01.635.643.64.64 0 01-.635.643.64.64 0 01-.635-.643.64.64 0 01.635-.643M17.566 11.429c.35 0 .635.287.635.642a.64.64 0 01-.635.643.64.64 0 01-.635-.643c0-.355.285-.642.635-.642M26.455 60.714a.64.64 0 01.635.643.64.64 0 01-.635.643.64.64 0 01-.635-.643.64.64 0 01.635-.643M26.455 50.429a.64.64 0 01.635.642.64.64 0 01-.635.643.64.64 0 01-.635-.643.64.64 0 01.635-.642M26.455 40.571a.64.64 0 01.635.643.638.638 0 01-.635.643.638.638 0 01-.635-.643.64.64 0 01.635-.643M26.455 30.714a.64.64 0 01.635.643.64.64 0 01-.635.643.64.64 0 01-.635-.643.64.64 0 01.635-.643M26.455 20.857a.64.64 0 01.635.643.64.64 0 01-.635.643.64.64 0 01-.635-.643.64.64 0 01.635-.643M26.455 11.429c.35 0 .635.287.635.642a.64.64 0 01-.635.643.64.64 0 01-.635-.643c0-.355.285-.642.635-.642M34.92 60.714a.64.64 0 01.636.643.64.64 0 01-.635.643.64.64 0 01-.635-.643.64.64 0 01.635-.643M34.92 50.429a.64.64 0 01.636.642.64.64 0 01-.635.643.64.64 0 01-.635-.643.64.64 0 01.635-.642M34.92 40.571a.64.64 0 01.636.643.638.638 0 01-.635.643.638.638 0 01-.635-.643.64.64 0 01.635-.643M34.92 30.714a.64.64 0 01.636.643.64.64 0 01-.635.643.64.64 0 01-.635-.643.64.64 0 01.635-.643M34.92 20.857a.64.64 0 01.636.643.64.64 0 01-.635.643.64.64 0 01-.635-.643.64.64 0 01.635-.643M34.92 11.429c.351 0 .636.287.636.642a.64.64 0 01-.635.643.64.64 0 01-.635-.643c0-.355.284-.642.635-.642M45.08 60.714c.35 0 .634.288.634.643a.638.638 0 01-.635.643.64.64 0 01-.635-.643.64.64 0 01.635-.643M45.08 50.429c.35 0 .634.288.634.642a.638.638 0 01-.635.643.64.64 0 01-.635-.643.64.64 0 01.635-.642M45.08 40.571c.35 0 .634.288.634.643a.638.638 0 01-.635.643.638.638 0 01-.635-.643.64.64 0 01.635-.643M45.08 30.714c.35 0 .634.288.634.643a.638.638 0 01-.635.643.64.64 0 01-.635-.643.64.64 0 01.635-.643M45.08 20.857c.35 0 .634.288.634.643a.638.638 0 01-.635.643.64.64 0 01-.635-.643.64.64 0 01.635-.643M45.08 11.429c.35 0 .634.287.634.642a.638.638 0 01-.635.643.64.64 0 01-.635-.643c0-.355.285-.642.635-.642M53.122 60.714a.64.64 0 01.635.643.64.64 0 01-.635.643.638.638 0 01-.635-.643c0-.355.283-.643.635-.643M53.122 50.429a.64.64 0 01.635.642.64.64 0 01-.635.643.638.638 0 01-.635-.643c0-.354.283-.642.635-.642M53.122 40.571a.64.64 0 01.635.643.638.638 0 01-.635.643.638.638 0 01-.635-.643c0-.355.283-.643.635-.643M53.122 30.714a.64.64 0 01.635.643.64.64 0 01-.635.643.638.638 0 01-.635-.643c0-.355.283-.643.635-.643M53.122 20.857a.64.64 0 01.635.643.64.64 0 01-.635.643.638.638 0 01-.635-.643c0-.355.283-.643.635-.643M53.122 11.429c.35 0 .635.287.635.642a.64.64 0 01-.635.643.638.638 0 01-.635-.643c0-.355.283-.642.635-.642M62.01 60.714c.352 0 .636.288.636.643a.638.638 0 01-.635.643.64.64 0 01-.635-.643.64.64 0 01.635-.643M62.01 50.429c.352 0 .636.288.636.642a.638.638 0 01-.635.643.64.64 0 01-.635-.643.64.64 0 01.635-.642M62.01 40.571c.352 0 .636.288.636.643a.638.638 0 01-.635.643.638.638 0 01-.635-.643.64.64 0 01.635-.643M62.01 30.714c.352 0 .636.288.636.643a.638.638 0 01-.635.643.64.64 0 01-.635-.643.64.64 0 01.635-.643M62.01 20.857c.352 0 .636.288.636.643a.638.638 0 01-.635.643.64.64 0 01-.635-.643.64.64 0 01.635-.643M62.01 11.429c.352 0 .636.287.636.642a.638.638 0 01-.635.643.64.64 0 01-.635-.643c0-.355.284-.642.635-.642M70.476 60.714c.352 0 .635.288.635.643a.638.638 0 01-.635.643.64.64 0 01-.635-.643.64.64 0 01.635-.643M70.476 50.429c.352 0 .635.288.635.642a.638.638 0 01-.635.643.64.64 0 01-.635-.643.64.64 0 01.635-.642M70.476 40.571c.352 0 .635.288.635.643a.638.638 0 01-.635.643.638.638 0 01-.635-.643.64.64 0 01.635-.643M70.476 30.714c.352 0 .635.288.635.643a.638.638 0 01-.635.643.64.64 0 01-.635-.643.64.64 0 01.635-.643M70.476 20.857c.352 0 .635.288.635.643a.638.638 0 01-.635.643.64.64 0 01-.635-.643.64.64 0 01.635-.643M70.476 11.429c.352 0 .635.287.635.642a.638.638 0 01-.635.643.64.64 0 01-.635-.643c0-.355.285-.642.635-.642M79.365 60.714a.64.64 0 01.635.643.64.64 0 01-.635.643.638.638 0 01-.635-.643c0-.355.284-.643.635-.643M79.365 50.429a.64.64 0 01.635.642.64.64 0 01-.635.643.638.638 0 01-.635-.643c0-.354.284-.642.635-.642M79.365 40.571a.64.64 0 01.635.643.638.638 0 01-.635.643.638.638 0 01-.635-.643c0-.355.284-.643.635-.643M79.365 30.714a.64.64 0 01.635.643.64.64 0 01-.635.643.638.638 0 01-.635-.643c0-.355.284-.643.635-.643M79.365 20.857A.64.64 0 0180 21.5a.64.64 0 01-.635.643.638.638 0 01-.635-.643c0-.355.284-.643.635-.643M79.365 11.429c.35 0 .635.287.635.642a.64.64 0 01-.635.643.638.638 0 01-.635-.643c0-.355.284-.642.635-.642M.635.286a.64.64 0 01.635.643.64.64 0 01-.635.642A.64.64 0 010 .93.64.64 0 01.635.286M9.1.286a.64.64 0 01.635.643.64.64 0 01-.634.642.64.64 0 01-.635-.642A.64.64 0 019.1.286M17.566.286a.64.64 0 01.635.643.64.64 0 01-.635.642.64.64 0 01-.635-.642.64.64 0 01.635-.643M26.455.286a.64.64 0 01.635.643.64.64 0 01-.635.642.64.64 0 01-.635-.642.64.64 0 01.635-.643M34.92.286a.64.64 0 01.636.643.64.64 0 01-.635.642.64.64 0 01-.635-.642.64.64 0 01.635-.643M45.08.286c.35 0 .634.288.634.643a.638.638 0 01-.635.642.64.64 0 01-.635-.642.64.64 0 01.635-.643M53.122.286a.64.64 0 01.635.643.64.64 0 01-.635.642.638.638 0 01-.635-.642c0-.355.283-.643.635-.643M62.01.286c.352 0 .636.288.636.643a.638.638 0 01-.635.642.64.64 0 01-.635-.642.64.64 0 01.635-.643M70.476.286c.352 0 .635.288.635.643a.638.638 0 01-.635.642.64.64 0 01-.635-.642.64.64 0 01.635-.643M79.365.286A.64.64 0 0180 .929a.64.64 0 01-.635.642.638.638 0 01-.635-.642c0-.355.284-.643.635-.643"/></g><g transform="translate(67 16)"><mask id="b" fill="#fff"><use xlink:href="#a"/></mask><g mask="url(#b)"><use fill="url(#c)" xlink:href="#d"/><use fill="url(#e)" xlink:href="#d"/></g></g><g transform="translate(41 17)"><mask id="g" fill="#fff"><use xlink:href="#f"/></mask><g mask="url(#g)"><use fill="url(#h)" xlink:href="#i"/><use fill="url(#j)" xlink:href="#i"/></g></g><g transform="translate(93 13)"><mask id="l" fill="#fff"><use xlink:href="#k"/></mask><g mask="url(#l)"><use fill="url(#m)" xlink:href="#n"/><use fill="url(#o)" xlink:href="#n"/></g></g><g transform="translate(110 25)"><mask id="r" fill="#fff"><use xlink:href="#p"/></mask><path d="M1.116.372c-1.881 1.11-1.145 3.206.446 4.166.77.464 1.805.671 2.557.178.728-.477.95-1.448.863-2.305C4.842 1.029 3.714 0 2.43 0c-.43 0-.879.116-1.313.372" fill="url(#q)" mask="url(#r)"/></g><g transform="translate(7 59)"><mask id="u" fill="#fff"><use xlink:href="#s"/></mask><path d="M2.926.209C1.316.209 0 1.477 0 3.026c0 1.55 1.316 2.817 2.926 2.817h68.988c1.609 0 2.925-1.267 2.925-2.817 0-1.55-1.316-2.817-2.925-2.817H2.926z" fill="url(#t)" mask="url(#u)"/></g><g transform="translate(30 67)"><mask id="x" fill="#fff"><use xlink:href="#v"/></mask><path d="M1.327.032C.671.032.134.435.134.927s.537.894 1.193.894h7.161c.656 0 1.194-.402 1.194-.894S9.144.032 8.488.032h-7.16z" fill="url(#w)" mask="url(#x)"/></g><g fill="#FFD249"><path d="M27.055 17.272c-.367 0-.923.906-.923 2.272 0 1.365.556 2.27.923 2.27s.923-.905.923-2.27c0-1.366-.556-2.272-.923-2.272m0 5.66c-1.168 0-2.05-1.457-2.05-3.388 0-1.933.882-3.39 2.05-3.39 1.17 0 2.05 1.457 2.05 3.39 0 1.931-.88 3.388-2.05 3.388M32.645 17.272c-.368 0-.923.906-.923 2.272 0 1.365.555 2.27.923 2.27.367 0 .923-.905.923-2.27 0-1.366-.556-2.272-.923-2.272m0 5.66c-1.169 0-2.05-1.457-2.05-3.388 0-1.933.881-3.39 2.05-3.39 1.169 0 2.05 1.457 2.05 3.39 0 1.931-.881 3.388-2.05 3.388M38.235 17.272c-.368 0-.923.906-.923 2.272 0 1.365.555 2.27.923 2.27.367 0 .923-.905.923-2.27 0-1.366-.556-2.272-.923-2.272m0 5.66c-1.169 0-2.05-1.457-2.05-3.388 0-1.933.881-3.39 2.05-3.39 1.168 0 2.05 1.457 2.05 3.39 0 1.931-.882 3.388-2.05 3.388M43.824 17.272c-.367 0-.922.906-.922 2.272 0 1.365.555 2.27.922 2.27.368 0 .923-.905.923-2.27 0-1.366-.555-2.272-.923-2.272m0 5.66c-1.168 0-2.05-1.457-2.05-3.388 0-1.933.882-3.39 2.05-3.39 1.17 0 2.05 1.457 2.05 3.39 0 1.931-.88 3.388-2.05 3.388M49.414 17.272c-.367 0-.923.906-.923 2.272 0 1.365.556 2.27.923 2.27s.923-.905.923-2.27c0-1.366-.556-2.272-.923-2.272m0 5.66c-1.169 0-2.05-1.457-2.05-3.388 0-1.933.881-3.39 2.05-3.39 1.169 0 2.05 1.457 2.05 3.39 0 1.931-.881 3.388-2.05 3.388M55.004 17.272c-.367 0-.923.906-.923 2.272 0 1.365.556 2.27.923 2.27.368 0 .923-.905.923-2.27 0-1.366-.555-2.272-.923-2.272m0 5.66c-1.169 0-2.05-1.457-2.05-3.388 0-1.933.881-3.39 2.05-3.39 1.169 0 2.05 1.457 2.05 3.39 0 1.931-.881 3.388-2.05 3.388M60.594 17.272c-.367 0-.923.906-.923 2.272 0 1.365.556 2.27.923 2.27s.923-.905.923-2.27c0-1.366-.556-2.272-.923-2.272m0 5.66c-1.169 0-2.05-1.457-2.05-3.388 0-1.933.881-3.39 2.05-3.39 1.168 0 2.05 1.457 2.05 3.39 0 1.931-.882 3.388-2.05 3.388"/></g><g transform="translate(15 18)"><mask id="z" fill="#fff"><use xlink:href="#y"/></mask><g mask="url(#z)"><use fill="url(#A)" xlink:href="#B"/><use fill="#256E9F" xlink:href="#B"/></g></g><g transform="translate(14 52)"><mask id="D" fill="#fff"><use xlink:href="#C"/></mask><g mask="url(#D)"><use fill="url(#E)" xlink:href="#F"/><use fill="url(#G)" xlink:href="#F"/></g></g><g transform="translate(22 52)"><mask id="I" fill="#fff"><use xlink:href="#H"/></mask><g mask="url(#I)"><use fill="url(#J)" xlink:href="#K"/><use fill="url(#L)" xlink:href="#K"/></g></g><path fill="#FFF" d="M71 61H31.397l-5.584-31.711-.342-1.943L24 19h39.604l1.47 8.346.342 1.943z"/><g transform="translate(23 18)"><mask id="N" fill="#fff"><use xlink:href="#M"/></mask><g mask="url(#N)"><use fill="url(#O)" xlink:href="#P"/><use fill="#F7C20B" xlink:href="#P"/></g></g><path d="M63.72 56.515l-.812-4.41h4.782l.81 4.41h-4.78zm-5.45 0l-.811-4.41h5.167l.812 4.41H58.27zm-5.448 0l-.811-4.41h5.167l.812 4.41h-5.168zm-5.449 0l-.812-4.41h5.167l.812 4.41h-5.167zm-5.448 0l-.812-4.41h5.168l.811 4.41h-5.167zm-5.45 0l-.81-4.41h5.166l.812 4.41h-5.167zm-5.237 0l-.81-4.41h4.956l.81 4.41h-4.956zm-1.699-9.248h4.956l.84 4.562h-4.958l-.838-4.562zm-.888-4.838h4.956l.838 4.563h-4.958l-.836-4.563zm-.89-4.835h4.958l.837 4.56h-4.957l-.838-4.56zm-.827-4.508h4.957l.778 4.233h-4.957l-.778-4.233zm10.405 0l.778 4.233h-5.17l-.776-4.233h5.168zm5.449 0l.778 4.233h-5.169l-.776-4.233h5.167zm5.447 0l.78 4.233h-5.17l-.777-4.233h5.167zm5.45 0l.779 4.233h-5.17l-.776-4.233h5.167zm5.448 0l.778 4.233h-5.169l-.776-4.233h5.167zm5.062 0l.78 4.233h-4.783l-.777-4.233h4.78zm1.666 9.069h-4.78l-.837-4.56h4.78l.837 4.56zm.888 4.837h-4.78l-.838-4.563h4.781l.837 4.563zm-10.18.275h5.168l.839 4.562h-5.167l-.84-4.562zm-5.447 0h5.167l.84 4.562H51.96l-.839-4.562zm-5.45 0h5.168l.839 4.562H46.51l-.838-4.562zm-5.447 0h5.167l.84 4.562h-5.168l-.84-4.562zm-.282 0l.839 4.562h-5.168l-.839-4.562h5.168zm-.887-4.838l.837 4.563h-5.168l-.839-4.563h5.17zm-.052-.274h-5.167l-.838-4.56h5.168l.837 4.56zm5.45 0h-5.168l-.837-4.56h5.167l.837 4.56zm5.447 0h-5.168l-.837-4.56h5.168l.837 4.56zm5.45 0h-5.168l-.837-4.56h5.167l.838 4.56zm.28 0l-.837-4.56h5.167l.837 4.56h-5.167zm.05.274h5.17l.836 4.563H56.52l-.839-4.563zm-5.448 0h5.17l.837 4.563h-5.168l-.839-4.563zm-4.89 4.563h-5.168l-.84-4.563h5.17l.837 4.563zm-.56-4.563h5.17l.837 4.563h-5.167l-.84-4.563zm22.855 9.4h-4.78l-.839-4.562h4.783l.836 4.562zm.333.275l-.05-.275-.84-4.562-.049-.275-.84-4.563-.049-.274-.839-4.56-.05-.276-.828-4.507H26.6l.829 4.507.05.275.838 4.56.05.275.84 4.563.05.275.838 4.562.05.275.862 4.686H68.832l-.861-4.686z" fill="#0ECCC6"/><path d="M27.016 22.265c-.449.061-.751.56-.676 1.112.076.553.501.952.95.891.45-.06.752-.558.676-1.111-.075-.553-.501-.952-.95-.892M61.282 23.157c-.076-.553-.501-.952-.95-.892-.45.061-.751.559-.675 1.112.075.553.5.952.95.891.448-.06.751-.558.675-1.111M54.78 22.265c-.45.061-.752.56-.676 1.112.075.553.5.952.95.891.449-.06.751-.558.676-1.111-.077-.553-.502-.952-.95-.892M49.227 22.265c-.45.061-.752.56-.676 1.112.076.553.501.952.95.891.45-.06.752-.558.676-1.111-.076-.553-.502-.952-.95-.892M43.674 22.265c-.45.061-.751.56-.676 1.112.076.553.501.952.95.891.45-.06.752-.558.676-1.111-.075-.553-.501-.952-.95-.892M38.121 22.265c-.449.061-.75.56-.675 1.112.076.553.5.952.95.891.449-.06.751-.558.676-1.111-.077-.553-.502-.952-.95-.892M32.569 22.265c-.45.061-.752.56-.676 1.112.076.553.501.952.95.891.45-.06.752-.558.676-1.111-.076-.553-.501-.952-.95-.892" fill="#256E9F"/><g transform="translate(25 16)"><mask id="S" fill="#fff"><use xlink:href="#Q"/></mask><path d="M.006 3.544c0 .308.301.558.672.558.371 0 .673-.25.673-.558 0-1.366.662-2.272 1.1-2.272.438 0 1.1.906 1.1 2.272 0 1.365-.662 2.27-1.1 2.27-.371 0-.672.25-.672.56 0 .308.3.558.672.558 1.395 0 2.446-1.457 2.446-3.388 0-1.933-1.051-3.39-2.446-3.39C1.057.155.006 1.612.006 3.545" fill="url(#R)" mask="url(#S)"/></g><g transform="translate(29 16)"><mask id="V" fill="#fff"><use xlink:href="#T"/></mask><path d="M.028 3.544c0 .308.3.558.672.558.371 0 .672-.25.672-.558 0-1.366.663-2.272 1.101-2.272.438 0 1.102.906 1.102 2.272 0 1.365-.664 2.27-1.102 2.27-.371 0-.672.25-.672.56 0 .308.3.558.672.558 1.395 0 2.446-1.457 2.446-3.388 0-1.933-1.051-3.39-2.446-3.39C1.08.155.028 1.612.028 3.545" fill="url(#U)" mask="url(#V)"/></g><g transform="translate(36 16)"><mask id="Y" fill="#fff"><use xlink:href="#W"/></mask><path d="M.05 3.544c0 .308.3.558.672.558.37 0 .672-.25.672-.558 0-1.366.663-2.272 1.1-2.272.44 0 1.103.906 1.103 2.272 0 1.365-.663 2.27-1.102 2.27-.372 0-.672.25-.672.56 0 .308.3.558.672.558 1.395 0 2.446-1.457 2.446-3.388 0-1.933-1.05-3.39-2.446-3.39C1.1.155.049 1.612.049 3.545" fill="url(#X)" mask="url(#Y)"/></g><g transform="translate(41 16)"><mask id="ab" fill="#fff"><use xlink:href="#Z"/></mask><path d="M.071 3.544c0 .308.302.558.673.558.371 0 .672-.25.672-.558 0-1.366.663-2.272 1.101-2.272.439 0 1.101.906 1.101 2.272 0 1.365-.662 2.27-1.101 2.27-.37 0-.672.25-.672.56 0 .308.301.558.672.558 1.395 0 2.446-1.457 2.446-3.388 0-1.933-1.051-3.39-2.446-3.39C1.123.155.071 1.612.071 3.545" fill="url(#aa)" mask="url(#ab)"/></g><g transform="translate(46 16)"><mask id="ae" fill="#fff"><use xlink:href="#ac"/></mask><path d="M.094 3.544c0 .308.3.558.672.558.371 0 .672-.25.672-.558 0-1.366.663-2.272 1.101-2.272.439 0 1.101.906 1.101 2.272 0 1.365-.662 2.27-1.1 2.27-.372 0-.673.25-.673.56 0 .308.301.558.672.558 1.395 0 2.446-1.457 2.446-3.388 0-1.933-1.051-3.39-2.446-3.39C1.145.155.094 1.612.094 3.545" fill="url(#ad)" mask="url(#ae)"/></g><g transform="translate(52 16)"><mask id="ah" fill="#fff"><use xlink:href="#af"/></mask><path d="M.115 3.544c0 .308.298.558.667.558.369 0 .668-.25.668-.558 0-1.366.658-2.272 1.094-2.272.434 0 1.093.906 1.093 2.272 0 1.365-.659 2.27-1.093 2.27-.37 0-.668.25-.668.56 0 .308.299.558.668.558 1.384 0 2.428-1.457 2.428-3.388 0-1.933-1.044-3.39-2.428-3.39-1.385 0-2.43 1.457-2.43 3.39" fill="url(#ag)" mask="url(#ah)"/></g><g transform="translate(57 16)"><mask id="ak" fill="#fff"><use xlink:href="#ai"/></mask><path d="M.137 3.544c0 .308.298.558.667.558.369 0 .668-.25.668-.558 0-1.366.658-2.272 1.094-2.272.434 0 1.093.906 1.093 2.272 0 1.365-.659 2.27-1.093 2.27-.37 0-.669.25-.669.56 0 .308.3.558.669.558 1.384 0 2.428-1.457 2.428-3.388 0-1.933-1.044-3.39-2.428-3.39-1.385 0-2.43 1.457-2.43 3.39" fill="url(#aj)" mask="url(#ak)"/></g><g transform="translate(42 63)"><mask id="am" fill="#fff"><use xlink:href="#al"/></mask><g mask="url(#am)"><use fill="url(#an)" xlink:href="#ao"/><use fill="url(#ap)" xlink:href="#ao"/></g></g><g transform="translate(30 32)"><mask id="ar" fill="#fff"><use xlink:href="#aq"/></mask><g mask="url(#ar)"><use fill="url(#as)" xlink:href="#at"/><use fill="#0D69B6" xlink:href="#at"/></g></g><g fill="#FFF"><path d="M113.387 41.246c-.189-3.84-1.548-7.321-3.957-9.956-.84-.917-2.106.555-1.264 1.475 2.066 2.26 3.27 5.174 3.434 8.48.066 1.335 1.853 1.344 1.787 0M113.083 46c1.222 0 1.224-1.875 0-1.875-1.22 0-1.223 1.875 0 1.875M103.103 16.774c.821 1.102 1.25 2.336 1.252 3.707.002.691 1.09.692 1.09 0a7.06 7.06 0 00-1.4-4.25c-.412-.551-1.357-.015-.942.543M104.528 22.875c.407 0 .408-1.25 0-1.25-.407 0-.408 1.25 0 1.25"/></g></g></svg>